<svg xmlns="http://www.w3.org/2000/svg" viewBox="0 0 304.688 375.028">
  <defs>
    <style>
      .cls-1 {
        fill: #00a3d2;
      }
    </style>
  </defs>
  <g id="cooking-on-fire" transform="translate(-35.17)">
    <g id="Group_2098" data-name="Group 2098">
      <rect id="Rectangle_84" data-name="Rectangle 84" class="cls-1" width="243.783" height="11.572" transform="translate(57.559 363.456)"/>
      <path id="Path_1019" data-name="Path 1019" class="cls-1" d="M175.988,355.473h83.19l-21.959-32.938-19.636,29.476-19.636-29.476-18.781,28.186-18.788-28.186-19.629,29.476-19.642-29.476L99.142,355.473h76.846Z"/>
      <path id="Path_1020" data-name="Path 1020" class="cls-1" d="M309.464,186.125c-4.346,1.534-9.923,6.675-13.56,10.369-.151-9.19-.453-15.58-.522-17.4h8.062V167.68H69.067v11.41h9.138c-.087,1.859-.406,8.545-.534,18.1-3.573-3.5-8.308-7.6-12.112-8.946-7.023-2.475-30.389,0-30.389,0V197.7s22.964-.8,27.9,2.068c4.961,2.869,10.276,27.164,14.407,27.164h.569c1.122,25.922,4.758,54.016,14.715,63.09H80.407v15.058h210.6V290.026h-10.2c10.2-9.318,13.8-38.736,14.826-65.182h1.882c4.112,0,9.458-24.306,14.407-27.164,4.926-2.881,27.932-2.092,27.932-2.092v-9.451C339.835,186.125,316.435,183.674,309.464,186.125Zm-202.74,84.661a86.274,86.274,0,0,1-6.071-15.639,79.505,79.505,0,0,1-2.126-9.389,58.28,58.28,0,0,1-1.133-9.62,65.833,65.833,0,0,1-.157-9.783c.087-3.229.192-6.366.442-9.388.337-3.044.2-5.949.848-8.737.534-2.742,1.046-5.356,1.5-7.761a57.668,57.668,0,0,1,5.211-15.43,41.034,41.034,0,0,0,.25,4.479c.273,2.853.261,6.675.889,11.438.406,4.718.691,10.108,1.5,15.94.407,2.9.645,5.879.895,8.9.105,3.091.75,5.729,1.156,9.109.807,6.482,1.737,11.92,2.556,17.707.784,5.728,1.5,11.131,2.132,15.731,1.15,9.329,1.423,16.126,1.423,16.126A56.094,56.094,0,0,1,106.724,270.786Z"/>
      <path id="Path_1021" data-name="Path 1021" class="cls-1" d="M135.444,94.942a36.206,36.206,0,0,0,3.5,5.02l3.09,3.724c.569,1.237,1.5,2.237,1.917,3.619a33.752,33.752,0,0,1,2.452,8.325,84.149,84.149,0,0,1,.662,17.492c-.709,10.805-1.761,18.688-1.761,18.688s5.775-5.588,10.364-16.655a51.708,51.708,0,0,0,2.986-9.289,44.063,44.063,0,0,0,1.295-11.247,36.206,36.206,0,0,0-2.091-12.716c-.634-2.2-1.976-4.224-3-6.338a34.148,34.148,0,0,0-2.1-2.928l-1.127-1.452-.558-.715-.134-.168c.07.087.18.2.4.442l-.063-.07-.2-.273c-.964-1.325-2.881-3.189-3.084-4.026a17.3,17.3,0,0,1-1.557-3.259,35.691,35.691,0,0,1-2.271-8.47,91.015,91.015,0,0,1-.535-17.608c.709-10.817,1.65-18.712,1.65-18.712s-5.71,5.647-10.3,16.679a54.543,54.543,0,0,0-4.416,20.426c.082,3.985.157,8.377,1.795,12.688A30.586,30.586,0,0,0,135.444,94.942Zm15.5-4.642c.012.012-.2-.238,0,0Z"/>
      <path id="Path_1022" data-name="Path 1022" class="cls-1" d="M169.446,56.629a35.93,35.93,0,0,0,3.5,5.025l3.09,3.724a27.517,27.517,0,0,1,1.918,3.613,33.72,33.72,0,0,1,2.451,8.331,84.122,84.122,0,0,1,.668,17.486c-.715,10.805-1.76,18.694-1.76,18.694s5.768-5.594,10.357-16.655a51.308,51.308,0,0,0,2.98-9.295,44.041,44.041,0,0,0,1.3-11.241,36.4,36.4,0,0,0-2.091-12.722c-.628-2.2-1.976-4.218-3-6.338-.593-1.034-1.394-1.952-2.091-2.928l-1.109-1.429-.559-.714-.156-.2c.075.082.18.2.4.441l-.046-.075-.216-.273c-.964-1.307-2.881-3.189-3.084-4.02a17.761,17.761,0,0,1-1.557-3.248,36.165,36.165,0,0,1-2.271-8.47,91.9,91.9,0,0,1-.523-17.608C178.347,7.9,179.3,0,179.3,0s-5.717,5.653-10.307,16.679a54.331,54.331,0,0,0-4.426,20.432c.093,3.985.156,8.377,1.807,12.682A31.719,31.719,0,0,0,169.446,56.629Zm15.5-4.647c.024.012-.186-.227,0,0Z"/>
      <path id="Path_1023" data-name="Path 1023" class="cls-1" d="M211.448,91.375a36.308,36.308,0,0,0,3.509,5.02l3.091,3.724c.569,1.237,1.5,2.237,1.917,3.613a33.906,33.906,0,0,1,2.451,8.331,85.336,85.336,0,0,1,.663,17.492c-.709,10.8-1.755,18.688-1.755,18.688s5.763-5.588,10.364-16.655a51.79,51.79,0,0,0,2.974-9.295,44.007,44.007,0,0,0,1.3-11.241,36.323,36.323,0,0,0-2.092-12.716c-.627-2.2-1.975-4.224-3-6.344-.6-1.034-1.4-1.952-2.092-2.928l-1.115-1.423-.558-.714-.128-.18c.069.082.175.2.384.441l-.07-.1-.209-.273c-.965-1.307-2.881-3.189-3.079-4.02a16.655,16.655,0,0,1-1.557-3.248,35.643,35.643,0,0,1-2.277-8.47,91.41,91.41,0,0,1-.522-17.608c.72-10.817,1.649-18.718,1.649-18.718s-5.7,5.653-10.294,16.685a54.141,54.141,0,0,0-4.427,20.426c.093,3.985.151,8.377,1.8,12.682A31.859,31.859,0,0,0,211.448,91.375Zm15.523-4.653Z"/>
    </g>
  </g>
</svg>
