<svg xmlns="http://www.w3.org/2000/svg" viewBox="0 0 511.297 512.001">
  <defs>
    <style>
      .cls-1 {
        fill: #63b190;
      }
    </style>
  </defs>
  <g id="classroom" transform="translate(-0.353)">
    <g id="Group_2100" data-name="Group 2100">
      <g id="Group_2099" data-name="Group 2099">
        <path id="Path_1024" data-name="Path 1024" class="cls-1" d="M467.309,16.768H221.454a11.094,11.094,0,0,0-11.1,11.095v86.451l12.305-7.64a30.76,30.76,0,0,1,9.884-3.978V38.958H456.213V198.974H232.549v-25.89l-22.19,13.778V210.07a11.094,11.094,0,0,0,11.1,11.1H467.309a11.1,11.1,0,0,0,11.1-11.1V27.863A11.1,11.1,0,0,0,467.309,16.768Z"/>
      </g>
    </g>
    <g id="Group_2102" data-name="Group 2102">
      <g id="Group_2101" data-name="Group 2101">
        <path id="Path_1025" data-name="Path 1025" class="cls-1" d="M306,78.356a8.535,8.535,0,0,0-11.986-1.418L255.8,107.071a30.686,30.686,0,0,1,9.3,9.527,31.009,31.009,0,0,1,1.834,3.431l37.651-29.687A8.533,8.533,0,0,0,306,78.356Z"/>
      </g>
    </g>
    <g id="Group_2104" data-name="Group 2104">
      <g id="Group_2103" data-name="Group 2103">
        <circle id="Ellipse_23" data-name="Ellipse 23" class="cls-1" cx="31.935" cy="31.935" r="31.935" transform="translate(89.6 0)"/>
      </g>
    </g>
    <g id="Group_2106" data-name="Group 2106">
      <g id="Group_2105" data-name="Group 2105">
        <path id="Path_1026" data-name="Path 1026" class="cls-1" d="M252.01,124.728a15.409,15.409,0,0,0-21.218-4.963L199.586,139.14c-.13-25.879-.061-12.145-.144-28.811a36.544,36.544,0,0,0-36.464-36.281H147.819c-12.951,33.588-8.779,21.12-19.772,49.63l4.623-20.131a6.422,6.422,0,0,0-.655-4.43l-6.264-11.393,5.559-10.109a2.266,2.266,0,0,0-1.985-3.356H114.054a2.266,2.266,0,0,0-1.985,3.356l5.57,10.13-6.276,11.414a6.431,6.431,0,0,0-.672,4.347l4,20.172L95.559,74.048H80.093a36.544,36.544,0,0,0-36.464,36.281l-.569,113.2a15.409,15.409,0,0,0,15.331,15.486h.079a15.408,15.408,0,0,0,15.406-15.331l.569-113.2v-.053a3.057,3.057,0,0,1,6.113.045l.007,160.381a51.409,51.409,0,0,1,36.981,13.423V221.712h7.983v71.773a51.556,51.556,0,0,1,1.445,55.7,56.124,56.124,0,0,1,14.1,1.861,51.544,51.544,0,0,1,21.437-11.136c0-279.342-.335-106.627-.335-229.418a3.225,3.225,0,0,1,6.45-.013c.054,10.807.224,44.59.283,56.351a15.409,15.409,0,0,0,23.536,13.013l54.6-33.9A15.408,15.408,0,0,0,252.01,124.728Z"/>
      </g>
    </g>
    <g id="Group_2108" data-name="Group 2108">
      <g id="Group_2107" data-name="Group 2107">
        <circle id="Ellipse_24" data-name="Ellipse 24" class="cls-1" cx="33.803" cy="33.803" r="33.803" transform="translate(395.418 289.028)"/>
      </g>
    </g>
    <g id="Group_2110" data-name="Group 2110">
      <g id="Group_2109" data-name="Group 2109">
        <path id="Path_1027" data-name="Path 1027" class="cls-1" d="M511.459,405.811a38.682,38.682,0,0,0-38.6-38.4H388.08a51.521,51.521,0,0,1-1.8,50.332,56.516,56.516,0,0,1,45.149,25.9h40.579v-37.43a3.417,3.417,0,0,1,6.827-.233v0l.19,37.661H511.65Z"/>
      </g>
    </g>
    <g id="Group_2112" data-name="Group 2112">
      <g id="Group_2111" data-name="Group 2111">
        <path id="Path_1028" data-name="Path 1028" class="cls-1" d="M290.469,390.956a51.324,51.324,0,0,1,5.894-23.92H221.1a51.532,51.532,0,0,1-2.032,49.76,56.308,56.308,0,0,1,40.283,17.267,55.883,55.883,0,0,1,38.836-15.995A51.587,51.587,0,0,1,290.469,390.956Z"/>
      </g>
    </g>
    <g id="Group_2114" data-name="Group 2114">
      <g id="Group_2113" data-name="Group 2113">
        <path id="Path_1029" data-name="Path 1029" class="cls-1" d="M264.819,288.655a33.8,33.8,0,1,0,33.8,33.8A33.8,33.8,0,0,0,264.819,288.655Z"/>
      </g>
    </g>
    <g id="Group_2116" data-name="Group 2116">
      <g id="Group_2115" data-name="Group 2115">
        <path id="Path_1030" data-name="Path 1030" class="cls-1" d="M123.217,390.065a51.344,51.344,0,0,1,5.411-22.98c-1.457-.072,4.672-.049-89.485-.049a38.694,38.694,0,0,0-38.6,38.4l-.192,38.2H32.974l.191-38.031a3.414,3.414,0,0,1,6.827.017v38.014H85.719a56.18,56.18,0,0,1,45.243-26.406A51.261,51.261,0,0,1,123.217,390.065Z"/>
      </g>
    </g>
    <g id="Group_2118" data-name="Group 2118">
      <g id="Group_2117" data-name="Group 2117">
        <path id="Path_1031" data-name="Path 1031" class="cls-1" d="M82.786,288.655a33.8,33.8,0,1,0,33.8,33.8A33.8,33.8,0,0,0,82.786,288.655Z"/>
      </g>
    </g>
    <g id="Group_2120" data-name="Group 2120">
      <g id="Group_2119" data-name="Group 2119">
        <path id="Path_1032" data-name="Path 1032" class="cls-1" d="M422.533,473.807a38.681,38.681,0,0,0-38.6-38.406H298.429c-21.176,0-39.6,17.227-39.708,38.4l-.275-.891a38.684,38.684,0,0,0-38.6-38.4H134.342c-21.176,0-39.6,17.227-39.708,38.4L94.442,512h32.621l.191-38.922a2.94,2.94,0,0,1,5.88.015V512h86.392V473.093a3.15,3.15,0,0,1,6.3-.016L226.016,512H291.15l.191-38.031v0a2.94,2.94,0,0,1,5.88.017V512h86.392V473.984a3.15,3.15,0,0,1,6.3-.016L390.1,512h32.621Z"/>
      </g>
    </g>
    <g id="Group_2122" data-name="Group 2122">
      <g id="Group_2121" data-name="Group 2121">
        <circle id="Ellipse_25" data-name="Ellipse 25" class="cls-1" cx="34.198" cy="34.198" r="34.198" transform="translate(141.736 355.735)"/>
      </g>
    </g>
    <g id="Group_2124" data-name="Group 2124">
      <g id="Group_2123" data-name="Group 2123">
        <circle id="Ellipse_26" data-name="Ellipse 26" class="cls-1" cx="34.198" cy="34.198" r="34.198" transform="translate(307.872 356.623)"/>
      </g>
    </g>
  </g>
</svg>
