<svg xmlns="http://www.w3.org/2000/svg" viewBox="0 0 232.369 210.6">
  <defs>
    <style>
      .cls-1 {
        fill: #ed0a7c;
      }

      .cls-2 {
        fill: #f7931e;
      }

      .cls-3 {
        fill: #f26522;
      }

      .cls-4 {
        fill: #ed1c24;
      }

      .cls-5 {
        fill: #ef4723;
      }

      .cls-6 {
        fill: #ed037c;
      }

      .cls-7 {
        fill: #ed0b70;
      }
    </style>
  </defs>
  <g id="Group_2130" data-name="Group 2130" transform="translate(0.012)">
    <path id="Path_1051" data-name="Path 1051" class="cls-1" d="M81.4,120.6a15.8,15.8,0,1,0-15.8,15.8,15.834,15.834,0,0,0,15.8-15.8"/>
    <path id="Path_1052" data-name="Path 1052" class="cls-2" d="M130.3,89h0v0M85.1,84.3H62.3a4.5,4.5,0,0,0,0,9H89.6a4.4,4.4,0,0,1-4.4-4.5V87.1a27.151,27.151,0,0,1-.1-2.8m36.3,0H94.5a16.551,16.551,0,0,0-.3,3.2v1.4a4.669,4.669,0,0,1-4.5,4.4h30.9L102,200.6H31.2L10,93.3H39.4l-1.3-1.7c0-.1-.1-.1-.1-.2l-5.2-7.1H4.5A4.627,4.627,0,0,0,1,85.9a4.14,4.14,0,0,0-.9,3.7l23,116.3a4.494,4.494,0,0,0,4.4,3.6h78.3a4.423,4.423,0,0,0,4.4-3.7L130.3,89.5a4.5,4.5,0,0,1-4.4,3.7h-.3a4.488,4.488,0,0,1-4.2-4.8c0-.7.1-1.4.1-2.1a12.75,12.75,0,0,1-.1-2"/>
    <path id="Path_1053" data-name="Path 1053" class="cls-2" d="M89.6,93.3h0m40.7-4v0M62,48.8a25.662,25.662,0,0,0-16.6,6l3.2,4.4a4.5,4.5,0,0,1-1,6.3,4.317,4.317,0,0,1-2.6.9,4.131,4.131,0,0,1-3.6-1.9L39.6,62a32.7,32.7,0,0,0-3.5,11.7l9.2,12.4h0l.6.7a42.515,42.515,0,0,1-1-8.9,27.854,27.854,0,0,1,1.5-9.3,16.218,16.218,0,0,1,6.3-8.2A16.607,16.607,0,0,1,62,57.7h0a21.544,21.544,0,0,1,15.5,7,28.537,28.537,0,0,1,5.5,9,35.5,35.5,0,0,1,2.1,10.4h9.4a24.591,24.591,0,0,1,1-4.1,15.656,15.656,0,0,1,5.6-7.6,13.1,13.1,0,0,1,7.5-2.4,12.667,12.667,0,0,1,4.7.9,11.184,11.184,0,0,1,5.6,5,17.7,17.7,0,0,1,2.4,8.2h4.5a4.42,4.42,0,0,1,3.4,1.6,5.1,5.1,0,0,1,1.1,3.1,22.6,22.6,0,0,0,.1-2.6,31.846,31.846,0,0,0-1.7-10.6,22.339,22.339,0,0,0-8.2-10.9A20.658,20.658,0,0,0,108.6,61h0a22.487,22.487,0,0,0-16.3,7.2l-1.2,1.5A34.931,34.931,0,0,0,79.2,54.2,31.184,31.184,0,0,0,62,48.8"/>
    <path id="Path_1054" data-name="Path 1054" class="cls-3" d="M38,91.4c0,.1.1.1.1.2l-.1-.2m7.3-5.3h0m49.2-1.8H85.1a25.284,25.284,0,0,1,.1,2.8v1.7a4.461,4.461,0,0,0,4.4,4.5h.1a4.525,4.525,0,0,0,4.5-4.4V87.5a16.551,16.551,0,0,1,.3-3.2m31.4,0h-4.5a22.1,22.1,0,0,1,0,4.2,4.488,4.488,0,0,0,4.2,4.8h.3a4.5,4.5,0,0,0,4.4-3.7V89a4.111,4.111,0,0,0-1.1-3.1,4.22,4.22,0,0,0-3.3-1.6"/>
    <path id="Path_1055" data-name="Path 1055" class="cls-2" d="M45.9,86.9c.1.3.1.5.2.8,0,.2.1.4.1.6a3.812,3.812,0,0,1-.1,1.5h0a5.076,5.076,0,0,1-.9,1.8,4.428,4.428,0,0,1-1.5,1.2,3.255,3.255,0,0,1-1.4.4H39.5l13.3,18a15.435,15.435,0,0,1,7.1-5.5l-14-18.8M21.7,31.8a12.751,12.751,0,0,0-1.9.1,12.385,12.385,0,0,0-5,1.7,15.521,15.521,0,0,0-5.3,5.2,14.122,14.122,0,0,0-1.9,7,13.834,13.834,0,0,0,2.8,8.3L32.7,84.3h3.6a46.351,46.351,0,0,1-.4-6.3c0-1.5.1-2.9.2-4.3L17.7,48.8a4.85,4.85,0,0,1-1-2.9,4.971,4.971,0,0,1,1.2-3.3,4.487,4.487,0,0,1,1.3-1.1,4.779,4.779,0,0,1,1.8-.6h.7a4.885,4.885,0,0,1,4,2.1L39.6,62l.9-1.5a25.51,25.51,0,0,1,5-5.8L33,37.6a14.116,14.116,0,0,0-11.3-5.8"/>
    <path id="Path_1056" data-name="Path 1056" class="cls-4" d="M59.9,105.8a15.435,15.435,0,0,0-7.1,5.5l8.8,11.9a4.406,4.406,0,0,0,3.6,1.8,4.6,4.6,0,0,0,2.7-.9,4.481,4.481,0,0,0,.9-6.3h0l-8.9-12"/>
    <path id="Path_1057" data-name="Path 1057" class="cls-3" d="M43.7,92.9a2.935,2.935,0,0,1-1,.3c-.2,0-.3.1-.5.1a8.332,8.332,0,0,0,1.5-.4m-5.6-1.3,1.3,1.7h2.2a4.724,4.724,0,0,1-3.5-1.7m8-1.8a5.076,5.076,0,0,1-.9,1.8,5.076,5.076,0,0,0,.9-1.8m0,0h0m0-2.1h0a1.486,1.486,0,0,1,.1.6,1.268,1.268,0,0,1-.1-.6m-9.8-3.4H32.7l5.2,7.1a4.594,4.594,0,0,1-.7-1.6c-.3-1.9-.7-3.7-.9-5.5"/>
    <path id="Path_1058" data-name="Path 1058" class="cls-3" d="M42.2,93.3h0m3-1.7a4.428,4.428,0,0,1-1.5,1.2,3.491,3.491,0,0,0,1.5-1.2m.9-1.8h0m.1-1.5v.5a3.4,3.4,0,0,1-.1,1,7.569,7.569,0,0,0,.1-1.5m-.9-2.1a4.594,4.594,0,0,1,.7,1.6c-.1-.3-.1-.5-.2-.8l-.5-.8M36.1,73.7c-.1,1.4-.2,2.8-.2,4.3a46.35,46.35,0,0,0,.4,6.3h5.4a4.4,4.4,0,0,1,3.6,1.8L36.1,73.7m9.3-18.9a23.535,23.535,0,0,0-5,5.8l-.9,1.5,1.7,2.4a4.654,4.654,0,0,0,3.6,1.9,4.317,4.317,0,0,0,2.6-.9,4.5,4.5,0,0,0,1-6.3l-3-4.4"/>
    <path id="Path_1059" data-name="Path 1059" class="cls-5" d="M41.7,84.3H36.3c.2,1.8.6,3.6,1,5.5a4.594,4.594,0,0,0,.7,1.6l.1.2a4.266,4.266,0,0,0,3.5,1.7h.6a.9.9,0,0,0,.5-.1c.3-.1.7-.2,1-.3a4.428,4.428,0,0,0,1.5-1.2,5.076,5.076,0,0,0,.9-1.8h0a3.4,3.4,0,0,0,.1-1v-.5a.9.9,0,0,0-.1-.5v-.1a4.594,4.594,0,0,0-.7-1.6h0a4.55,4.55,0,0,0-3.7-1.9"/>
    <path id="Path_1060" data-name="Path 1060" class="cls-6" d="M227.8,206.2h0v0l4.4-1.1-4.4,1.1m-67.4-54.6,6.3-24.3h36.8l6.1,24.3h3.9a4.5,4.5,0,0,1,0,9h-1.7l10.3,41H147.5l10.6-41h-1.6a4.5,4.5,0,0,1,0-9h3.9M207,118.4H189.2v4.5a4.5,4.5,0,0,1-9,0v-4.5h-17a4.592,4.592,0,0,0-4.4,3.4L137.3,205a4.211,4.211,0,0,0,.8,3.9,4.6,4.6,0,0,0,3.6,1.7h86.2a4.266,4.266,0,0,0,3.5-1.7,4.507,4.507,0,0,0,.8-3.9h0l-20.8-83.3a4.53,4.53,0,0,0-4.4-3.3"/>
    <path id="Path_1061" data-name="Path 1061" class="cls-6" d="M184.7,0a4.481,4.481,0,0,0-4.5,4.5V118.4h9V4.5A4.481,4.481,0,0,0,184.7,0"/>
    <path id="Path_1062" data-name="Path 1062" class="cls-7" d="M189.2,118.4h-9v4.5a4.5,4.5,0,0,0,9,0v-4.5"/>
    <path id="Path_1063" data-name="Path 1063" class="cls-6" d="M209.5,151.6H160.4l-2.3,9h53.7l-2.3-9"/>
    <path id="Path_1064" data-name="Path 1064" class="cls-7" d="M160.4,151.6h-3.9a4.5,4.5,0,0,0,0,9h1.6l2.3-9m53.1,0h-3.9l2.2,9h1.7a4.481,4.481,0,0,0,4.5-4.5,4.546,4.546,0,0,0-4.5-4.5"/>
  </g>
</svg>
