<svg id="Layer" enable-background="new 0 0 64 64" height="512" viewBox="0 0 64 64" width="512" xmlns="http://www.w3.org/2000/svg"><path d="m46 39h8v7h-8z" fill="#ff7043"/><path d="m46 39v7 8h-14v-29c7.5 0 13.63-5.91 13.98-13.32l.34-.86c4.49 1.72 7.68 6.07 7.68 11.18v17z" fill="#4dd0e1"/><path d="m45.98 10.68c.12.04.23.08.34.14l-.34.86c-.35 7.41-6.48 13.32-13.98 13.32v-7c3.87 0 7-3.13 7-7v-1h3c1.4 0 2.74.24 3.98.68z" fill="#ff7043"/><path d="m39 10v1c0 3.87-3.13 7-7 7s-7-3.13-7-7v-1z" fill="#e0f7fa"/><path d="m18 39h-8v-17c0-4.58 2.56-8.56 6.33-10.58l1.69.26c.35 7.41 6.48 13.32 13.98 13.32v29h-14v-8z" fill="#4dd0e1"/><path d="m32 18v7c-7.5 0-13.63-5.91-13.98-13.32l-1.69-.26c.54-.29 1.11-.54 1.69-.74 1.24-.44 2.58-.68 3.98-.68h3v1c0 3.87 3.13 7 7 7z" fill="#ff7043"/><path d="m10 39h8v7h-8z" fill="#ff7043"/><path d="m47.139 8.992c-.167-.081-.332-.145-.49-.197-1.489-.527-3.052-.795-4.649-.795h-20c-1.597 0-3.16.268-4.634.789-.681.235-1.347.527-1.98.868-4.556 2.442-7.386 7.171-7.386 12.343v24c0 1.104.896 2 2 2h6v6c0 1.104.896 2 2 2h28c1.104 0 2-.896 2-2v-6h6c1.104 0 2-.896 2-2v-24c0-5.713-3.557-10.926-8.861-13.008zm-3.215 3.201c-.532 5.435-4.645 9.747-9.924 10.63v-3.055c3.685-.841 6.516-3.943 6.941-7.768h1.059c.649 0 1.289.069 1.924.193zm-11.924 3.807c-2.414 0-4.434-1.721-4.899-4h9.798c-.465 2.279-2.485 4-4.899 4zm-8.941-4c.425 3.825 3.256 6.928 6.941 7.768v3.055c-5.279-.884-9.392-5.195-9.924-10.63.63-.124 1.272-.193 1.924-.193zm-11.059 32v-3h4v3zm8-15c0-1.104-.896-2-2-2s-2 .896-2 2v8h-4v-15c0-3.293 1.612-6.326 4.265-8.184 1.215 6.885 6.787 12.181 13.735 13.046v25.138h-10zm28 15v-3h4v3zm4-7h-4v-8c0-1.104-.896-2-2-2s-2 .896-2 2v23h-10v-25.138c6.945-.864 12.514-6.155 13.733-13.035 2.618 1.839 4.267 4.888 4.267 8.173z" fill="#012e52"/></svg>