<svg xmlns="http://www.w3.org/2000/svg" viewBox="0 0 23.839 31.387">
  <defs>
    <style>
      .cls-1 {
        fill: #00a3d2;
      }
    </style>
  </defs>
  <g id="Group_1789" data-name="Group 1789" transform="translate(-24 -878)">
    <path id="Path_617" data-name="Path 617" class="cls-1" d="M20.434,8.836h-2.3V2.393A2.376,2.376,0,0,0,15.739,0H8.008a2.3,2.3,0,0,0-2.3,2.393V8.836h-2.3A3.4,3.4,0,0,0,0,12.242V27.981a3.4,3.4,0,0,0,3.406,3.406H20.434a3.4,3.4,0,0,0,3.406-3.406V12.15A3.44,3.44,0,0,0,20.434,8.836ZM7.087,8.744V2.393A1.021,1.021,0,0,1,8.1,1.381h7.732a1.021,1.021,0,0,1,1.012,1.012V8.836L7.087,8.744ZM22.367,27.889a2.043,2.043,0,0,1-2.025,2.025H3.406a2.043,2.043,0,0,1-2.025-2.025V12.15a2.043,2.043,0,0,1,2.025-2.025H20.434a2.043,2.043,0,0,1,2.025,2.025V27.889Z" transform="translate(24 878)"/>
    <path id="Path_618" data-name="Path 618" class="cls-1" d="M13.631,20.934a2.264,2.264,0,0,0,1.289-2.025,2.209,2.209,0,1,0-4.418,0,2.264,2.264,0,0,0,1.289,2.025L9.4,25.72c-.092.184,0,.368.276.368h6.351c.184,0,.368-.184.276-.368Z" transform="translate(23.255 876.671)"/>
  </g>
</svg>
