<?xml version="1.0" encoding="UTF-8" standalone="no"?>
<!DOCTYPE svg PUBLIC "-//W3C//DTD SVG 1.1//EN" "http://www.w3.org/Graphics/SVG/1.1/DTD/svg11.dtd">
<svg width="100%" height="100%" viewBox="0 0 2067 1567" version="1.1" xmlns="http://www.w3.org/2000/svg" xmlns:xlink="http://www.w3.org/1999/xlink" xml:space="preserve" xmlns:serif="http://www.serif.com/" style="fill-rule:evenodd;clip-rule:evenodd;stroke-linecap:round;stroke-miterlimit:10;">
    <g transform="matrix(1,0,0,1,-22948.3,2028.05)">
        <g transform="matrix(-6.27525,4.10163,4.10163,6.27525,23393.6,-633.91)">
            <g>
                <path d="M-10.654,-3.173L0.945,-3.173" style="fill:none;fill-rule:nonzero;stroke:rgb(168,123,80);stroke-width:5px;"/>
            </g>
        </g>
        <g transform="matrix(4.1018,6.27515,6.27515,-4.1018,23439.2,-797.092)">
            <g>
                <path d="M-3.431,-6.342L11.722,-6.342" style="fill:none;fill-rule:nonzero;stroke:rgb(168,123,80);stroke-width:5px;"/>
            </g>
        </g>
        <g transform="matrix(-6.27494,4.10212,4.10212,6.27494,23417.1,-765.709)">
            <g>
                <path d="M-17.871,-5.323L1.586,-5.323" style="fill:none;fill-rule:nonzero;stroke:rgb(168,123,80);stroke-width:5px;"/>
            </g>
        </g>
        <g transform="matrix(4.10189,6.27509,6.27509,-4.10189,23492.2,-1054.35)">
            <g>
                <path d="M-6.269,-11.587L21.418,-11.588" style="fill:none;fill-rule:nonzero;stroke:rgb(168,123,80);stroke-width:5px;"/>
            </g>
        </g>
        <g transform="matrix(6.27494,-4.10212,-4.10212,-6.27494,23303.5,-939.45)">
            <g>
                <path d="M-1.586,5.323L17.871,5.323" style="fill:none;fill-rule:nonzero;stroke:rgb(168,123,80);stroke-width:5px;"/>
            </g>
        </g>
        <g transform="matrix(4.10215,6.27492,6.27492,-4.10215,23263.4,-1065.92)">
            <g>
                <path d="M-3.431,-6.342L11.723,-6.342" style="fill:none;fill-rule:nonzero;stroke:rgb(168,123,80);stroke-width:5px;"/>
            </g>
        </g>
        <g transform="matrix(6.27476,-4.10238,-4.10238,-6.27476,23155.7,-997.823)">
            <g>
                <path d="M-0.945,3.173L10.653,3.173" style="fill:none;fill-rule:nonzero;stroke:rgb(168,123,80);stroke-width:5px;"/>
            </g>
        </g>
        <g transform="matrix(-4.1019,-6.27508,-6.27508,4.1019,23342.9,-1031.01)">
            <g>
                <path d="M-44.862,24.271L13.131,24.271" style="fill:none;fill-rule:nonzero;stroke:rgb(168,123,80);stroke-width:5px;"/>
            </g>
        </g>
        <g transform="matrix(-6.27503,4.10198,4.10198,6.27503,24483.5,-1490.68)">
            <g>
                <path d="M-20.619,-6.141L1.829,-6.142" style="fill:none;fill-rule:nonzero;stroke:rgb(168,123,80);stroke-width:5px;"/>
            </g>
        </g>
        <g transform="matrix(-1.75861,7.28763,7.28763,1.75861,24624.5,-1630.69)">
            <g>
                <path d="M-5.392,-4.246L3.343,-4.246" style="fill:none;fill-rule:nonzero;stroke:rgb(168,123,80);stroke-width:5px;"/>
            </g>
        </g>
        <g transform="matrix(7.49681,0,0,7.49681,24738.3,-1677.45)">
            <g>
                <path d="M0,-21.63L11.707,-19.449L-18.045,0" style="fill:none;fill-rule:nonzero;stroke:rgb(168,123,80);stroke-width:5px;"/>
            </g>
        </g>
        <g transform="matrix(6.27506,-4.10193,-4.10193,-6.27506,24613.3,-1691.87)">
            <g>
                <path d="M-2.195,7.37L24.744,7.37" style="fill:none;fill-rule:nonzero;stroke:rgb(168,123,80);stroke-width:5px;"/>
            </g>
        </g>
        <g transform="matrix(7.33763,1.53666,1.53666,-7.33763,24512.9,-1747.14)">
            <g>
                <path d="M-0.084,-0.814L7.853,-0.814" style="fill:none;fill-rule:nonzero;stroke:rgb(168,123,80);stroke-width:5px;"/>
            </g>
        </g>
        <g transform="matrix(6.27501,-4.10201,-4.10201,-6.27501,24403.4,-1614.08)">
            <g>
                <path d="M-1.89,6.346L21.307,6.347" style="fill:none;fill-rule:nonzero;stroke:rgb(168,123,80);stroke-width:5px;"/>
            </g>
        </g>
        <g transform="matrix(-4.10222,-6.27487,-6.27487,4.10222,24436,-1652.02)">
            <g>
                <path d="M-15.341,8.299L4.49,8.299" style="fill:none;fill-rule:nonzero;stroke:rgb(168,123,80);stroke-width:5px;"/>
            </g>
        </g>
        <g transform="matrix(-6.27447,4.10283,4.10283,6.27447,23696.9,-731.399)">
            <g>
                <path d="M-4.468,-1.331L0.397,-1.331" style="fill:none;fill-rule:nonzero;stroke:rgb(247,147,29);stroke-width:5px;"/>
            </g>
        </g>
        <g transform="matrix(7.49681,0,0,7.49681,24366.1,-758.082)">
            <g>
                <path d="M0,-75.262L-94.894,-13.232L-86.244,0" style="fill:none;fill-rule:nonzero;stroke:rgb(247,147,29);stroke-width:5px;"/>
            </g>
        </g>
        <g transform="matrix(4.10234,6.27479,6.27479,-4.10234,24362.2,-1368.41)">
            <g>
                <path d="M-1.588,-2.936L5.427,-2.936" style="fill:none;fill-rule:nonzero;stroke:rgb(247,147,29);stroke-width:5px;"/>
            </g>
        </g>
        <g transform="matrix(-5.1382,5.45904,5.45904,5.1382,24385.2,-1348.97)">
            <g>
                <path d="M-14.453,-6.245L2.698,-6.245" style="fill:none;fill-rule:nonzero;stroke:rgb(247,147,29);stroke-width:5px;"/>
            </g>
        </g>
        <g transform="matrix(4.12086,6.26265,6.26265,-4.12086,24407.5,-1664.11)">
            <g>
                <path d="M-6.992,-12.971L24.062,-12.971" style="fill:none;fill-rule:nonzero;stroke:rgb(247,147,29);stroke-width:5px;"/>
            </g>
        </g>
        <g transform="matrix(6.98094,-2.73289,-2.73289,-6.98094,24191.7,-1588.2)">
            <g>
                <path d="M-0.583,3.087L16.354,3.087" style="fill:none;fill-rule:nonzero;stroke:rgb(247,147,29);stroke-width:5px;"/>
            </g>
        </g>
        <g transform="matrix(4.10234,6.27479,6.27479,-4.10234,24175.4,-1654.26)">
            <g>
                <path d="M-1.588,-2.936L5.427,-2.936" style="fill:none;fill-rule:nonzero;stroke:rgb(247,147,29);stroke-width:5px;"/>
            </g>
        </g>
        <g transform="matrix(7.49681,0,0,7.49681,23374.2,-1552.98)">
            <g>
                <path d="M0,35.567L8.649,48.799L103.542,-13.232" style="fill:none;fill-rule:nonzero;stroke:rgb(247,147,29);stroke-width:5px;"/>
            </g>
        </g>
        <g transform="matrix(6.27518,-4.10175,-4.10175,-6.27518,23351.6,-1259.67)">
            <g>
                <path d="M-0.396,1.331L4.467,1.331" style="fill:none;fill-rule:nonzero;stroke:rgb(247,147,29);stroke-width:5px;"/>
            </g>
        </g>
        <g transform="matrix(-4.10192,-6.27506,-6.27506,4.10192,23642.9,-1291.3)">
            <g>
                <path d="M-65.123,35.233L19.061,35.233" style="fill:none;fill-rule:nonzero;stroke:rgb(247,147,29);stroke-width:5px;"/>
            </g>
        </g>
        <g transform="matrix(7.49681,0,0,7.49681,24823.6,-1601.05)">
            <g>
                <path d="M0,37.528C5.736,38.05 10.04,33.478 10.983,28.073C12.262,19.868 0.302,-0.522 0.302,-0.522" style="fill:none;fill-rule:nonzero;stroke:rgb(98,176,143);stroke-width:5px;stroke-linejoin:round;"/>
            </g>
        </g>
        <g transform="matrix(7.49681,0,0,7.49681,24825.9,-1319.71)">
            <g>
                <path d="M0,-38.05C0,-38.05 -12.226,-15.05 -10.555,-9.395C-10.051,-3.74 -4.662,0 -0.302,0" style="fill:none;fill-rule:nonzero;stroke:rgb(98,176,143);stroke-width:5px;stroke-linejoin:round;"/>
            </g>
        </g>
        <g transform="matrix(-6.24692,4.14465,4.14465,6.24692,23885.2,-1159.42)">
            <path d="M-29.377,-8.859L2.672,-8.859" style="fill:none;fill-rule:nonzero;stroke:rgb(208,31,38);stroke-width:5px;stroke-linecap:butt;"/>
        </g>
        <g transform="matrix(4.14482,6.24682,6.24682,-4.14482,23978.6,-1380.79)">
            <path d="M-7.165,-13.352L24.884,-13.352" style="fill:none;fill-rule:nonzero;stroke:rgb(208,31,38);stroke-width:5px;stroke-linecap:butt;"/>
        </g>
    </g>
</svg>
