<svg xmlns="http://www.w3.org/2000/svg" viewBox="0 0 477.366 477.5">
  <defs>
    <style>
      .cls-1 {
        fill: #f7941d;
      }

      .cls-2 {
        fill: #ed037c;
      }
    </style>
  </defs>
  <g id="chat" transform="translate(-0.067)">
    <g id="Group_1737" data-name="Group 1737">
      <path id="Path_737" data-name="Path 737" class="cls-1" d="M407.533,70a238.645,238.645,0,0,0-337.6-.1c-87,87-93.3,226-15.8,320.2-10.7,21.9-23.4,36.5-37.6,43.5a22.275,22.275,0,0,0,6.4,42,113.609,113.609,0,0,0,16.9,1.3h0c29.3,0,60.1-10.1,85.8-27.8A238.759,238.759,0,0,0,407.533,70Zm-19.1,318.5a211.836,211.836,0,0,1-256.9,32.9,13.438,13.438,0,0,0-15.1.9c-30.6,23.7-61.4,27.2-74.9,27.5,16.1-12,29.6-30.6,40.9-56.5a13.592,13.592,0,0,0-2.3-14.4c-74-83.6-70.1-211,8.9-290a211.726,211.726,0,0,1,299.4,0C471.033,171.6,471.033,306,388.433,388.5Z"/>
      <path id="Path_738" data-name="Path 738" class="cls-2" d="M299.333,129.4a80.331,80.331,0,0,0-57.2,23.7l-3.4,3.4-3.4-3.4a80.681,80.681,0,1,0-114.1,114.1l107.9,107.9a13.4,13.4,0,0,0,19,.1l108.2-107.8a80.8,80.8,0,0,0-57-138Zm37.9,118.9-98.6,98.2-98.4-98.4a53.74,53.74,0,1,1,76-76l13,13a13.46,13.46,0,0,0,19.1,0l12.9-12.9a53.716,53.716,0,0,1,76.1,0,52.912,52.912,0,0,1,15.7,38A53.477,53.477,0,0,1,337.233,248.3Z"/>
    </g>
  </g>
</svg>
