<svg xmlns="http://www.w3.org/2000/svg" viewBox="0 0 92.588 92.583">
  <defs>
    <style>
      .cls-1 {
        fill: #af7b46;
      }
    </style>
  </defs>
  <g id="Group_1756" data-name="Group 1756" transform="translate(0)">
    <path id="Path_1511" data-name="Path 1511" class="cls-1" d="M129.9,205.769a7.978,7.978,0,0,1-3.15-1.676,1.474,1.474,0,0,1-.553-1.179,1.316,1.316,0,0,1,.295-.884.838.838,0,0,1,.681-.35,1.9,1.9,0,0,1,.976.368,9.53,9.53,0,0,0,5.857,1.9,6.19,6.19,0,0,0,3.536-.866,2.813,2.813,0,0,0,1.234-2.468,2.051,2.051,0,0,0-1.142-1.9,15.134,15.134,0,0,0-3.684-1.216,21.267,21.267,0,0,1-3.979-1.179,5.861,5.861,0,0,1-2.431-1.805,4.548,4.548,0,0,1-.884-2.892,5.294,5.294,0,0,1,.958-3.131,6.415,6.415,0,0,1,2.689-2.137,9.9,9.9,0,0,1,3.942-.755,11.846,11.846,0,0,1,3.776.571,7.81,7.81,0,0,1,2.929,1.695,1.489,1.489,0,0,1,.571,1.179,1.3,1.3,0,0,1-.295.866.842.842,0,0,1-.7.368,1.857,1.857,0,0,1-.939-.368,10.55,10.55,0,0,0-2.487-1.455,7.941,7.941,0,0,0-2.818-.442,5.713,5.713,0,0,0-3.444.9,2.955,2.955,0,0,0-1.234,2.523,2.283,2.283,0,0,0,1.087,2.081,12.28,12.28,0,0,0,3.518,1.289,28,28,0,0,1,4.107,1.2,6.349,6.349,0,0,1,2.505,1.695,4.1,4.1,0,0,1,.939,2.781,5.033,5.033,0,0,1-.958,3.058A6.2,6.2,0,0,1,138.1,205.6a10.477,10.477,0,0,1-4.015.737A12.975,12.975,0,0,1,129.9,205.769Z" transform="translate(-103.478 -149.894)"/>
    <path id="Path_1512" data-name="Path 1512" class="cls-1" d="M241.217,198v7.5a1.3,1.3,0,0,1-.405.995,1.706,1.706,0,0,1-2.118,0,1.318,1.318,0,0,1-.387-.995v-7.46a3.788,3.788,0,0,0-.7-2.523,2.8,2.8,0,0,0-2.21-.81,3.732,3.732,0,0,0-2.818,1.105,3.981,3.981,0,0,0-1.068,2.929v6.76a1.29,1.29,0,0,1-.387.995,1.409,1.409,0,0,1-1.05.368,1.567,1.567,0,0,1-1.068-.368,1.266,1.266,0,0,1-.405-.995v-17.83a1.253,1.253,0,0,1,.424-.995,1.528,1.528,0,0,1,1.087-.368,1.5,1.5,0,0,1,1.013.35,1.263,1.263,0,0,1,.387.958v7.2a4.769,4.769,0,0,1,1.934-1.842,5.879,5.879,0,0,1,2.763-.645C239.541,192.323,241.217,194.2,241.217,198Z" transform="translate(-187.017 -150.465)"/>
    <path id="Path_1513" data-name="Path 1513" class="cls-1" d="M314.858,232.454a2.023,2.023,0,0,1-.737-.663,1.405,1.405,0,0,1-.221-.774,1.186,1.186,0,0,1,.258-.774.772.772,0,0,1,.663-.313,2.961,2.961,0,0,1,1.179.46,11.165,11.165,0,0,0,1.695.755,6,6,0,0,0,2.045.295,4.225,4.225,0,0,0,2.173-.479,1.559,1.559,0,0,0,.774-1.381,1.413,1.413,0,0,0-.295-.921,2.467,2.467,0,0,0-1.068-.626,16.15,16.15,0,0,0-2.21-.589,8.788,8.788,0,0,1-3.647-1.474,3.163,3.163,0,0,1-1.105-2.542,3.7,3.7,0,0,1,.718-2.229,4.7,4.7,0,0,1,1.989-1.547,7.138,7.138,0,0,1,2.873-.553,9.171,9.171,0,0,1,2.247.295,6.308,6.308,0,0,1,1.916.884,1.761,1.761,0,0,1,.958,1.474,1.138,1.138,0,0,1-.276.774.867.867,0,0,1-.645.313,1.237,1.237,0,0,1-.516-.111c-.166-.074-.405-.2-.7-.368a8.149,8.149,0,0,0-1.455-.718,4.856,4.856,0,0,0-1.676-.258,3.308,3.308,0,0,0-1.952.516,1.668,1.668,0,0,0-.737,1.418,1.424,1.424,0,0,0,.682,1.252,8.083,8.083,0,0,0,2.542.847,12.908,12.908,0,0,1,3.021.921,3.609,3.609,0,0,1,1.566,1.289,3.67,3.67,0,0,1,.479,1.934,3.509,3.509,0,0,1-1.566,3,6.948,6.948,0,0,1-4.181,1.142A9,9,0,0,1,314.858,232.454Z" transform="translate(-256.605 -177.223)"/>
    <path id="Path_1617" data-name="Path 1617" class="cls-1" d="M46.292,0A46.292,46.292,0,1,0,92.583,46.292C92.942,20.813,72.129,0,46.292,0ZM75.358,75.358a40.724,40.724,0,0,1-58.134,0,40.724,40.724,0,0,1,0-58.134,40.724,40.724,0,0,1,58.134,0,40.658,40.658,0,0,1,12.2,29.067A40.042,40.042,0,0,1,75.358,75.358Z"/>
  </g>
</svg>
