<svg xmlns="http://www.w3.org/2000/svg" viewBox="0 0 87.696 85.621">
  <defs>
    <style>
      .cls-1 {
        fill: #00a3d2;
      }
    </style>
  </defs>
  <g id="Group_1928" data-name="Group 1928" transform="translate(-669.743 -235.735)">
    <g id="Group_1926" data-name="Group 1926" transform="translate(669.743 235.735)">
      <path id="Path_614" data-name="Path 614" class="cls-1" d="M45.021,0A42.723,42.723,0,0,0,7,23.141l-5.95-1.322a.73.73,0,0,0-.992.992l5.95,15.207a.818.818,0,0,0,1.322.331L18.9,26.777c.331-.331.331-1.322-.331-1.322l-6.281-1.322A37.517,37.517,0,0,1,71.8,16.2a37.516,37.516,0,0,1,0,53.554A37.567,37.567,0,0,1,12.623,62.48a2.36,2.36,0,0,0-3.306-.992c-.992.661-1.653,2.314-.992,3.306a42.679,42.679,0,0,0,79.34-21.818A42.4,42.4,0,0,0,45.021,0Z" transform="translate(0.027)"/>
    </g>
    <path id="Path_1686" data-name="Path 1686" class="cls-1" d="M49.817,18.6l-5.748-3.285,5.748-3.285a1.125,1.125,0,0,0,.547-.821,1.033,1.033,0,0,0-.547-.958L32.984.128a1.5,1.5,0,0,0-1.095,0L25.182,3.96,18.476.128a1.5,1.5,0,0,0-1.095,0L.547,10.119A1.033,1.033,0,0,0,0,11.077a.75.75,0,0,0,.547.821L6.3,15.182.547,18.467A1.186,1.186,0,0,0,0,19.425a1.033,1.033,0,0,0,.547.958l6.843,4.106V34.617a.75.75,0,0,0,.547.821l16.7,9.991a1.163,1.163,0,0,0,1.095,0l16.7-9.991a1.125,1.125,0,0,0,.547-.821V24.626l6.98-4.106a1.152,1.152,0,0,0,.547-.958C50.228,19.151,50.091,18.741,49.817,18.6ZM25.046,24.078l-14.781-8.9,14.918-8.9,14.781,8.9ZM8.212,16.551l14.781,8.9-5.2,3.011L3.011,19.425Zm24.224,11.77-5.2-3.011,14.781-8.9,5.2,3.011Zm0-26.14,14.781,8.9-5.2,3.011-14.781-8.9Zm-14.507,0,5.2,3.011-14.918,8.9-5.2-3.011ZM9.307,33.932V25.584l7.938,4.79a1.5,1.5,0,0,0,1.095,0l5.611-3.285V42.555Zm31.478,0L26.14,42.691v-15.6l5.748,3.285a1.5,1.5,0,0,0,1.095,0l7.938-4.653v8.212Z" transform="translate(688.2 258.548)"/>
  </g>
</svg>
