<svg xmlns="http://www.w3.org/2000/svg" viewBox="0 0 237.3 214.619">
  <defs>
    <style>
      .cls-1 {
        fill: #f7941d;
      }
    </style>
  </defs>
  <path id="Path_724" data-name="Path 724" class="cls-1" d="M235,87.9l-27.9-16,27.9-16a4.541,4.541,0,0,0,2.3-3.9,4.447,4.447,0,0,0-2.2-3.9L155.3.6a4.519,4.519,0,0,0-4.5,0L118.6,19,86.5.6A4.519,4.519,0,0,0,82,.6L2.2,48.2A4.447,4.447,0,0,0,0,52.1,4.541,4.541,0,0,0,2.3,56L30.2,72,2.3,88A4.265,4.265,0,0,0,0,91.8a4.447,4.447,0,0,0,2.2,3.9L34.6,115v48.1a4.447,4.447,0,0,0,2.2,3.9l79.1,47a4.291,4.291,0,0,0,2.4.6,5.025,5.025,0,0,0,2.4-.6l79.1-47a4.447,4.447,0,0,0,2.2-3.9V115.3l33-19.6a4.557,4.557,0,0,0,0-7.8ZM118.3,114,47.4,71.8l71.2-42.4,70.9,42.3ZM152.9,9.7,223.8,52,198.4,66.5,127.5,24.3Zm-68.6,0,25.4,14.5L38.8,66.5,13.4,52ZM38.8,77.3l70.9,42.2L84.3,134,13.4,91.9Zm4.8,83.3V120.4L82,143.2a4.519,4.519,0,0,0,4.5,0l27.2-15.6v74.5Zm149.5,0L123,202.2V127.3l27.8,15.9a4.519,4.519,0,0,0,4.5,0l37.8-22.5Zm-40.2-26.5-25.4-14.5,70.9-42.2,25.4,14.5Z"/>
</svg>
