<svg xmlns="http://www.w3.org/2000/svg" viewBox="0 0 489.873 512">
  <defs>
    <style>
      .cls-1 {
        fill: #00a3d2;
      }
    </style>
  </defs>
  <g id="trees" transform="translate(-0.499)">
    <path id="Path_1035" data-name="Path 1035" class="cls-1" d="M245.434,308.18a9.942,9.942,0,0,1-1.949-.2,10.049,10.049,0,0,1-1.871-.57,9.86,9.86,0,0,1-1.727-.918,9.531,9.531,0,0,1-1.523-1.242,9.694,9.694,0,0,1-1.238-1.52,9.9,9.9,0,0,1-.918-1.73,10.1,10.1,0,0,1-.57-1.867,9.662,9.662,0,0,1-.2-1.953,9.787,9.787,0,0,1,.2-1.957,9.552,9.552,0,0,1,.57-1.871,9.314,9.314,0,0,1,.918-1.719,9.725,9.725,0,0,1,1.238-1.523,10.261,10.261,0,0,1,1.523-1.25,9.86,9.86,0,0,1,1.727-.918,10.049,10.049,0,0,1,1.871-.57,9.8,9.8,0,0,1,3.9,0,10.011,10.011,0,0,1,1.867.57,9.9,9.9,0,0,1,1.73.918,10.228,10.228,0,0,1,1.52,1.25,9.3,9.3,0,0,1,1.238,1.523,9.958,9.958,0,0,1,1.492,3.59,9.94,9.94,0,0,1-2.73,9.027,9.677,9.677,0,0,1-1.52,1.242,10.218,10.218,0,0,1-3.6,1.488A9.881,9.881,0,0,1,245.434,308.18Zm0,0"/>
    <path id="Path_1036" data-name="Path 1036" class="cls-1" d="M490.109,499.734l-55.281-237.52a10,10,0,0,0-9.738-7.734H395.621V199.3a80.092,80.092,0,0,0,46.738-136,57.078,57.078,0,1,0-113.477,0,80.142,80.142,0,0,0-13.355,17.777A80,80,0,0,0,302.176,63.3a58.19,58.19,0,0,0,.336-6.23,57.076,57.076,0,0,0-114.152,0,58.135,58.135,0,0,0,.336,6.23,80,80,0,0,0-13.352,17.777A80.142,80.142,0,0,0,161.988,63.3a57.078,57.078,0,1,0-113.477,0,80.092,80.092,0,0,0,46.738,136v55.18H65.781a10,10,0,0,0-9.738,7.734L.762,499.734A10,10,0,0,0,10.5,512H480.371a10,10,0,0,0,9.738-12.266ZM346.156,74.516a9.989,9.989,0,0,0,3.207-9.633,37.506,37.506,0,0,1-.82-7.809,37.076,37.076,0,1,1,73.332,7.813,10.005,10.005,0,0,0,3.211,9.629A60.093,60.093,0,0,1,395.621,179.09V149.207a10.151,10.151,0,0,0,1.645-1.332l25.2-25.191a10,10,0,0,0-14.145-14.145l-12.7,12.7V47.781a10,10,0,0,0-20,0v73.453l-12.7-12.7a10,10,0,0,0-14.145,14.145l25.2,25.191a9.763,9.763,0,0,0,1.645,1.328V179.09A60.093,60.093,0,0,1,346.156,74.516ZM375.621,199.3v55.18H255.434V199.3a80.26,80.26,0,0,0,60.094-40.746A80.267,80.267,0,0,0,375.621,199.3ZM205.973,74.516a10.007,10.007,0,0,0,3.207-9.633,37.076,37.076,0,1,1,72.512,0,10,10,0,0,0,3.207,9.629A60.093,60.093,0,0,1,255.434,179.09V149.2a9.947,9.947,0,0,0,1.648-1.328l25.191-25.191a10,10,0,0,0-14.145-14.145l-12.7,12.7V47.781a10,10,0,0,0-20,0v73.453l-12.7-12.7A10,10,0,0,0,208.6,122.684l25.191,25.191a9.921,9.921,0,0,0,1.645,1.328V179.09A60.094,60.094,0,0,1,205.973,74.516ZM235.434,199.3v55.18H115.25V199.3a80.274,80.274,0,0,0,60.094-40.746A80.26,80.26,0,0,0,235.434,199.3ZM45.156,119.832A60.1,60.1,0,0,1,65.785,74.516,10,10,0,0,0,69,64.887a37.075,37.075,0,1,1,72.508,0,10,10,0,0,0,3.211,9.633A60.093,60.093,0,0,1,115.25,179.09V149.2a9.921,9.921,0,0,0,1.645-1.328l25.191-25.191a10,10,0,0,0-14.141-14.145l-12.7,12.7V47.781a10,10,0,0,0-20,0v73.453l-12.7-12.7A10,10,0,0,0,68.41,122.684l25.2,25.191A9.763,9.763,0,0,0,95.25,149.2V179.09A60.187,60.187,0,0,1,45.156,119.832ZM65.848,492,87.309,388.973a10,10,0,1,0-19.578-4.078L45.418,492H23.094L73.723,274.48h54.094L94.063,492Zm118.535,0H114.3l33.754-217.52H159.9l-6.512,69.059a10.006,10.006,0,0,0,9.02,10.9c.32.027.637.043.949.043a10,10,0,0,0,9.945-9.062l6.688-70.937h13.555Zm71.051,0V338.086a10,10,0,0,0-20,0V492H204.4l9.164-217.52H277.3L286.469,492Zm51.055,0-9.164-217.52h13.551l6.691,70.938a10,10,0,0,0,9.941,9.063c.316,0,.633-.016.953-.043a10,10,0,0,0,9.016-10.9l-6.512-69.059h11.848L376.566,492Zm136.148,0L420.328,384.895a10,10,0,0,0-19.582,4.078L422.207,492h-25.4L363.055,274.48h54.094L467.777,492Zm0,0"/>
  </g>
</svg>
