<svg xmlns="http://www.w3.org/2000/svg" viewBox="0 0 87.696 85.621">
  <defs>
    <style>
      .cls-1 {
        fill: #41000f;
      }
    </style>
  </defs>
  <g id="Group_1952" data-name="Group 1952" transform="translate(-500 -378)">
    <path id="Path_1641" data-name="Path 1641" class="cls-1" d="M43.614,12.363,41,9.154V9.036A9.823,9.823,0,0,0,43.377.717,1.054,1.054,0,0,0,42.188,0a1.054,1.054,0,0,0-.713,1.188,7.726,7.726,0,0,1-1.783,6.417L36.246,3.45a3.766,3.766,0,0,0-3.684-1.188L25.075,3.925A8.055,8.055,0,0,0,21.866,5.47L1.9,21.514a4.793,4.793,0,0,0-.951,6.655L12.6,42.311a4.551,4.551,0,0,0,2.852,1.545h.475a5.679,5.679,0,0,0,3.328-1.188L38.623,27.1a8.495,8.495,0,0,0,2.5-3.328l2.971-7.606A3.589,3.589,0,0,0,43.614,12.363Zm-1.307,2.971L39.336,22.94a6.379,6.379,0,0,1-1.9,2.5L18.064,40.885a3.633,3.633,0,0,1-2.377.832,2.031,2.031,0,0,1-1.545-.832h0L2.5,26.862a2.9,2.9,0,0,1,.713-3.922L23.055,7.015a6.083,6.083,0,0,1,2.5-1.188l7.487-1.664h.475a1.908,1.908,0,0,1,1.307.594l3.565,4.4a8.436,8.436,0,0,1-1.664,1.188,4.338,4.338,0,0,0-6.18-.357,4.465,4.465,0,0,0-1.664,3.09,4.776,4.776,0,0,0,.951,3.328,4.282,4.282,0,0,0,3.446,1.545,4.8,4.8,0,0,0,2.971-1.07,4.465,4.465,0,0,0,1.664-3.09,3.815,3.815,0,0,0-.119-1.664,7.807,7.807,0,0,0,2.02-1.426l2.614,3.09A2.421,2.421,0,0,1,42.307,15.334Zm-6.536-2.02A2.66,2.66,0,0,1,34.82,15.1h0a2.475,2.475,0,0,1-3.565-.238,2.5,2.5,0,0,1-.594-1.783,2.66,2.66,0,0,1,.951-1.783,2.224,2.224,0,0,1,1.664-.594,2.389,2.389,0,0,1,1.545.475,2.551,2.551,0,0,0-.832.475,1,1,0,0,0-.475,1.307.941.941,0,0,0,.951.594.437.437,0,0,0,.357-.119s.475-.238,1.07-.475A.437.437,0,0,0,35.771,13.314Z" transform="translate(520.999 399.019)"/>
    <path id="Path_1687" data-name="Path 1687" class="cls-1" d="M45.021,0A42.723,42.723,0,0,0,7,23.141l-5.95-1.322a.73.73,0,0,0-.992.992l5.95,15.207a.818.818,0,0,0,1.322.331L18.9,26.777c.331-.331.331-1.322-.331-1.322l-6.281-1.322A37.517,37.517,0,0,1,71.8,16.2a37.516,37.516,0,0,1,0,53.554A37.567,37.567,0,0,1,12.623,62.48a2.36,2.36,0,0,0-3.306-.992c-.992.661-1.653,2.314-.992,3.306a42.679,42.679,0,0,0,79.34-21.818A42.4,42.4,0,0,0,45.021,0Z" transform="translate(500.027 378)"/>
  </g>
</svg>
