<?xml version="1.0" encoding="utf-8"?>
<!-- Generator: Adobe Illustrator 18.0.0, SVG Export Plug-In . SVG Version: 6.00 Build 0)  -->
<!DOCTYPE svg PUBLIC "-//W3C//DTD SVG 1.1//EN" "http://www.w3.org/Graphics/SVG/1.1/DTD/svg11.dtd">
<svg version="1.1" id="Layer_1" xmlns="http://www.w3.org/2000/svg" xmlns:xlink="http://www.w3.org/1999/xlink" x="0px" y="0px"
	 viewBox="0 0 100 100" enable-background="new 0 0 100 100" xml:space="preserve">
<g>
	<g>
		<path fill="#AF7B46" d="M27.6,67.1c-0.9,0-1.9-0.3-2.6-1L3.3,44.8c-1.5-1.4-1.5-3.8-0.1-5.2c1.4-1.5,3.8-1.5,5.2-0.1l21.8,21.2
			c1.5,1.4,1.5,3.8,0.1,5.2C29.5,66.7,28.6,67.1,27.6,67.1z"/>
	</g>
	<g>
		<path fill="#AF7B46" d="M22.5,97.1c-0.2,0-0.4,0-0.6-0.1c-2-0.3-3.3-2.2-3-4.3l5.1-30c0.3-2,2.2-3.3,4.3-3c2,0.3,3.3,2.2,3,4.3
			l-5.1,30C25.8,95.8,24.3,97.1,22.5,97.1z"/>
	</g>
	<g>
		<path fill="#AF7B46" d="M22.5,97.1c-1.3,0-2.6-0.7-3.3-2c-0.9-1.8-0.3-4,1.5-5L47.7,76c1.8-0.9,4-0.3,5,1.5c0.9,1.8,0.3,4-1.5,5
			L24.2,96.7C23.7,97,23.1,97.1,22.5,97.1z"/>
	</g>
	<g>
		<path fill="#AF7B46" d="M76.4,97.1c-0.6,0-1.2-0.1-1.7-0.4L47.7,82.5c-1.8-0.9-2.5-3.2-1.5-5c0.9-1.8,3.2-2.5,5-1.5l26.9,14.2
			c1.8,0.9,2.5,3.2,1.5,5C79,96.4,77.7,97.1,76.4,97.1z"/>
	</g>
	<g>
		<path fill="#AF7B46" d="M76.4,97.1c-1.8,0-3.3-1.3-3.6-3.1l-5.1-30c-0.3-2,1-3.9,3-4.3c2-0.3,3.9,1,4.3,3l5.1,30
			c0.3,2-1,3.9-3,4.3C76.8,97.1,76.6,97.1,76.4,97.1z"/>
	</g>
	<g>
		<path fill="#AF7B46" d="M71.2,67.1c-1,0-1.9-0.4-2.6-1.1c-1.4-1.5-1.4-3.8,0.1-5.2l21.8-21.2c1.5-1.4,3.8-1.4,5.2,0.1
			c1.4,1.5,1.4,3.8-0.1,5.2L73.8,66.1C73.1,66.8,72.1,67.1,71.2,67.1z"/>
	</g>
	<g>
		<path fill="#AF7B46" d="M93,45.9c-0.2,0-0.4,0-0.5,0l-30.1-4.4c-2-0.3-3.4-2.2-3.1-4.2c0.3-2,2.2-3.4,4.2-3.1l30.1,4.4
			c2,0.3,3.4,2.2,3.1,4.2C96.4,44.5,94.8,45.9,93,45.9z"/>
	</g>
	<g>
		<path fill="#AF7B46" d="M62.9,41.5c-1.4,0-2.8-0.8-3.4-2.2L46,7.4c-0.8-1.9,0.1-4,2-4.8c1.9-0.8,4,0.1,4.8,2l13.5,31.8
			c0.8,1.9-0.1,4-2,4.8C63.9,41.4,63.4,41.5,62.9,41.5z"/>
	</g>
	<g>
		<path fill="#AF7B46" d="M36,41.5c-0.5,0-1-0.1-1.4-0.3c-1.9-0.8-2.7-3-2-4.8L46,4.6c0.8-1.9,3-2.7,4.8-2c1.9,0.8,2.7,3,2,4.8
			L39.3,39.2C38.8,40.6,37.4,41.5,36,41.5z"/>
	</g>
	<g>
		<path fill="#AF7B46" d="M5.8,45.9c-1.8,0-3.4-1.3-3.6-3.2c-0.3-2,1.1-3.9,3.1-4.2l30.1-4.4c2-0.3,3.9,1.1,4.2,3.1
			c0.3,2-1.1,3.9-3.1,4.2L6.4,45.8C6.2,45.8,6,45.9,5.8,45.9z"/>
	</g>
</g>
</svg>
