<svg xmlns="http://www.w3.org/2000/svg" viewBox="0 0 176.83 237.34"><defs><style>.cls-1{isolation:isolate;}.cls-2,.cls-3{fill:none;stroke-linecap:round;stroke-linejoin:round;stroke-width:9px;mix-blend-mode:multiply;}.cls-2{stroke:#f7941d;}.cls-3{stroke:#3c2415;}</style></defs><title>Asset 1</title><g class="cls-1"><g id="Layer_2" data-name="Layer 2"><g id="Layer_1-2" data-name="Layer 1"><path class="cls-2" d="M4.5,4.5V54.76a31.7,31.7,0,0,0,31.7,31.7h0a31.7,31.7,0,0,0,31.7-31.7V4.5H55.35V55.27H43.27V4.5H29.8V55.27H17.17V4.5Z"/><circle class="cls-3" cx="130.46" cy="46.59" r="41.87"/><path class="cls-3" d="M143.28,86.46V220.19a12.73,12.73,0,0,1-12.82,12.65h0a12.73,12.73,0,0,1-12.81-12.65V86.46"/><path class="cls-2" d="M49,83.46V220.19A12.73,12.73,0,0,1,36.2,232.84h0a12.73,12.73,0,0,1-12.82-12.65V83.46"/></g></g></g></svg>