<svg xmlns="http://www.w3.org/2000/svg" viewBox="0 0 26.53 27.133">
  <defs>
    <style>
      .cls-1 {
        fill: #ff9100;
      }
    </style>
  </defs>
  <g id="Group_1891" data-name="Group 1891" transform="translate(-26 -496)">
    <path id="Path_1640" data-name="Path 1640" class="cls-1" d="M15.579,27.133H10.918a1.434,1.434,0,0,1-1.461-1.252L8.97,23.237a1.533,1.533,0,0,0-.835-1.113,1.775,1.775,0,0,0-1.461-.07l-2.3.9A1.531,1.531,0,0,1,2.5,22.332L.2,18.367a1.6,1.6,0,0,1,.348-1.948l1.948-1.6a1.565,1.565,0,0,0,0-2.5l-1.948-1.6A1.5,1.5,0,0,1,.2,8.766L2.569,4.8a1.554,1.554,0,0,1,1.809-.7l2.435.9A1.805,1.805,0,0,0,8.274,4.87a1.707,1.707,0,0,0,.765-1.183h0l.348-2.435A1.569,1.569,0,0,1,10.918,0h4.592A1.564,1.564,0,0,1,17.04,1.322l.278,2.3A1.708,1.708,0,0,0,18.083,4.8a1.553,1.553,0,0,0,1.461.139l2.574-.9a1.554,1.554,0,0,1,1.809.7l2.365,4.035a1.6,1.6,0,0,1-.348,1.948L24,12.314a1.565,1.565,0,0,0,0,2.5l1.948,1.6a1.5,1.5,0,0,1,.348,1.948L23.927,22.4a1.554,1.554,0,0,1-1.809.7l-2.5-.9a1.805,1.805,0,0,0-1.461.139,1.707,1.707,0,0,0-.765,1.183l-.348,2.365A1.494,1.494,0,0,1,15.579,27.133ZM7.3,20.871a3.121,3.121,0,0,1,1.322.348A2.659,2.659,0,0,1,9.944,23.1l.487,2.644a.463.463,0,0,0,.487.348h4.661a.508.508,0,0,0,.487-.417l.348-2.365a2.712,2.712,0,0,1,1.252-1.878,2.665,2.665,0,0,1,2.3-.209l2.5.9a.438.438,0,0,0,.557-.209l2.365-4.035a.376.376,0,0,0-.139-.557l-1.948-1.6a2.608,2.608,0,0,1-.974-2.087,2.71,2.71,0,0,1,.974-2.087l1.948-1.6a.455.455,0,0,0,.139-.557L23.023,5.357a.466.466,0,0,0-.557-.209l-2.574.9a2.72,2.72,0,0,1-3.548-2.226L16,1.461a.465.465,0,0,0-.487-.417H10.918a.508.508,0,0,0-.487.417L10.083,3.9A2.713,2.713,0,0,1,8.83,5.774a2.665,2.665,0,0,1-2.3.209l-2.5-.9a.438.438,0,0,0-.557.209L1.108,9.253a.376.376,0,0,0,.139.557L3.2,11.41A2.608,2.608,0,0,1,4.169,13.5,2.71,2.71,0,0,1,3.2,15.584l-1.948,1.6a.455.455,0,0,0-.139.557l2.3,3.966a.528.528,0,0,0,.626.209l2.226-.835A2.792,2.792,0,0,1,7.3,20.871Z" transform="translate(26.017 496)"/>
    <path id="Path_1641" data-name="Path 1641" class="cls-1" d="M16.17,23.1a6.4,6.4,0,1,1,6.47-6.4A6.443,6.443,0,0,1,16.17,23.1Zm0-11.758A5.357,5.357,0,1,0,21.6,16.7,5.419,5.419,0,0,0,16.17,11.344Z" transform="translate(23.06 492.866)"/>
  </g>
</svg>
