<svg xmlns="http://www.w3.org/2000/svg" viewBox="0 0 211.07 208.15"><defs><style>.cls-1{isolation:isolate;}.cls-2,.cls-3{fill:none;stroke-linecap:round;stroke-linejoin:round;stroke-width:9px;}.cls-2{stroke:#f7941d;}.cls-3{stroke:#3c2415;mix-blend-mode:multiply;}.cls-4{fill:#3c2415;}</style></defs><title>Asset 2</title><g class="cls-1"><g id="Layer_2" data-name="Layer 2"><g id="Layer_1-2" data-name="Layer 1"><path class="cls-2" d="M128.94,118.92h72.95a0,0,0,0,1,0,0v50.71a34.72,34.72,0,0,1-34.72,34.72h-3.51a34.72,34.72,0,0,1-34.72-34.72V118.92a0,0,0,0,1,0,0Z" transform="translate(-65.02 141.97) rotate(-39.46)"/><line class="cls-2" x1="138.27" y1="128.66" x2="51.22" y2="22.91"/><line class="cls-2" x1="28.85" y1="41.32" x2="73.58" y2="4.5"/><line class="cls-3" x1="17.07" y1="114.9" x2="200.32" y2="34.57"/><path class="cls-3" d="M70.34,200.15c-23.41,2-57.37-8-65.84-23.89l7.62-46A22.11,22.11,0,0,1,41.46,113h0a38.74,38.74,0,0,1,25.47,34Z"/><ellipse class="cls-4" cx="40.05" cy="106.62" rx="5.96" ry="9.96"/></g></g></g></svg>