<svg xmlns="http://www.w3.org/2000/svg" viewBox="0 0 240.83 184.27"><defs><style>.cls-1{fill:#a87b50;}.cls-2{fill:#7a4c30;}.cls-3{fill:#62b08f;}.cls-4{fill:#009766;}</style></defs><title>Asset 2</title><g id="Layer_2" data-name="Layer 2"><g id="Layer_1-2" data-name="Layer 1"><path class="cls-1" d="M26.12,83v95.79a5.5,5.5,0,0,0,5.5,5.5H207.09a5.5,5.5,0,0,0,5.5-5.5V83.46a55.21,55.21,0,0,1-11,1.2v88.61H37.12V84.6a56.62,56.62,0,0,1-11-1.62m5.5-10.23a4.87,4.87,0,0,0-.66,0c1,.2,2,.37,3,.5a5.59,5.59,0,0,0-2.39-.54"/><path class="cls-1" d="M95.13,0H32.72a5.52,5.52,0,0,0-5,3.28L.47,65a5.49,5.49,0,0,0,1.87,6.72,75.85,75.85,0,0,0,18.27,9.63q2.75,1,5.51,1.66V78.25A5.5,5.5,0,0,1,31,72.79a48,48,0,0,1-6.69-1.85,60.91,60.91,0,0,1-11.86-5.77L36.3,11H87.55l2.51-7.29A5.49,5.49,0,0,1,95.13,0m53.3,0H95.38a5.5,5.5,0,0,1,5.08,7.29L99.18,11h45.27l-1.17-3.94A5.5,5.5,0,0,1,147,.23,5.61,5.61,0,0,1,148.43,0m59.69,0H148.68a5.5,5.5,0,0,1,5.15,3.94L155.92,11h48.61l23.9,54.17a61,61,0,0,1-11.87,5.77,45.73,45.73,0,0,1-15.37,2.72A46.25,46.25,0,0,1,185.93,71a64.53,64.53,0,0,1-14.41-7.26l.56,1.89a5.5,5.5,0,0,1-3.72,6.83,5.27,5.27,0,0,1-1.56.23,5.5,5.5,0,0,1-5.27-3.94l-1.15-3.89a73.86,73.86,0,0,1-17.68,8,80.88,80.88,0,0,1-23.27,3.43h0A75.17,75.17,0,0,1,96.9,72.9a63.17,63.17,0,0,1-16.34-7.77L79.23,69A5.49,5.49,0,0,1,74,72.69a5.65,5.65,0,0,1-1.79-.3,5.5,5.5,0,0,1-3.41-7l.6-1.73A65.17,65.17,0,0,1,54.91,71a46.31,46.31,0,0,1-15.27,2.66A42.47,42.47,0,0,1,34,73.29a5.51,5.51,0,0,1,3.11,5V84.6c.84,0,1.67.06,2.51.06h0A57.35,57.35,0,0,0,58.5,81.4a75.18,75.18,0,0,0,15.38-7.51A73.92,73.92,0,0,0,93.6,83.4a86.45,86.45,0,0,0,25.83,3.87A88.7,88.7,0,0,0,166.82,73.8a74.55,74.55,0,0,0,15.51,7.6,57.35,57.35,0,0,0,18.85,3.26h.41V78.84a5.5,5.5,0,0,1,11,0v4.62a60.25,60.25,0,0,0,7.63-2.14,76.09,76.09,0,0,0,18.28-9.63A5.52,5.52,0,0,0,240.37,65L213.15,3.28a5.51,5.51,0,0,0-5-3.28"/><path class="cls-2" d="M207.09,73.34a5.5,5.5,0,0,0-5.5,5.5v5.82a55.21,55.21,0,0,0,11-1.2V78.84a5.5,5.5,0,0,0-5.5-5.5M31,72.79a5.5,5.5,0,0,0-4.84,5.46V83a56.62,56.62,0,0,0,11,1.62V78.25a5.51,5.51,0,0,0-3.11-5c-1-.13-2-.3-3-.5"/><path class="cls-1" d="M99.18,11H87.55L69.43,63.67l1.47-1a5.5,5.5,0,0,1,6.51.18q1.53,1.18,3.15,2.28L99.18,11M95.26,0h0"/><path class="cls-2" d="M74,61.69a5.46,5.46,0,0,0-3.13,1l-1.47,1-.6,1.73a5.5,5.5,0,0,0,3.41,7,5.65,5.65,0,0,0,1.79.3A5.49,5.49,0,0,0,79.23,69l1.33-3.85Q78.94,64,77.41,62.85A5.49,5.49,0,0,0,74,61.69M95.38,0h-.25a5.49,5.49,0,0,0-5.07,3.71L87.55,11H99.18l1.28-3.71A5.5,5.5,0,0,0,95.38,0"/><path class="cls-1" d="M155.92,11H144.45l15.93,53.86q1.65-1,3.24-2.16h0a5.5,5.5,0,0,1,6.31,0l1.59,1.07L155.92,11M148.56,0h0"/><path class="cls-2" d="M163.67,71.71l3.13-4.52-3.13,4.52m3.13-10a5.53,5.53,0,0,0-3.18,1h0q-1.59,1.13-3.24,2.16l1.15,3.89a5.5,5.5,0,0,0,5.27,3.94,5.27,5.27,0,0,0,1.56-.23,5.5,5.5,0,0,0,3.72-6.83l-.56-1.89-1.59-1.07a5.49,5.49,0,0,0-3.13-1M148.68,0h-.25A5.61,5.61,0,0,0,147,.23a5.5,5.5,0,0,0-3.71,6.83L144.45,11h11.47l-2.09-7.06A5.5,5.5,0,0,0,148.68,0"/><path class="cls-3" d="M167.55,128.51a4.51,4.51,0,0,1-4.5,4.5h-4.5V145.6H123.86v4.5a4.51,4.51,0,0,1-4.47,4.5h43.66a4.51,4.51,0,0,0,4.5-4.5h-4.5v0h4.5V128.51m-48.19-26.09H75.66a4.51,4.51,0,0,0-4.5,4.5V150.1a4.51,4.51,0,0,0,4.5,4.5h43.66a4.5,4.5,0,0,1-4.46-4.5v-4.5H80.16V133h-4.5a4.5,4.5,0,0,1,0-9h4.5V111.42h34.7v-4.5a4.5,4.5,0,0,1,4.5-4.5m43.69,0H119.36a4.51,4.51,0,0,1,4.5,4.5v4.5h34.69V124h4.5a4.5,4.5,0,0,1,4.5,4.5V106.92a4.51,4.51,0,0,0-4.5-4.5"/><polyline class="cls-3" points="123.86 111.42 114.86 111.42 114.86 124.01 123.86 124.01 123.86 111.42"/><path class="cls-4" d="M119.36,102.42h0a4.5,4.5,0,0,0-4.5,4.5v4.5h9v-4.5a4.51,4.51,0,0,0-4.5-4.5"/><path class="cls-3" d="M119.39,154.6h0M123.86,133h-9V145.6h9V133"/><path class="cls-4" d="M123.86,145.6h-9v4.5a4.5,4.5,0,0,0,4.46,4.5h.07a4.51,4.51,0,0,0,4.47-4.5v-4.5"/><polyline class="cls-3" points="158.55 124.01 123.86 124.01 123.86 133.01 158.55 133.01 158.55 124.01"/><path class="cls-4" d="M163.05,124h-4.5v9h4.5a4.51,4.51,0,0,0,4.5-4.5h0a4.5,4.5,0,0,0-4.5-4.5"/><polyline class="cls-3" points="114.86 124.01 80.16 124.01 80.16 133.01 114.86 133.01 114.86 124.01"/><path class="cls-4" d="M80.16,124h-4.5a4.5,4.5,0,0,0,0,9h4.5v-9"/><polyline class="cls-4" points="123.86 124.01 114.86 124.01 114.86 133.01 123.86 133.01 123.86 124.01"/></g></g></svg>