<svg id="Group_2129" data-name="Group 2129" xmlns="http://www.w3.org/2000/svg" viewBox="0 0 207.3 237.4">
  <defs>
    <style>
      .cls-1 {
        fill: #a87b50;
      }

      .cls-2 {
        fill: #cd2128;
      }

      .cls-3 {
        fill: #952529;
      }

      .cls-4 {
        fill: #b62429;
      }
    </style>
  </defs>
  <path id="Path_1037" data-name="Path 1037" class="cls-1" d="M154.2,172.2h0m17.8-.1h0m-8.8.1a17.307,17.307,0,0,1,2-8.4,6.53,6.53,0,0,1,1.6-1.9c.2-.2.4-.2.5-.3.1,0,.2-.1.3-.1a.367.367,0,0,1,.3.1,3.934,3.934,0,0,1,1.1.8,10.288,10.288,0,0,1,2.1,3.7,18.664,18.664,0,0,1,.9,6.1h0a17.01,17.01,0,0,1-2,8.4,6.53,6.53,0,0,1-1.6,1.9c-.2.2-.4.2-.5.3-.1,0-.2.1-.3.1a.367.367,0,0,1-.3-.1,3.934,3.934,0,0,1-1.1-.8,10.288,10.288,0,0,1-2.1-3.7,18.664,18.664,0,0,1-.9-6.1h0m4.4-19.7h0a9.191,9.191,0,0,0-3.3.6,11.858,11.858,0,0,0-4.6,3,17.93,17.93,0,0,0-4.1,7.1,28.779,28.779,0,0,0-1.4,9h4.5l4.5-.1-4.5.1h-4.5a25.822,25.822,0,0,0,3.2,13,15.1,15.1,0,0,0,4.1,4.6,12.468,12.468,0,0,0,2.8,1.5,8.809,8.809,0,0,0,3.3.6h0a9.6,9.6,0,0,0,3.3-.6,11.858,11.858,0,0,0,4.6-3,18.652,18.652,0,0,0,4.1-7.1,28.779,28.779,0,0,0,1.4-9h0a25.822,25.822,0,0,0-3.2-13,15.1,15.1,0,0,0-4.1-4.6,12.468,12.468,0,0,0-2.8-1.5,9.191,9.191,0,0,0-3.3-.6"/>
  <path id="Path_1038" data-name="Path 1038" class="cls-1" d="M12.7,185.1a3.979,3.979,0,0,1-2.5-1.1,3.39,3.39,0,0,1-.9-1.4,5.44,5.44,0,0,1-.4-2,11.024,11.024,0,0,1,2.2-6,4.5,4.5,0,0,0-.2-5.3,3.349,3.349,0,0,1-.7-1.3,4.4,4.4,0,0,1-.2-1,2.016,2.016,0,0,1,.3-1.1,3.738,3.738,0,0,1,1.3-1.5,3.188,3.188,0,0,1,1.7-.6h0a2.2,2.2,0,0,1,.8.1,2.434,2.434,0,0,1,1.3,1.1,10.778,10.778,0,0,1,1.6,3.4,4.5,4.5,0,0,0,4.3,3.2h.3L47,170.1v1.7H21.8a4.525,4.525,0,0,0-4.5,4.4,27.276,27.276,0,0,1-.7,4.9,7.647,7.647,0,0,1-2,3.4,2.7,2.7,0,0,1-1.9.6h0m.7-30.2h0a11.967,11.967,0,0,0-4.7,1,11.807,11.807,0,0,0-5.3,4.3,11.588,11.588,0,0,0-2.2,6.9,11.25,11.25,0,0,0,.7,4c.1.3.3.7.4,1a18.549,18.549,0,0,0-2.2,8.5,16.165,16.165,0,0,0,1,5.4,12.736,12.736,0,0,0,11.7,8.1h0a12.317,12.317,0,0,0,5.2-1.2,14.068,14.068,0,0,0,6.1-6.2,20.441,20.441,0,0,0,1.9-5.9H51.2a4.479,4.479,0,0,1-4.1-4.5V165.4a4.5,4.5,0,0,1,3.4-4.4c.1,0,.3-.1.4-.1l-26.5,1.6-.6-1.2a14.142,14.142,0,0,0-4.6-4.8,12.362,12.362,0,0,0-5.8-1.6"/>
  <path id="Path_1039" data-name="Path 1039" class="cls-2" d="M149.4,105.5a71.093,71.093,0,0,0-33.2,8,102.272,102.272,0,0,0-18.8,12.9c-8.5,7.2-15.8,14.9-23.3,21.3A83.62,83.62,0,0,1,62.8,156,47.055,47.055,0,0,1,51,161h.7a4.471,4.471,0,0,1,3.1,1.2,4.374,4.374,0,0,1,1.4,3.3v10.9h0a4.481,4.481,0,0,1-4.5,4.5h-.2a37.064,37.064,0,0,1,11.1,2.9c6.2,2.7,11.9,7.3,17.8,12.7,4.4,4.1,8.9,8.6,13.7,13.2,7.2,6.9,15.2,13.8,25.1,19a74.72,74.72,0,0,0,35.7,8.7h.1a102.163,102.163,0,0,0,13.2-.9h-.3a25.532,25.532,0,0,1-8.6-1.5,32.448,32.448,0,0,1-7.8-4.1A31.658,31.658,0,0,1,148,228a65.481,65.481,0,0,1-25-7.5,97.1,97.1,0,0,1-18-13c-8.3-7.4-15.7-15.6-23.9-22.4a67.451,67.451,0,0,0-13.2-8.8,45.293,45.293,0,0,0-11.6-3.9v-3.6a55.729,55.729,0,0,0,9.7-4.2c7.1-3.9,13.3-9.2,19.3-14.7,9-8.3,17.7-17.2,27.7-24a66.255,66.255,0,0,1,16.4-8.2,62.927,62.927,0,0,1,20.2-3.2h.4a30.846,30.846,0,0,1,9.2-5.1,24.7,24.7,0,0,1,8.6-1.5h0a21.862,21.862,0,0,1,3.6.3.9.9,0,0,0-.5-.1,95.241,95.241,0,0,0-21.5-2.6h0"/>
  <path id="Path_1040" data-name="Path 1040" class="cls-3" d="M56.1,176.3h0m-4.5-15.4h-.7c-.1,0-.3.1-.4.1a4.5,4.5,0,0,0-3.4,4.4v10.9a4.55,4.55,0,0,0,4.1,4.5h.4a4.481,4.481,0,0,0,4.5-4.5H51.6v0h4.5V165.4a4.706,4.706,0,0,0-1.4-3.3,4.653,4.653,0,0,0-3.1-1.2"/>
  <path id="Path_1041" data-name="Path 1041" class="cls-2" d="M167.6,227.5h0"/>
  <path id="Path_1042" data-name="Path 1042" class="cls-2" d="M127.9,172.2h0m43.3-64a4.474,4.474,0,0,1-1.5,8.7,3.4,3.4,0,0,1-1-.1,83.742,83.742,0,0,0-18.9-2.3,40.21,40.21,0,0,0-3.8,3.4c-5.7,5.9-10.2,13.8-13.3,23.1a99.089,99.089,0,0,0-4.9,31.2h0c0,17.2,4.1,32.9,10.9,44.5a51.132,51.132,0,0,0,8.9,11.3c2.2.2,4.6.3,7,.3a88.834,88.834,0,0,0,12.2-.9h.6a15.779,15.779,0,0,1-5.6-1,24.318,24.318,0,0,1-9.4-6.3c-4.5-4.6-8.5-11.4-11.3-19.7a88.919,88.919,0,0,1-4.4-28.3h0c0-15.8,3.8-30,9.7-40a36.516,36.516,0,0,1,9.9-11.4,22.416,22.416,0,0,1,5.5-2.9,17.848,17.848,0,0,1,5.6-1h0a15.4,15.4,0,0,1,5.6,1,24.318,24.318,0,0,1,9.4,6.3c4.5,4.6,8.5,11.4,11.3,19.7a88.919,88.919,0,0,1,4.4,28.3h0c0,15.8-3.8,30-9.7,40a36.516,36.516,0,0,1-9.9,11.4,22.416,22.416,0,0,1-5.5,2.9,17.848,17.848,0,0,1-5.6,1,4.509,4.509,0,0,1,4.4,3.9,4.584,4.584,0,0,1-3.8,5.1h-.3a23.856,23.856,0,0,0,8.3-1.5,34.027,34.027,0,0,0,12.9-8.6c5.7-5.9,10.2-13.8,13.3-23a99.089,99.089,0,0,0,4.9-31.2h0c0-17.2-4.1-32.9-10.9-44.5a46.578,46.578,0,0,0-12.4-14.2,32.275,32.275,0,0,0-7.8-4.1,22.53,22.53,0,0,0-4.8-1.1"/>
  <path id="Path_1043" data-name="Path 1043" class="cls-4" d="M167.7,227.5H167a88.831,88.831,0,0,1-12.2.9c-2.4,0-4.7-.1-7-.3,1.1,1,2.3,2,3.5,2.9a32.275,32.275,0,0,0,7.8,4.1,24.7,24.7,0,0,0,8.6,1.5h.6a4.582,4.582,0,0,0-.6-9.1m-.1-119.6h0m0,0h0a25.109,25.109,0,0,0-8.6,1.5,32.117,32.117,0,0,0-9.2,5.1,83.742,83.742,0,0,1,18.9,2.3,3.4,3.4,0,0,0,1,.1,4.474,4.474,0,0,0,1.5-8.7,21.862,21.862,0,0,0-3.6-.3"/>
  <path id="Path_1044" data-name="Path 1044" class="cls-1" d="M44.1,65.2h0m0,0h0m-8.8,0a17.308,17.308,0,0,1,2-8.4,6.53,6.53,0,0,1,1.6-1.9c.2-.2.4-.2.5-.3.1,0,.2-.1.3-.1a.367.367,0,0,1,.3.1,3.934,3.934,0,0,1,1.1.8,10.288,10.288,0,0,1,2.1,3.7,18.664,18.664,0,0,1,.9,6.1h0a17.01,17.01,0,0,1-2,8.4,6.53,6.53,0,0,1-1.6,1.9c-.2.2-.4.2-.5.3-.1,0-.2.1-.3.1a.367.367,0,0,1-.3-.1,3.934,3.934,0,0,1-1.1-.8,10.288,10.288,0,0,1-2.1-3.7,18.664,18.664,0,0,1-.9-6.1h0m4.4-19.7h0a9.191,9.191,0,0,0-3.3.6,11.858,11.858,0,0,0-4.6,3,17.93,17.93,0,0,0-4.1,7.1,28.779,28.779,0,0,0-1.4,9v.1a25.822,25.822,0,0,0,3.2,13,15.1,15.1,0,0,0,4.1,4.6,12.469,12.469,0,0,0,2.8,1.5,8.808,8.808,0,0,0,3.3.6h0a9.6,9.6,0,0,0,3.3-.6,11.858,11.858,0,0,0,4.6-3,17.93,17.93,0,0,0,4.1-7.1,28.779,28.779,0,0,0,1.4-9h0a25.822,25.822,0,0,0-3.2-13,15.1,15.1,0,0,0-4.1-4.6A6.6,6.6,0,0,0,43,46.1a8.808,8.808,0,0,0-3.3-.6"/>
  <path id="Path_1045" data-name="Path 1045" class="cls-1" d="M194.6,43.2a12.317,12.317,0,0,0-5.2,1.2,14.068,14.068,0,0,0-6.1,6.2,20.441,20.441,0,0,0-1.9,5.9H156.2a4.479,4.479,0,0,1,4.1,4.5v4.5h25.2a4.525,4.525,0,0,0,4.5-4.4,27.277,27.277,0,0,1,.7-4.9,7.647,7.647,0,0,1,2-3.4,2.99,2.99,0,0,1,1.9-.7h0a3.979,3.979,0,0,1,2.5,1.1,3.39,3.39,0,0,1,.9,1.4,5.44,5.44,0,0,1,.4,2,11.024,11.024,0,0,1-2.2,6,4.5,4.5,0,0,0,.2,5.3,3.349,3.349,0,0,1,.7,1.3,4.4,4.4,0,0,1,.2,1,2.016,2.016,0,0,1-.3,1.1,3.738,3.738,0,0,1-1.3,1.5,3.187,3.187,0,0,1-1.7.6h0a2.2,2.2,0,0,1-.8-.1,2.434,2.434,0,0,1-1.3-1.1,10.778,10.778,0,0,1-1.6-3.4,4.5,4.5,0,0,0-4.3-3.2h-.3l-25.4,1.5v4.8a4.5,4.5,0,0,1-3.4,4.4c-.1,0-.3.1-.4.1L183,74.8l.6,1.2a14.142,14.142,0,0,0,4.6,4.8,11.043,11.043,0,0,0,5.8,1.6h0a12.363,12.363,0,0,0,4.7-1,11.807,11.807,0,0,0,5.3-4.3,11.589,11.589,0,0,0,2.2-6.9,11.25,11.25,0,0,0-.7-4c-.1-.3-.3-.7-.4-1a18.549,18.549,0,0,0,2.2-8.5,16.165,16.165,0,0,0-1-5.4,12.84,12.84,0,0,0-11.7-8.1h0"/>
  <path id="Path_1046" data-name="Path 1046" class="cls-2" d="M151.3,68.6a55.728,55.728,0,0,0-9.7,4.2c-7.1,3.9-13.3,9.2-19.3,14.7-9,8.3-17.7,17.2-27.7,24a66.255,66.255,0,0,1-16.4,8.2A62.927,62.927,0,0,1,58,122.9h-.4a30.846,30.846,0,0,1-9.2,5.1,24.7,24.7,0,0,1-8.6,1.5h0a21.863,21.863,0,0,1-3.6-.3.9.9,0,0,0,.5.1h0a98.2,98.2,0,0,0,21.2,2.5H58a71.094,71.094,0,0,0,33.2-8A102.272,102.272,0,0,0,110,110.9c8.5-7.2,15.8-14.9,23.3-21.3a83.619,83.619,0,0,1,11.3-8.3,47.055,47.055,0,0,1,11.8-5h-.7a4.471,4.471,0,0,1-3.1-1.2,4.374,4.374,0,0,1-1.4-3.3l.1-3.2m9-3.1h0v0M52.6,0h0A102.161,102.161,0,0,0,39.4.9h.3a25.532,25.532,0,0,1,8.6,1.5,32.448,32.448,0,0,1,7.8,4.1,31.657,31.657,0,0,1,3.5,2.9,65.481,65.481,0,0,1,25,7.5,97.1,97.1,0,0,1,18,13c8.3,7.4,15.7,15.6,23.9,22.4a67.45,67.45,0,0,0,13.2,8.8A45.293,45.293,0,0,0,151.3,65V61.1h0a4.816,4.816,0,0,1,1.3-3.2,4.626,4.626,0,0,1,3.2-1.3h.2a37.064,37.064,0,0,1-11.1-2.9C138.7,51,133,46.4,127.1,41c-4.4-4.1-8.9-8.6-13.7-13.2-7.2-6.9-15.2-13.8-25.1-19A73.594,73.594,0,0,0,52.6,0"/>
  <path id="Path_1047" data-name="Path 1047" class="cls-3" d="M155.9,56.5h-.2a4.816,4.816,0,0,0-3.2,1.3,4.626,4.626,0,0,0-1.3,3.2h0v3.9h0v3.6h0v3.4a4.706,4.706,0,0,0,1.4,3.3,4.3,4.3,0,0,0,3.1,1.2h.7c.1,0,.3-.1.4-.1a4.5,4.5,0,0,0,3.4-4.4V67.1h0V65.4h0V60.9a4.55,4.55,0,0,0-4.1-4.5c0,.1-.1.1-.2.1"/>
  <path id="Path_1048" data-name="Path 1048" class="cls-2" d="M39.7,9.9h0"/>
  <path id="Path_1049" data-name="Path 1049" class="cls-2" d="M70.4,65.2h0m2,0h0M39.4.9a23.856,23.856,0,0,0-8.3,1.5,33.761,33.761,0,0,0-12.9,8.5C12.5,16.8,8,24.7,4.9,34A99.089,99.089,0,0,0,0,65.2v.1H0c0,17.2,4.1,32.9,10.9,44.5A46.578,46.578,0,0,0,23.3,124a32.275,32.275,0,0,0,7.8,4.1,21.9,21.9,0,0,0,4.9,1.2,4.474,4.474,0,0,1,1.5-8.7,3.4,3.4,0,0,1,1,.1A83.742,83.742,0,0,0,57.4,123a40.211,40.211,0,0,0,3.8-3.4c5.7-5.9,10.2-13.8,13.3-23a99.089,99.089,0,0,0,4.9-31.2h0c0-17.2-4.1-32.9-10.9-44.5A51.131,51.131,0,0,0,59.6,9.6a32.565,32.565,0,0,0-7-.6,88.833,88.833,0,0,0-12.2.9h-.6a15.778,15.778,0,0,1,5.6,1,24.318,24.318,0,0,1,9.4,6.3c4.5,4.6,8.5,11.4,11.3,19.7a88.919,88.919,0,0,1,4.4,28.3h0c0,15.8-3.8,30-9.7,40a36.517,36.517,0,0,1-9.9,11.4,22.416,22.416,0,0,1-5.5,2.9,17.848,17.848,0,0,1-5.6,1h0a15.4,15.4,0,0,1-5.6-1,24.318,24.318,0,0,1-9.4-6.3c-4.5-4.6-8.5-11.4-11.3-19.7A86.149,86.149,0,0,1,9,65.2H9c0-15.8,3.8-30,9.7-39.9a36.516,36.516,0,0,1,9.9-11.4A22.416,22.416,0,0,1,34.1,11a17.848,17.848,0,0,1,5.6-1,4.509,4.509,0,0,1-4.4-3.9A4.584,4.584,0,0,1,39.1,1a.367.367,0,0,1,.3-.1"/>
  <path id="Path_1050" data-name="Path 1050" class="cls-4" d="M37.6,120.5a4.474,4.474,0,0,0-1.5,8.7,21.863,21.863,0,0,0,3.6.3h0a25.532,25.532,0,0,0,8.6-1.5,32.117,32.117,0,0,0,9.2-5.1,83.742,83.742,0,0,1-18.9-2.3,3.4,3.4,0,0,0-1-.1M39.7.9h0m0,0h-.6A4.387,4.387,0,0,0,35.3,6a4.509,4.509,0,0,0,4.4,3.9h.8A85.253,85.253,0,0,1,52.6,9c2.4,0,4.7.1,7,.3-1.1-1-2.3-2-3.5-2.9a32.275,32.275,0,0,0-7.8-4.1A27.666,27.666,0,0,0,39.7.9"/>
</svg>
