<svg xmlns="http://www.w3.org/2000/svg" viewBox="0 0 87.696 85.621">
  <defs>
    <style>
      .cls-1 {
        fill: #41000f;
      }
    </style>
  </defs>
  <g id="Group_1973" data-name="Group 1973" transform="translate(-215 -501)">
    <g id="wallet" transform="translate(239.319 522)">
      <path id="Path_1801" data-name="Path 1801" class="cls-1" d="M44.665,20.227H42.582V10.644a4.171,4.171,0,0,0-4.167-4.167H35.594L32.707,1.286a2.5,2.5,0,0,0-3.4-.971L18.225,6.477H5.848a4.171,4.171,0,0,0-4.167,4.167v28.61A4.171,4.171,0,0,0,5.848,43.42H38.416a4.171,4.171,0,0,0,4.167-4.167v-8.4h2.083ZM38.416,8.144a2.5,2.5,0,0,1,2.472,2.222H37.756L36.521,8.144Zm-8.3-6.372a.849.849,0,0,1,1.132.323l4.6,8.271H14.662Zm10.8,37.482a2.5,2.5,0,0,1-2.5,2.5H5.848a2.5,2.5,0,0,1-2.5-2.5V10.644a2.5,2.5,0,0,1,2.5-2.5h9.381l-4,2.223H6.368a.833.833,0,0,0,0,1.667H40.915v8.195H34.822a5.14,5.14,0,0,0-5.133,5.133v.358a5.14,5.14,0,0,0,5.133,5.133h6.094ZM43,29.185H34.822a3.47,3.47,0,0,1-3.467-3.467V25.36a3.47,3.47,0,0,1,3.467-3.467H43Zm-5.625-3.577a1.84,1.84,0,1,1-1.84-1.84A1.839,1.839,0,0,1,37.374,25.608Z"/>
    </g>
    <g id="Group_1972" data-name="Group 1972" transform="translate(-454.743 265.265)">
      <g id="Group_1926" data-name="Group 1926" transform="translate(669.743 235.735)">
        <path id="Path_614" data-name="Path 614" class="cls-1" d="M45.021,0A42.723,42.723,0,0,0,7,23.141l-5.95-1.322a.73.73,0,0,0-.992.992l5.95,15.207a.818.818,0,0,0,1.322.331L18.9,26.777c.331-.331.331-1.322-.331-1.322l-6.281-1.322A37.517,37.517,0,0,1,71.8,16.2a37.516,37.516,0,0,1,0,53.554A37.567,37.567,0,0,1,12.623,62.48a2.36,2.36,0,0,0-3.306-.992c-.992.661-1.653,2.314-.992,3.306a42.679,42.679,0,0,0,79.34-21.818A42.4,42.4,0,0,0,45.021,0Z" transform="translate(0.027)"/>
      </g>
    </g>
  </g>
</svg>
