<svg xmlns="http://www.w3.org/2000/svg" width="316.6" height="431.098" viewBox="0 0 316.6 431.098">
  <g id="Grupo_2271" data-name="Grupo 2271" transform="translate(-1309.5 563)">
    <path id="Unión_1" data-name="Unión 1" d="M119.3,396.6,22,228.2C9.2,205.6,0,178.1,0,149.3a149.3,149.3,0,1,1,298.6.1c0,29.3-9.1,56.3-22,78.9L179.3,396.6a34.8,34.8,0,0,1-30,16.5C137.7,413.1,125.4,407.6,119.3,396.6Z" transform="translate(1318.5 -554)" fill="none" stroke="#63b190" stroke-width="18"/>
    <g id="Grupo_2270" data-name="Grupo 2270" transform="translate(-34.842 -7.286)">
      <path id="Path_768" data-name="Path 768" d="M31.988,37A6.988,6.988,0,0,0,25,43.988V57.965a6.988,6.988,0,1,0,13.976,0V43.988A6.988,6.988,0,0,0,31.988,37Z" transform="translate(1469.76 -320.599)" fill="#63b190" stroke="#63b190" stroke-width="3"/>
      <path id="Path_769" data-name="Path 769" d="M74.7,9h-.79A55.906,55.906,0,0,0,18,64.906a6.988,6.988,0,0,0,13.977,0,41.929,41.929,0,0,1,42.53-41.929A42.726,42.726,0,0,1,115.835,64.3a41.741,41.741,0,0,1-19.225,35.864,66.654,66.654,0,0,0-29.693,56.689v19.861a6.988,6.988,0,1,0,13.976,0V156.857a53.453,53.453,0,0,1,23.285-44.948,55.633,55.633,0,0,0,25.633-47.8A56.29,56.29,0,0,0,74.7,9Z" transform="translate(1427.842 -488.27)" fill="#63b190" stroke="#63b190" stroke-width="3"/>
    </g>
  </g>
</svg>
