<svg xmlns="http://www.w3.org/2000/svg" viewBox="0 0 250.981 233.4">
  <defs>
    <style>
      .cls-1 {
        fill: #00a3d2;
      }
    </style>
  </defs>
  <g id="Group_1734" data-name="Group 1734" transform="translate(-0.019)">
    <path id="Path_722" data-name="Path 722" class="cls-1" d="M185.4,51.2a4.265,4.265,0,0,0-3.8-2.3H132.7a4.236,4.236,0,0,0-3.9,2.6l-31.9,75a4.1,4.1,0,0,0,.4,4,4.239,4.239,0,0,0,3.6,1.9h29.7l-29.2,55.7a4.3,4.3,0,0,0,3.7,6.3,4.48,4.48,0,0,0,3.2-1.4l76.5-85.7a4.263,4.263,0,0,0-3.2-7.1H153l32.1-44.5A4.545,4.545,0,0,0,185.4,51.2Zm-44.2,50.7a4.127,4.127,0,0,0-.3,4.4,4.265,4.265,0,0,0,3.8,2.3h27.4l-47.2,52.9L141.4,130a4.466,4.466,0,0,0-.1-4.2,4.328,4.328,0,0,0-3.6-2.1H107.4l28.3-66.5h37.7Z"/>
    <path id="Path_723" data-name="Path 723" class="cls-1" d="M248.4,92.5A116.914,116.914,0,0,0,134.3,0a113.794,113.794,0,0,0-24.4,2.6A116.309,116.309,0,0,0,22,84.6H2.2A2.176,2.176,0,0,0,.4,88L24,124.2a2.149,2.149,0,0,0,3.6,0L51.5,88a2.192,2.192,0,0,0-1.8-3.4H31.4A108.853,108.853,0,0,1,58.2,40.4a106.966,106.966,0,0,1,53.6-29A109,109,0,0,1,134.3,9,107.83,107.83,0,0,1,239.5,94.3a109,109,0,0,1,2.4,22.5A107.83,107.83,0,0,1,156.6,222a109,109,0,0,1-22.5,2.4A107.893,107.893,0,0,1,55.3,190a4.556,4.556,0,0,0-6.4-.2,4.467,4.467,0,0,0-.2,6.4,116.8,116.8,0,0,0,85.4,37.2,113.794,113.794,0,0,0,24.4-2.6A116.914,116.914,0,0,0,251,116.7,126.094,126.094,0,0,0,248.4,92.5Z"/>
  </g>
</svg>
