<svg xmlns="http://www.w3.org/2000/svg" width="223.353" height="223.4" viewBox="0 0 223.353 223.4">
  <g id="addStep" transform="translate(-0.05 0)">
    <path id="Path_709" data-name="Path 709" d="M190.8,32.7A111.487,111.487,0,0,0,111.8,0h0a111.7,111.7,0,1,0-.1,223.4h0A111.794,111.794,0,0,0,190.8,32.7Zm-6.4,151.7a102.725,102.725,0,1,1,30.1-72.6,102.725,102.725,0,0,1-30.1,72.6Z" fill="#63b190"/>
    <path id="Path_710" data-name="Path 710" d="M179.4,107.2H116.2V44.1a4.5,4.5,0,0,0-9,0v63.2H44.1a4.5,4.5,0,0,0,0,9h63.2v63.2a4.5,4.5,0,0,0,9,0V116.3h63.2a4.481,4.481,0,0,0,4.5-4.5A4.721,4.721,0,0,0,179.4,107.2Z" fill="#63b190"/>
  </g>
</svg>
