<svg xmlns="http://www.w3.org/2000/svg" width="208.264" height="204.602" viewBox="0 0 208.264 204.602">
  <g id="type" transform="translate(-0.1 0.004)">
    <path id="Path_799" data-name="Path 799" d="M243.385,151.789a12.254,12.254,0,0,0-8.749-3.589h-69.1a12.713,12.713,0,0,0-8.749,3.589,12.254,12.254,0,0,0-3.589,8.749v69.1a12.712,12.712,0,0,0,3.589,8.749,12.254,12.254,0,0,0,8.749,3.589h69.1a12.713,12.713,0,0,0,8.749-3.589,12.254,12.254,0,0,0,3.589-8.749v-69.1A11.955,11.955,0,0,0,243.385,151.789Zm-3.066,77.846a5.617,5.617,0,0,1-5.608,5.609h-69.1A5.617,5.617,0,0,1,160,229.636v-69.1a5.617,5.617,0,0,1,5.609-5.609h69.1a5.617,5.617,0,0,1,5.608,5.609Z" transform="translate(-38.611 -37.377)" fill="#a97c50"/>
    <path id="Path_800" data-name="Path 800" d="M72.7,90.633v.374c0,.075.075.224.075.3s.075.224.075.3c.075.075.075.224.15.3s.075.224.15.3a.389.389,0,0,1,.15.3l.224.224.224.224.224.224c.075.075.224.15.3.224.075,0,.075.075.15.075h.075c.075.075.224.075.374.15.075,0,.224.075.3.075a.449.449,0,0,1,.3.075h87.568a.673.673,0,0,0,.374-.075.565.565,0,0,0,.3-.075c.15,0,.224-.075.374-.075.075,0,.15-.075.3-.075.075,0,.075,0,.15-.075s.15-.075.224-.15.15-.075.224-.15a1.313,1.313,0,0,0,.374-.3l.15-.15c.075-.15.224-.224.3-.374,0-.075.075-.075.075-.15l.224-.449c0-.075.075-.075.075-.15.075-.15.075-.3.15-.449v-.15c0-.15.075-.374.075-.523v-.075h0a1.645,1.645,0,0,0-.075-.6v-.075a1.063,1.063,0,0,0-.15-.449c0-.075-.075-.075-.075-.15s0-.075-.075-.15L122.578,1.869c0-.075-.075-.075-.075-.15s-.075-.075-.075-.15a.748.748,0,0,0-.3-.374l-.075-.075-.374-.374c-.075,0-.075-.075-.15-.075-.15-.075-.3-.224-.449-.3h-.075c-.075,0-.075,0-.15-.075a1.063,1.063,0,0,0-.449-.15c-.075,0-.15-.075-.3-.075S119.886,0,119.737,0h-.6a.673.673,0,0,0-.374.075.565.565,0,0,0-.3.075c-.15.075-.3.075-.449.15-.075,0-.075,0-.15.075h-.075a1.564,1.564,0,0,0-.449.3c-.075,0-.075.075-.15.075-.15.075-.224.224-.374.374l-.075.075a1.632,1.632,0,0,1-.3.374c0,.075-.075.075-.075.15s-.075.075-.075.15L73,88.913v.075c-.075.075-.075.224-.15.374,0,.075-.075.224-.075.3a.449.449,0,0,1-.075.3v.449Q72.7,90.52,72.7,90.633Zm46.887-79.79,38.063,76.2H81.524Z" transform="translate(-18.31 0)" fill="#00a3d2"/>
    <path id="Path_801" data-name="Path 801" d="M46.912,148.2A46.85,46.85,0,1,0,93.8,195.087,46.85,46.85,0,0,0,46.912,148.2Zm28.416,75.3a40.259,40.259,0,1,1,11.74-28.416A40.259,40.259,0,0,1,75.329,223.5Z" transform="translate(0 -37.377)" fill="#f7941d"/>
  </g>
</svg>
