<svg xmlns="http://www.w3.org/2000/svg" width="161.9" height="116.3" viewBox="0 0 161.9 116.3">
  <g id="Group_2270" data-name="Group 2270" transform="translate(-153 1399)">
    <path id="Path_1130" data-name="Path 1130" d="M157.4,53.6H15.7L66,7.8a4.561,4.561,0,0,0,.3-6.4A4.706,4.706,0,0,0,63,0a4.234,4.234,0,0,0-3,1.2L1.5,54.5A4.13,4.13,0,0,0,0,57.8v.7a4.13,4.13,0,0,0,1.5,3.3L60,115.1a4.366,4.366,0,0,0,6.3-.3,4.565,4.565,0,0,0-.3-6.4L15.7,62.6H157.4a4.481,4.481,0,0,0,4.5-4.5A4.546,4.546,0,0,0,157.4,53.6Z" transform="translate(153 -1399)" fill="#00a3d2"/>
  </g>
</svg>
