<svg xmlns="http://www.w3.org/2000/svg" viewBox="0 0 894 648">
  <defs>
    <style>
      .cls-1, .cls-3 {
        fill: none;
      }

      .cls-1 {
        stroke: #cf1f26;
        stroke-width: 27px;
      }

      .cls-2 {
        stroke: none;
      }
    </style>
  </defs>
  <g id="Group_1774" data-name="Group 1774" transform="translate(2405 -2200)">
    <g id="Rectangle_1" data-name="Rectangle 1" class="cls-1" transform="translate(-2405 2200)">
      <rect class="cls-2" width="156" height="156" rx="42"/>
      <rect class="cls-3" x="13.5" y="13.5" width="129" height="129" rx="28.5"/>
    </g>
    <g id="Rectangle_2" data-name="Rectangle 2" class="cls-1" transform="translate(-2159 2200)">
      <rect class="cls-2" width="156" height="156" rx="42"/>
      <rect class="cls-3" x="13.5" y="13.5" width="129" height="129" rx="28.5"/>
    </g>
    <g id="Rectangle_3" data-name="Rectangle 3" class="cls-1" transform="translate(-1913 2200)">
      <rect class="cls-2" width="156" height="156" rx="42"/>
      <rect class="cls-3" x="13.5" y="13.5" width="129" height="129" rx="28.5"/>
    </g>
    <g id="Rectangle_7" data-name="Rectangle 7" class="cls-1" transform="translate(-1667 2200)">
      <rect class="cls-2" width="156" height="156" rx="42"/>
      <rect class="cls-3" x="13.5" y="13.5" width="129" height="129" rx="28.5"/>
    </g>
    <g id="Rectangle_1-2" data-name="Rectangle 1" class="cls-1" transform="translate(-2405 2446)">
      <rect class="cls-2" width="156" height="156" rx="42"/>
      <rect class="cls-3" x="13.5" y="13.5" width="129" height="129" rx="28.5"/>
    </g>
    <g id="Rectangle_2-2" data-name="Rectangle 2" class="cls-1" transform="translate(-2159 2446)">
      <rect class="cls-2" width="156" height="156" rx="42"/>
      <rect class="cls-3" x="13.5" y="13.5" width="129" height="129" rx="28.5"/>
    </g>
    <g id="Rectangle_3-2" data-name="Rectangle 3" class="cls-1" transform="translate(-1913 2446)">
      <rect class="cls-2" width="156" height="156" rx="42"/>
      <rect class="cls-3" x="13.5" y="13.5" width="129" height="129" rx="28.5"/>
    </g>
    <g id="Rectangle_8" data-name="Rectangle 8" class="cls-1" transform="translate(-1667 2446)">
      <rect class="cls-2" width="156" height="156" rx="42"/>
      <rect class="cls-3" x="13.5" y="13.5" width="129" height="129" rx="28.5"/>
    </g>
    <g id="Rectangle_4" data-name="Rectangle 4" class="cls-1" transform="translate(-2405 2692)">
      <rect class="cls-2" width="156" height="156" rx="42"/>
      <rect class="cls-3" x="13.5" y="13.5" width="129" height="129" rx="28.5"/>
    </g>
    <g id="Rectangle_5" data-name="Rectangle 5" class="cls-1" transform="translate(-2159 2692)">
      <rect class="cls-2" width="156" height="156" rx="42"/>
      <rect class="cls-3" x="13.5" y="13.5" width="129" height="129" rx="28.5"/>
    </g>
    <g id="Rectangle_6" data-name="Rectangle 6" class="cls-1" transform="translate(-1913 2692)">
      <rect class="cls-2" width="156" height="156" rx="42"/>
      <rect class="cls-3" x="13.5" y="13.5" width="129" height="129" rx="28.5"/>
    </g>
    <g id="Rectangle_9" data-name="Rectangle 9" class="cls-1" transform="translate(-1667 2692)">
      <rect class="cls-2" width="156" height="156" rx="42"/>
      <rect class="cls-3" x="13.5" y="13.5" width="129" height="129" rx="28.5"/>
    </g>
  </g>
</svg>
