<svg height="511pt" viewBox="0 -50 511.99988 511" width="511pt" xmlns="http://www.w3.org/2000/svg"><path d="m508.570312 50.9375c-5.355468-6.609375-15.050781-7.628906-21.660156-2.277344l-29.847656 24.167969c-7.113281-3.949219-14.710938-6.640625-22.617188-7.953125-10.625-37.945312-40.910156-64.375-75.597656-64.375-17.992187 0-35.121094 7.046875-48.957031 19.785156-13.835937-12.738281-30.964844-19.785156-48.957031-19.785156-35.246094 0-61.175782 16.144531-72.8125 44.207031-9.015625-4.085937-18.660156-6.195312-28.59375-6.195312-17.992188 0-35.425782 7.242187-49.378906 20.214843-12.042969-5.121093-26.332032-6.847656-40.921876-4.761718-19.878906 2.847656-37.820312 12.492187-49.226562 26.457031-26.941406 32.980469-12.945312 58.980469-8.347656 67.523437 1.125 2.089844 2.414062 4.046876 3.808594 5.890626-9.804688 10.132812-15.460938 24.761718-15.460938 41.917968 0 30.472656 24.863281 55.261719 55.421875 55.261719h64.949219c3.589844 14.277344 10.027344 27.410156 18.976562 38.367187 4.53125 5.550782 9.539063 10.34375 14.917969 14.347657 3.011719 20.914062 11.386719 35.234375 21.917969 44.394531v47.589844c0 8.507812 6.894531 15.402344 15.398437 15.402344h39.851563c8.507812 0 15.402344-6.894532 15.402344-15.402344v-45.980469c9.945312-7.914063 17.210937-19.492187 20.667968-33.722656 5.425782 1.359375 11.007813 2.066406 16.679688 2.066406 5.804687 0 11.550781-.773437 17.148437-2.234375 1.339844 4.679688 3.152344 9.148438 5.425781 13.304688 4.007813 7.328124 9.195313 13.503906 15.207032 18.332031v47.148437c0 8.503906 6.894531 15.398438 15.398437 15.398438h39.855469c8.503906 0 15.398438-6.894532 15.398438-15.398438v-48.78125c2.367187-2.09375 4.59375-4.421875 6.652343-6.980468 6.757813-8.410157 11.75-19.25 14.894531-32.277344 19.675782-12.6875 34.441407-34.910156 39.554688-61.753906 29.273438-14.382813 49-48.621094 49-86.847657 0-24.296875-7.765625-47.273437-21.859375-64.804687l25.429687-20.585938c6.609376-5.351562 7.632813-15.050781 2.28125-21.660156zm-477.773437 144.816406c0-5.109375 1.132813-21.542968 15.164063-25.316406.644531.035156 1.285156.070312 1.933593.070312h34.855469c4.613281 19.917969 14.59375 37.304688 28.4375 49.710938h-55.765625c-13.578125 0-24.625-10.976562-24.625-24.464844zm207.386719 110.140625c-2.773438 15.773438-12.300782 24.820313-26.132813 24.820313-9.066406 0-16.359375-4.585938-21.253906-12.890625 1.953125.164062 3.921875.25 5.898437.25 14.992188 0 29.390626-4.871094 41.839844-13.957031l-.28125 1.40625c-.027344.125-.050781.25-.070312.371093zm-22.148438 55.617188v18.804687h-9.050781v-18.804687zm145.785156-2.160157v19.875h-9.054687v-19.875zm-6.449218-30.796874c-8.921875 0-16.589844-5.039063-21.59375-14.1875-2.113282-3.863282-3.488282-8.339844-4.070313-13.148438.136719-.113281.277344-.214844.410157-.328125 13.328124 11.0625 29.417968 17.183594 45.9375 17.183594.128906 0 .253906-.007813.382812-.007813-7.46875 10.472656-16.691406 10.488282-21.066406 10.488282zm79.589844-109.242188c-5.773438 1.894531-9.890626 7.011719-10.511719 13.054688-2.265625 22.035156-13.25 40.246093-28.054688 49.101562-8.023437 3.898438-15.113281 5.808594-20.339843 5.808594-12.644532 0-24.6875-6.355469-33.898438-17.902344-2.925781-3.660156-7.351562-5.792969-12.039062-5.792969-4.683594 0-9.113282 2.132813-12.035157 5.792969-2.828125 3.546875-5.546875 7.195312-15.273437 13.0625-5.851563 3.167969-12.15625 4.84375-18.625 4.84375-5.980469 0-17.84375-3.523438-23.128906-7.648438-3.210938-2.261718-6.246094-5-9.042969-8.1875-2.921875-3.332031-7.140625-5.238281-11.570313-5.238281-4.433594 0-8.652344 1.910157-11.574218 5.242188-8.960938 10.207031-20.386719 15.832031-32.171876 15.832031-6.089843 0-17.957031-2.5-23.34375-7.710938-15.175781-10.738281-25.492187-31.609374-25.492187-55.539062 0-1.921875.078125-3.894531.234375-6.035156.441406-5.953125-2.601562-11.625-7.804688-14.554688-15.792968-8.886718-26.976562-28-29.183593-49.875-.792969-7.867187-7.414063-13.855468-15.320313-13.855468h-47.890625c-3.566406 0-6.976562-2.378907-9.121093-6.363282-3.519532-6.535156-8.835938-16.410156 5.078124-33.445312 13.40625-16.414063 44.335938-21.289063 60.171876-9.484375 6.703124 4.992187 16.15625 3.734375 21.316406-2.835938 9.253906-11.78125 21.394531-18.269531 34.1875-18.269531 9.910156 0 19.484375 3.902344 27.695312 11.292969 4.253906 3.824219 10.273438 4.976562 15.636719 2.996093 5.363281-1.980468 9.1875-6.773437 9.933594-12.441406 4.324219-32.945312 28.566406-39.863281 48.140625-39.863281 13.75 0 26.984375 7.703125 36.308594 21.136719 2.878906 4.148437 7.601562 6.617187 12.648437 6.617187s9.773437-2.46875 12.648437-6.617187c9.324219-13.433594 22.558594-21.136719 36.308594-21.136719 23.039063 0 43.152344 21.242187 47.824219 50.507813 1.214844 7.605468 7.835937 13.171874 15.550781 12.96875.261719-.003907.523438-.015626.78125-.027344l.164063-.007813c8.964843.023438 17.363281 3.199219 24.585937 8.703125.441406.386719.894532.746094 1.367188 1.078125 13.6875 11.21875 22.800781 30.988281 22.800781 53.46875 0 28.957031-15.199219 54.175781-36.960937 61.324219zm0 0"/></svg>