<svg xmlns="http://www.w3.org/2000/svg" viewBox="0 0 39.102 39.1">
  <defs>
    <style>
      .cls-1 {
        fill: #fff;
      }
    </style>
  </defs>
  <g id="Group_1957" data-name="Group 1957" transform="translate(-561 -368)">
    <path id="Path_1614" data-name="Path 1614" class="cls-1" d="M19.55,0A19.55,19.55,0,1,0,39.1,19.55,19.6,19.6,0,0,0,19.55,0ZM31.825,31.825a17.2,17.2,0,0,1-24.551,0,17.2,17.2,0,0,1,0-24.551,17.2,17.2,0,0,1,24.551,0A17.171,17.171,0,0,1,36.978,19.55,16.911,16.911,0,0,1,31.825,31.825Z" transform="translate(561 368)"/>
    <g id="Group_1956" data-name="Group 1956" transform="translate(-0.465 -0.155)">
      <path id="Path_1615" data-name="Path 1615" class="cls-1" d="M24.634,15.525H7.812A1.2,1.2,0,0,1,6.6,14.312,1.115,1.115,0,0,1,7.812,13.1H24.634a1.212,1.212,0,1,1,0,2.425Z" transform="translate(564.865 370.055)"/>
      <path id="Path_1616" data-name="Path 1616" class="cls-1" d="M24.634,20.125H7.812A1.2,1.2,0,0,1,6.6,18.912,1.115,1.115,0,0,1,7.812,17.7H24.634a1.212,1.212,0,1,1,0,2.425Z" transform="translate(564.865 372.426)"/>
    </g>
  </g>
</svg>
