<svg xmlns="http://www.w3.org/2000/svg" viewBox="0 0 167.53 221.94"><defs><style>.cls-1{isolation:isolate;}.cls-2,.cls-3,.cls-5{fill:none;stroke-linecap:round;stroke-linejoin:round;stroke-width:9px;}.cls-2{stroke:#a97c50;}.cls-2,.cls-3,.cls-4,.cls-5{mix-blend-mode:multiply;}.cls-3{stroke:#f7941d;}.cls-5{stroke:#63b190;}</style></defs><title>Asset 1</title><g class="cls-1"><g id="Layer_2" data-name="Layer 2"><g id="Layer_1-2" data-name="Layer 1"><rect class="cls-2" x="33.2" y="4.5" width="23.12" height="50.38"/><path class="cls-3" d="M33.2,54.88c-3.58,40.94-21.28,42.85-27.92,72-4.68,31.41,13.45,43.53,6.93,78.33a8,8,0,0,0,5.52,9.22c6.75,2,16.82,3.07,27,3.05s20.25-1,27-3.05a8,8,0,0,0,5.52-9.22c-6.52-34.8,11.6-46.92,6.92-78.33-6.63-29.11-24.27-31-27.85-72"/><line class="cls-2" x1="33.2" y1="29.69" x2="56.31" y2="29.69"/><g class="cls-4"><path class="cls-5" d="M121.53,88.81c-12.76,30.22,8,85.28,18.74,85.28S171.77,119,159,88.81C147.8,95,130.77,94.85,121.53,88.81Z"/><line class="cls-5" x1="123.41" y1="216.48" x2="158.01" y2="216.48"/><path class="cls-5" d="M121.53,88.81c0-9,37.48-9,37.48,0"/></g><line class="cls-5" x1="140.27" y1="174.09" x2="140.27" y2="216.48"/></g></g></g></svg>