<svg xmlns="http://www.w3.org/2000/svg" width="1161.239" height="185.929" viewBox="0 0 1161.239 185.929">
  <g id="bootstrap" transform="translate(-259.36 -7398.792)">
    <g id="Grupo_2296" data-name="Grupo 2296" transform="translate(1183.947 7524.802)">
      <path id="Trazado_1992" data-name="Trazado 1992" d="M-54.314,30.89A10.019,10.019,0,0,1-64.3,40.878h-39.943a10.019,10.019,0,0,1-9.988-9.988V-9.054a10.016,10.016,0,0,1,9.988-9.988H-64.3a10.016,10.016,0,0,1,9.988,9.988Z" transform="translate(114.233 19.042)" fill="#563e7d"/>
    </g>
    <g id="Grupo_2297" data-name="Grupo 2297" transform="translate(1200.234 7537.824)">
      <path id="Trazado_1993" data-name="Trazado 1993" d="M0-66.633H16.986a12.149,12.149,0,0,1,7.54,2.155c1.884,1.438,2.837,3.6,2.837,6.509a7.767,7.767,0,0,1-1.294,4.524,8.323,8.323,0,0,1-3.7,2.92v.1a7.649,7.649,0,0,1,4.9,3.055,10.143,10.143,0,0,1,1.665,5.949,10.058,10.058,0,0,1-.734,3.842,7.818,7.818,0,0,1-2.3,3.082,11.729,11.729,0,0,1-4.017,2.054,19.731,19.731,0,0,1-5.822.765H0ZM6.12-52H16.1a5.438,5.438,0,0,0,3.672-1.25,4.476,4.476,0,0,0,1.469-3.606,4.563,4.563,0,0,0-1.32-3.72A5.954,5.954,0,0,0,16.1-61.65H6.12Zm0,15.325H16.938a6.046,6.046,0,0,0,4.327-1.451,5.332,5.332,0,0,0,1.543-4.091,5.1,5.1,0,0,0-1.543-4,6.193,6.193,0,0,0-4.327-1.39H6.12Z" transform="translate(0 66.633)" fill="#fff"/>
    </g>
    <g id="Grupo_2298" data-name="Grupo 2298" transform="translate(1256.953 7539.874)">
      <path id="Trazado_1994" data-name="Trazado 1994" d="M0,28.111V0H10.547a13.091,13.091,0,0,1,5.171.852,6.642,6.642,0,0,1,3.047,2.627,6.931,6.931,0,0,1,1.1,3.711,6.327,6.327,0,0,1-.979,3.392,6.967,6.967,0,0,1-2.951,2.57,7.338,7.338,0,0,1,3.921,2.553,6.828,6.828,0,0,1,1.368,4.257,8.225,8.225,0,0,1-.831,3.672,7.122,7.122,0,0,1-2.063,2.618,8.658,8.658,0,0,1-3.077,1.39,18.872,18.872,0,0,1-4.537.468Zm3.724-16.3H9.8a13.563,13.563,0,0,0,3.549-.323,3.945,3.945,0,0,0,2.137-1.4A4.044,4.044,0,0,0,16.2,7.632a4.549,4.549,0,0,0-.669-2.465,3.441,3.441,0,0,0-1.919-1.46,16.228,16.228,0,0,0-4.275-.389H3.724Zm0,12.982h6.994a15.7,15.7,0,0,0,2.531-.136,6.012,6.012,0,0,0,2.151-.765,4.1,4.1,0,0,0,1.421-1.565,4.871,4.871,0,0,0,.555-2.365,4.708,4.708,0,0,0-.8-2.736A4.236,4.236,0,0,0,14.333,15.6a13.747,13.747,0,0,0-4.109-.472h-6.5Z" fill="#563e7d"/>
    </g>
    <g id="Grupo_2299" data-name="Grupo 2299" transform="translate(1281.571 7547.156)">
      <path id="Trazado_1995" data-name="Trazado 1995" d="M0-9.648Q0-15.3,3.147-18.027a9.465,9.465,0,0,1,6.4-2.264,9.144,9.144,0,0,1,6.867,2.754A10.478,10.478,0,0,1,19.08-9.932,13.521,13.521,0,0,1,17.9-3.751a8.383,8.383,0,0,1-3.431,3.5A10.008,10.008,0,0,1,9.551,1,9.152,9.152,0,0,1,2.64-1.745Q0-4.492,0-9.648m3.549,0q0,3.914,1.7,5.857a5.478,5.478,0,0,0,4.3,1.95A5.427,5.427,0,0,0,13.826-3.8q1.711-1.954,1.709-5.962a8.4,8.4,0,0,0-1.718-5.722,5.46,5.46,0,0,0-4.266-1.95,5.493,5.493,0,0,0-4.3,1.936c-1.136,1.294-1.7,3.239-1.7,5.849" transform="translate(0 20.292)" fill="#563e7d"/>
    </g>
    <g id="Grupo_2300" data-name="Grupo 2300" transform="translate(1303.418 7547.156)">
      <path id="Trazado_1996" data-name="Trazado 1996" d="M0-9.648Q0-15.3,3.147-18.027a9.465,9.465,0,0,1,6.4-2.264,9.128,9.128,0,0,1,6.863,2.754A10.48,10.48,0,0,1,19.08-9.932,13.459,13.459,0,0,1,17.9-3.751a8.383,8.383,0,0,1-3.431,3.5A10,10,0,0,1,9.551,1,9.139,9.139,0,0,1,2.64-1.745Q0-4.492,0-9.648m3.549,0c0,2.61.564,4.559,1.7,5.857a5.471,5.471,0,0,0,4.3,1.95A5.439,5.439,0,0,0,13.826-3.8q1.7-1.954,1.709-5.962a8.4,8.4,0,0,0-1.718-5.722,5.473,5.473,0,0,0-4.266-1.95,5.487,5.487,0,0,0-4.3,1.936c-1.141,1.294-1.7,3.239-1.7,5.849" transform="translate(0 20.292)" fill="#563e7d"/>
    </g>
    <g id="Grupo_2301" data-name="Grupo 2301" transform="translate(1324.644 7540.507)">
      <path id="Trazado_1997" data-name="Trazado 1997" d="M-8.55,17.991l.5,3.047a12.782,12.782,0,0,1-2.605.31,5.872,5.872,0,0,1-2.916-.6,3.25,3.25,0,0,1-1.456-1.56,12.271,12.271,0,0,1-.424-4.074V3.4h-2.531V.712h2.531v-5.04L-12.021-6.4V.712H-8.55V3.4h-3.471V15.307a6.144,6.144,0,0,0,.179,1.9,1.437,1.437,0,0,0,.6.673,2.273,2.273,0,0,0,1.176.249,10.941,10.941,0,0,0,1.517-.136" transform="translate(17.983 6.4)" fill="#563e7d"/>
    </g>
    <g id="Grupo_2302" data-name="Grupo 2302" transform="translate(1336.07 7547.156)">
      <path id="Trazado_1998" data-name="Trazado 1998" d="M0,2.281l3.414-.538a4.787,4.787,0,0,0,1.6,3.147A5.608,5.608,0,0,0,8.685,5.984a5.4,5.4,0,0,0,3.532-.97,2.9,2.9,0,0,0,1.15-2.273A2.1,2.1,0,0,0,12.348.9,14.971,14.971,0,0,0,8.821-.267,31.9,31.9,0,0,1,3.554-1.928,5.114,5.114,0,0,1,1.333-3.864,5.114,5.114,0,0,1,.577-6.6,5.244,5.244,0,0,1,1.2-9.118a5.618,5.618,0,0,1,1.7-1.928,7.124,7.124,0,0,1,2.2-1.005,10.41,10.41,0,0,1,2.981-.415,11.72,11.72,0,0,1,4.209.7,5.725,5.725,0,0,1,2.675,1.866,7.2,7.2,0,0,1,1.185,3.156l-3.37.459a3.681,3.681,0,0,0-1.333-2.452,4.872,4.872,0,0,0-3.117-.883,5.62,5.62,0,0,0-3.392.787A2.29,2.29,0,0,0,3.912-7a1.911,1.911,0,0,0,.42,1.206,3.063,3.063,0,0,0,1.324.922c.345.127,1.359.42,3.051.879a42.967,42.967,0,0,1,5.11,1.6A5.192,5.192,0,0,1,16.09-.577a5.062,5.062,0,0,1,.822,2.955A5.791,5.791,0,0,1,15.906,5.63,6.526,6.526,0,0,1,13,7.986a10.613,10.613,0,0,1-4.3.835A9.6,9.6,0,0,1,2.653,7.173,7.69,7.69,0,0,1,0,2.281" transform="translate(0 12.467)" fill="#563e7d"/>
    </g>
    <g id="Grupo_2303" data-name="Grupo 2303" transform="translate(1355.189 7540.507)">
      <path id="Trazado_1999" data-name="Trazado 1999" d="M-8.55,17.991l.5,3.047a12.782,12.782,0,0,1-2.605.31,5.872,5.872,0,0,1-2.916-.6,3.25,3.25,0,0,1-1.456-1.56,12.271,12.271,0,0,1-.424-4.074V3.4h-2.531V.712h2.531v-5.04L-12.021-6.4V.712H-8.55V3.4h-3.471V15.307a5.958,5.958,0,0,0,.184,1.9,1.4,1.4,0,0,0,.594.673,2.273,2.273,0,0,0,1.176.249,10.941,10.941,0,0,0,1.517-.136" transform="translate(17.983 6.4)" fill="#563e7d"/>
    </g>
    <g id="Grupo_2304" data-name="Grupo 2304" transform="translate(1367.962 7547.16)">
      <path id="Trazado_2000" data-name="Trazado 2000" d="M0,20.824V.459H3.1V3.545A8.428,8.428,0,0,1,5.3.691,3.83,3.83,0,0,1,7.514,0a6.762,6.762,0,0,1,3.549,1.11l-1.189,3.2a4.951,4.951,0,0,0-2.531-.747,3.284,3.284,0,0,0-2.033.682A3.668,3.668,0,0,0,4.026,6.137a13.393,13.393,0,0,0-.577,4.026V20.824Z" fill="#563e7d"/>
    </g>
    <g id="Grupo_2305" data-name="Grupo 2305" transform="translate(1379.904 7547.16)">
      <path id="Trazado_2001" data-name="Trazado 2001" d="M-13.107,12.644a12.667,12.667,0,0,1-3.694,2.3,10.578,10.578,0,0,1-3.8.673,7.422,7.422,0,0,1-5.162-1.639,5.427,5.427,0,0,1-1.8-4.192,5.525,5.525,0,0,1,.686-2.732A5.618,5.618,0,0,1-25.1,5.069a8.52,8.52,0,0,1,2.483-1.132,24.676,24.676,0,0,1,3.069-.516,31.7,31.7,0,0,0,6.159-1.189c.013-.472.013-.774.013-.9a3.807,3.807,0,0,0-.975-2.972,5.778,5.778,0,0,0-3.934-1.171,6.1,6.1,0,0,0-3.593.852,5.234,5.234,0,0,0-1.713,3.025L-26.972.6a8.439,8.439,0,0,1,1.517-3.5A6.648,6.648,0,0,1-22.4-4.95a13.551,13.551,0,0,1,4.62-.717,12.2,12.2,0,0,1,4.236.612,5.537,5.537,0,0,1,2.4,1.543,5.447,5.447,0,0,1,1.075,2.347,19.227,19.227,0,0,1,.17,3.187v4.6a49.282,49.282,0,0,0,.223,6.089,7.805,7.805,0,0,0,.874,2.443h-3.606a7.293,7.293,0,0,1-.691-2.513m-.284-7.711A25.184,25.184,0,0,1-19.03,6.24a12.985,12.985,0,0,0-3.012.691A2.98,2.98,0,0,0-23.4,8.05a2.929,2.929,0,0,0-.481,1.644,2.934,2.934,0,0,0,1.045,2.3,4.514,4.514,0,0,0,3.06.922,7.127,7.127,0,0,0,3.545-.874,5.4,5.4,0,0,0,2.286-2.387A8.417,8.417,0,0,0-13.391,6.2Z" transform="translate(27.567 5.667)" fill="#563e7d"/>
    </g>
    <g id="Grupo_2306" data-name="Grupo 2306" transform="translate(1402.918 7547.156)">
      <path id="Trazado_2002" data-name="Trazado 2002" d="M0,28.631V.463H3.147V3.108A7.669,7.669,0,0,1,5.656.778,6.887,6.887,0,0,1,9.048,0a8.069,8.069,0,0,1,4.6,1.342,8.263,8.263,0,0,1,3.016,3.79,13.9,13.9,0,0,1,1.014,5.359,13.594,13.594,0,0,1-1.123,5.626A8.529,8.529,0,0,1,8.8,21.287a6.5,6.5,0,0,1-3.1-.73,7.117,7.117,0,0,1-2.255-1.84v9.914ZM3.125,10.757q0,3.934,1.591,5.814a4.876,4.876,0,0,0,3.855,1.875A4.982,4.982,0,0,0,12.51,16.5q1.639-1.947,1.639-6.028,0-3.895-1.6-5.831A4.811,4.811,0,0,0,8.725,2.706a4.95,4.95,0,0,0-3.9,2.063,9.208,9.208,0,0,0-1.7,5.988" fill="#563e7d"/>
    </g>
    <g id="Grupo_2307" data-name="Grupo 2307" transform="translate(259.36 7398.792)">
      <path id="Trazado_2003" data-name="Trazado 2003" d="M-697.218,144.186C-718.943,105.9-758.068,72.3-809.1,46.024c-75.056-38.641-176.016-61.6-283.72-61.082-106.152.507-205.132,23.757-278.676,62.175-50.01,26.126-88.331,59.338-109.741,97.069a8.753,8.753,0,0,0,3.291,11.92,8.753,8.753,0,0,0,11.92-3.291c19.958-35.192,55.985-65.838,102.625-90.2,71.419-37.312,167.58-59.7,270.668-60.19C-988.12,1.924-890.01,24.033-817.1,61.568c47.615,24.513,84.411,55.526,104.684,91.247a8.742,8.742,0,0,0,11.916,3.287A8.742,8.742,0,0,0-697.218,144.186Z" transform="translate(1482.375 15.066)" fill="#563e7d" fill-rule="evenodd"/>
    </g>
    <g id="Grupo_2309" data-name="Grupo 2309" transform="translate(1174.024 7571.101) rotate(180)">
      <path id="Trazado_2005" data-name="Trazado 2005" d="M8.742,17.484H135.5A8.742,8.742,0,0,0,135.5,0H8.742a8.742,8.742,0,0,0,0,17.484Z" transform="translate(0 0)" fill="#563e7d" fill-rule="evenodd"/>
    </g>
  </g>
</svg>
