<svg xmlns="http://www.w3.org/2000/svg" viewBox="0 0 458.745 330.75">
  <defs>
    <style>
      .cls-1 {
        fill: #00a3d2;
      }

      .cls-2 {
        fill: #cf1f26;
      }
    </style>
  </defs>
  <g id="scooter-2" transform="translate(0 -63.997)">
    <path id="Path_1046" data-name="Path 1046" class="cls-1" d="M386.172,303.19a30.288,30.288,0,1,0,30.288,30.289A30.322,30.322,0,0,0,386.172,303.19Zm0,45.577a15.288,15.288,0,1,1,15.288-15.288A15.305,15.305,0,0,1,386.172,348.767Z"/>
    <path id="Path_1047" data-name="Path 1047" class="cls-2" d="M457,274.505a92.22,92.22,0,0,0-84.357-32.189c-3.044-19.741-21.612-45.869-39.606-67.244V111.538a7.5,7.5,0,0,0-9.494-7.23l-12.224,3.372a35.925,35.925,0,0,0-16.649,10.063l-6.421-29.535a7.5,7.5,0,0,0-7.329-5.907H267.83V71.5a7.5,7.5,0,0,0-15,0V109.25a7.5,7.5,0,0,0,15,0V97.3h7.048l9.238,42.5a30.326,30.326,0,0,0-7.751,15.042l-21.583,23.726a7.5,7.5,0,0,0,11.1,10.094l13.032-14.325a30.846,30.846,0,0,0,3.448,5.445c8.495,10.734,20.248,27.153,28,44.422,8.361,18.627,10.337,34.108,5.873,46.013-6.517,17.376-25.587,30.745-51.013,35.761-27.141,5.357-54.024-.354-66.888-14.207-5.667-6.1-8.205-12.161-7.759-18.52.793-11.308,10.844-24.881,29.872-40.342.023-.019,1.558-1.738,1.578-1.768a27.748,27.748,0,0,0-22.792-43.585H91.014a39.578,39.578,0,0,0-39.388,36.27A242.948,242.948,0,0,0,27.1,253.374C9.119,278.953,0,302.825,0,324.326a7.5,7.5,0,0,0,7.5,7.5H33.166c-.015.551-.035,1.1-.035,1.652a61.27,61.27,0,0,0,120.545,15.508H326.9a61.263,61.263,0,1,0,110.5-49.06l18.518-14.751A7.5,7.5,0,0,0,457,274.505ZM155.715,202.551h43.513a12.786,12.786,0,0,1,12.043,17.033H155.715Zm-64.7,0h49.7v17.033H67.652A24.58,24.58,0,0,1,91.014,202.551Zm3.385,177.2A46.321,46.321,0,0,1,48.13,333.479c0-.552.016-1.1.035-1.652H64.156c-.029.548-.046,1.1-.046,1.652a30.289,30.289,0,1,0,60.577,0c0-.553-.017-1.1-.046-1.652h15.992c.019.55.035,1.1.035,1.652A46.321,46.321,0,0,1,94.4,379.748ZM79.111,333.479a15.6,15.6,0,0,1,.091-1.652H109.6a15.288,15.288,0,1,1-30.486,1.652Zm64.508-16.653H33.426A98.006,98.006,0,0,1,48.4,288.977c18.106-23.232,44.589-33.8,78.692-31.4,15.116,1.063,24.613,5.046,28.229,11.839C160.05,278.3,156.111,294.238,143.619,316.826Zm150.407,17.161H155.656c0-.17.013-.338.013-.508a61.719,61.719,0,0,0-.386-6.786c11.612-20.377,23.176-45.731,13.282-64.321-6.2-11.659-19.8-18.306-40.417-19.755-49.421-3.476-77.3,18.568-91.987,37.672A113.076,113.076,0,0,0,17.67,316.828H15.447c4.271-36.6,37.9-73.257,46.645-82.242H196.223c-13,13.279-19.779,25.68-20.616,37.613-.742,10.577,3.2,20.6,11.729,29.776,16.521,17.792,48.231,25.138,80.783,18.716a106.309,106.309,0,0,0,28.726-9.909,92,92,0,0,0-2.832,22.7C294.014,333.648,294.025,333.817,294.026,333.987ZM315.31,122.14l2.729-.753v36.686c-7.712-8.365-14.258-14.95-17.953-18.589A21.1,21.1,0,0,1,315.31,122.14Zm-21.192,48.328a15.431,15.431,0,0,1-3.231-11.578,15.627,15.627,0,0,1,1.8-5.6c21.769,21.912,63.111,68.162,65.292,92.45a91.9,91.9,0,0,0-24.471,12.157C333.936,238.347,325.374,209.961,294.118,170.468Zm92.054,209.28a46.269,46.269,0,1,1,46.27-46.269A46.322,46.322,0,0,1,386.172,379.748Zm41.524-91.27a61.229,61.229,0,0,0-102.794,45c0,.17.011.338.013.508h-15.89c0-.17-.012-.338-.012-.508a77.166,77.166,0,0,1,131.262-55.021Z"/>
  </g>
</svg>
