<svg id="Group_1624" data-name="Group 1624" xmlns="http://www.w3.org/2000/svg" viewBox="0 0 192.8 187.6">
  <defs>
    <style>
      .cls-1 {
        fill: #63b190;
      }
    </style>
  </defs>
  <path id="Path_635" data-name="Path 635" class="cls-1" d="M82.2,150.6l52.7-52.7a4.468,4.468,0,0,0,0-6.4,4.588,4.588,0,0,0-6.4,0L82.1,137.9,64.8,120.6a4.588,4.588,0,0,0-6.4,0,4.468,4.468,0,0,0,0,6.4Z"/>
  <path id="Path_636" data-name="Path 636" class="cls-1" d="M189.1,23.5a12.842,12.842,0,0,0-9.8-4.7H154.8V11.7A11.715,11.715,0,0,0,143.1,0h-1.7a11.715,11.715,0,0,0-11.7,11.7v7.1H63V11.7A11.63,11.63,0,0,0,51.4,0H49.7A11.715,11.715,0,0,0,38,11.7v7.1H13.5A12.384,12.384,0,0,0,8,20.1a14.714,14.714,0,0,0-5.9,5.7A17.215,17.215,0,0,0,0,34V172.4a16.009,16.009,0,0,0,3.7,10.5,12.842,12.842,0,0,0,9.8,4.7H179.3a12.384,12.384,0,0,0,5.5-1.3,14.714,14.714,0,0,0,5.9-5.7,16.144,16.144,0,0,0,2.1-8.2V34A16.009,16.009,0,0,0,189.1,23.5ZM9,34a7.577,7.577,0,0,1,1.6-4.7A12.986,12.986,0,0,1,12,28.1a4.191,4.191,0,0,1,1.5-.4H38v7.1A11.715,11.715,0,0,0,49.7,46.5h1.7A11.715,11.715,0,0,0,63.1,34.8V27.7h66.7v7.1a11.715,11.715,0,0,0,11.7,11.7h1.7a11.715,11.715,0,0,0,11.7-11.7V27.7h24.5a2.822,2.822,0,0,1,1.5.4,5.987,5.987,0,0,1,2.1,2.1,7.379,7.379,0,0,1,1,3.8V61.3H9ZM183.8,172.4a7.577,7.577,0,0,1-1.6,4.7,12.987,12.987,0,0,1-1.4,1.2,4.191,4.191,0,0,1-1.5.4H13.5a2.822,2.822,0,0,1-1.5-.4,5.987,5.987,0,0,1-2.1-2.1,7.379,7.379,0,0,1-1-3.8V70.3H183.7V172.4Z"/>
</svg>
