<svg xmlns="http://www.w3.org/2000/svg" viewBox="0 0 231.1 172.6">
  <defs>
    <style>
      .cls-1 {
        fill: none;
        stroke: #a97c50;
        stroke-linecap: round;
        stroke-linejoin: round;
        stroke-miterlimit: 10;
        stroke-width: 7px;
      }
    </style>
  </defs>
  <g id="categories-hover" transform="translate(2408.5 -1949.5)">
    <g id="Group_1765" data-name="Group 1765" transform="translate(-2409.5 1948.5)">
      <path id="Path_803" data-name="Path 803" class="cls-1" d="M212.7,43H89A15.834,15.834,0,0,1,73.2,27.2h0A15.834,15.834,0,0,1,89,11.4H212.8a15.834,15.834,0,0,1,15.8,15.8h0A15.919,15.919,0,0,1,212.7,43Z"/>
      <circle id="Ellipse_2" data-name="Ellipse 2" class="cls-1" cx="22.8" cy="22.8" r="22.8" transform="translate(4.5 4.5)"/>
      <circle id="Ellipse_3" data-name="Ellipse 3" class="cls-1" cx="22.8" cy="22.8" r="22.8" transform="translate(4.5 64.5)"/>
      <circle id="Ellipse_4" data-name="Ellipse 4" class="cls-1" cx="22.8" cy="22.8" r="22.8" transform="translate(4.5 124.5)"/>
      <path id="Path_804" data-name="Path 804" class="cls-1" d="M212.7,103H89A15.834,15.834,0,0,1,73.2,87.2h0A15.834,15.834,0,0,1,89,71.4H212.8a15.834,15.834,0,0,1,15.8,15.8h0A15.919,15.919,0,0,1,212.7,103Z"/>
      <path id="Path_805" data-name="Path 805" class="cls-1" d="M212.7,163.1H89a15.834,15.834,0,0,1-15.8-15.8h0A15.834,15.834,0,0,1,89,131.5H212.8a15.834,15.834,0,0,1,15.8,15.8h0A15.985,15.985,0,0,1,212.7,163.1Z"/>
    </g>
  </g>
</svg>
