<?xml version="1.0" encoding="utf-8"?>
<!-- Generator: Adobe Illustrator 18.0.0, SVG Export Plug-In . SVG Version: 6.00 Build 0)  -->
<!DOCTYPE svg PUBLIC "-//W3C//DTD SVG 1.1//EN" "http://www.w3.org/Graphics/SVG/1.1/DTD/svg11.dtd">
<svg version="1.1" id="Layer_1" xmlns="http://www.w3.org/2000/svg" xmlns:xlink="http://www.w3.org/1999/xlink" x="0px" y="0px"
	 viewBox="0 0 100 100" enable-background="new 0 0 100 100" xml:space="preserve">
<g>
	<g>
		<path fill="#63B190" d="M50.6,98c-25.9,0-47-21.6-47-48.1s21.1-48.1,47-48.1c2,0,3.7,1.7,3.7,3.8s-1.6,3.8-3.7,3.8
			C28.7,9.4,10.9,27.6,10.9,50s17.8,40.6,39.6,40.6c2,0,3.7,1.7,3.7,3.8C54.2,96.4,52.6,98,50.6,98z"/>
	</g>
	<g>
		<path fill="#63B190" d="M50.6,98c-2,0-3.7-1.7-3.7-3.8c0-2.1,1.6-3.8,3.7-3.8c21.8,0,39.6-18.2,39.6-40.6S72.4,9.4,50.6,9.4
			c-2,0-3.7-1.7-3.7-3.8s1.6-3.8,3.7-3.8c25.9,0,47,21.6,47,48.1S76.5,98,50.6,98z"/>
	</g>
</g>
</svg>
