<svg xmlns="http://www.w3.org/2000/svg" viewBox="0 0 238 238">
  <defs>
    <style>
      .cls-1 {
        fill: none;
        stroke: #00a3d2;
        stroke-linecap: round;
        stroke-linejoin: round;
        stroke-miterlimit: 10;
        stroke-width: 9px;
      }
    </style>
  </defs>
  <path id="Path_802" data-name="Path 802" class="cls-1" d="M218.2,92.7H154a8.706,8.706,0,0,1-8.7-8.7V19.8A15.3,15.3,0,0,0,130,4.5H107.9A15.3,15.3,0,0,0,92.6,19.8V84a8.706,8.706,0,0,1-8.7,8.7H19.8A15.3,15.3,0,0,0,4.5,108v22a15.3,15.3,0,0,0,15.3,15.3H84a8.706,8.706,0,0,1,8.7,8.7v64.2A15.3,15.3,0,0,0,108,233.5h22a15.3,15.3,0,0,0,15.3-15.3V154a8.706,8.706,0,0,1,8.7-8.7h64.2A15.3,15.3,0,0,0,233.5,130V107.9A15.344,15.344,0,0,0,218.2,92.7Z"/>
</svg>
