<?xml version="1.0" encoding="UTF-8" standalone="no"?>
<!DOCTYPE svg PUBLIC "-//W3C//DTD SVG 1.1//EN" "http://www.w3.org/Graphics/SVG/1.1/DTD/svg11.dtd">
<svg width="100%" height="100%" viewBox="0 0 1253 1302" version="1.1" xmlns="http://www.w3.org/2000/svg" xmlns:xlink="http://www.w3.org/1999/xlink" xml:space="preserve" xmlns:serif="http://www.serif.com/" style="fill-rule:evenodd;clip-rule:evenodd;stroke-linecap:round;stroke-miterlimit:10;">
    <g transform="matrix(1,0,0,1,-27896.7,148.797)">
        <g transform="matrix(4.16667,0,0,4.16667,25540.5,0)">
            <g transform="matrix(0,-1,-1,0,715.959,96.1131)">
                <g>
                    <ellipse cx="-9.945" cy="0" rx="10.458" ry="9.945" style="fill:none;stroke:rgb(168,123,80);stroke-width:9px;"/>
                </g>
            </g>
        </g>
        <g transform="matrix(4.16667,0,0,4.16667,25540.5,0)">
            <g transform="matrix(-0.797088,0.603863,0.603863,0.797088,699.722,169)">
                <g>
                    <path d="M-9.18,-2.981C-9.18,-2.981 -1.207,-6 0.866,-2.981" style="fill:none;fill-rule:nonzero;stroke:rgb(168,123,80);stroke-width:9px;"/>
                </g>
            </g>
        </g>
        <g transform="matrix(4.16667,0,0,4.16667,25540.5,0)">
            <g transform="matrix(0.0225263,0.999746,0.999746,-0.0225263,712.912,152.871)">
                <g>
                    <path d="M-7.68,-7.855L8.034,-7.855" style="fill:none;fill-rule:nonzero;stroke:rgb(168,123,80);stroke-width:9px;"/>
                </g>
            </g>
        </g>
        <g transform="matrix(4.16667,0,0,4.16667,25540.5,0)">
            <g transform="matrix(0.836508,-0.547955,-0.547955,-0.836508,699.461,151.782)">
                <g>
                    <path d="M-0.696,2.391C0.725,1.378 8.051,2.391 8.051,2.391" style="fill:none;fill-rule:nonzero;stroke:rgb(168,123,80);stroke-width:9px;"/>
                </g>
            </g>
        </g>
        <g transform="matrix(4.16667,0,0,4.16667,25540.5,0)">
            <g transform="matrix(1,0,0,1,698.782,142.702)">
                <path d="M0,-3.895C-1.614,-3.691 -13.185,-11.356 -13.185,-11.356L-11.687,1.375C-11.687,1.375 -2.957,7.393 -1.214,7.461" style="fill:none;fill-rule:nonzero;stroke:rgb(168,123,80);stroke-width:9px;"/>
            </g>
        </g>
        <g transform="matrix(4.16667,0,0,4.16667,25540.5,0)">
            <g transform="matrix(1,0,0,1,736.378,125.946)">
                <path d="M0,12.595C-2.713,12.663 -6.514,4.803 -9.054,2.268C-11.594,-0.267 -26.747,0.095 -29.847,2.268C-32.946,4.441 -35.981,12.658 -37.596,12.862" style="fill:none;fill-rule:nonzero;stroke:rgb(168,123,80);stroke-width:9px;"/>
            </g>
        </g>
        <g transform="matrix(4.16667,0,0,4.16667,25540.5,0)">
            <g transform="matrix(1,0,0,1,736.709,127.402)">
                <path d="M0,22.31C1.808,22.174 10.461,16.452 10.461,16.452L11.84,0C11.84,0 2.381,11.07 -0.331,11.138" style="fill:none;fill-rule:nonzero;stroke:rgb(168,123,80);stroke-width:9px;"/>
            </g>
        </g>
        <g transform="matrix(4.16667,0,0,4.16667,25540.5,0)">
            <g transform="matrix(0.857714,0.514128,0.514128,-0.857714,730.373,143.03)">
                <path d="M-0.717,-2.474C-0.717,-2.474 7.388,-3.521 8.87,-2.474" style="fill:none;fill-rule:nonzero;stroke:rgb(168,123,80);stroke-width:9px;"/>
            </g>
        </g>
        <g transform="matrix(4.16667,0,0,4.16667,25540.5,0)">
            <g transform="matrix(0.0677495,-0.997702,-0.997702,-0.0677495,736.402,154.499)">
                <g>
                    <path d="M-7.995,8.556L9.157,8.556" style="fill:none;fill-rule:nonzero;stroke:rgb(168,123,80);stroke-width:9px;"/>
                </g>
            </g>
        </g>
        <g transform="matrix(4.16667,0,0,4.16667,25540.5,0)">
            <g transform="matrix(-0.894473,-0.447123,-0.447123,0.894473,728.62,160.343)">
                <g>
                    <path d="M-8.343,1.969C-6.667,-1.191 0.465,1.969 0.465,1.969" style="fill:none;fill-rule:nonzero;stroke:rgb(168,123,80);stroke-width:9px;"/>
                </g>
            </g>
        </g>
        <g transform="matrix(4.16667,0,0,4.16667,25540.5,0)">
            <g transform="matrix(-0.0926807,0.995696,0.995696,0.0926807,833.178,107.706)">
                <path d="M-89.832,-81.858L74.593,-81.858" style="fill:none;fill-rule:nonzero;stroke:rgb(237,2,124);stroke-width:9px;stroke-linecap:butt;"/>
            </g>
        </g>
        <g transform="matrix(4.16667,0,0,4.16667,25540.5,0)">
            <g transform="matrix(1,0,0,1,736.709,174.391)">
                <g>
                    <path d="M0,0L15.67,0" style="fill:none;fill-rule:nonzero;stroke:rgb(59,35,20);stroke-width:9px;"/>
                </g>
            </g>
        </g>
        <g transform="matrix(4.16667,0,0,4.16667,25540.5,0)">
            <g transform="matrix(0.999984,-0.00569089,-0.00569089,-0.999984,712.214,175.869)">
                <g>
                    <path d="M0,0.03L10.543,0.03" style="fill:none;fill-rule:nonzero;stroke:rgb(168,123,80);stroke-width:9px;"/>
                </g>
            </g>
        </g>
        <g transform="matrix(4.16667,0,0,4.16667,25540.5,0)">
            <g transform="matrix(-0.0957966,-0.995401,-0.995401,0.0957966,762.075,76.8486)">
                <path d="M-90.115,81.858L74.359,81.858" style="fill:none;fill-rule:nonzero;stroke:rgb(237,2,124);stroke-width:9px;stroke-linecap:butt;"/>
            </g>
        </g>
        <g transform="matrix(4.16667,0,0,4.16667,25540.5,0)">
            <g transform="matrix(-0.150732,0.988575,0.988575,0.150732,734.763,153.923)">
                <g>
                    <path d="M-129.16,-110.959L95.323,-110.959" style="fill:none;fill-rule:nonzero;stroke:rgb(247,147,29);stroke-width:9px;"/>
                </g>
            </g>
        </g>
        <g transform="matrix(4.16667,0,0,4.16667,25540.5,0)">
            <g transform="matrix(-1,0,0,1,644.54,9.5132)">
                <g>
                    <path d="M-16.934,0L0,0" style="fill:none;fill-rule:nonzero;stroke:rgb(247,147,29);stroke-width:9px;"/>
                </g>
            </g>
        </g>
        <g transform="matrix(4.16667,0,0,4.16667,25540.5,0)">
            <g transform="matrix(-1,0,0,1,661.473,9.5132)">
                <path d="M-125.129,0L0,0" style="fill:none;fill-rule:nonzero;stroke:rgb(247,147,29);stroke-width:9px;"/>
            </g>
        </g>
        <g transform="matrix(4.16667,0,0,4.16667,25540.5,0)">
            <g transform="matrix(-0.152982,-0.988229,-0.988229,0.152982,910.805,86.5231)">
                <g>
                    <path d="M-129.458,110.959L95.104,110.959" style="fill:none;fill-rule:nonzero;stroke:rgb(247,147,29);stroke-width:9px;"/>
                </g>
            </g>
        </g>
        <g transform="matrix(4.16667,0,0,4.16667,25540.5,0)">
            <g transform="matrix(1,0,0,1,681.766,174.391)">
                <g>
                    <path d="M0,0L15.67,0" style="fill:none;fill-rule:nonzero;stroke:rgb(59,35,20);stroke-width:9px;"/>
                </g>
            </g>
        </g>
        <g transform="matrix(4.16667,0,0,4.16667,25540.5,0)">
            <g transform="matrix(0.170489,-0.98536,-0.98536,-0.170489,723.518,195.895)">
                <g>
                    <path d="M-10.191,14.559C-9.917,7.397 17.834,14.559 17.834,14.559" style="fill:none;fill-rule:nonzero;stroke:rgb(168,123,80);stroke-width:9px;"/>
                </g>
            </g>
        </g>
        <g transform="matrix(4.16667,0,0,4.16667,25540.5,0)">
            <g transform="matrix(0.385149,0.922855,0.922855,-0.385149,710.676,186.818)">
                <g>
                    <path d="M-6.261,-9.397C2.964,-11.385 12.698,-12.591 14.105,-9.397" style="fill:none;fill-rule:nonzero;stroke:rgb(168,123,80);stroke-width:9px;"/>
                </g>
            </g>
        </g>
        <g transform="matrix(4.16667,0,0,4.16667,25540.5,0)">
            <g transform="matrix(0.133502,0.991049,0.991049,-0.133502,706.932,173.565)">
                <path d="M-7.656,-8.756C-6.026,-8.899 1.887,-9.157 10.015,-8.756" style="fill:none;fill-rule:nonzero;stroke:rgb(168,123,80);stroke-width:9px;"/>
            </g>
        </g>
        <g transform="matrix(4.16667,0,0,4.16667,25540.5,0)">
            <g transform="matrix(0.0868511,-0.996221,-0.996221,-0.0868511,742.042,174.737)">
                <path d="M-6.924,7.587C0.34,7.249 6.85,7.429 8.275,7.587" style="fill:none;fill-rule:nonzero;stroke:rgb(168,123,80);stroke-width:9px;"/>
            </g>
        </g>
        <g transform="matrix(4.16667,0,0,4.16667,25540.5,0)">
            <g transform="matrix(1,0,0,1,725.128,181.332)">
                <path d="M0,22.123C2.503,22.479 4.457,18.931 5.95,13.877C7.183,9.708 8.101,4.515 8.754,-0.356" style="fill:none;fill-rule:nonzero;stroke:rgb(168,123,80);stroke-width:9px;"/>
            </g>
        </g>
        <g transform="matrix(4.16667,0,0,4.16667,25540.5,0)">
            <g transform="matrix(0.0853603,0.99635,0.99635,-0.0853603,736.067,188.98)">
                <g>
                    <path d="M-14.288,-12.135C-14.288,-12.135 13.017,-17.927 13.488,-12.135" style="fill:none;fill-rule:nonzero;stroke:rgb(168,123,80);stroke-width:9px;"/>
                </g>
            </g>
        </g>
    </g>
</svg>
