<svg xmlns="http://www.w3.org/2000/svg" viewBox="0 0 473.767 489.604">
  <defs>
    <style>
      .cls-1 {
        fill: #00a3d2;
      }
    </style>
  </defs>
  <g id="builder" transform="translate(-7.918)">
    <path id="XMLID_304_" class="cls-1" d="M262.746,250.826a18.994,18.994,0,0,0,20.755-28.12l9.212-37.695,11.506,2.817a7.973,7.973,0,0,0,9.839-8.288l-5.251-76.983a4.283,4.283,0,0,0-7.934-1.935L260.713,166.5a7.951,7.951,0,0,0,4.917,11.886l11.5,2.808-7.808,31.9-40.158-9.239-45.246-66.268c-5.409-7.929-13.472-8.473-23.134-8.473V279.24h22.958V450.6h-45.9V329.9H121.119V450.6h-45.9V279.241H98.161V129.117c-11.074,0-20.128,1.233-24.734,11.32L9.648,280.135a19.126,19.126,0,0,0,34.8,15.872L75.265,228.5v34.7h-.049a16.044,16.044,0,0,0-16.045,16.048V450.6a16.045,16.045,0,0,0,16.045,16.048,22.951,22.951,0,1,0,45.9,0,16.056,16.056,0,0,0,8.367-2.352,15.934,15.934,0,0,0,8.354,2.352,22.952,22.952,0,1,0,45.9,0A16.044,16.044,0,0,0,199.788,450.6V279.241a16.043,16.043,0,0,0-16.045-16.048h-.05v-58.1l18.1,26.511a19.089,19.089,0,0,0,11.5,7.856Z"/>
    <rect id="XMLID_303_" class="cls-1" width="30.527" height="64.535" transform="translate(114.225 129.117)"/>
    <path id="XMLID_300_" class="cls-1" d="M84.817,76.286a44.673,44.673,0,0,0,89.342,0A16.015,16.015,0,0,0,189.8,60.311a60.326,60.326,0,0,0-120.653,0A16.023,16.023,0,0,0,84.817,76.286ZM97.389,29.967v4.545a8.017,8.017,0,1,0,16.034,0V19.161a44.653,44.653,0,0,1,8.031-2.307V34.512a8.026,8.026,0,0,0,16.051,0V16.854a44.035,44.035,0,0,1,8.014,2.307V34.512a8.032,8.032,0,0,0,16.064,0V29.967A44.037,44.037,0,0,1,173.74,60.311H85.2A43.951,43.951,0,0,1,97.389,29.967Z"/>
    <path id="XMLID_299_" class="cls-1" d="M345.291,435.467H246.318a8.015,8.015,0,0,0-8.032,8.023v35.872a8.018,8.018,0,0,0,8.032,8.022h98.973a8.025,8.025,0,0,0,8.013-8.022V443.49A8.023,8.023,0,0,0,345.291,435.467Z"/>
    <path id="XMLID_298_" class="cls-1" d="M473.671,435.467H374.7a8.015,8.015,0,0,0-8.032,8.023v35.872a8.017,8.017,0,0,0,8.032,8.022h98.973a8.026,8.026,0,0,0,8.014-8.022V443.49A8.024,8.024,0,0,0,473.671,435.467Z"/>
    <path id="XMLID_297_" class="cls-1" d="M473.671,307.078H374.7a8.022,8.022,0,0,0-8.032,8.027v35.869A8.015,8.015,0,0,0,374.7,359h98.973a8.024,8.024,0,0,0,8.014-8.026V315.105A8.03,8.03,0,0,0,473.671,307.078Z"/>
    <path id="XMLID_296_" class="cls-1" d="M345.291,307.078H246.318a8.022,8.022,0,0,0-8.032,8.027v35.869A8.015,8.015,0,0,0,246.318,359h98.973a8.023,8.023,0,0,0,8.013-8.026V315.105A8.029,8.029,0,0,0,345.291,307.078Z"/>
    <path id="XMLID_295_" class="cls-1" d="M302.473,379.3v35.878a8.018,8.018,0,0,0,8.032,8.022h98.973a8.028,8.028,0,0,0,8.02-8.022V379.3a8.031,8.031,0,0,0-8.02-8.026H310.505A8.021,8.021,0,0,0,302.473,379.3Z"/>
    <path id="XMLID_294_" class="cls-1" d="M302.473,250.913v35.869a8.015,8.015,0,0,0,8.032,8.026h98.973a8.024,8.024,0,0,0,8.02-8.026V250.913a8.03,8.03,0,0,0-8.02-8.025H310.505A8.021,8.021,0,0,0,302.473,250.913Z"/>
    <path id="XMLID_293_" class="cls-1" d="M473.671,371.269H436.2a8.017,8.017,0,0,0-8.014,8.026v35.878A8.014,8.014,0,0,0,436.2,423.2h37.475a8.027,8.027,0,0,0,8.014-8.022V379.3A8.029,8.029,0,0,0,473.671,371.269Z"/>
    <path id="XMLID_292_" class="cls-1" d="M473.671,242.888H436.2a8.017,8.017,0,0,0-8.014,8.025v35.869a8.01,8.01,0,0,0,8.014,8.026h37.475a8.023,8.023,0,0,0,8.014-8.026V250.913A8.029,8.029,0,0,0,473.671,242.888Z"/>
  </g>
</svg>
