<svg xmlns="http://www.w3.org/2000/svg" viewBox="0 0 289.87 223.69"><defs><style>.cls-1{isolation:isolate;}.cls-2{fill:#ed0a7c;}.cls-10,.cls-2,.cls-3,.cls-4,.cls-5,.cls-9{mix-blend-mode:multiply;}.cls-10,.cls-3,.cls-4,.cls-5,.cls-8,.cls-9{fill:none;}.cls-3{stroke:#ed0a7c;stroke-miterlimit:10;stroke-width:2px;}.cls-4{stroke:#ed037c;}.cls-10,.cls-4,.cls-5,.cls-8,.cls-9{stroke-linecap:round;stroke-linejoin:round;stroke-width:9px;}.cls-5{stroke:#f7941d;}.cls-6{fill:#f7941d;}.cls-7{fill:#3a2415;}.cls-10,.cls-8{stroke:#a97c50;}.cls-9{stroke:#3c2415;}</style></defs><title>Asset 1</title><g class="cls-1"><g id="Layer_2" data-name="Layer 2"><g id="Layer_1-2" data-name="Layer 1"><path class="cls-2" d="M153.34,43.43c10.49-10.5,9.45-24.86-1-35.36s-25.51-10.89-36-.4"/><line class="cls-3" x1="113.81" y1="6.34" x2="157.59" y2="47.9"/><path class="cls-4" d="M116,19.78c-7.13,7.14-6.19,17.76.95,24.89a18.28,18.28,0,0,0,25.84,0Z"/><line class="cls-5" x1="19.21" y1="97.54" x2="32.64" y2="83.24"/><line class="cls-5" x1="25.97" y1="158.19" x2="19.21" y2="97.54"/><line class="cls-5" x1="4.5" y1="209.16" x2="25.97" y2="158.19"/><line class="cls-5" x1="25.12" y1="216.41" x2="4.5" y2="209.16"/><line class="cls-5" x1="47.96" y1="161.22" x2="25.12" y2="216.41"/><line class="cls-5" x1="48.75" y1="115.61" x2="47.96" y2="161.22"/><line class="cls-5" x1="70.46" y1="152.79" x2="48.75" y2="115.61"/><line class="cls-5" x1="40.16" y1="206.93" x2="70.46" y2="152.79"/><line class="cls-5" x1="57.99" y1="219.19" x2="40.16" y2="206.93"/><line class="cls-5" x1="93" y1="150.94" x2="57.99" y2="219.19"/><line class="cls-5" x1="76.45" y1="112.93" x2="93" y2="150.94"/><line class="cls-5" x1="89.56" y1="83.24" x2="65.36" y2="102.36"/><line class="cls-5" x1="83.39" y1="105.19" x2="89.56" y2="83.24"/><line class="cls-5" x1="88.95" y1="121.48" x2="83.39" y2="105.19"/><line class="cls-5" x1="102.94" y1="102.55" x2="116.77" y2="144.72"/><line class="cls-5" x1="123.57" y1="70.44" x2="102.94" y2="102.55"/><line class="cls-5" x1="87.8" y1="27.99" x2="123.57" y2="70.44"/><line class="cls-5" x1="26.6" y1="28.45" x2="87.8" y2="27.99"/><line class="cls-5" x1="25.88" y1="69.5" x2="26.6" y2="28.45"/><polygon class="cls-6" points="68.07 49.39 48.89 50.74 47.96 69.5 68.07 49.39"/><path class="cls-7" d="M158,200.26a16.53,16.53,0,0,1-5.59-3.26L128.9,176.22l22.07-25L174.5,172a16.63,16.63,0,0,1,4.72,7"/><path class="cls-8" d="M170.49,209.92H146.68L179,176.6a14.12,14.12,0,0,1,20.64,0l2.08,2.08"/><line class="cls-9" x1="4.5" y1="53.74" x2="145.17" y2="167.74"/><path class="cls-10" d="M170.49,209.92l43.35-43.36a19.92,19.92,0,0,1,28.17,0l43.36,43.36"/><path class="cls-10" d="M285.37,209.92c-28.59,5.36-79.39-5.87-114.88,0"/></g></g></g></svg>