<svg xmlns="http://www.w3.org/2000/svg" width="140.2" height="226.2" viewBox="0 0 140.2 226.2">
  <g id="Group_1739" data-name="Group 1739" transform="translate(-332.7)">
    <path id="Path_743" data-name="Path 743" d="M374,176.6a15.666,15.666,0,0,0-7.2-1.8,14.857,14.857,0,0,0-7.7,2.1,16.154,16.154,0,0,0-5.7,5.9,15.666,15.666,0,0,0-1.8,7.2,14.857,14.857,0,0,0,2.1,7.7,16.154,16.154,0,0,0,5.9,5.7h0a15.666,15.666,0,0,0,7.2,1.8,14.857,14.857,0,0,0,7.7-2.1,16.154,16.154,0,0,0,5.7-5.9A15.666,15.666,0,0,0,382,190a14.857,14.857,0,0,0-2.1-7.7A16.154,16.154,0,0,0,374,176.6Zm-1.8,16.3a7.556,7.556,0,0,1-2.3,2.4,5.614,5.614,0,0,1-3.1.9,5.918,5.918,0,0,1-2.9-.7l-2.1,4,2.1-4a7.556,7.556,0,0,1-2.4-2.3,5.614,5.614,0,0,1-.9-3.1,5.918,5.918,0,0,1,.7-2.9,7.556,7.556,0,0,1,2.3-2.4,5.614,5.614,0,0,1,3.1-.9,5.918,5.918,0,0,1,2.9.7,7.556,7.556,0,0,1,2.4,2.3,5.614,5.614,0,0,1,.9,3.1A5.19,5.19,0,0,1,372.2,192.9Z" fill="#ed037c"/>
    <path id="Path_744" data-name="Path 744" d="M469.4,177.2a34.259,34.259,0,0,0-12.8-14.3,35.509,35.509,0,0,0-9.4-4l-8.5-17.6h0l-9.8-20.4,19.5-36.2A88.8,88.8,0,0,0,451,6.2L450,4a4.236,4.236,0,0,0-3.9-2.6A4.443,4.443,0,0,0,442,3.8L405.4,71.9,372,2.6A4.375,4.375,0,0,0,368,0a4.533,4.533,0,0,0-4.1,2.5l-1.1,2.1a87.6,87.6,0,0,0-9.7,40.2,88.585,88.585,0,0,0,8.7,38.3l17.6,36.7L369,139.4h0l-9.2,17.2a37.114,37.114,0,0,0-10.2,3.9,34.863,34.863,0,0,0-12.8,13.3,33.52,33.52,0,0,0-4.1,16.1,34.064,34.064,0,0,0,4.7,17.3A34.863,34.863,0,0,0,350.7,220l2.1-4-2.1,4a33.52,33.52,0,0,0,16.1,4.1,34.064,34.064,0,0,0,17.3-4.7,34.863,34.863,0,0,0,12.8-13.3A33.52,33.52,0,0,0,401,190a33.1,33.1,0,0,0-2.4-12.5l4.6-8.6,4.4,9.1a33.551,33.551,0,0,0-3,14,34.464,34.464,0,0,0,16.2,29.1,34.4,34.4,0,0,0,17.9,5.1,34.04,34.04,0,0,0,14.8-3.4h0a34.014,34.014,0,0,0,19.4-30.7A35.383,35.383,0,0,0,469.4,177.2Zm-56.1-8-4.1-8.6,23.5-11.3,4.1,8.6a32.814,32.814,0,0,0-12.8,3.3A32,32,0,0,0,413.3,169.2ZM397.7,160l-4.5,8.4A33.279,33.279,0,0,0,383,160a34.658,34.658,0,0,0-12.7-3.9l4.5-8.4,4.1,2.2ZM445.4,16.4A80.167,80.167,0,0,1,450,42.8a79.214,79.214,0,0,1-9.5,37.6h0l-16.4,30.4-13.9-29ZM362.2,44.8A78.659,78.659,0,0,1,368,15l60.7,126.2-23.5,11.3L370,79.2A79.678,79.678,0,0,1,362.2,44.8ZM392.6,147,379,139.7l5.3-9.9Zm-3.7,54.9a26.076,26.076,0,0,1-9.4,9.8,25.053,25.053,0,0,1-12.7,3.5,25.615,25.615,0,0,1-11.9-3,26.076,26.076,0,0,1-9.8-9.4,25.053,25.053,0,0,1-3.5-12.7,25.615,25.615,0,0,1,3-11.9,26.076,26.076,0,0,1,9.4-9.8,25.053,25.053,0,0,1,12.7-3.5,25.615,25.615,0,0,1,11.9,3,26.076,26.076,0,0,1,9.8,9.4,25.053,25.053,0,0,1,3.5,12.7A24.458,24.458,0,0,1,388.9,201.9Zm71.1,3.2a24.029,24.029,0,0,1-10.5,9.4l1.9,4.1-1.9-4.1a24.813,24.813,0,0,1-10.9,2.5,24.462,24.462,0,0,1-13.2-3.8,24.03,24.03,0,0,1-9.4-10.5,24.812,24.812,0,0,1-2.5-10.9,24.462,24.462,0,0,1,3.8-13.2,24.029,24.029,0,0,1,10.5-9.4,24.813,24.813,0,0,1,10.9-2.5,24.462,24.462,0,0,1,13.2,3.8,24.03,24.03,0,0,1,9.4,10.5,24.812,24.812,0,0,1,2.5,10.9A24.462,24.462,0,0,1,460,205.1Z" fill="#f7941d"/>
    <path id="Path_745" data-name="Path 745" d="M446.6,179a14.916,14.916,0,0,0-8-2.3,15.5,15.5,0,0,0-6.6,1.5,14.566,14.566,0,0,0-6.3,5.7,14.916,14.916,0,0,0-2.3,8,15.5,15.5,0,0,0,1.5,6.6,14.566,14.566,0,0,0,5.7,6.3,14.916,14.916,0,0,0,8,2.3,15.5,15.5,0,0,0,6.6-1.5,14.566,14.566,0,0,0,6.3-5.7,14.916,14.916,0,0,0,2.3-8,15.5,15.5,0,0,0-1.5-6.6A15.776,15.776,0,0,0,446.6,179Zm-7.9,19.1a6.557,6.557,0,0,1-3.3-.9,5.823,5.823,0,0,1-2.3-2.6,6.444,6.444,0,0,1,.3-6,5.823,5.823,0,0,1,2.6-2.3,6.444,6.444,0,0,1,6,.3,5.823,5.823,0,0,1,2.3,2.6,6.444,6.444,0,0,1-.3,6,5.823,5.823,0,0,1-2.6,2.3A6.6,6.6,0,0,1,438.7,198.1Z" fill="#ed037c"/>
    <path id="Path_746" data-name="Path 746" d="M409.9,129.6a13.523,13.523,0,0,0,4.7-4.8h0a12.441,12.441,0,0,0-.2-12.2,13.523,13.523,0,0,0-4.8-4.7,12.441,12.441,0,0,0-12.2.2,13.523,13.523,0,0,0-4.7,4.8,12.441,12.441,0,0,0,.2,12.2,13.523,13.523,0,0,0,4.8,4.7h0a12.613,12.613,0,0,0,5.9,1.5A12.388,12.388,0,0,0,409.9,129.6Zm-10-3.7,2.1-4a3.25,3.25,0,0,1-1.3-1.3,3.371,3.371,0,0,1-.5-1.7,3.167,3.167,0,0,1,.4-1.6,3.25,3.25,0,0,1,1.3-1.3,3.371,3.371,0,0,1,1.7-.5,3.167,3.167,0,0,1,1.6.4,3.25,3.25,0,0,1,1.3,1.3,3.371,3.371,0,0,1,.5,1.7,3.167,3.167,0,0,1-.4,1.6,3.25,3.25,0,0,1-1.3,1.3,3.371,3.371,0,0,1-1.7.5,3.167,3.167,0,0,1-1.6-.4Z" fill="#ed037c"/>
  </g>
</svg>
