<svg xmlns="http://www.w3.org/2000/svg" width="265" height="192" viewBox="0 0 265 192">
  <g id="Group_2200" data-name="Group 2200" transform="translate(-335 -663)">
    <g id="Rectangle_1" data-name="Rectangle 1" transform="translate(335 663)" fill="none" stroke="#ed037c" stroke-width="6">
      <rect width="47" height="47" rx="17" stroke="none"/>
      <rect x="3" y="3" width="41" height="41" rx="14" fill="none"/>
    </g>
    <g id="Rectangle_2" data-name="Rectangle 2" transform="translate(408 663)" fill="none" stroke="#3c2415" stroke-width="6">
      <rect width="46" height="47" rx="17" stroke="none"/>
      <rect x="3" y="3" width="40" height="41" rx="14" fill="none"/>
    </g>
    <g id="Rectangle_3" data-name="Rectangle 3" transform="translate(480 663)" fill="none" stroke="#a97c50" stroke-width="6">
      <rect width="47" height="47" rx="17" stroke="none"/>
      <rect x="3" y="3" width="41" height="41" rx="14" fill="none"/>
    </g>
    <g id="Rectangle_7" data-name="Rectangle 7" transform="translate(553 663)" fill="none" stroke="#f7941d" stroke-width="6">
      <rect width="47" height="47" rx="17" stroke="none"/>
      <rect x="3" y="3" width="41" height="41" rx="14" fill="none"/>
    </g>
    <g id="Rectangle_1-2" data-name="Rectangle 1" transform="translate(335 736)" fill="none" stroke="#00a3d2" stroke-width="6">
      <rect width="47" height="46" rx="17" stroke="none"/>
      <rect x="3" y="3" width="41" height="40" rx="14" fill="none"/>
    </g>
    <g id="Rectangle_2-2" data-name="Rectangle 2" transform="translate(408 736)" fill="none" stroke="#ed037c" stroke-width="6">
      <rect width="46" height="46" rx="17" stroke="none"/>
      <rect x="3" y="3" width="40" height="40" rx="14" fill="none"/>
    </g>
    <g id="Rectangle_3-2" data-name="Rectangle 3" transform="translate(480 736)" fill="none" stroke="#a97c50" stroke-width="6">
      <rect width="47" height="46" rx="17" stroke="none"/>
      <rect x="3" y="3" width="41" height="40" rx="14" fill="none"/>
    </g>
    <g id="Rectangle_8" data-name="Rectangle 8" transform="translate(553 736)" fill="none" stroke="#ed037c" stroke-width="6">
      <rect width="47" height="46" rx="17" stroke="none"/>
      <rect x="3" y="3" width="41" height="40" rx="14" fill="none"/>
    </g>
    <g id="Rectangle_4" data-name="Rectangle 4" transform="translate(335 808)" fill="none" stroke="#f7941d" stroke-width="6">
      <rect width="47" height="47" rx="17" stroke="none"/>
      <rect x="3" y="3" width="41" height="41" rx="14" fill="none"/>
    </g>
    <g id="Rectangle_5" data-name="Rectangle 5" transform="translate(408 808)" fill="none" stroke="#cf1f26" stroke-width="6">
      <rect width="46" height="47" rx="17" stroke="none"/>
      <rect x="3" y="3" width="40" height="41" rx="14" fill="none"/>
    </g>
    <g id="Rectangle_6" data-name="Rectangle 6" transform="translate(480 808)" fill="none" stroke="#00a3d2" stroke-width="6">
      <rect width="47" height="47" rx="17" stroke="none"/>
      <rect x="3" y="3" width="41" height="41" rx="14" fill="none"/>
    </g>
    <g id="Rectangle_9" data-name="Rectangle 9" transform="translate(553 808)" fill="none" stroke="#63b190" stroke-width="6">
      <rect width="47" height="47" rx="17" stroke="none"/>
      <rect x="3" y="3" width="41" height="41" rx="14" fill="none"/>
    </g>
  </g>
</svg>
