<svg xmlns="http://www.w3.org/2000/svg" viewBox="0 0 27.589 36.5">
  <defs>
    <style>
      .cls-1 {
        fill: #fff;
      }
    </style>
  </defs>
  <g id="Group_1942" data-name="Group 1942" transform="translate(-355 -345)">
    <path id="Path_1635" data-name="Path 1635" class="cls-1" d="M26.3,33.9a18.725,18.725,0,0,1-3.9-4.1,8.844,8.844,0,0,0,5.2-8.1,9.026,9.026,0,0,0-9-9,9.6,9.6,0,0,0-3.3.6A22.609,22.609,0,0,1,15.2.9.618.618,0,0,0,15,.2a.952.952,0,0,0-.7-.2C7.1,2.1,2.1,7.1.5,13.6a19.07,19.07,0,0,0,5.3,18,17.982,17.982,0,0,0,12.8,4.9,25.474,25.474,0,0,0,7.5-1.2.634.634,0,0,0,.5-.6.618.618,0,0,0-.2-.7ZM26,21.7a7.5,7.5,0,1,1-7.5-7.5A7.49,7.49,0,0,1,26,21.7ZM6.8,30.5A17.294,17.294,0,0,1,2,13.9C3.3,8.2,7.4,4,13.5,1.9A23.786,23.786,0,0,0,14,14.1a9.016,9.016,0,0,0,4.7,16.7,8.524,8.524,0,0,0,2.3-.3,16.92,16.92,0,0,0,3.5,3.9C17.4,36,11.2,34.7,6.8,30.5Z" transform="translate(354.989 345)"/>
    <path id="Path_1636" data-name="Path 1636" class="cls-1" d="M17.8,16.5v5.2a.789.789,0,0,0,.8.8h3.3a.789.789,0,0,0,.8-.8.709.709,0,0,0-.8-.7H19.3V16.6a.713.713,0,0,0-.8-.7C18,15.9,17.8,16.1,17.8,16.5Z" transform="translate(354.989 345)"/>
  </g>
</svg>
