<svg xmlns="http://www.w3.org/2000/svg" viewBox="0 0 107.206 91.023">
  <defs>
    <style>
      .cls-1 {
        fill: #fe0077;
      }
    </style>
  </defs>
  <g id="Group_1725" data-name="Group 1725" transform="translate(-412 -402.53)">
    <g id="Group_1722" data-name="Group 1722" transform="translate(-6)">
      <path id="Path_1515" data-name="Path 1515" class="cls-1" d="M139.127,222.582a8.472,8.472,0,0,1-3.26-1.719,1.546,1.546,0,0,1-.567-1.222,1.328,1.328,0,0,1,.3-.9.891.891,0,0,1,.709-.372,1.87,1.87,0,0,1,1.01.39,9.821,9.821,0,0,0,6.024,1.967,6.275,6.275,0,0,0,3.65-.9,2.9,2.9,0,0,0,1.276-2.551,2.118,2.118,0,0,0-1.187-1.967,15.064,15.064,0,0,0-3.809-1.24,22.022,22.022,0,0,1-4.093-1.222,6.18,6.18,0,0,1-2.5-1.86,4.726,4.726,0,0,1-.9-2.976,5.515,5.515,0,0,1,.992-3.225,6.565,6.565,0,0,1,2.782-2.2,9.9,9.9,0,0,1,4.075-.78,12.405,12.405,0,0,1,3.9.585,8.026,8.026,0,0,1,3.03,1.754,1.56,1.56,0,0,1,.585,1.223,1.312,1.312,0,0,1-.3.886.871.871,0,0,1-.726.39,1.826,1.826,0,0,1-.974-.39,11.43,11.43,0,0,0-2.569-1.506,8.26,8.26,0,0,0-2.906-.461,5.952,5.952,0,0,0-3.561.921,3.06,3.06,0,0,0-1.276,2.6,2.424,2.424,0,0,0,1.116,2.161,12.961,12.961,0,0,0,3.632,1.329,29.7,29.7,0,0,1,4.234,1.223,6.562,6.562,0,0,1,2.587,1.754,4.177,4.177,0,0,1,.974,2.87,5.26,5.26,0,0,1-.992,3.154,6.55,6.55,0,0,1-2.8,2.144,10.784,10.784,0,0,1-4.128.762A13.72,13.72,0,0,1,139.127,222.582Z" transform="translate(303.87 235.741)"/>
      <path id="Path_1516" data-name="Path 1516" class="cls-1" d="M258.269,214.465v7.725a1.333,1.333,0,0,1-.408,1.028,1.545,1.545,0,0,1-1.1.39,1.446,1.446,0,0,1-1.081-.39,1.36,1.36,0,0,1-.408-1.028V214.5a3.908,3.908,0,0,0-.726-2.6,2.866,2.866,0,0,0-2.268-.833,3.83,3.83,0,0,0-2.906,1.134,4.156,4.156,0,0,0-1.1,3.03v6.981a1.389,1.389,0,0,1-.39,1.028,1.446,1.446,0,0,1-1.081.39,1.517,1.517,0,0,1-1.1-.39,1.3,1.3,0,0,1-.407-1.028v-18.39a1.244,1.244,0,0,1,.443-1.028,1.561,1.561,0,0,1,1.116-.39,1.451,1.451,0,0,1,1.045.372,1.3,1.3,0,0,1,.39.992v7.424a4.977,4.977,0,0,1,1.984-1.9,5.945,5.945,0,0,1,2.852-.656C256.533,208.619,258.269,210.568,258.269,214.465Z" transform="translate(213.359 235.247)"/>
      <path id="Path_1517" data-name="Path 1517" class="cls-1" d="M337.492,251.466a2.424,2.424,0,0,1-.762-.673,1.549,1.549,0,0,1-.23-.8,1.2,1.2,0,0,1,.266-.8.792.792,0,0,1,.673-.337,2.866,2.866,0,0,1,1.222.478,12.256,12.256,0,0,0,1.736.78,6.482,6.482,0,0,0,2.108.3,4.171,4.171,0,0,0,2.232-.5,1.6,1.6,0,0,0,.8-1.435,1.421,1.421,0,0,0-.3-.939,2.423,2.423,0,0,0-1.1-.638,16.655,16.655,0,0,0-2.286-.6,8.863,8.863,0,0,1-3.756-1.524,3.271,3.271,0,0,1-1.134-2.622,3.808,3.808,0,0,1,.744-2.3,4.785,4.785,0,0,1,2.055-1.595,7.466,7.466,0,0,1,2.959-.567,9.267,9.267,0,0,1,2.321.3,6.791,6.791,0,0,1,1.984.9,1.861,1.861,0,0,1,.992,1.524,1.159,1.159,0,0,1-.284.8.873.873,0,0,1-.673.319,1.293,1.293,0,0,1-.549-.124,4.359,4.359,0,0,1-.709-.39,9.081,9.081,0,0,0-1.506-.744,4.9,4.9,0,0,0-1.736-.266,3.393,3.393,0,0,0-2,.531,1.7,1.7,0,0,0-.762,1.453,1.489,1.489,0,0,0,.691,1.293,8.363,8.363,0,0,0,2.622.886,13.787,13.787,0,0,1,3.118.939,3.63,3.63,0,0,1,1.612,1.329,3.806,3.806,0,0,1,.5,2,3.644,3.644,0,0,1-1.63,3.1,7.227,7.227,0,0,1-4.323,1.187A9.067,9.067,0,0,1,337.492,251.466Z" transform="translate(138.317 206.202)"/>
      <path id="Path_1618" data-name="Path 1618" class="cls-1" d="M45.277,0A45.277,45.277,0,1,0,90.553,45.277C90.9,20.357,70.547,0,45.277,0ZM73.706,73.706a39.831,39.831,0,0,1-56.859,0,39.831,39.831,0,0,1,0-56.859,39.831,39.831,0,0,1,56.859,0A39.766,39.766,0,0,1,85.639,45.277,39.164,39.164,0,0,1,73.706,73.706Z" transform="translate(418 403)"/>
    </g>
    <path id="Union_22" data-name="Union 22" class="cls-1" d="M10.453,96.5V61.538q0-.112.01-.224-.01-.132-.01-.265V20.532h-4.7A.69.69,0,0,1,5,19.778c0-.189.188-.189.188-.377L12.538,8.283a.706.706,0,0,1,1.13,0L21.019,19.4c.188.188.188.188.188.377a.81.81,0,0,1-.753.753H15.493V61.049q0,.12-.008.24.008.122.008.249V96.5a2.52,2.52,0,0,1-5.04,0Z" transform="translate(524.207 501.553) rotate(180)"/>
  </g>
</svg>
