<svg xmlns="http://www.w3.org/2000/svg" width="696.103" height="696.058" viewBox="0 0 696.103 696.058">
  <g id="Group_2246" data-name="Group 2246" transform="translate(0 29.891)">
    <path id="Path_1829" data-name="Path 1829" d="M649.693-25.752c-11.583,3.195-11.82,17.7,0,23.286a23.4,23.4,0,0,1,23.286,23.286V368.814H23.286V20.658A23.4,23.4,0,0,1,46.573-2.629c11.164-3.118,13.292-18.892,0-23.286H46.41A46.633,46.633,0,0,0,0,20.495c0,.054,0,.109,0,.163v394.4a46.63,46.63,0,0,0,46.408,46.41h228l-27.944,92.8H220.407c-13.439,5.684-10.116,19.076,0,23.286H475.6c8.7-3.914,14.99-15.7,0-23.286H449.429l-27.944-92.8H649.693a46.632,46.632,0,0,0,46.41-46.41V20.658A46.632,46.632,0,0,0,649.693-25.752Zm-224.482,580H270.775l27.944-92.8h98.735ZM672.793,415.038a23.4,23.4,0,0,1-23.286,23.286H46.41a23.4,23.4,0,0,1-23.286-23.286V391.751H672.816Z" transform="translate(0 88.613)" fill="#ed037c"/>
    <path id="Path_1830" data-name="Path 1830" d="M479.481,368.915V359H75.926a53.324,53.324,0,0,1-53.07-53.07V42.625a53.324,53.324,0,0,1,53.07-53.07H479.6a53.324,53.324,0,0,1,53.07,53.07v263.3A53.324,53.324,0,0,1,479.6,359h-.116v19.7h.186c39.769,0,72.491-32.722,72.491-72.491V42.6c0-39.769-32.722-72.491-72.491-72.491H76.043c-.233,0-.466,0-.7,0-39.6,0-72.188,32.585-72.188,72.188V305.832c0,39.769,32.724,72.491,72.491,72.491h403.6v-9.315Z" transform="translate(70.336 0)" fill="#cf1f26"/>
    <path id="Path_1831" data-name="Path 1831" d="M20.481-25.039a7.789,7.789,0,0,0-7.661,7.661V150.565a7.651,7.651,0,0,0,7.615,7.615h.047a7.73,7.73,0,0,0,4.168-1.3L151.4,72.811a7.778,7.778,0,0,0,0-12.924L24.65-24.177a14.118,14.118,0,0,0-4.168-.885" transform="translate(285.713 107.624)" fill="#ff8f00"/>
  </g>
</svg>
