<svg xmlns="http://www.w3.org/2000/svg" width="508.119" height="512" viewBox="0 0 508.119 512">
  <g id="art" transform="translate(-1.94)">
    <g id="Group_2270" data-name="Group 2270">
      <g id="Group_2269" data-name="Group 2269">
        <circle id="Ellipse_34" data-name="Ellipse 34" cx="10" cy="10" r="10" transform="translate(327.921 226)" fill="#ed037c"/>
      </g>
    </g>
    <g id="Group_2272" data-name="Group 2272">
      <g id="Group_2271" data-name="Group 2271">
        <path id="Path_1176" data-name="Path 1176" d="M339.637,278.848a10,10,0,0,0-11.357,8.427c-2.733,18.455-18.333,33.761-41.729,40.945-25.007,7.679-59.718,5.105-80.893-17.954a10,10,0,0,0-14.731,13.527c12.258,13.349,28.907,22.447,48.147,26.31a106.621,106.621,0,0,0,20.936,2.041,111.093,111.093,0,0,0,32.412-4.8c30.95-9.5,51.751-30.861,55.642-57.134A10,10,0,0,0,339.637,278.848Z" fill="#3c2415"/>
      </g>
    </g>
    <g id="Group_2274" data-name="Group 2274">
      <g id="Group_2273" data-name="Group 2273">
        <path id="Path_1177" data-name="Path 1177" d="M478.626,190.411c-18.176-21.071-43.262-34.733-73.458-40.22,28.91-19.51,53.846-38.926,71.626-55.868C503.9,68.492,512.993,50.34,505.4,37.2c-8.446-14.634-32.827-14.533-76.733.321-37.1,12.55-83.311,34.347-130.127,61.377-8.087,4.668-16.1,9.448-23.936,14.265-5.813-16.417-1.979-35.17,10.847-51.431,9.607-12.18,11.752-27.65,5.6-40.375C284.6,8.021,270.447.036,253.162,0h-.47C191.686,0,132.015,24.071,84.672,67.779,37.27,111.541,8.25,169.473,2.958,230.9c-6.367,73.98,17.281,144.314,66.586,198.045A256.44,256.44,0,0,0,257.932,512c38.38,0,74.41-7.022,107.087-20.873a240.982,240.982,0,0,0,78.866-53.752A237.536,237.536,0,0,0,492.668,364.4c10.994-25.784,17-53.108,17.372-79.017C510.581,247.7,499.718,214.862,478.626,190.411Zm-202.85-54.423c10.584-6.675,21.607-13.326,32.766-19.768,43.286-24.992,86.39-45.577,121.373-57.964,38.51-13.635,54.277-12.745,57.953-10.985-.318,2.327-3.208,12.68-28.479,35.952-21.1,19.433-51.917,42.286-86.768,64.349-11.017,6.977-22.483,13.911-34.078,20.607-15.985,9.226-31.958,17.853-47.635,25.752a149.828,149.828,0,0,0-28.361-49.436Q269.055,140.229,275.776,135.988ZM272.79,202.8c-28.237,13.391-54.147,23.6-74.838,29.522a49.9,49.9,0,0,0-15.093-26.6c15.49-14.949,37.292-32.269,62.964-49.988A130.374,130.374,0,0,1,272.79,202.8Zm217.252,82.29C488.616,384.6,399.469,492,257.932,492A236.391,236.391,0,0,1,84.281,415.426c-45.473-49.554-67.276-114.477-61.4-182.808C32.984,115.38,136.075,20,252.692,20h.449c9.567.02,16.823,3.688,19.906,10.065,2.835,5.862,1.6,13.07-3.3,19.282C251.727,72.2,247.207,100.3,257.39,124c-5.361,3.454-10.63,6.923-15.721,10.364l-.071.048c-31.8,21.457-58.651,42.8-76.517,60.761a49.733,49.733,0,0,0-41.092,4.023c-20.776,12-48.056,67.926-53.313,79.015A10,10,0,0,0,78.9,292.458c5.527.448,21.222,1.58,38.691,1.58,21.2,0,45.006-1.668,56.4-8.247a49.883,49.883,0,0,0,23.852-32.7c24.523-6.437,56.564-19.03,91.266-35.937,19.443-9.463,39.439-20.112,59.435-31.652,10.143-5.858,20.171-11.9,29.917-17.988.059,0,.116.012.175.014C461.984,169.916,490.835,229.824,490.042,285.092Zm-311.1-40.722a29.961,29.961,0,0,1-14.952,24.1c-9.457,5.463-41.945,6.2-68.62,4.979,12.275-23.7,29.154-51.47,38.621-56.938a30.012,30.012,0,0,1,44.951,27.858Z" fill="#00a3d2"/>
      </g>
    </g>
    <g id="Group_2276" data-name="Group 2276">
      <g id="Group_2275" data-name="Group 2275">
        <path id="Path_1178" data-name="Path 1178" d="M177.922,61.84a40,40,0,1,0,40,40A40.045,40.045,0,0,0,177.922,61.84Zm0,60a20,20,0,1,1,20-20A20.023,20.023,0,0,1,177.922,121.84Z" fill="#cf1f26"/>
      </g>
    </g>
    <g id="Group_2278" data-name="Group 2278">
      <g id="Group_2277" data-name="Group 2277">
        <path id="Path_1179" data-name="Path 1179" d="M127.922,330.55a40,40,0,1,0,40,40A40.045,40.045,0,0,0,127.922,330.55Zm0,60a20,20,0,1,1,20-20A20.023,20.023,0,0,1,127.922,390.55Z" fill="#63b190"/>
      </g>
    </g>
    <g id="Group_2280" data-name="Group 2280">
      <g id="Group_2279" data-name="Group 2279">
        <path id="Path_1180" data-name="Path 1180" d="M227.922,390.55a40,40,0,1,0,40,40A40.045,40.045,0,0,0,227.922,390.55Zm0,60a20,20,0,1,1,20-20A20.023,20.023,0,0,1,227.922,450.55Z" fill="#f7941d"/>
      </g>
    </g>
    <g id="Group_2282" data-name="Group 2282">
      <g id="Group_2281" data-name="Group 2281">
        <path id="Path_1181" data-name="Path 1181" d="M347.922,370.55a40,40,0,1,0,40,40A40.045,40.045,0,0,0,347.922,370.55Zm0,60a20,20,0,1,1,20-20A20.023,20.023,0,0,1,347.922,430.55Z" fill="#ed037c"/>
      </g>
    </g>
    <g id="Group_2284" data-name="Group 2284">
      <g id="Group_2283" data-name="Group 2283">
        <path id="Path_1182" data-name="Path 1182" d="M427.922,270.55a40,40,0,1,0,40,40A40.045,40.045,0,0,0,427.922,270.55Zm0,60a20,20,0,1,1,20-20A20.023,20.023,0,0,1,427.922,330.55Z" fill="#a97c50"/>
      </g>
    </g>
  </g>
</svg>
