<svg xmlns="http://www.w3.org/2000/svg" width="156.616" height="156.787" viewBox="0 0 156.616 156.787">
  <g id="Page-1" transform="translate(-0.012 0)">
    <g id="_035---Creative-Thinking" data-name="035---Creative-Thinking" transform="translate(0.012 0)">
      <path id="Shape" d="M135.255,114.977a35.117,35.117,0,0,0-.063-13.327L147.16,72.767a.452.452,0,0,0,0-.057,49.073,49.073,0,0,1,8.4-14.586,3.9,3.9,0,0,0,.964-3.567l-4.907-21.192a2.559,2.559,0,0,0-.261-.632c-.021-.039-.029-.086-.05-.123s-.112-.125-.165-.193a2.633,2.633,0,0,0-.368-.431,2.428,2.428,0,0,0-.285-.172,2.655,2.655,0,0,0-.405-.246,2.582,2.582,0,0,0-.611-.149c-.06,0-.112-.039-.172-.044a2.613,2.613,0,0,0-1.44.321c-.039.021-.086.029-.125.052h-.026L129.258,43.263a3.9,3.9,0,0,0-1.845,3.214,49.048,49.048,0,0,1-4.393,16.287v.029l-5.981,14.458a35.052,35.052,0,0,0-9.334-3.371,141.193,141.193,0,0,0,1.354-25.695,28.519,28.519,0,0,0,6.486-20.936C113.911,12.021,100.148,1.022,99.56.56a2.613,2.613,0,0,0-4.142,2.725c1.346,5.054.18,10.387-9.76,21.354A15.292,15.292,0,0,0,82.076,41.3a20.285,20.285,0,0,0,3.721,6.01c-.632,4.037-1.129,7.86-1.471,11.584a130.869,130.869,0,0,0-.455,18.532,35.554,35.554,0,0,0-6.507,4.534l-12.674-54.2c0-.055-.052-.094-.068-.144a2.477,2.477,0,0,0-.183-.5L51.495,3.212A6.034,6.034,0,0,0,40.159,5.867L39.177,33.03a2.71,2.71,0,0,0,.065.583v.118l12.93,55.181a29.418,29.418,0,0,0-6.041.9L31.907,55.464a5.281,5.281,0,0,0-6.82-2.793l-21.738,9A5.242,5.242,0,0,0,.519,68.5l19.29,46.534a20.892,20.892,0,0,0,1.077,41.755H135.861a20.907,20.907,0,1,0-.606-41.81Zm-2.663-67.637L143.546,40.5l-3.878,9.365a2.614,2.614,0,0,0,4.829,2l3.878-9.365,2.9,12.577A51.688,51.688,0,0,0,143.7,67.591a10.748,10.748,0,0,1-14.607-6.041A51.62,51.62,0,0,0,132.592,47.339Zm-6.01,20.515A15.916,15.916,0,0,0,133.1,72.6a16.58,16.58,0,0,0,6.394,1.348,13.85,13.85,0,0,0,1.584-.1L132.736,93.97A35.465,35.465,0,0,0,121.515,80.1Zm-35.8-18.663,13.128.8c.081,2.441.052,4.965-.029,7.528a54.927,54.927,0,0,1-13.092-.632c-.329-.047-.651-.084-.977-.128.261-2.462.58-4.954.964-7.57ZM89.536,28.149c6.938-7.654,10.533-13.541,11.37-19.076A34.947,34.947,0,0,1,110.337,27.8a23.413,23.413,0,0,1-5.289,17.016q-7.743-.47-15.315-.941a10.9,10.9,0,0,1-.2-15.731Zm-.2,33.821.758.1a74.452,74.452,0,0,0,10.173.865c1.082,0,2.221-.086,3.363-.175-.238,3.363-.627,6.875-1.121,10.5-.645-.034-1.278-.1-1.926-.1A35,35,0,0,0,89,75.161a126.121,126.121,0,0,1,.329-13.191ZM69.126,92.528,56.715,39.738a2.613,2.613,0,0,0-5.088,1.192L63.28,90.536a29.6,29.6,0,0,0-5.7-1.419L46.115,40.174a12.384,12.384,0,0,0,5.116,1.113c.165,0,.34-.024.507-.031,2.047,8.812,7.167,7.613,5.085-1.2a12.376,12.376,0,0,0,4.565-3.475l11.66,49.855A35.055,35.055,0,0,0,69.126,92.528ZM53.16,35.824a8.675,8.675,0,0,1-8.725-3.494l.332-9.2a15.38,15.38,0,0,0,2.757.261,11.644,11.644,0,0,0,2.655-.3,13.311,13.311,0,0,0,4.845-2.409l4.4,8.121a8.668,8.668,0,0,1-6.264,7.024ZM46,5.3a.815.815,0,0,1,.9.4l5.6,10.361a8.916,8.916,0,0,1-3.528,1.96,8.885,8.885,0,0,1-4.027-.191l.426-11.775A.81.81,0,0,1,46,5.3ZM27.091,57.489l2,4.824-9.668,4a2.613,2.613,0,0,0,1.006,5.022,2.65,2.65,0,0,0,1-.2l9.668-4.006,2,4.829-4.837,2a2.613,2.613,0,0,0,1,5.028,2.655,2.655,0,0,0,1-.2l4.837-2,2,4.829-9.676,4.011a2.613,2.613,0,0,0,1,5.028,2.644,2.644,0,0,0,1-.2l9.668-4,2.114,5.1a30.335,30.335,0,0,0-16.92,20.594L5.343,66.488Zm108.77,94.071H20.885a15.679,15.679,0,0,1,0-31.357,15.394,15.394,0,0,1,4.471.648,2.613,2.613,0,0,0,3.368-2.454,24.824,24.824,0,0,1,39.719-19.36,2.613,2.613,0,0,0,4.006-1.176,30.057,30.057,0,0,1,56.866,19.4,2.613,2.613,0,0,0,3.057,3.324,16.321,16.321,0,0,1,3.488-.382,15.679,15.679,0,0,1,0,31.357Z" transform="translate(-0.012 0)" fill="#00a3d2"/>
    </g>
  </g>
</svg>
