<svg xmlns="http://www.w3.org/2000/svg" width="512.005" height="483.344" viewBox="0 0 512.005 483.344">
  <g id="Group_2262" data-name="Group 2262" transform="translate(1434.83 -1913)">
    <g id="right-arrow" transform="translate(-922.825 1795.67) rotate(90)">
      <g id="Group_2261" data-name="Group 2261">
        <path id="Path_1175" data-name="Path 1175" d="M388.418,240.923,153.751,6.256a21.33,21.33,0,0,0-30.165,30.165L343.17,256.005,123.586,475.589a21.33,21.33,0,1,0,30.166,30.165L388.419,271.087A21.309,21.309,0,0,0,388.418,240.923Z" fill="#3c2415"/>
      </g>
    </g>
    <g id="right-arrow-2" data-name="right-arrow" transform="translate(-922.825 2001.67) rotate(90)">
      <g id="Group_2261-2" data-name="Group 2261">
        <path id="Path_1175-2" data-name="Path 1175" d="M388.418,240.923,153.751,6.256a21.33,21.33,0,0,0-30.165,30.165L343.17,256.005,123.586,475.589a21.33,21.33,0,1,0,30.166,30.165L388.419,271.087A21.309,21.309,0,0,0,388.418,240.923Z" fill="#3c2415"/>
      </g>
    </g>
  </g>
</svg>
