<svg id="Group_1729" data-name="Group 1729" xmlns="http://www.w3.org/2000/svg" viewBox="0 0 66.293 49.116">
  <defs>
    <style>
      .cls-1 {
        fill: #00a3d2;
      }
    </style>
  </defs>
  <path id="Path_707" data-name="Path 707" class="cls-1" d="M114.231,10.418,103.144.321a1.181,1.181,0,0,0-.8-.321,1.114,1.114,0,0,0-.83.348L94.761,6.829h0L67.927,32.887h0l-.027.027h0l-.027.027-.08.08a288104642023.916,288104642023.916,0,0,1-.054.054h0c-.027.054-.08.107-.107.161h0a.026.026,0,0,1-.027.027h0c-.027.054-.027.08-.054.134h0v.027a1.16,1.16,0,0,1-.027.134v.027h0L65.972,47.4a1.221,1.221,0,0,0,.375,1.018,1.152,1.152,0,0,0,.83.321.522.522,0,0,0,.214-.027L81.21,46.143c.027,0,.054,0,.054-.027.027,0,.027,0,.054-.027a1.305,1.305,0,0,0,.187-.08h0c.027,0,.054-.027.08-.054h0c.027,0,.027-.027.054-.027h0a.026.026,0,0,0,.027-.027c.054-.054.134-.08.187-.161h0l25.763-26.754h0l6.642-6.936a1.169,1.169,0,0,0,.321-.884A.924.924,0,0,0,114.231,10.418ZM95.592,9.373l3.428,3.214L74.836,37.707,70.5,33.744ZM68.57,46.117l1.125-9.855L78.425,44.3Zm12.4-2.785L76.6,39.341,100.76,14.247l4.312,4.044Zm25.763-26.781-5.169-4.874h0l-.027-.027L97.306,7.686l5.035-4.847,9.347,8.516Z" transform="translate(-48.297)"/>
  <path id="Path_708" data-name="Path 708" class="cls-1" d="M13.953,174.4H1.205a1.205,1.205,0,0,0,0,2.41H13.953a1.205,1.205,0,0,0,0-2.41Z" transform="translate(0 -127.694)"/>
</svg>
