<svg id="servers" xmlns="http://www.w3.org/2000/svg" width="512" height="512" viewBox="0 0 512 512">
  <g id="Group_2252" data-name="Group 2252">
    <g id="Group_2251" data-name="Group 2251">
      <path id="Path_1168" data-name="Path 1168" d="M394.667,277.333A117.333,117.333,0,1,0,512,394.667,117.485,117.485,0,0,0,394.667,277.333Zm0,213.334a96,96,0,1,1,96-96A96.117,96.117,0,0,1,394.667,490.667Z" fill="#cf1f26"/>
      <path id="Path_1169" data-name="Path 1169" d="M444.864,344.469a10.674,10.674,0,0,0-15.083,0l-35.115,35.115-35.115-35.115a10.665,10.665,0,0,0-15.083,15.083l35.115,35.115-35.115,35.115a10.674,10.674,0,0,0,0,15.083,10.636,10.636,0,0,0,15.062.021l35.115-35.115,35.115,35.115A10.8,10.8,0,0,0,437.333,448a10.656,10.656,0,0,0,7.531-18.2l-35.115-35.136,35.115-35.115A10.675,10.675,0,0,0,444.864,344.469Z" fill="#cf1f26"/>
      <path id="Path_1170" data-name="Path 1170" d="M283.349,485.184a443.207,443.207,0,0,1-70.016,5.483c-113.152,0-192-39.36-192-74.667V351.616c34.2,32.043,106.347,53.717,192,53.717,11.179,0,22.059-.448,32.789-1.2a10.67,10.67,0,0,0-1.451-21.291c-10.24.7-20.651,1.152-31.339,1.152-113.152,0-192-39.36-192-74.667V244.948c34.2,32.043,106.347,53.717,192,53.717a456.126,456.126,0,0,0,88.043-8.341,10.665,10.665,0,1,0-4.118-20.928,434.241,434.241,0,0,1-83.925,7.936c-113.152,0-192-39.36-192-74.667V138.281C55.531,170.325,127.68,192,213.333,192s157.8-21.675,192-53.717v64.384c0,14.485-12.715,26.667-23.381,34.347a10.667,10.667,0,0,0,6.229,19.328,10.538,10.538,0,0,0,6.229-2.027,106.459,106.459,0,0,0,10.923-9.28v2.005a10.667,10.667,0,1,0,21.334,0V96c0-53.824-93.717-96-213.333-96S0,42.176,0,96V416c0,53.824,93.717,96,213.333,96a468.075,468.075,0,0,0,73.387-5.739,10.672,10.672,0,0,0-3.371-21.077ZM213.333,21.333c113.152,0,192,39.36,192,74.667s-78.848,74.667-192,74.667-192-39.36-192-74.667S100.181,21.333,213.333,21.333Z" fill="#a97c50"/>
    </g>
  </g>
</svg>
