<svg xmlns="http://www.w3.org/2000/svg" width="471.2" height="436.7" viewBox="0 0 471.2 436.7">
  <g id="download" transform="translate(0 -17.25)">
    <g id="Group_2171" data-name="Group 2171">
      <path id="Path_1126" data-name="Path 1126" d="M457.7,230.15a13.444,13.444,0,0,0-13.5,13.5v122.8a60.581,60.581,0,0,1-60.5,60.5H87.5A60.581,60.581,0,0,1,27,366.45V241.65a13.5,13.5,0,0,0-27,0v124.8a87.6,87.6,0,0,0,87.5,87.5H383.7a87.6,87.6,0,0,0,87.5-87.5V243.65A13.507,13.507,0,0,0,457.7,230.15Z" fill="#00a3d2"/>
      <path id="Path_1127" data-name="Path 1127" d="M226.1,21.25a13.588,13.588,0,0,1,9.5-4,13.173,13.173,0,0,1,9.5,4l85.8,85.8a13.506,13.506,0,1,1-19.1,19.1l-62.7-62.8v273.9a13.5,13.5,0,0,1-27,0V63.35l-62.8,62.8a13.506,13.506,0,1,1-19.1-19.1Z" fill="#00a3d2"/>
    </g>
  </g>
</svg>
