<svg xmlns="http://www.w3.org/2000/svg" width="246.527" height="135.8" viewBox="0 0 246.527 135.8">
  <g id="Group_1766" data-name="Group 1766" transform="translate(1.863)">
    <path id="Path_809" data-name="Path 809" d="M69.9,121.1a65.646,65.646,0,0,1,0-81.3" fill="none" stroke="#63b190" stroke-linecap="round" stroke-linejoin="round" stroke-miterlimit="10" stroke-width="9"/>
    <path id="Path_810" data-name="Path 810" d="M172.9,39.8a65.791,65.791,0,0,1,0,81.4" fill="none" stroke="#63b190" stroke-linecap="round" stroke-linejoin="round" stroke-miterlimit="10" stroke-width="9"/>
    <path id="Path_806" data-name="Path 806" d="M238.3,80.5S186,131.3,121.4,131.3,4.5,80.5,4.5,80.5" fill="none" stroke="#00a3d2" stroke-linecap="round" stroke-linejoin="round" stroke-miterlimit="10" stroke-width="9"/>
    <path id="Path_807" data-name="Path 807" d="M4.5,80.5S56.8,29.7,121.4,29.7,238.3,80.5,238.3,80.5" fill="none" stroke="#00a3d2" stroke-linecap="round" stroke-linejoin="round" stroke-miterlimit="10" stroke-width="9"/>
    <path id="Path_808" data-name="Path 808" d="M4.5,51S56.8,4.5,121.4,4.5,238.3,51,238.3,51" fill="none" stroke="#ed037c" stroke-linecap="round" stroke-linejoin="round" stroke-miterlimit="10" stroke-width="9"/>
    <circle id="Ellipse_5" data-name="Ellipse 5" cx="17.2" cy="17.2" r="17.2" transform="translate(105.9 63)" fill="#f7941d"/>
    <path id="Path_811" data-name="Path 811" d="M232.8,49.4" fill="#00a3d2" stroke="#00a3d2" stroke-miterlimit="10" stroke-width="1"/>
    <path id="Path_812" data-name="Path 812" d="M232.8,75.9" fill="#00a3d2" stroke="#00a3d2" stroke-miterlimit="10" stroke-width="1"/>
  </g>
</svg>
