<svg xmlns="http://www.w3.org/2000/svg" viewBox="0 0 236.06 180.88"><defs><style>.cls-1{isolation:isolate;}.cls-2,.cls-3{fill:none;stroke-linecap:round;stroke-linejoin:round;stroke-width:9px;}.cls-2{stroke:#a97c50;}.cls-2,.cls-3,.cls-4{mix-blend-mode:multiply;}.cls-3{stroke:#63b190;}</style></defs><title>Asset 1</title><g class="cls-1"><g id="Layer_2" data-name="Layer 2"><g id="Layer_1-2" data-name="Layer 1"><line class="cls-2" x1="24.75" y1="175.99" x2="231.56" y2="175.99"/><line class="cls-3" x1="173.47" y1="90.37" x2="173.47" y2="176.38"/><path class="cls-3" d="M207.34,69.87C202.81,88.09,191,93.32,173.49,90.94,179.05,74.38,189.73,66.35,207.34,69.87Z"/><path class="cls-3" d="M204.11,133.12c-4.09,16.47-14.75,21.2-30.61,19C178.53,137.19,188.19,129.93,204.11,133.12Z"/><path class="cls-3" d="M143.08,133.12c4.09,16.47,14.75,21.2,30.61,19C168.66,137.19,159,129.93,143.08,133.12Z"/><line class="cls-3" x1="73" y1="46.12" x2="73" y2="175.57"/><path class="cls-3" d="M138.6,6.08C129.82,41.4,107,51.53,73,46.92,83.78,14.82,104.48-.74,138.6,6.08Z"/><path class="cls-3" d="M73,110.09c-34.88,10.37-55.21-4.15-68.5-35.77C37.63,67.3,61.55,77.22,73,110.09Z"/><path class="cls-3" d="M73,46.67c-16.21,9.75-28.33,5.08-39.13-9.11C49.63,29.72,63,31.61,73,46.67Z"/><g class="cls-4"><path class="cls-3" d="M173.47,90.75C150.29,97.64,136.78,88,128,67,150,62.31,165.85,68.91,173.47,90.75Z"/></g></g></g></g></svg>