<svg xmlns="http://www.w3.org/2000/svg" width="246.508" height="246.533" viewBox="0 0 246.508 246.533">
  <g id="jigsaw" transform="translate(-8.477 -8.437)">
    <path id="Trazado_1164" data-name="Trazado 1164" d="M295.928,126.1H231.316a15.033,15.033,0,0,0-14.952,14.927l-.049,6.514-.52.005a19.591,19.591,0,1,0-.045,39.183l.286,0-.2,28.972H190.649a19.9,19.9,0,0,0-.233-4.817,19.494,19.494,0,0,0-17.28-16.137,19.251,19.251,0,0,0-14.96,4.956,19.681,19.681,0,0,0-6.427,14.543q0,.726.054,1.454H138.591a15.011,15.011,0,0,0-14.952,15.036v65.728a15.011,15.011,0,0,0,14.952,15.036h77.323l79.4.619h.119a14.815,14.815,0,0,0,10.465-4.3,14.969,14.969,0,0,0,4.484-10.64l.483-75.285h.019V141.136A15.011,15.011,0,0,0,295.929,126.1ZM215.152,305.567H138.6a9.066,9.066,0,0,1-9.013-9.1V230.743a9.066,9.066,0,0,1,9.013-9.1h15.237a4.125,4.125,0,0,0,3.176-1.485,4.191,4.191,0,0,0,.907-3.449,13.73,13.73,0,0,1,4.259-12.608,13.388,13.388,0,0,1,10.4-3.44,13.543,13.543,0,0,1,11.994,11.223,13.853,13.853,0,0,1-.018,4.816,4.2,4.2,0,0,0,.908,3.451,4.141,4.141,0,0,0,3.187,1.491H215.8l-.172,22.418a19.458,19.458,0,0,0-20.943,17.459,19.756,19.756,0,0,0,4.9,15.178,19.477,19.477,0,0,0,14.322,6.483c.473,0,.95-.01,1.425-.042Zm89.288-8.42a9.073,9.073,0,0,1-2.715,6.449,8.916,8.916,0,0,1-6.3,2.589h-.071l-74.267-.578.187-24.443a4.161,4.161,0,0,0-4.9-4.125,13.031,13.031,0,0,1-2.433.2,13.652,13.652,0,1,1,2.629-27.066,4.173,4.173,0,0,0,4.971-4.063l.188-24.444,25.133.2a19.888,19.888,0,0,0,.23,4.844,19.493,19.493,0,0,0,17.28,16.136q.975.094,1.939.094a19.2,19.2,0,0,0,13.021-5.048,19.68,19.68,0,0,0,6.427-14.544c0-.484-.018-.969-.054-1.454h19.212Zm.5-81.186H283.685a4.125,4.125,0,0,0-3.176,1.485,4.193,4.193,0,0,0-.9,3.446,13.731,13.731,0,0,1-4.259,12.609,13.38,13.38,0,0,1-10.4,3.439,13.543,13.543,0,0,1-11.995-11.221,13.863,13.863,0,0,1,.02-4.826,4.2,4.2,0,0,0-.9-3.439,4.144,4.144,0,0,0-3.167-1.5l-27.134-.218.218-31.9c0-.053,0-.105-.007-.158a.966.966,0,0,0-.006-.132c0-.054-.014-.107-.022-.161s-.011-.091-.019-.135-.025-.1-.037-.154-.02-.089-.033-.131-.034-.1-.049-.148a1.342,1.342,0,0,0-.046-.127c-.017-.042-.042-.092-.063-.137s-.038-.084-.059-.124-.049-.085-.075-.127-.046-.081-.071-.119-.056-.078-.085-.116-.055-.078-.084-.115-.061-.069-.092-.1-.064-.074-.1-.109-.066-.061-.1-.092-.072-.07-.111-.1-.069-.053-.1-.079-.081-.064-.124-.094-.073-.046-.11-.069-.088-.057-.133-.083-.079-.039-.119-.059-.092-.049-.14-.069l-.126-.05c-.042-.017-.1-.038-.146-.054s-.089-.025-.134-.037-.1-.029-.148-.04-.094-.016-.141-.024-.1-.019-.153-.025-.1-.006-.149-.009-.095-.009-.143-.009l-3.276-.049a13.653,13.653,0,1,1,.032-27.307l3.468-.036c.042,0,.082-.005.123-.007s.11,0,.165-.01.091-.014.137-.021.1-.015.156-.025.094-.024.141-.036.1-.023.142-.038.094-.034.142-.049a1.224,1.224,0,0,0,.129-.049c.042-.019.094-.044.141-.067s.079-.038.117-.058.091-.054.136-.082.073-.043.107-.067.086-.063.128-.1.068-.05.1-.076.078-.069.116-.1.064-.057.094-.087.069-.075.1-.112.06-.065.088-.1.06-.079.09-.119.055-.072.081-.11.049-.083.077-.125.05-.079.071-.119.043-.088.064-.132.042-.084.06-.128.035-.092.049-.139.033-.088.05-.133.026-.1.039-.148.024-.09.033-.137.017-.1.025-.152.015-.094.02-.142.006-.1.008-.156.007-.08.007-.12l.069-9.434a9.078,9.078,0,0,1,9.013-9.031h64.616a9.066,9.066,0,0,1,9.014,9.1Z" transform="translate(-57.396 -58.654)" fill="#00a3d2" stroke="#00a3d2" stroke-width="3"/>
    <path id="Trazado_1169" data-name="Trazado 1169" d="M82.661,133.147a14.956,14.956,0,0,0,12.749-7.107l7.123-11.568a4.172,4.172,0,0,0-1.762-5.963,13.705,13.705,0,1,1,11.522-24.872,13.884,13.884,0,0,1,2.693,1.677,4.17,4.17,0,0,0,6.155-1.062l8.667-14.074a15.085,15.085,0,0,0-4.924-20.75L111.148,41a19.656,19.656,0,0,0-4.1-27.049,19.223,19.223,0,0,0-15.388-3.606A19.517,19.517,0,0,0,78.68,19.4q-.37.61-.693,1.249L66.718,13.729a14.9,14.9,0,0,0-20.562,5.018L12.187,74.869A15.105,15.105,0,0,0,17.17,95.521l9.738,5.977a3.959,3.959,0,0,0,5.633-1.655,12.05,12.05,0,1,1,20.442,12.532,3.959,3.959,0,0,0,1.069,5.781l20.855,12.8a14.774,14.774,0,0,0,7.753,2.193ZM61.345,103.912A17.991,17.991,0,0,0,28.257,95.36l-7.98-4.9a9.152,9.152,0,0,1-3.009-12.515L51.234,21.821A8.966,8.966,0,0,1,63.609,18.79l13.015,7.985a4.121,4.121,0,0,0,3.5.391,4.175,4.175,0,0,0,2.559-2.474,13.591,13.591,0,0,1,10.106-8.518,13.352,13.352,0,0,1,10.689,2.513A13.718,13.718,0,0,1,105.4,38.7a4.132,4.132,0,0,0-1,3.36,4.178,4.178,0,0,0,1.952,2.957l15.432,9.471a9.145,9.145,0,0,1,2.973,12.575l-7.671,12.455a19.961,19.961,0,0,0-2.243-1.247,19.516,19.516,0,0,0-23.754,5.766,19.736,19.736,0,0,0,5.274,28.826l.134.082-6.142,9.975a8.993,8.993,0,0,1-12.338,2.969l-19.1-11.721a18.032,18.032,0,0,0,2.429-10.258Z" transform="translate(0 0)" fill="#00a3d2" stroke="#00a3d2" stroke-width="3"/>
  </g>
</svg>
