<?xml version="1.0" encoding="iso-8859-1"?>
<!-- Generator: Adobe Illustrator 19.1.0, SVG Export Plug-In . SVG Version: 6.00 Build 0)  -->
<svg version="1.1" id="Capa_1" xmlns="http://www.w3.org/2000/svg" xmlns:xlink="http://www.w3.org/1999/xlink" x="0px" y="0px"
	 viewBox="0 0 146.446 146.446" style="enable-background:new 0 0 146.446 146.446;" xml:space="preserve">
<g>
	<path d="M73.201,130.946c-1.416,0-2.389-0.655-2.57-0.787l-9.719-7.461c-0.03-0.023-0.06-0.048-0.088-0.073
		c-4.16-3.729-3.757-7.465-3.463-10.192c0.089-0.827,0.166-1.541,0.1-2.103c-0.305-2.597-4.087-12.261-7.271-17.196
		c-3.409-5.284-5.425-11.935-5.509-12.215c-3.486-11.83-2.048-20.136-0.942-23.916c-2.714,0.105-7.478,0.111-12.619-0.725
		c-10.565-1.717-17.549-6.221-20.197-13.023c-0.22-0.565-0.078-1.208,0.36-1.627c0.079-0.076,1.983-1.877,5.146-2.887
		c2.913-0.929,7.504-1.361,12.826,1.862c0.031,0.019,0.061,0.038,0.09,0.059c0.174,0.124,4.307,3.061,7.236,6.167
		c0.895,0.947,1.664,1.989,2.409,2.998c1.592,2.157,2.967,4.019,4.879,4.04c0.184,0.002,0.36,0.037,0.522,0.099
		c0.848-0.043,1.344-0.088,1.379-0.092c0.535-0.055,1.065,0.189,1.375,0.633c0.31,0.444,0.357,1.021,0.123,1.509
		c-0.04,0.084-4.134,9.042,0.288,24.048c0.017,0.057,1.98,6.525,5.154,11.444c3.282,5.086,7.344,15.193,7.729,18.472
		c0.105,0.898,0.007,1.81-0.097,2.774c-0.26,2.415-0.53,4.911,2.442,7.6l9.637,7.398c-0.001,0-0.001-0.001-0.001-0.001
		c0.008,0,0.342,0.194,0.779,0.194c0.829,0,1.5,0.671,1.5,1.5S74.03,130.946,73.201,130.946z M14.158,43.168
		c4.143,8.525,16.307,10.486,24.282,10.817c-0.657-0.744-1.263-1.565-1.862-2.377c-0.691-0.937-1.406-1.905-2.177-2.721
		c-2.571-2.728-6.307-5.434-6.745-5.748C21.138,39.22,16.049,41.851,14.158,43.168z"/>
	<path d="M12.252,42.424"/>
	<path d="M73.451,54.821c-0.816,0-1.485-0.655-1.5-1.475l-0.287-16.938c-0.362,0.009-0.792,0.021-1.288,0.037
		c-2.153,0.079-3.342-1.075-3.776-1.852c-0.358-0.533-2.108-3.149-2.662-4.195c-0.055-0.104-0.137-0.167-0.244-0.192
		c-1.858,0.412-6.302,1.434-7.613,1.902c-0.846,0.302-1.301,0.81-1.465,1.028l-1.053,5.031c-0.287,2.733-3.699,3.432-4.092,3.503
		c-2.703,0.602-5.482-1.005-5.791-1.189c-0.057-0.034-0.111-0.072-0.163-0.113c-6.868-5.472-16.307-5.297-16.403-5.299
		c-11.146-0.2-13.324,7.408-13.411,7.733c-0.214,0.797-1.032,1.277-1.83,1.067c-0.798-0.209-1.279-1.019-1.075-1.818
		c0.028-0.108,0.706-2.685,3.093-5.185c2.164-2.266,6.203-4.953,13.214-4.796c0.368-0.01,10.49-0.19,18.19,5.88
		c0.625,0.349,2.285,1.07,3.58,0.78c0.819-0.157,1.685-0.619,1.704-0.893c0.005-0.067,0.014-0.134,0.028-0.2l1.125-5.375
		c0.026-0.126,0.069-0.249,0.126-0.364c0.092-0.183,0.96-1.812,3.212-2.617c1.818-0.649,7.923-1.996,8.182-2.052
		c0.079-0.018,0.159-0.028,0.24-0.033c0.779-0.042,2.297,0.288,3.096,1.795c0.431,0.813,1.982,3.155,2.543,3.989
		c0.077,0.115,0.068,0.064,0.111,0.194c0.007-0.021,0.222,0.271,0.942,0.271c0.03,0,0.06,0,0.091-0.001
		c1.892-0.062,2.846-0.063,2.862-0.063l0,0c0.818,0,1.486,0.656,1.5,1.475l0.312,18.437c0.014,0.828-0.646,1.511-1.475,1.525
		C73.468,54.821,73.46,54.821,73.451,54.821z"/>
	<path d="M72.995,122.324c-1.473,0-8.486-0.324-14.354-6.192c-0.586-0.586-0.586-1.536,0-2.121c0.586-0.586,1.535-0.586,2.121,0
		c3.997,3.997,8.643,4.993,10.939,5.236v-2.676c0-0.829,0.671-1.5,1.5-1.5s1.5,0.671,1.5,1.5v4.25c0,0.804-0.634,1.465-1.437,1.499
		C73.234,122.321,73.142,122.324,72.995,122.324z"/>
	<path d="M69.575,114.384c-0.226,0-0.455-0.051-0.67-0.159c-3.51-1.756-5.085-4.637-5.151-4.759
		c-0.392-0.73-0.117-1.639,0.613-2.031c0.728-0.391,1.634-0.119,2.027,0.606c0.03,0.054,1.247,2.196,3.853,3.5
		c0.741,0.371,1.041,1.272,0.671,2.013C70.655,114.08,70.125,114.384,69.575,114.384z"/>
	<path d="M73.201,146.446c-1.102,0-1.475-0.995-1.654-1.473l-8.731-21.078c-0.317-0.766,0.046-1.643,0.812-1.96
		c0.766-0.316,1.642,0.046,1.96,0.812l8.75,21.125c0.016,0.04,0.043,0.115,0.073,0.186c0.183,0.249,0.291,0.556,0.291,0.888
		C74.701,145.774,74.03,146.446,73.201,146.446z"/>
	<g>
		<path d="M48.296,72.565c-0.998,0-2.022-0.279-2.945-0.863c0,0,0,0-0.001-0.001c-2.458-1.559-3.272-4.697-1.814-6.997
			c0.721-1.137,1.873-1.896,3.244-2.136c1.319-0.229,2.689,0.049,3.857,0.79c1.229,0.778,2.112,2.012,2.42,3.384
			c0.284,1.267,0.069,2.549-0.605,3.612C51.542,71.79,49.957,72.565,48.296,72.565z M46.956,69.167
			c1.061,0.672,2.39,0.483,2.962-0.419c0.245-0.386,0.32-0.865,0.212-1.349c-0.135-0.601-0.535-1.15-1.098-1.506
			c-0.537-0.341-1.15-0.471-1.733-0.369c-0.529,0.093-0.966,0.373-1.229,0.788C45.498,67.213,45.895,68.494,46.956,69.167
			L46.956,69.167z"/>
		<path d="M53.022,74.414c-0.039,0-0.077-0.001-0.116-0.004c-0.826-0.063-1.444-0.784-1.381-1.61
			c0.234-3.054-0.365-5.261-1.78-6.561c-2.077-1.906-5.398-1.394-5.43-1.387c-0.814,0.131-1.588-0.417-1.724-1.233
			c-0.136-0.814,0.409-1.585,1.223-1.725c0.194-0.034,4.764-0.776,7.937,2.115c2.144,1.953,3.074,4.987,2.765,9.021
			C54.456,73.816,53.798,74.414,53.022,74.414z"/>
	</g>
	<path d="M53.326,32.696c-0.652,0-1.252-0.428-1.441-1.086c-0.053-0.183-5.383-18.442-15.425-27.288
		c-1.474-1.14-1.993-2.271-1.469-3.3c0.763-1.5,2.742-1.071,4.877-0.454c0.572,0.168,13.966,4.328,24.444,26.872
		c0.349,0.751,0.023,1.644-0.728,1.993c-0.751,0.348-1.643,0.023-1.993-0.728C53.664,11.648,44.065,5.743,40.475,4.042
		c9.377,9.871,14.084,26.01,14.293,26.74c0.229,0.796-0.232,1.627-1.028,1.855C53.602,32.677,53.463,32.696,53.326,32.696z"/>
	<path d="M73.244,130.946c-0.829,0-1.5-0.671-1.5-1.5s0.671-1.5,1.5-1.5c0.475,0,0.827-0.229,0.831-0.231l9.584-7.361
		c2.972-2.689,2.703-5.186,2.442-7.6c-0.104-0.965-0.202-1.876-0.097-2.774c0.385-3.278,4.448-13.385,7.729-18.472
		c3.181-4.931,5.137-11.387,5.157-11.452c4.42-14.999,0.325-23.957,0.284-24.046c-0.23-0.488-0.182-1.064,0.129-1.506
		c0.311-0.441,0.835-0.682,1.371-0.632c0.036,0.004,0.534,0.049,1.382,0.092c0.162-0.062,0.336-0.097,0.52-0.099
		c1.912-0.021,3.287-1.883,4.879-4.04c0.745-1.008,1.514-2.051,2.41-2.999c2.927-3.105,7.06-6.042,7.234-6.166
		c0.029-0.021,0.059-0.04,0.09-0.059c5.324-3.224,9.913-2.792,12.826-1.862c3.162,1.01,5.066,2.811,5.146,2.887
		c0.438,0.419,0.58,1.062,0.36,1.627c-2.648,6.803-9.632,11.306-20.197,13.023c-5.14,0.836-9.909,0.83-12.618,0.725
		c1.106,3.78,2.544,12.084-0.94,23.909c-0.086,0.288-2.103,6.939-5.512,12.223c-3.184,4.935-6.965,14.599-7.271,17.196
		c-0.066,0.562,0.011,1.276,0.1,2.103c0.294,2.727,0.697,6.462-3.463,10.192c-0.028,0.025-0.058,0.05-0.088,0.073l-9.688,7.438
		C75.633,130.29,74.66,130.946,73.244,130.946z M118.791,43.139c-0.438,0.314-4.174,3.02-6.744,5.746
		c-0.772,0.817-1.487,1.786-2.179,2.722c-0.598,0.811-1.203,1.63-1.858,2.373c7.978-0.335,20.143-2.301,24.281-10.818
		C130.404,41.83,125.349,39.195,118.791,43.139z"/>
	<path d="M134.193,42.424"/>
	<path d="M134.192,43.924c-0.667,0-1.275-0.448-1.451-1.122c-0.091-0.338-2.278-7.931-13.343-7.732
		c-0.16-0.001-9.627-0.152-16.47,5.299c-0.052,0.041-0.106,0.079-0.163,0.113c-0.309,0.185-3.094,1.791-5.847,1.178
		c-0.337-0.06-3.749-0.759-4.036-3.492l-1.054-5.033c-0.162-0.218-0.608-0.721-1.465-1.027c-1.315-0.47-5.782-1.497-7.63-1.906
		c-0.084,0.023-0.171,0.088-0.228,0.196c-0.554,1.045-2.304,3.662-2.662,4.195c-0.434,0.777-1.633,1.928-3.776,1.852
		c-1.826-0.06-2.747-0.061-2.763-0.061c-0.829,0-1.5-0.672-1.5-1.5s0.671-1.5,1.5-1.5c0,0,0.954,0,2.862,0.063
		c0.8,0.027,1.047-0.305,1.072-0.343c0.029-0.091,0.021-0.067,0.024-0.066c0.004,0,0.014-0.005,0.047-0.054
		c0.562-0.834,2.113-3.176,2.543-3.989c0.799-1.507,2.315-1.838,3.096-1.795c0.081,0.004,0.161,0.015,0.24,0.033
		c0.259,0.057,6.364,1.403,8.182,2.052c2.252,0.805,3.121,2.434,3.212,2.617c0.058,0.115,0.1,0.237,0.126,0.364l1.125,5.375
		c0.014,0.066,0.023,0.133,0.028,0.2c0.021,0.298,0.961,0.756,1.647,0.881c1.353,0.298,3.038-0.431,3.634-0.767
		c7.702-6.074,17.829-5.894,18.26-5.882c6.946-0.13,10.983,2.531,13.147,4.796c2.387,2.5,3.065,5.077,3.093,5.185
		c0.205,0.803-0.28,1.62-1.083,1.825C134.44,43.909,134.315,43.924,134.192,43.924z"/>
	<path d="M73.45,122.324c-0.147,0-0.239-0.003-0.269-0.004c-0.803-0.034-1.437-0.695-1.437-1.499v-4.25c0-0.829,0.671-1.5,1.5-1.5
		s1.5,0.671,1.5,1.5v2.669c2.304-0.252,6.969-1.259,10.939-5.23c0.586-0.586,1.535-0.586,2.121,0c0.586,0.585,0.586,1.535,0,2.121
		C81.937,121.999,74.924,122.324,73.45,122.324z"/>
	<path d="M76.87,114.384c-0.55,0-1.08-0.304-1.343-0.83c-0.37-0.741-0.07-1.642,0.671-2.013c2.626-1.313,3.841-3.479,3.853-3.5
		c0.398-0.722,1.308-0.993,2.032-0.598c0.725,0.394,0.998,1.296,0.607,2.023c-0.065,0.122-1.641,3.003-5.151,4.759
		C77.325,114.333,77.096,114.384,76.87,114.384z"/>
	<path d="M73.244,146.446c-0.829,0-1.5-0.671-1.5-1.5c0-0.333,0.108-0.64,0.291-0.888c0.03-0.071,0.055-0.139,0.055-0.139
		l8.769-21.172c0.317-0.766,1.193-1.127,1.96-0.812c0.765,0.317,1.128,1.194,0.812,1.96l-8.75,21.125
		C74.719,145.451,74.346,146.446,73.244,146.446z"/>
	<g>
		<path d="M98.15,72.565c-1.661,0-3.246-0.775-4.156-2.212c-0.674-1.062-0.889-2.344-0.605-3.611
			c0.308-1.373,1.19-2.606,2.422-3.385c1.166-0.74,2.536-1.018,3.855-0.789c1.371,0.241,2.523,1,3.244,2.136
			c1.458,2.299,0.644,5.438-1.814,6.997c0,0,0,0-0.001,0.001C100.172,72.285,99.147,72.565,98.15,72.565z M98.757,65.49
			c-0.46,0-0.924,0.138-1.341,0.402c-0.565,0.357-0.965,0.906-1.1,1.507c-0.108,0.484-0.033,0.963,0.211,1.348
			c0.572,0.902,1.901,1.092,2.962,0.42c1.061-0.673,1.458-1.954,0.886-2.856c-0.263-0.415-0.699-0.695-1.229-0.788
			C99.018,65.5,98.888,65.49,98.757,65.49z"/>
		<path d="M93.423,74.414c-0.776,0-1.434-0.598-1.494-1.385c-0.309-4.033,0.621-7.068,2.765-9.021
			c3.172-2.891,7.743-2.149,7.937-2.114c0.816,0.14,1.365,0.915,1.225,1.732c-0.14,0.814-0.912,1.363-1.727,1.226
			c-0.071-0.012-3.363-0.511-5.429,1.387c-1.415,1.3-2.014,3.507-1.78,6.561c0.063,0.826-0.555,1.547-1.381,1.61
			C93.501,74.412,93.462,74.414,93.423,74.414z"/>
	</g>
	<path d="M93.12,32.696c-0.137,0-0.276-0.019-0.415-0.059c-0.796-0.228-1.257-1.059-1.028-1.855
		c0.209-0.73,4.927-16.905,14.266-26.724c-1.336,0.636-3.487,1.844-6.047,3.958C95.88,11.33,90.01,17.61,84.855,28.703
		c-0.35,0.751-1.243,1.078-1.993,0.728c-0.751-0.349-1.077-1.241-0.728-1.993c10.478-22.543,23.873-26.704,24.438-26.87
		c2.141-0.62,4.12-1.047,4.884,0.452c0.523,1.03,0.005,2.16-1.542,3.36c-9.982,8.798-15.3,27.045-15.353,27.229
		C94.373,32.267,93.772,32.696,93.12,32.696z"/>
</g>
<g>
</g>
<g>
</g>
<g>
</g>
<g>
</g>
<g>
</g>
<g>
</g>
<g>
</g>
<g>
</g>
<g>
</g>
<g>
</g>
<g>
</g>
<g>
</g>
<g>
</g>
<g>
</g>
<g>
</g>
</svg>
