<svg xmlns="http://www.w3.org/2000/svg" viewBox="0 0 239.1 242.5">
  <defs>
    <style>
      .cls-1 {
        fill: #a97c50;
      }
    </style>
  </defs>
  <path id="Path_763" data-name="Path 763" class="cls-1" d="M230.4,116.5a29.547,29.547,0,0,0-21-8.7h0a29.373,29.373,0,0,0-21,8.7,31.826,31.826,0,0,0-5.7,7.9l-15-2.9c0-.7.1-1.3.1-2A47.013,47.013,0,0,0,154,86.2a47.781,47.781,0,0,0-15-10.1l5.9-18a29.087,29.087,0,0,0,8.9,1.4h0a29.7,29.7,0,0,0,29.7-29.7A29.7,29.7,0,0,0,153.8.1h0a29.7,29.7,0,0,0-29.7,29.7,29.373,29.373,0,0,0,8.7,21,26.025,26.025,0,0,0,4,3.3l-6.4,19.4a44.349,44.349,0,0,0-9.7-1A47.307,47.307,0,0,0,91.3,82.8L54,46.9a30.1,30.1,0,0,0,5.5-17.2,29.373,29.373,0,0,0-8.7-21A29.782,29.782,0,0,0,29.7,0h0A29.7,29.7,0,0,0,0,29.7,29.7,29.7,0,0,0,29.7,59.4h0a29.6,29.6,0,0,0,18-6.1L84.8,89a47.1,47.1,0,0,0-3.1,56.9L52.6,168.6c-.6-.7-1.2-1.3-1.8-2a29.547,29.547,0,0,0-21-8.7h0a29.7,29.7,0,0,0,0,59.4h0a29.7,29.7,0,0,0,29.7-29.7,30.327,30.327,0,0,0-2.2-11.3l30.2-23.6a46.867,46.867,0,0,0,33.2,13.7,45.462,45.462,0,0,0,14.8-2.4l12.6,26.1c-.6.5-1.2,1.1-1.8,1.7a29.7,29.7,0,0,0,21,50.7h0a29.7,29.7,0,0,0,0-59.4h0a29.149,29.149,0,0,0-11.5,2.3l-12.1-25a45.845,45.845,0,0,0,10.3-7.8,47.487,47.487,0,0,0,12.5-22.3l13.5,2.6a32.53,32.53,0,0,0-.3,4.4A29.7,29.7,0,0,0,209.4,167h0a29.557,29.557,0,0,0,21-50.5ZM133,29.7a20.789,20.789,0,1,1,20.8,20.8,20.985,20.985,0,0,1-9.4-2.2c-.1-.1-.3-.1-.4-.2a24.742,24.742,0,0,1-4.9-3.6A20.949,20.949,0,0,1,133,29.7ZM29.7,50.5A20.718,20.718,0,1,1,50.5,29.8a21.079,21.079,0,0,1-5.7,14.3l-.2.2-.1.1-.1.1A20.871,20.871,0,0,1,29.7,50.5ZM44.4,202.4a20.762,20.762,0,0,1-29.4,0A20.789,20.789,0,1,1,44.4,173a21.491,21.491,0,0,1,3.2,4.1c.1.1.1.3.2.4a20.706,20.706,0,0,1-3.4,24.9Zm122.9-10.2a20.827,20.827,0,1,1-14.7,6.1,21.585,21.585,0,0,1,3.3-2.7.758.758,0,0,1,.4-.2A20.8,20.8,0,0,1,167.3,192.2Zm-19.7-45.8a37.224,37.224,0,0,1-11.9,8h0a37.746,37.746,0,0,1-15.1,3.1,38.279,38.279,0,0,1-26.9-11.1,37.858,37.858,0,0,1-11.1-26.9A38.279,38.279,0,0,1,93.7,92.6a37.858,37.858,0,0,1,26.9-11.1,38.279,38.279,0,0,1,26.9,11.1,37.858,37.858,0,0,1,11.1,26.9A37.194,37.194,0,0,1,147.6,146.4Zm76.4,5.8a20.8,20.8,0,0,1-35.5-14.7,18.9,18.9,0,0,1,1-6.3c0-.2.1-.3.1-.4a20.255,20.255,0,0,1,4.9-7.9A20.8,20.8,0,0,1,230,137.6,19.83,19.83,0,0,1,224,152.2Z"/>
</svg>
