<svg xmlns="http://www.w3.org/2000/svg" viewBox="0 0 512 459.175">
  <defs>
    <style>
      .cls-1 {
        fill: #00a3d2;
      }
    </style>
  </defs>
  <g id="goat" transform="translate(0 -26.412)">
    <g id="Group_2126" data-name="Group 2126">
      <g id="Group_2125" data-name="Group 2125">
        <path id="Path_1033" data-name="Path 1033" class="cls-1" d="M511.1,162.79c3.681-17.831-3.886-37.437-22.49-58.273a7.5,7.5,0,0,0-11.419,9.719c.053.067,5.292,6.731,4.171,14.154-.727,4.811-4.1,9.289-10.012,13.313-7.365,5.008-10.5,12.129-11.66,18.734a107.8,107.8,0,0,0-25.152-11.968c-24.411-8.137-65.615-9.207-109.238-10.341-53.419-1.388-113.965-2.961-139.549-18.951-7.086-4.429-15.833-17.33-23.551-28.712-5.266-7.768-10.323-15.218-15.423-21.229C167.917,56.161,197.736,44,198.111,43.848a7.5,7.5,0,0,0-1.132-14.258C146.651,17.973,108.8,41.321,97.332,49.642a106.84,106.84,0,0,0-21.911-8.836,7.5,7.5,0,0,0-9.277,8.072A155.761,155.761,0,0,0,69.317,67.1C36.8,97.1,2.913,143.147,1.451,145.14a7.5,7.5,0,0,0-1.066,6.807L7.4,172.99a23.62,23.62,0,0,0,22.243,16.091q.363,0,.728-.012l.1,0A197.392,197.392,0,0,1,43.839,218.2,7.5,7.5,0,0,0,54.98,221.97c1.011-.656,24.086-15.849,36.582-43.737q3.084-1.2,6.05-2.571c4.338,7.222,8.071,18.045,12.336,30.429,11.929,34.634,28.153,81.741,76.83,100.706l14.872,61.345v68.326L184.907,475.1a7.5,7.5,0,0,0,6.882,10.483h40.062a7.5,7.5,0,0,0,7.488-7.07l9.38-163.558c3.945.314,7.929.582,11.934.747.106.005.211.007.316.007a7.5,7.5,0,0,0,.3-14.993c-3.927-.163-7.833-.426-11.7-.738l.445-7.756a7.5,7.5,0,0,0-14.976-.859l-8.77,152.919-10.2-3.4a7.492,7.492,0,0,0,.573-2.861V367.246a7.512,7.512,0,0,0-.211-1.767l-16.025-66.1a7.5,7.5,0,0,0-4.833-5.32c-44.819-15.531-59.585-58.4-71.449-92.849-4.49-13.037-8.434-24.464-13.524-33.034a53.788,53.788,0,0,0,13.278-13.4,7.5,7.5,0,0,0-12.424-8.4c-5.22,7.716-23.616,25.859-81.566,27.7a8.517,8.517,0,0,1-8.264-5.83l-5.776-17.327c7.7-10.216,33.425-43.626,58.7-68.119a35.77,35.77,0,0,0,2.919,5.13,7.5,7.5,0,0,0,12.3-8.588c-2.865-4.1-5.2-12.254-6.778-19.957a95.616,95.616,0,0,1,28.954,19.129,15.415,15.415,0,0,0,21.083.624c.454-.407.931-.816,1.421-1.226,4.9,5.574,10.184,13.368,15.335,20.967,9.381,13.838,18.243,26.906,28.016,33.016,29.054,18.158,89.069,19.718,147.109,21.226,42.475,1.1,82.594,2.146,104.885,9.576,41.29,13.765,49.957,42.126,49.957,63.5,0,14.455-3.5,27.045-6.887,39.223-4.419,15.892-8.989,32.323-5.337,51.8,3.492,18.627,15.555,34.7,20.814,41.005L475.5,445.231l-13.044-4.348a7.472,7.472,0,0,0,.5-1.831l10.684-77.12a7.5,7.5,0,0,0-3.311-7.3c-66.224-43.518-78.845-84.294-79.032-84.922a7.5,7.5,0,0,0-14.438,4.066,70.227,70.227,0,0,0,4.964,11.828,410.227,410.227,0,0,1-86.814,14.784,7.5,7.5,0,0,0,.428,14.987c.146,0,.294,0,.442-.013a414.123,414.123,0,0,0,93.77-16.435c11.287,17.029,31.865,40.845,68.487,65.6l-9.9,71.447L431.289,475.1a7.5,7.5,0,0,0,6.882,10.483h40.062a7.5,7.5,0,0,0,7.419-6.4l18.029-122.191a7.5,7.5,0,0,0-1.955-6.231c-.158-.168-15.847-17.039-19.46-36.307-3.01-16.051.723-29.474,5.045-45.017,3.656-13.146,7.436-26.74,7.436-43.241A81.166,81.166,0,0,0,488.468,194C495.628,189.316,507.7,179.215,511.1,162.79Zm-301,291.913,15.293,5.1-.618,10.786H203.211Zm-139-270.411a100.329,100.329,0,0,1-16.874,19.24c-2.536-6.039-5.111-11.349-7.269-15.521A206.71,206.71,0,0,0,71.094,184.292ZM123.018,67.968a.513.513,0,0,1-.532-.121,99.535,99.535,0,0,0-11.178-9.493A112.5,112.5,0,0,1,166.682,41.5C151.572,48.806,133.474,58.6,123.018,67.968Zm348.743,402.62H449.6l6.883-15.884,16.8,5.6Zm24.668-310.947c-2.145,10.621-10.172,17.679-15.3,21.213a73.82,73.82,0,0,0-6.572-8.023c-.632-3.559-1.779-13.964,5.222-18.725,6.539-4.446,11.19-9.565,13.907-15.289C496.8,146.286,497.721,153.244,496.429,159.641Z"/>
      </g>
    </g>
    <g id="Group_2128" data-name="Group 2128">
      <g id="Group_2127" data-name="Group 2127">
        <path id="Path_1034" data-name="Path 1034" class="cls-1" d="M77.689,102.763h-.08a7.54,7.54,0,1,0,.08,0Z"/>
      </g>
    </g>
  </g>
</svg>
