<svg xmlns="http://www.w3.org/2000/svg" viewBox="0 0 512 459.171">
  <defs>
    <style>
      .cls-1 {
        fill: #00a3d2;
      }
    </style>
  </defs>
  <g id="Group_2126" data-name="Group 2126" transform="translate(0 -26.412)">
    <g id="Group_2125" data-name="Group 2125" transform="translate(0 26.412)">
      <path id="Path_1033" data-name="Path 1033" class="cls-1" d="M.9,162.79c-3.681-17.831,3.886-37.437,22.49-58.273a7.5,7.5,0,0,1,11.419,9.719c-.053.067-5.292,6.731-4.171,14.154.727,4.811,4.1,9.289,10.012,13.313,7.365,5.008,10.5,12.129,11.66,18.734a107.8,107.8,0,0,1,25.152-11.968c24.411-8.137,65.614-9.207,109.237-10.341,53.419-1.388,113.964-2.961,139.548-18.951,7.086-4.429,15.833-17.33,23.551-28.712,5.266-7.768,10.323-15.218,15.423-21.229C344.084,56.161,314.265,44,313.89,43.848a7.5,7.5,0,0,1,1.132-14.258C365.35,17.973,403.2,41.321,414.668,49.642a106.841,106.841,0,0,1,21.911-8.836,7.5,7.5,0,0,1,9.277,8.072A155.762,155.762,0,0,1,442.683,67.1c32.517,30,66.4,76.047,67.865,78.04a7.5,7.5,0,0,1,1.066,6.807L504.6,172.99a23.62,23.62,0,0,1-22.243,16.091q-.363,0-.728-.012h-.1A197.391,197.391,0,0,0,468.161,218.2a7.5,7.5,0,0,1-11.141,3.77c-1.011-.656-24.086-15.849-36.582-43.737q-3.084-1.2-6.05-2.571c-4.338,7.222-8.071,18.045-12.336,30.429C390.124,240.725,373.9,287.832,325.223,306.8l-14.872,61.345v68.326L327.094,475.1a7.5,7.5,0,0,1-6.882,10.483H280.151a7.5,7.5,0,0,1-7.488-7.07l-9.38-163.558c-3.945.314-7.929.582-11.934.747-.106.005-.211.007-.316.007a7.5,7.5,0,0,1-.3-14.993c3.927-.163,7.833-.426,11.7-.738l-.445-7.756a7.5,7.5,0,1,1,14.976-.859l8.77,152.919,10.2-3.4a7.492,7.492,0,0,1-.573-2.861V367.246a7.51,7.51,0,0,1,.211-1.766l16.025-66.1a7.5,7.5,0,0,1,4.833-5.32c44.819-15.531,59.584-58.4,71.448-92.849,4.49-13.037,8.434-24.464,13.524-33.034a53.787,53.787,0,0,1-13.278-13.4,7.5,7.5,0,1,1,12.425-8.4c5.219,7.717,23.615,25.86,81.564,27.7a8.517,8.517,0,0,0,8.264-5.83l5.776-17.327c-7.7-10.216-33.425-43.626-58.7-68.119a35.772,35.772,0,0,1-2.919,5.13,7.5,7.5,0,1,1-12.3-8.588c2.865-4.1,5.2-12.254,6.778-19.957a95.615,95.615,0,0,0-28.954,19.129,15.415,15.415,0,0,1-21.083.624c-.454-.407-.931-.816-1.421-1.226-4.9,5.574-10.184,13.368-15.335,20.967-9.381,13.838-18.243,26.906-28.016,33.016-29.054,18.158-89.068,19.718-147.108,21.226-42.475,1.1-82.593,2.146-104.884,9.576-41.29,13.765-49.957,42.126-49.957,63.5,0,14.455,3.5,27.045,6.887,39.223,4.419,15.892,8.989,32.323,5.337,51.8-3.492,18.627-15.555,34.7-20.814,41.005L36.5,445.231l13.044-4.348a7.47,7.47,0,0,1-.5-1.831l-10.684-77.12a7.5,7.5,0,0,1,3.311-7.3c66.223-43.518,78.844-84.294,79.031-84.922a7.5,7.5,0,1,1,14.438,4.066A70.23,70.23,0,0,1,130.18,285.6a410.22,410.22,0,0,0,86.813,14.784,7.5,7.5,0,0,1-.428,14.987c-.146,0-.294,0-.442-.013a414.112,414.112,0,0,1-93.769-16.435c-11.287,17.029-31.865,40.845-68.486,65.6l9.9,71.447L80.714,475.1a7.5,7.5,0,0,1-6.882,10.483H33.771a7.5,7.5,0,0,1-7.419-6.4L8.323,356.992a7.5,7.5,0,0,1,1.955-6.231c.158-.168,15.847-17.039,19.46-36.307,3.01-16.051-.723-29.474-5.045-45.017-3.656-13.146-7.436-26.74-7.436-43.241A81.167,81.167,0,0,1,23.536,194C16.376,189.316,4.3,179.215.9,162.79ZM301.9,454.7l-15.293,5.1.618,10.786H308.79Zm139-270.411a100.328,100.328,0,0,0,16.874,19.24c2.536-6.039,5.111-11.349,7.269-15.521a206.707,206.707,0,0,1-24.137-3.719ZM388.983,67.968a.513.513,0,0,0,.532-.121,99.534,99.534,0,0,1,11.178-9.493A112.5,112.5,0,0,0,345.319,41.5C360.429,48.806,378.527,58.6,388.983,67.968ZM40.243,470.588H62.4L55.521,454.7l-16.8,5.6ZM15.575,159.641c2.145,10.621,10.172,17.679,15.3,21.213a73.814,73.814,0,0,1,6.572-8.023c.632-3.559,1.779-13.964-5.222-18.725-6.539-4.446-11.19-9.565-13.907-15.289-3.114,7.469-4.035,14.427-2.743,20.824Z" transform="translate(0 -26.412)"/>
    </g>
  </g>
</svg>
