<svg xmlns="http://www.w3.org/2000/svg" width="573.391" height="526.275" viewBox="0 0 573.391 526.275">
  <g id="heart" transform="translate(4 -17.333)">
    <g id="Grupo_2408" data-name="Grupo 2408" transform="translate(0 21.333)">
      <path id="Trazado_2400" data-name="Trazado 2400" d="M418.154,21.333c-62.714,0-114.511,58.251-135.458,85.743-20.947-27.492-72.744-85.743-135.458-85.743C66.05,21.333,0,95.976,0,187.711,0,237.761,19.866,284.4,54.639,316.325a11.638,11.638,0,0,0,1.852,2.4L274.379,536.169a11.774,11.774,0,0,0,16.645-.011L516.158,311.1l2.323-2.255c1.841-1.737,3.658-3.5,5.694-5.751a11.453,11.453,0,0,0,2.094-2.807c25.249-30.92,39.121-70.8,39.121-112.579C565.391,95.976,499.341,21.333,418.154,21.333Zm88.515,265.706a10.97,10.97,0,0,0-.886,1.2c-1.1,1.266-2.312,2.381-3.508,3.52L282.684,511.184,75.827,304.742a11.823,11.823,0,0,0-2.737-3.508c-31.484-27.492-49.532-68.868-49.532-113.522,0-78.749,55.479-142.82,123.679-142.82,67.431,0,124.979,87.951,125.554,88.837,4.349,6.717,15.46,6.717,19.809,0,.575-.886,58.124-88.837,125.554-88.837,68.2,0,123.679,64.071,123.679,142.82C541.833,224.819,529.34,260.1,506.668,287.039Z" transform="translate(0 -21.333)" fill="#cf1f26" stroke="#cf1f26" stroke-width="8"/>
    </g>
  </g>
</svg>
