<svg xmlns="http://www.w3.org/2000/svg" viewBox="0 0 107.206 91.023">
  <defs>
    <style>
      .cls-1 {
        fill: #63ae8b;
      }

      .cls-2 {
        fill: #63b190;
      }
    </style>
  </defs>
  <g id="Group_1724" data-name="Group 1724" transform="translate(-412 -284.53)">
    <g id="Group_1723" data-name="Group 1723" transform="translate(-3)">
      <g id="Group_1622" data-name="Group 1622" transform="translate(437.224 319.923)">
        <g id="Group_1621" data-name="Group 1621" transform="translate(0 0)">
          <path id="Path_1511" data-name="Path 1511" class="cls-1" d="M129.821,205.327a7.8,7.8,0,0,1-3.081-1.639,1.442,1.442,0,0,1-.54-1.153,1.287,1.287,0,0,1,.288-.865.82.82,0,0,1,.667-.342,1.862,1.862,0,0,1,.955.36,9.321,9.321,0,0,0,5.729,1.856,6.054,6.054,0,0,0,3.459-.847,2.752,2.752,0,0,0,1.207-2.414,2.006,2.006,0,0,0-1.117-1.856,14.8,14.8,0,0,0-3.6-1.189,20.8,20.8,0,0,1-3.891-1.153,5.732,5.732,0,0,1-2.378-1.765,4.449,4.449,0,0,1-.865-2.828,5.178,5.178,0,0,1,.937-3.063,6.274,6.274,0,0,1,2.63-2.09,9.68,9.68,0,0,1,3.855-.739,11.587,11.587,0,0,1,3.693.559,7.639,7.639,0,0,1,2.864,1.657,1.456,1.456,0,0,1,.558,1.153,1.271,1.271,0,0,1-.288.847.823.823,0,0,1-.685.36,1.817,1.817,0,0,1-.919-.36,10.319,10.319,0,0,0-2.432-1.423,7.766,7.766,0,0,0-2.756-.432,5.588,5.588,0,0,0-3.369.883,2.89,2.89,0,0,0-1.207,2.468,2.233,2.233,0,0,0,1.063,2.036,12.011,12.011,0,0,0,3.441,1.261,27.383,27.383,0,0,1,4.017,1.171,6.21,6.21,0,0,1,2.45,1.657,4.011,4.011,0,0,1,.919,2.72,4.923,4.923,0,0,1-.937,2.99,6.059,6.059,0,0,1-2.648,2.018,10.247,10.247,0,0,1-3.927.721A12.69,12.69,0,0,1,129.821,205.327Z" transform="translate(-126.2 -185.6)"/>
          <path id="Path_1512" data-name="Path 1512" class="cls-1" d="M240.94,197.74v7.332a1.273,1.273,0,0,1-.4.973,1.669,1.669,0,0,1-2.072,0,1.289,1.289,0,0,1-.378-.973v-7.3a3.705,3.705,0,0,0-.685-2.468,2.737,2.737,0,0,0-2.162-.793,3.65,3.65,0,0,0-2.756,1.081,3.894,3.894,0,0,0-1.045,2.864v6.612a1.262,1.262,0,0,1-.378.973,1.378,1.378,0,0,1-1.027.36,1.532,1.532,0,0,1-1.045-.36,1.238,1.238,0,0,1-.4-.973V187.633a1.225,1.225,0,0,1,.414-.973,1.5,1.5,0,0,1,1.063-.36,1.467,1.467,0,0,1,.991.342,1.235,1.235,0,0,1,.378.937v7.044a4.664,4.664,0,0,1,1.892-1.8,5.75,5.75,0,0,1,2.7-.631C239.3,192.191,240.94,194.029,240.94,197.74Z" transform="translate(-210.152 -186.174)"/>
          <path id="Path_1513" data-name="Path 1513" class="cls-1" d="M314.837,232.161a1.978,1.978,0,0,1-.721-.649,1.374,1.374,0,0,1-.216-.757,1.16,1.16,0,0,1,.252-.757.755.755,0,0,1,.649-.306,2.9,2.9,0,0,1,1.153.45,10.922,10.922,0,0,0,1.657.739,5.866,5.866,0,0,0,2,.288,4.133,4.133,0,0,0,2.126-.468,1.524,1.524,0,0,0,.757-1.351,1.382,1.382,0,0,0-.288-.9,2.413,2.413,0,0,0-1.045-.613,15.8,15.8,0,0,0-2.162-.576,8.6,8.6,0,0,1-3.567-1.441,3.094,3.094,0,0,1-1.081-2.486,3.621,3.621,0,0,1,.7-2.18A4.593,4.593,0,0,1,317,219.64a6.982,6.982,0,0,1,2.81-.54,8.97,8.97,0,0,1,2.2.288,6.17,6.17,0,0,1,1.874.865,1.723,1.723,0,0,1,.937,1.441,1.113,1.113,0,0,1-.27.757.848.848,0,0,1-.63.306,1.21,1.21,0,0,1-.5-.108c-.162-.072-.4-.2-.685-.36a7.971,7.971,0,0,0-1.423-.7,4.75,4.75,0,0,0-1.639-.252,3.236,3.236,0,0,0-1.91.5,1.631,1.631,0,0,0-.721,1.387,1.393,1.393,0,0,0,.667,1.225,7.906,7.906,0,0,0,2.486.829,12.625,12.625,0,0,1,2.954.9,3.53,3.53,0,0,1,1.531,1.261,3.59,3.59,0,0,1,.468,1.892,3.433,3.433,0,0,1-1.531,2.936,6.8,6.8,0,0,1-4.089,1.117A8.8,8.8,0,0,1,314.837,232.161Z" transform="translate(-280.085 -213.065)"/>
        </g>
      </g>
      <path id="Path_1617" data-name="Path 1617" class="cls-2" d="M45.277,0A45.277,45.277,0,1,0,90.553,45.277C90.9,20.357,70.547,0,45.277,0ZM73.706,73.706a39.831,39.831,0,0,1-56.859,0,39.831,39.831,0,0,1,0-56.859,39.831,39.831,0,0,1,56.859,0A39.766,39.766,0,0,1,85.639,45.277,39.164,39.164,0,0,1,73.706,73.706Z" transform="translate(415 285)"/>
    </g>
    <path id="Union_21" data-name="Union 21" class="cls-2" d="M10.453,96.5V61.538q0-.112.01-.224-.01-.132-.01-.265V20.532h-4.7A.69.69,0,0,1,5,19.778c0-.189.188-.189.188-.377L12.538,8.283a.706.706,0,0,1,1.13,0L21.019,19.4c.188.188.188.188.188.377a.81.81,0,0,1-.753.753H15.493V61.049q0,.12-.008.24.008.122.008.249V96.5a2.52,2.52,0,0,1-5.04,0Z" transform="translate(498 276.531)"/>
  </g>
</svg>
