<svg id="info" xmlns="http://www.w3.org/2000/svg" viewBox="0 0 52 52">
  <defs>
    <style>
      .cls-1 {
        fill: #00a3d2;
      }
    </style>
  </defs>
  <path id="Path_767" data-name="Path 767" class="cls-1" d="M26,0A26,26,0,1,0,52,26,26.029,26.029,0,0,0,26,0Zm0,50A24,24,0,1,1,50,26,24.028,24.028,0,0,1,26,50Z"/>
  <path id="Path_768" data-name="Path 768" class="cls-1" d="M26,37a1,1,0,0,0-1,1v2a1,1,0,0,0,2,0V38A1,1,0,0,0,26,37Z"/>
  <path id="Path_769" data-name="Path 769" class="cls-1" d="M26.113,9H26a8,8,0,0,0-8,8,1,1,0,0,0,2,0,6,6,0,0,1,6.086-6A6.114,6.114,0,0,1,32,16.914a5.973,5.973,0,0,1-2.751,5.132A9.538,9.538,0,0,0,25,30.158V33a1,1,0,0,0,2,0V30.158a7.649,7.649,0,0,1,3.332-6.432A7.961,7.961,0,0,0,34,16.886,8.055,8.055,0,0,0,26.113,9Z"/>
</svg>
