<svg xmlns="http://www.w3.org/2000/svg" width="229.069" height="307.718" viewBox="0 0 229.069 307.718">
  <g id="Group_2172" data-name="Group 2172" transform="translate(-1808 -128)">
    <g id="Group_1735" data-name="Group 1735" transform="translate(2037.167 128.002) rotate(90)">
      <path id="Path_725" data-name="Path 725" d="M266.98,223.646v-5.521H40.857a29.742,29.742,0,0,1-29.814-29.814V40.834A29.742,29.742,0,0,1,40.857,11.02H266.98a29.742,29.742,0,0,1,29.814,29.814V188.311a29.742,29.742,0,0,1-29.814,29.814v11.042a40.634,40.634,0,0,0,40.734-40.734V40.834A40.634,40.634,0,0,0,266.98.1H40.857A40.428,40.428,0,0,0,0,40.712V188.188a40.634,40.634,0,0,0,40.734,40.734H266.857v-5.276Z" transform="translate(0)" fill="#a97c50"/>
    </g>
    <g id="Group_2171" data-name="Group 2171" transform="translate(1851 169.616)">
      <path id="Path_1126" data-name="Path 1126" d="M64.753,168.781a10.885,10.885,0,0,1-2.361-7.42q0-20.91,7.588-35.749T91.734,93.236q11.467-14.5,17.031-24.62a46.1,46.1,0,0,0,5.565-22.6q0-14.5-10.455-22.765t-28.33-8.263a66.106,66.106,0,0,0-27.992,5.9q-12.816,5.9-29,18.043-5.733,4.047-9.443,4.047a7.746,7.746,0,0,1-6.577-3.541A13.846,13.846,0,0,1,0,31.18a15.708,15.708,0,0,1,5.4-11.8,99.991,99.991,0,0,1,32.883-20.4A105.341,105.341,0,0,1,76.895-8.616q29.341,0,47.385,14.5T142.323,44q0,17.875-7.588,30.859t-23.1,30.522Q97.13,121.9,89.2,134.55a66.912,66.912,0,0,0-9.612,29.173,8.175,8.175,0,0,1-2.7,5.733C75.321,170.8,66.327,170.58,64.753,168.781Z" transform="translate(0 0)" fill="#f7941d"/>
    </g>
    <ellipse id="Ellipse_31" data-name="Ellipse 31" cx="20" cy="19" rx="20" ry="19" transform="translate(1902 365)" fill="#f7941d"/>
  </g>
</svg>
