<svg id="Group_2" data-name="Group 2" xmlns="http://www.w3.org/2000/svg" viewBox="0 0 173.4 238">
  <defs>
    <style>
      .cls-1 {
        fill: #a97c50;
      }

      .cls-2 {
        fill: #63b190;
      }

      .cls-3 {
        fill: #f7941d;
      }
    </style>
  </defs>
  <path id="Path_1" data-name="Path 1" class="cls-1" d="M155.3,24.1H114.9V17.5c0-4.5-3.4-8.2-7.6-8.2H97.7C96.4,3.9,92,0,86.7,0S77,3.9,75.7,9.2H66.1c-4.2,0-7.6,3.7-7.6,8.2V24H18.1C8.1,24.1,0,32.9,0,43.7V218.4C0,229.2,8.1,238,18.1,238H155.3c10,0,18.1-8.8,18.1-19.6V43.7C173.4,32.9,165.3,24.1,155.3,24.1ZM65.6,17.4a.472.472,0,0,1,.5-.5h10a11.061,11.061,0,0,0,21.2,0h10a.472.472,0,0,1,.5.5V34a.472.472,0,0,1-.5.5H66.1a.472.472,0,0,1-.5-.5Zm100,201c0,6.1-4.6,11.1-10.2,11.1H18.1c-5.6,0-10.2-5-10.2-11.1V43.7c0-6.1,4.6-11.1,10.2-11.1H58.5V34c0,4.6,3.4,8.3,7.6,8.3h41.2c4.2,0,7.6-3.7,7.6-8.3V32.6h40.4c5.6,0,10.2,5,10.2,11.1V218.4Z"/>
  <path id="Path_2" data-name="Path 2" class="cls-2" d="M24.7,191.7l6.5,6.5a4.2,4.2,0,0,0,2.8,1.2,3.631,3.631,0,0,0,2.8-1.2l16.3-16.3a4.031,4.031,0,1,0-5.7-5.7L34,189.7l-3.6-3.6a3.984,3.984,0,0,0-5.7,0,3.867,3.867,0,0,0,0,5.6Z"/>
  <path id="Path_3" data-name="Path 3" class="cls-2" d="M24.7,142.1l6.5,6.5a4.2,4.2,0,0,0,2.8,1.2,3.631,3.631,0,0,0,2.8-1.2l16.3-16.3a4.031,4.031,0,0,0-5.7-5.7L34,140.1l-3.6-3.6a3.984,3.984,0,0,0-5.7,0,3.867,3.867,0,0,0,0,5.6Z"/>
  <path id="Path_4" data-name="Path 4" class="cls-2" d="M24.7,96l6.5,6.5a4.2,4.2,0,0,0,2.8,1.2,3.631,3.631,0,0,0,2.8-1.2L53.1,86.2a4.031,4.031,0,1,0-5.7-5.7L34,94l-3.6-3.6a3.984,3.984,0,0,0-5.7,0,3.867,3.867,0,0,0,0,5.6Z"/>
  <path id="Path_5" data-name="Path 5" class="cls-3" d="M70.6,190.6h74.2a4,4,0,0,0,0-8H70.6a4,4,0,0,0,0,8"/>
  <path id="Path_6" data-name="Path 6" class="cls-3" d="M70.6,141.6h74.2a4,4,0,0,0,0-8H70.6a4,4,0,0,0,0,8"/>
  <path id="Path_7" data-name="Path 7" class="cls-3" d="M70.6,95.5h74.2a4,4,0,0,0,0-8H70.6a4,4,0,0,0,0,8"/>
</svg>
