<svg xmlns="http://www.w3.org/2000/svg" viewBox="0 0 41.734 37.634">
  <defs>
    <style>
      .cls-1 {
        fill: #fff;
      }
    </style>
  </defs>
  <path id="Path_1630" data-name="Path 1630" class="cls-1" d="M41.168,15.378l-4.75-2.714,4.75-2.714a.93.93,0,0,0,.452-.679.854.854,0,0,0-.452-.792L27.257.11a1.239,1.239,0,0,0-.9,0L20.81,3.277,15.268.11a1.239,1.239,0,0,0-.9,0L.452,8.366A.854.854,0,0,0,0,9.158a.62.62,0,0,0,.452.679L5.2,12.551.452,15.265A.98.98,0,0,0,0,16.057a.854.854,0,0,0,.452.792l5.655,3.393v8.369a.62.62,0,0,0,.452.679l13.8,8.256a.961.961,0,0,0,.9,0l13.8-8.256a.93.93,0,0,0,.452-.679V20.355l5.768-3.393a.952.952,0,0,0,.452-.792C41.508,15.831,41.394,15.491,41.168,15.378ZM20.7,19.9,8.482,12.551,20.81,5.2l12.215,7.351ZM6.786,13.682,19,21.033l-4.3,2.488L2.488,16.057ZM26.8,23.408l-4.3-2.488,12.215-7.351,4.3,2.488Zm0-21.6L39.019,9.158l-4.3,2.488L22.507,4.295Zm-11.989,0,4.3,2.488L6.786,11.646l-4.3-2.488ZM7.691,28.045v-6.9l6.56,3.958a1.239,1.239,0,0,0,.9,0l4.637-2.714v12.78Zm26.013,0L21.6,35.284V22.39l4.75,2.714a1.239,1.239,0,0,0,.9,0l6.56-3.845v6.786Z" transform="translate(0 -0.025)"/>
</svg>
