<svg xmlns="http://www.w3.org/2000/svg" viewBox="0 0 512 512">
  <defs>
    <style>
      .cls-1 {
        opacity: 0.35;
      }

      .cls-2 {
        fill: #f0f0f0;
      }

      .cls-3 {
        fill: #496e2d;
      }

      .cls-4 {
        fill: #a2001d;
      }
    </style>
  </defs>
  <g id="_002-kenya" data-name="002-kenya" class="cls-1">
    <circle id="Ellipse_27" data-name="Ellipse 27" class="cls-2" cx="256" cy="256" r="256"/>
    <path id="Path_1060" data-name="Path 1060" d="M256,0C154.506,0,66.81,59.065,25.4,144.7H486.6C445.19,59.065,357.493,0,256,0Z"/>
    <path id="Path_1061" data-name="Path 1061" class="cls-3" d="M256,512C154.506,512,66.81,452.935,25.4,367.3H486.6C445.19,452.935,357.493,512,256,512Z"/>
    <path id="Path_1062" data-name="Path 1062" class="cls-4" d="M499.911,178.087H12.089a257.117,257.117,0,0,0,0,155.826H499.91a257.107,257.107,0,0,0,0-155.826Z"/>
    <g id="Group_2137" data-name="Group 2137">
      <path id="Path_1063" data-name="Path 1063" class="cls-2" d="M335.715,118.3,305.4,104.308,256,216.159,206.6,104.308,176.285,118.3,237.613,256,176.285,393.7,206.6,407.692,256,295.841l49.4,111.851L335.715,393.7,274.387,256Z"/>
      <path id="Path_1064" data-name="Path 1064" class="cls-2" d="M276.591,131.489A235.729,235.729,0,0,0,256,111.3a235.548,235.548,0,0,0-20.591,20.185v249.02A235.61,235.61,0,0,0,256,400.7a235.484,235.484,0,0,0,20.591-20.186Z"/>
    </g>
    <g id="Group_2138" data-name="Group 2138">
      <path id="Path_1065" data-name="Path 1065" class="cls-4" d="M200.348,179.243V332.755c12.4,21.975,27.581,39.987,38.957,51.929V127.315C227.929,139.256,212.749,157.269,200.348,179.243Z"/>
      <path id="Path_1066" data-name="Path 1066" class="cls-4" d="M311.652,179.243c-12.4-21.975-27.581-39.987-38.957-51.928V384.684c11.375-11.942,26.554-29.954,38.957-51.929Z"/>
    </g>
    <path id="Path_1067" data-name="Path 1067" d="M311.652,179.243V332.755C324.207,310.506,333.913,284.2,333.913,256S324.207,201.493,311.652,179.243Z"/>
    <path id="Path_1068" data-name="Path 1068" d="M200.348,179.243V332.755C187.793,310.506,178.087,284.2,178.087,256S187.793,201.493,200.348,179.243Z"/>
  </g>
</svg>
