<svg xmlns="http://www.w3.org/2000/svg" width="75.998" height="76" viewBox="0 0 75.998 76">
  <g id="Grupo_2252" data-name="Grupo 2252" transform="translate(17 379.792)">
    <path id="Exclusión_1" data-name="Exclusión 1" d="M38,76A38,38,0,1,1,76,38,38.042,38.042,0,0,1,38,76ZM37.976,3a35.123,35.123,0,0,0-7.031.71,34.721,34.721,0,0,0-12.48,5.256A35.045,35.045,0,0,0,5.813,24.324a34.724,34.724,0,0,0-2.035,6.551,35.187,35.187,0,0,0,0,14.063,34.717,34.717,0,0,0,5.256,12.48A35.044,35.044,0,0,0,24.394,70.07a34.736,34.736,0,0,0,6.551,2.035,35.192,35.192,0,0,0,14.063,0,34.721,34.721,0,0,0,12.48-5.256A35.046,35.046,0,0,0,70.139,51.489a34.725,34.725,0,0,0,2.035-6.551,35.188,35.188,0,0,0,0-14.063A34.719,34.719,0,0,0,66.919,18.4,35.044,35.044,0,0,0,51.559,5.744a34.731,34.731,0,0,0-6.551-2.035A35.124,35.124,0,0,0,37.976,3Zm-9.9,51.587H20.286V31.148h7.791V54.585Zm28.09,0H48.38V42.045a6.8,6.8,0,0,0-.917-3.831,3.434,3.434,0,0,0-3.031-1.468,4,4,0,0,0-2.594.9,4.862,4.862,0,0,0-1.4,1.95,5.125,5.125,0,0,0-.258,1.9v13.09H32.385c0-.209.1-21.283,0-23.438h7.792v3.318a8.758,8.758,0,0,1,2.349-2.534,7.2,7.2,0,0,1,1.977-.956,9.152,9.152,0,0,1,2.7-.38,9.671,9.671,0,0,1,3.564.636,7.641,7.641,0,0,1,2.842,1.939,8.967,8.967,0,0,1,1.881,3.289,14.934,14.934,0,0,1,.68,4.687Zm-16.2-18.849h0l-.034.055v0l0,.006-.011.018h.05v-.081Zm-15.783-7.79h-.054a4.882,4.882,0,0,1-1.774-.316A3.9,3.9,0,0,1,19.828,23.9a4.107,4.107,0,0,1,.314-1.6,3.755,3.755,0,0,1,.89-1.284,4.081,4.081,0,0,1,1.39-.853,5.183,5.183,0,0,1,1.812-.309,4.43,4.43,0,0,1,3.159,1.163,3.8,3.8,0,0,1,.87,1.284,4.4,4.4,0,0,1,.327,1.6,3.924,3.924,0,0,1-1.185,2.869,4.057,4.057,0,0,1-1.388.865A5.176,5.176,0,0,1,24.183,27.946Z" transform="translate(-17 -379.792)" fill="#00a3d2"/>
  </g>
</svg>
