<svg xmlns="http://www.w3.org/2000/svg" viewBox="0 0 69.311 67.38">
  <defs>
    <style>
      .cls-1 {
        fill: #af7b46;
      }
    </style>
  </defs>
  <g id="Group_1964" data-name="Group 1964" transform="translate(-365.6 -963)">
    <path id="Path_1642" data-name="Path 1642" class="cls-1" d="M51.447,5.087A19.529,19.529,0,0,0,35.13.211c-11.253,2.063-13.691,9.94-15.379,15.942-1.313,4.126-1.875,5.626-3.751,5.626a1.41,1.41,0,0,0-.188,2.813H16c3.938,0,5.064-3.751,6.377-7.689C24.065,11.464,25.94,4.712,35.505,3.024A16.577,16.577,0,0,1,49.384,7.15a13.981,13.981,0,0,1,4.5,11.44c-.563,6.189-3.376,9.752-6.939,14.254A75.6,75.6,0,0,0,39.069,44.66c-1.313,3.188-1.688,6.752-2.251,9.94-.75,6.564-1.5,9.94-6,9.94h-.188a4.52,4.52,0,0,1-3.376-1.313c-2.438-2.626-2.063-8.065-2.063-8.065a1.41,1.41,0,1,0-2.813-.188c0,.188-.375,6.564,2.813,10.128a6.937,6.937,0,0,0,5.439,2.251h.188c7.127,0,8.065-6.377,8.815-12.378a33.317,33.317,0,0,1,1.875-9,58.365,58.365,0,0,1,7.5-11.253c3.751-4.689,6.939-8.815,7.5-15.754A16.036,16.036,0,0,0,51.447,5.087Z" transform="translate(378.247 963.027)"/>
    <path id="Path_1643" data-name="Path 1643" class="cls-1" d="M19.4,24.484c-.938,1.313-1.5,3.751-1.5,6.564,0,4.314,1.5,7.689,3.376,7.689s3.376-3.563,3.376-7.689c0-3-.75-5.626-1.875-6.939A33.029,33.029,0,0,1,25.4,19.8c2.626-3.938,5.251-7.877,4.314-12.753A1.434,1.434,0,0,0,26.9,7.6c.75,3.751-1.5,7.127-3.751,10.69A28.6,28.6,0,0,0,19.4,24.484Z" transform="translate(381.224 968.199)"/>
    <path id="Path_1644" data-name="Path 1644" class="cls-1" d="M14.6,33.326a1.621,1.621,0,0,1-1.125-.563c-4.5-6-4.5-11.815,0-17.817a1.333,1.333,0,0,1,2.063,1.688c-3.751,4.876-3.751,9.565,0,14.441a1.421,1.421,0,0,1-.188,1.875C15.164,33.326,14.976,33.326,14.6,33.326Z" transform="translate(374.395 975.674)"/>
    <path id="Path_1645" data-name="Path 1645" class="cls-1" d="M10.892,37.827a1.621,1.621,0,0,1-1.125-.563c-6.189-7.877-6.189-15.942,0-23.818a1.47,1.47,0,0,1,2.063-.188,1.421,1.421,0,0,1,.188,1.875c-5.439,6.752-5.439,13.5,0,20.443a1.283,1.283,0,0,1-.375,1.875A1.422,1.422,0,0,1,10.892,37.827Z" transform="translate(370.04 974.361)"/>
    <path id="Path_1646" data-name="Path 1646" class="cls-1" d="M7.48,46.838a1.337,1.337,0,0,1-1.125-.563q-12.659-18,0-36.009A1.454,1.454,0,0,1,8.23,9.891a1.454,1.454,0,0,1,.375,1.875C.728,22.832.728,33.522,8.605,44.587a1.283,1.283,0,0,1-.375,1.875A.974.974,0,0,1,7.48,46.838Z" transform="translate(365.575 971.539)"/>
  </g>
</svg>
