<svg xmlns="http://www.w3.org/2000/svg" width="76" height="76" viewBox="0 0 76 76">
  <g id="Grupo_2257" data-name="Grupo 2257" transform="translate(-316 -8321)">
    <g id="Elipse_24" data-name="Elipse 24" transform="translate(316 8321)" fill="none" stroke="#00a3d2" stroke-width="3">
      <circle cx="38" cy="38" r="38" stroke="none"/>
      <circle cx="38" cy="38" r="36.5" fill="none"/>
    </g>
    <path id="Trazado_1842" data-name="Trazado 1842" d="M45.767,4.819A4.8,4.8,0,0,0,44.3,1.359l-.035-.035A4.8,4.8,0,0,0,40.949,0H4.818A4.8,4.8,0,0,0,1.5,1.324l-.035.035A4.8,4.8,0,0,0,0,4.819V24.883a4.8,4.8,0,0,0,1.206,3.185c.013.017.027.034.042.05a4.831,4.831,0,0,0,3.158,1.566h0l.02,0c.13.01.26.016.391.016H40.949c.131,0,.261-.005.391-.016l.02,0h0a4.831,4.831,0,0,0,3.158-1.566c.015-.016.029-.033.042-.05a4.8,4.8,0,0,0,1.206-3.185ZM42.458,27.51l-.011.006-.012.007a3.034,3.034,0,0,1-1.123.369h0l-.023,0a3.041,3.041,0,0,1-.34.019H4.818a3.041,3.041,0,0,1-.34-.019l-.024,0a3.041,3.041,0,0,1-1.127-.371h0l-.019-.01c-.058-.034-.114-.068-.169-.105l8.175-10.444,2.952-3.771a.894.894,0,0,0-1.406-1.1L1.989,25.97a3.022,3.022,0,0,1-.2-1.087V4.819a3.013,3.013,0,0,1,.434-1.562l10.423,9.19c-1.625,2.455.063.047,1.343,1.184l5.439,4.8a5.236,5.236,0,0,0,6.912,0l5.439-4.8L42.629,27.4C42.573,27.441,42.516,27.477,42.458,27.51ZM4.818,1.788h36.13a3.011,3.011,0,0,1,1.251.271l-10.883,9.6-.026.023-6.133,5.408a3.444,3.444,0,0,1-4.547,0l-6.133-5.408-.027-.023L3.566,2.059A3.014,3.014,0,0,1,4.818,1.788Zm28.3,10.658,10.423-9.19a3.013,3.013,0,0,1,.434,1.562V24.883a3.016,3.016,0,0,1-.2,1.089Zm0,0" transform="translate(331.5 8344.5)" fill="none" stroke="#00a3d2" stroke-width="2"/>
  </g>
</svg>
