<svg xmlns="http://www.w3.org/2000/svg" width="361.815" height="512" viewBox="0 0 361.815 512">
  <g id="bible" transform="translate(-75.092 0)">
    <g id="Grupo_2268" data-name="Grupo 2268">
      <path id="Trazado_1966" data-name="Trazado 1966" d="M426.908,0H126.477A51.354,51.354,0,0,0,75.092,51.206V427.115a51.354,51.354,0,0,0,51.384,51.206h10.141V502a10,10,0,0,0,15.459,8.379l37.547-24.464,37.546,24.464A10,10,0,0,0,242.628,502V478.321H426.907a10,10,0,0,0,10-10v-1.174a10,10,0,0,0-7.638-9.717,31.176,31.176,0,0,1,0-60.629,10,10,0,0,0,7.638-9.717V10a10,10,0,0,0-10-10ZM126.477,20h10.141V236.431a10,10,0,0,0,20,0V20H416.909V375.909H156.617V230.843a10,10,0,1,0-20,0V375.909H126.476A51.233,51.233,0,0,0,95.092,386.6V51.206A31.332,31.332,0,0,1,126.477,20Zm96.152,463.549L195.083,465.6a10,10,0,0,0-10.918,0l-27.547,17.948V437.115h66.011Zm173.333-25.228H242.629V437.115H388.66a10,10,0,1,0,0-20H146.617a10,10,0,0,0-10,10v31.206H126.476a31.206,31.206,0,1,1,0-62.412H395.961a51.275,51.275,0,0,0,0,62.412Z" fill="#a97c50"/>
    </g>
  </g>
</svg>
