<?xml version="1.0" encoding="UTF-8" standalone="no"?>
<!DOCTYPE svg PUBLIC "-//W3C//DTD SVG 1.1//EN" "http://www.w3.org/Graphics/SVG/1.1/DTD/svg11.dtd">
<svg width="100%" height="100%" viewBox="0 0 2448 1836" version="1.1" xmlns="http://www.w3.org/2000/svg" xmlns:xlink="http://www.w3.org/1999/xlink" xml:space="preserve" xmlns:serif="http://www.serif.com/" style="fill-rule:evenodd;clip-rule:evenodd;stroke-linecap:round;stroke-miterlimit:10;">
    <g transform="matrix(1,0,0,1,-22948.3,2296.76)">
        <g transform="matrix(-7.69264,5.02807,5.02807,7.69264,23451.6,-630.289)">
            <g>
                <path d="M-10.654,-3.173L0.945,-3.173" style="fill:none;fill-rule:nonzero;stroke:rgb(168,123,80);stroke-width:4.08px;"/>
            </g>
        </g>
        <g transform="matrix(5.02827,7.69251,7.69251,-5.02827,23507.5,-830.329)">
            <g>
                <path d="M-3.431,-6.342L11.722,-6.342" style="fill:none;fill-rule:nonzero;stroke:rgb(168,123,80);stroke-width:4.08px;"/>
            </g>
        </g>
        <g transform="matrix(-7.69225,5.02866,5.02866,7.69225,23480.4,-791.856)">
            <g>
                <path d="M-17.871,-5.323L1.586,-5.323" style="fill:none;fill-rule:nonzero;stroke:rgb(168,123,80);stroke-width:4.08px;"/>
            </g>
        </g>
        <g transform="matrix(5.02838,7.69243,7.69243,-5.02838,23572.5,-1145.69)">
            <g>
                <path d="M-6.269,-11.587L21.418,-11.588" style="fill:none;fill-rule:nonzero;stroke:rgb(168,123,80);stroke-width:4.08px;"/>
            </g>
        </g>
        <g transform="matrix(7.69225,-5.02866,-5.02866,-7.69225,23341.2,-1004.84)">
            <g>
                <path d="M-1.586,5.323L17.871,5.323" style="fill:none;fill-rule:nonzero;stroke:rgb(168,123,80);stroke-width:4.08px;"/>
            </g>
        </g>
        <g transform="matrix(5.02869,7.69223,7.69223,-5.02869,23292,-1159.88)">
            <g>
                <path d="M-3.431,-6.342L11.723,-6.342" style="fill:none;fill-rule:nonzero;stroke:rgb(168,123,80);stroke-width:4.08px;"/>
            </g>
        </g>
        <g transform="matrix(7.69204,-5.02898,-5.02898,-7.69204,23160,-1076.4)">
            <g>
                <path d="M-0.945,3.173L10.653,3.173" style="fill:none;fill-rule:nonzero;stroke:rgb(168,123,80);stroke-width:4.08px;"/>
            </g>
        </g>
        <g transform="matrix(-5.02839,-7.69242,-7.69242,5.02839,23389.5,-1117.09)">
            <g>
                <path d="M-44.862,24.271L13.131,24.271" style="fill:none;fill-rule:nonzero;stroke:rgb(168,123,80);stroke-width:4.08px;"/>
            </g>
        </g>
        <g transform="matrix(-7.69236,5.02849,5.02849,7.69236,24787.7,-1680.58)">
            <g>
                <path d="M-20.619,-6.141L1.829,-6.142" style="fill:none;fill-rule:nonzero;stroke:rgb(168,123,80);stroke-width:4.08px;"/>
            </g>
        </g>
        <g transform="matrix(-2.15582,8.93368,8.93368,2.15582,24960.5,-1852.21)">
            <g>
                <path d="M-5.392,-4.246L3.343,-4.246" style="fill:none;fill-rule:nonzero;stroke:rgb(168,123,80);stroke-width:4.08px;"/>
            </g>
        </g>
        <g transform="matrix(9.19011,0,0,9.19011,25100.1,-1909.54)">
            <g>
                <path d="M0,-21.63L11.707,-19.449L-18.045,0" style="fill:none;fill-rule:nonzero;stroke:rgb(168,123,80);stroke-width:4.08px;"/>
            </g>
        </g>
        <g transform="matrix(7.6924,-5.02843,-5.02843,-7.6924,24946.8,-1927.2)">
            <g>
                <path d="M-2.195,7.37L24.744,7.37" style="fill:none;fill-rule:nonzero;stroke:rgb(168,123,80);stroke-width:4.08px;"/>
            </g>
        </g>
        <g transform="matrix(8.99498,1.88375,1.88375,-8.99498,24823.7,-1994.97)">
            <g>
                <path d="M-0.084,-0.814L7.853,-0.814" style="fill:none;fill-rule:nonzero;stroke:rgb(168,123,80);stroke-width:4.08px;"/>
            </g>
        </g>
        <g transform="matrix(7.69234,-5.02852,-5.02852,-7.69234,24689.5,-1831.85)">
            <g>
                <path d="M-1.89,6.346L21.307,6.347" style="fill:none;fill-rule:nonzero;stroke:rgb(168,123,80);stroke-width:4.08px;"/>
            </g>
        </g>
        <g transform="matrix(-5.02878,-7.69217,-7.69217,5.02878,24729.4,-1878.36)">
            <g>
                <path d="M-15.341,8.299L4.49,8.299" style="fill:none;fill-rule:nonzero;stroke:rgb(168,123,80);stroke-width:4.08px;"/>
            </g>
        </g>
        <g transform="matrix(-7.69168,5.02954,5.02954,7.69168,23823.5,-749.798)">
            <g>
                <path d="M-4.468,-1.331L0.397,-1.331" style="fill:none;fill-rule:nonzero;stroke:rgb(247,147,29);stroke-width:4.08px;"/>
            </g>
        </g>
        <g transform="matrix(9.19011,0,0,9.19011,24643.7,-782.507)">
            <g>
                <path d="M0,-75.262L-94.894,-13.232L-86.244,0" style="fill:none;fill-rule:nonzero;stroke:rgb(247,147,29);stroke-width:4.08px;"/>
            </g>
        </g>
        <g transform="matrix(5.02893,7.69207,7.69207,-5.02893,24639,-1530.69)">
            <g>
                <path d="M-1.588,-2.936L5.427,-2.936" style="fill:none;fill-rule:nonzero;stroke:rgb(247,147,29);stroke-width:4.08px;"/>
            </g>
        </g>
        <g transform="matrix(-6.29876,6.69207,6.69207,6.29876,24667.2,-1506.86)">
            <g>
                <path d="M-14.453,-6.245L2.698,-6.245" style="fill:none;fill-rule:nonzero;stroke:rgb(247,147,29);stroke-width:4.08px;"/>
            </g>
        </g>
        <g transform="matrix(5.05163,7.67718,7.67718,-5.05163,24694.5,-1893.17)">
            <g>
                <path d="M-6.992,-12.971L24.062,-12.971" style="fill:none;fill-rule:nonzero;stroke:rgb(247,147,29);stroke-width:4.08px;"/>
            </g>
        </g>
        <g transform="matrix(8.55772,-3.35016,-3.35016,-8.55772,24430,-1800.12)">
            <g>
                <path d="M-0.583,3.087L16.354,3.087" style="fill:none;fill-rule:nonzero;stroke:rgb(247,147,29);stroke-width:4.08px;"/>
            </g>
        </g>
        <g transform="matrix(5.02893,7.69207,7.69207,-5.02893,24410,-1881.1)">
            <g>
                <path d="M-1.588,-2.936L5.427,-2.936" style="fill:none;fill-rule:nonzero;stroke:rgb(247,147,29);stroke-width:4.08px;"/>
            </g>
        </g>
        <g transform="matrix(9.19011,0,0,9.19011,23427.8,-1756.95)">
            <g>
                <path d="M0,35.567L8.649,48.799L103.542,-13.232" style="fill:none;fill-rule:nonzero;stroke:rgb(247,147,29);stroke-width:4.08px;"/>
            </g>
        </g>
        <g transform="matrix(7.69254,-5.02821,-5.02821,-7.69254,23400.1,-1397.39)">
            <g>
                <path d="M-0.396,1.331L4.467,1.331" style="fill:none;fill-rule:nonzero;stroke:rgb(247,147,29);stroke-width:4.08px;"/>
            </g>
        </g>
        <g transform="matrix(-5.02842,-7.69241,-7.69241,5.02842,23757.3,-1436.16)">
            <g>
                <path d="M-65.123,35.233L19.061,35.233" style="fill:none;fill-rule:nonzero;stroke:rgb(247,147,29);stroke-width:4.08px;"/>
            </g>
        </g>
        <g transform="matrix(9.19011,0,0,9.19011,25204.6,-1815.88)">
            <g>
                <path d="M0,37.528C5.736,38.05 10.04,33.478 10.983,28.073C12.262,19.868 0.302,-0.522 0.302,-0.522" style="fill:none;fill-rule:nonzero;stroke:rgb(98,176,143);stroke-width:4.08px;stroke-linejoin:round;"/>
            </g>
        </g>
        <g transform="matrix(9.19011,0,0,9.19011,25207.4,-1470.99)">
            <g>
                <path d="M0,-38.05C0,-38.05 -12.226,-15.05 -10.555,-9.395C-10.051,-3.74 -4.662,0 -0.302,0" style="fill:none;fill-rule:nonzero;stroke:rgb(98,176,143);stroke-width:4.08px;stroke-linejoin:round;"/>
            </g>
        </g>
        <g transform="matrix(-7.65791,5.0808,5.0808,7.65791,24054.3,-1274.49)">
            <path d="M-29.377,-8.859L2.672,-8.859" style="fill:none;fill-rule:nonzero;stroke:rgb(208,31,38);stroke-width:4.08px;stroke-linecap:butt;"/>
        </g>
        <g transform="matrix(5.081,7.65778,7.65778,-5.081,24168.8,-1545.86)">
            <path d="M-7.165,-13.352L24.884,-13.352" style="fill:none;fill-rule:nonzero;stroke:rgb(208,31,38);stroke-width:4.08px;stroke-linecap:butt;"/>
        </g>
    </g>
</svg>
