<svg xmlns="http://www.w3.org/2000/svg" viewBox="0 0 87.696 85.621">
  <defs>
    <style>
      .cls-1 {
        fill: #00a3d2;
      }
    </style>
  </defs>
  <g id="Group_1949" data-name="Group 1949" transform="translate(-341 -378)">
    <path id="Path_1511" data-name="Path 1511" class="cls-1" d="M129.57,203.956a7.261,7.261,0,0,1-2.867-1.526,1.342,1.342,0,0,1-.5-1.073,1.2,1.2,0,0,1,.268-.8.763.763,0,0,1,.62-.319,1.732,1.732,0,0,1,.888.335,8.673,8.673,0,0,0,5.331,1.727,5.633,5.633,0,0,0,3.219-.788,2.561,2.561,0,0,0,1.123-2.246,1.866,1.866,0,0,0-1.039-1.727,13.772,13.772,0,0,0-3.353-1.106,19.356,19.356,0,0,1-3.621-1.073,5.334,5.334,0,0,1-2.213-1.643,4.14,4.14,0,0,1-.8-2.632,4.818,4.818,0,0,1,.872-2.85,5.838,5.838,0,0,1,2.447-1.945,9.007,9.007,0,0,1,3.587-.687,10.782,10.782,0,0,1,3.437.52,7.109,7.109,0,0,1,2.665,1.542,1.355,1.355,0,0,1,.52,1.073,1.183,1.183,0,0,1-.268.788.766.766,0,0,1-.637.335,1.69,1.69,0,0,1-.855-.335,9.6,9.6,0,0,0-2.263-1.324,7.227,7.227,0,0,0-2.565-.4,5.2,5.2,0,0,0-3.135.821,2.689,2.689,0,0,0-1.123,2.3,2.078,2.078,0,0,0,.989,1.894,11.179,11.179,0,0,0,3.2,1.173,25.48,25.48,0,0,1,3.738,1.09,5.779,5.779,0,0,1,2.28,1.542,3.732,3.732,0,0,1,.855,2.531,4.581,4.581,0,0,1-.872,2.783,5.638,5.638,0,0,1-2.464,1.878,9.535,9.535,0,0,1-3.655.671A11.809,11.809,0,0,1,129.57,203.956Z" transform="translate(236.8 226.4)"/>
    <path id="Path_1512" data-name="Path 1512" class="cls-1" d="M240.083,196.945v6.823a1.185,1.185,0,0,1-.369.905,1.553,1.553,0,0,1-1.928,0,1.2,1.2,0,0,1-.352-.905v-6.789a3.449,3.449,0,0,0-.637-2.3,2.548,2.548,0,0,0-2.012-.738,3.4,3.4,0,0,0-2.565,1.006,3.623,3.623,0,0,0-.972,2.665v6.152a1.175,1.175,0,0,1-.352.905,1.282,1.282,0,0,1-.956.335,1.426,1.426,0,0,1-.972-.335,1.152,1.152,0,0,1-.369-.905V187.541a1.14,1.14,0,0,1,.386-.905,1.391,1.391,0,0,1,.989-.335,1.366,1.366,0,0,1,.922.318,1.149,1.149,0,0,1,.352.872v6.555a4.339,4.339,0,0,1,1.76-1.676,5.351,5.351,0,0,1,2.515-.587C238.558,191.782,240.083,193.492,240.083,196.945Z" transform="translate(151.566 225.817)"/>
    <path id="Path_1513" data-name="Path 1513" class="cls-1" d="M314.772,231.254a1.841,1.841,0,0,1-.671-.6,1.279,1.279,0,0,1-.2-.7,1.08,1.08,0,0,1,.235-.7.7.7,0,0,1,.6-.285,2.7,2.7,0,0,1,1.073.419,10.161,10.161,0,0,0,1.542.687,5.46,5.46,0,0,0,1.861.268,3.845,3.845,0,0,0,1.978-.436,1.418,1.418,0,0,0,.7-1.257,1.286,1.286,0,0,0-.268-.838,2.245,2.245,0,0,0-.972-.57,14.7,14.7,0,0,0-2.012-.536,8,8,0,0,1-3.319-1.341,2.879,2.879,0,0,1-1.006-2.313,3.37,3.37,0,0,1,.654-2.028,4.274,4.274,0,0,1,1.811-1.408,6.5,6.5,0,0,1,2.615-.5,8.346,8.346,0,0,1,2.045.268,5.742,5.742,0,0,1,1.743.8,1.6,1.6,0,0,1,.872,1.341,1.035,1.035,0,0,1-.251.7.789.789,0,0,1-.587.285,1.126,1.126,0,0,1-.469-.1c-.151-.067-.369-.184-.637-.335a7.416,7.416,0,0,0-1.324-.654,4.421,4.421,0,0,0-1.526-.235,3.011,3.011,0,0,0-1.777.469,1.518,1.518,0,0,0-.671,1.291,1.3,1.3,0,0,0,.62,1.14,7.356,7.356,0,0,0,2.313.771,11.75,11.75,0,0,1,2.749.838,3.285,3.285,0,0,1,1.425,1.173,3.341,3.341,0,0,1,.436,1.76,3.194,3.194,0,0,1-1.425,2.732,6.323,6.323,0,0,1-3.805,1.039A8.191,8.191,0,0,1,314.772,231.254Z" transform="translate(80.566 198.516)"/>
    <g id="Group_1929" data-name="Group 1929" transform="translate(-328.743 142.265)">
      <g id="Group_1926" data-name="Group 1926" transform="translate(669.743 235.735)">
        <path id="Path_614" data-name="Path 614" class="cls-1" d="M45.021,0A42.723,42.723,0,0,0,7,23.141l-5.95-1.322a.73.73,0,0,0-.992.992l5.95,15.207a.818.818,0,0,0,1.322.331L18.9,26.777c.331-.331.331-1.322-.331-1.322l-6.281-1.322A37.517,37.517,0,0,1,71.8,16.2a37.516,37.516,0,0,1,0,53.554A37.567,37.567,0,0,1,12.623,62.48a2.36,2.36,0,0,0-3.306-.992c-.992.661-1.653,2.314-.992,3.306a42.679,42.679,0,0,0,79.34-21.818A42.4,42.4,0,0,0,45.021,0Z" transform="translate(0.027)"/>
      </g>
    </g>
  </g>
</svg>
