<svg xmlns="http://www.w3.org/2000/svg" viewBox="0 0 36.359 36.5">
  <defs>
    <style>
      .cls-1 {
        fill: #fff;
      }
    </style>
  </defs>
  <g id="Group_1944" data-name="Group 1944" transform="translate(-671 -345)">
    <g id="Group_1899" data-name="Group 1899" transform="translate(-0.161 0.57)">
      <path id="Path_1511" data-name="Path 1511" class="cls-1" d="M127.659,193.549a3.144,3.144,0,0,1-1.241-.661.581.581,0,0,1-.218-.465.519.519,0,0,1,.116-.348.33.33,0,0,1,.269-.138.75.75,0,0,1,.385.145,3.756,3.756,0,0,0,2.308.748,2.44,2.44,0,0,0,1.394-.341,1.109,1.109,0,0,0,.486-.973.808.808,0,0,0-.45-.748,5.964,5.964,0,0,0-1.452-.479,8.383,8.383,0,0,1-1.568-.465,2.31,2.31,0,0,1-.958-.711,1.793,1.793,0,0,1-.348-1.14,2.087,2.087,0,0,1,.378-1.234,2.528,2.528,0,0,1,1.06-.842,3.9,3.9,0,0,1,1.554-.3,4.669,4.669,0,0,1,1.488.225,3.078,3.078,0,0,1,1.154.668.587.587,0,0,1,.225.465.512.512,0,0,1-.116.341.332.332,0,0,1-.276.145.732.732,0,0,1-.37-.145,4.158,4.158,0,0,0-.98-.574,3.129,3.129,0,0,0-1.111-.174,2.252,2.252,0,0,0-1.358.356,1.165,1.165,0,0,0-.486.995.9.9,0,0,0,.428.82,4.84,4.84,0,0,0,1.387.508,11.036,11.036,0,0,1,1.619.472,2.5,2.5,0,0,1,.987.668,1.616,1.616,0,0,1,.37,1.1,1.984,1.984,0,0,1-.377,1.205,2.442,2.442,0,0,1-1.067.813,4.129,4.129,0,0,1-1.583.29A5.114,5.114,0,0,1,127.659,193.549Z" transform="translate(553.961 172.83)"/>
      <path id="Path_1512" data-name="Path 1512" class="cls-1" d="M233.573,190.91v2.955a.513.513,0,0,1-.16.392.673.673,0,0,1-.835,0,.519.519,0,0,1-.152-.392v-2.94a1.493,1.493,0,0,0-.276-.995,1.1,1.1,0,0,0-.871-.319,1.471,1.471,0,0,0-1.111.436,1.569,1.569,0,0,0-.421,1.154v2.664a.509.509,0,0,1-.152.392.555.555,0,0,1-.414.145.618.618,0,0,1-.421-.145.5.5,0,0,1-.16-.392v-7.027a.494.494,0,0,1,.167-.392.6.6,0,0,1,.428-.145.591.591,0,0,1,.4.138.5.5,0,0,1,.152.378v2.838a1.879,1.879,0,0,1,.762-.726,2.317,2.317,0,0,1,1.089-.254C232.912,188.674,233.573,189.414,233.573,190.91Z" transform="translate(458.995 172.181)"/>
      <path id="Path_1513" data-name="Path 1513" class="cls-1" d="M314.277,224.363a.8.8,0,0,1-.29-.261.554.554,0,0,1-.087-.3.467.467,0,0,1,.1-.3.3.3,0,0,1,.261-.123,1.167,1.167,0,0,1,.465.181,4.4,4.4,0,0,0,.668.3,2.364,2.364,0,0,0,.806.116,1.665,1.665,0,0,0,.857-.189.614.614,0,0,0,.3-.544.557.557,0,0,0-.116-.363.972.972,0,0,0-.421-.247,6.366,6.366,0,0,0-.871-.232,3.464,3.464,0,0,1-1.437-.581,1.247,1.247,0,0,1-.436-1,1.459,1.459,0,0,1,.283-.878,1.85,1.85,0,0,1,.784-.61,2.813,2.813,0,0,1,1.132-.218,3.614,3.614,0,0,1,.886.116,2.486,2.486,0,0,1,.755.348.694.694,0,0,1,.377.581.448.448,0,0,1-.109.3.342.342,0,0,1-.254.123.488.488,0,0,1-.2-.044c-.065-.029-.16-.08-.276-.145a3.211,3.211,0,0,0-.573-.283,1.914,1.914,0,0,0-.661-.1,1.3,1.3,0,0,0-.769.2.657.657,0,0,0-.29.559.561.561,0,0,0,.269.494,3.185,3.185,0,0,0,1,.334,5.088,5.088,0,0,1,1.191.363,1.423,1.423,0,0,1,.617.508,1.447,1.447,0,0,1,.189.762,1.383,1.383,0,0,1-.617,1.183,2.738,2.738,0,0,1-1.648.45A3.547,3.547,0,0,1,314.277,224.363Z" transform="translate(379.887 141.762)"/>
    </g>
    <path id="Path_1652" data-name="Path 1652" class="cls-1" d="M18.18,36.5a18.25,18.25,0,1,1,18.18-18.32A18.254,18.254,0,0,1,18.18,36.5Zm0-34.386A16.066,16.066,0,1,0,34.245,18.18,16.059,16.059,0,0,0,18.18,2.114Z" transform="translate(671 345)"/>
  </g>
</svg>
