<svg xmlns="http://www.w3.org/2000/svg" viewBox="0 0 233.701 233.7">
  <defs>
    <style>
      .cls-1 {
        fill: #00a3d2;
      }
    </style>
  </defs>
  <g id="Group_2152" data-name="Group 2152" transform="translate(142.701 -740.3) rotate(180)">
    <path id="Path_627" data-name="Path 627" class="cls-1" d="M157.4,53.6H15.7L66,7.8a4.561,4.561,0,0,0,.3-6.4A4.706,4.706,0,0,0,63,0a4.234,4.234,0,0,0-3,1.2L1.5,54.5A4.13,4.13,0,0,0,0,57.8v.7a4.13,4.13,0,0,0,1.5,3.3L60,115.1a4.366,4.366,0,0,0,6.3-.3,4.565,4.565,0,0,0-.3-6.4L15.7,62.6H157.4a4.481,4.481,0,0,0,4.5-4.5A4.546,4.546,0,0,0,157.4,53.6Z" transform="translate(-55 -915)"/>
    <g id="Group_2150" data-name="Group 2150" transform="translate(141.551 -1714.3) rotate(180)">
      <g id="Group_2149" data-name="Group 2149" transform="translate(45)">
        <path id="Path_1114" data-name="Path 1114" class="cls-1" d="M199.6,34.208A116.627,116.627,0,0,0,116.955,0h0a116.85,116.85,0,1,0-.1,233.7h0A116.948,116.948,0,0,0,199.6,34.208ZM192.9,192.9a107.461,107.461,0,1,1,31.488-75.947A107.2,107.2,0,0,1,192.9,192.9Z" transform="translate(-46.15 -974)"/>
      </g>
    </g>
  </g>
</svg>
