<svg xmlns="http://www.w3.org/2000/svg" width="1138" height="1138" viewBox="0 0 1138 1138">
  <g id="ngo" transform="translate(-7009 1328)">
    <g id="heart" transform="translate(7228 -1069.333)">
      <g id="Grupo_2408" data-name="Grupo 2408" transform="translate(0 21.333)">
        <path id="Trazado_2400" data-name="Trazado 2400" d="M517.179,21.333c-77.566,0-141.629,72.045-167.537,106.048C323.734,93.378,259.67,21.333,182.1,21.333,81.692,21.333,0,113.652,0,227.112c0,61.9,24.571,119.591,67.578,159.072a14.4,14.4,0,0,0,2.29,2.973L339.356,658.089a14.563,14.563,0,0,0,20.586-.014l278.45-278.35,2.874-2.789c2.277-2.148,4.525-4.325,7.042-7.113a14.165,14.165,0,0,0,2.589-3.472c31.229-38.242,48.386-87.567,48.386-139.239C699.283,113.652,617.593,21.333,517.179,21.333ZM626.655,349.962a13.565,13.565,0,0,0-1.1,1.479c-1.366,1.565-2.86,2.945-4.339,4.354L349.628,627.188,93.785,371.857a14.623,14.623,0,0,0-3.386-4.339c-38.94-34-61.262-85.177-61.262-140.406,0-97.4,68.617-176.641,152.968-176.641,83.4,0,154.576,108.78,155.287,109.875,5.379,8.308,19.121,8.308,24.5,0,.712-1.1,71.888-109.875,155.287-109.875,84.351,0,152.968,79.244,152.968,176.641C670.147,273.008,654.7,316.642,626.655,349.962Z" transform="translate(0 -21.333)" fill="#cf1f26" stroke="#cf1f26" stroke-width="8"/>
      </g>
    </g>
    <g id="Elipse_51" data-name="Elipse 51" transform="translate(7009 -1328)" fill="none" stroke="#ff8f00" stroke-width="37">
      <circle cx="569" cy="569" r="569" stroke="none"/>
      <circle cx="569" cy="569" r="550.5" fill="none"/>
    </g>
  </g>
</svg>
