<svg xmlns="http://www.w3.org/2000/svg" viewBox="0 0 233.701 233.7">
  <defs>
    <style>
      .cls-1 {
        fill: #63b190;
      }
    </style>
  </defs>
  <g id="Group_1747" data-name="Group 1747" transform="translate(950.15 -72)">
    <path id="Path_709" data-name="Path 709" class="cls-1" d="M199.6,34.208A116.627,116.627,0,0,0,116.955,0h0a116.85,116.85,0,1,0-.1,233.7h0A116.948,116.948,0,0,0,199.6,34.208ZM192.9,192.9a107.461,107.461,0,1,1,31.488-75.947A107.2,107.2,0,0,1,192.9,192.9Z" transform="translate(-950.15 72)"/>
    <g id="Group_1745" data-name="Group 1745">
      <g id="changePayments" transform="translate(-1289.11 -307.999)">
        <path id="Path_1511" data-name="Path 1511" class="cls-1" d="M135.248,234.9a19.5,19.5,0,0,1-7.7-4.1,3.6,3.6,0,0,1-1.343-2.882,3.223,3.223,0,0,1,.72-2.149,2.049,2.049,0,0,1,1.665-.857,4.652,4.652,0,0,1,2.385.9,23.3,23.3,0,0,0,14.32,4.639,15.131,15.131,0,0,0,8.646-2.117,6.879,6.879,0,0,0,3.016-6.033,5.012,5.012,0,0,0-2.791-4.639,37,37,0,0,0-9.006-2.971,52,52,0,0,1-9.726-2.882,14.328,14.328,0,0,1-5.944-4.413,11.12,11.12,0,0,1-2.149-7.07,12.941,12.941,0,0,1,2.342-7.655,15.681,15.681,0,0,1,6.573-5.224,24.194,24.194,0,0,1,9.635-1.845,28.958,28.958,0,0,1,9.232,1.4,19.1,19.1,0,0,1,7.158,4.142,3.64,3.64,0,0,1,1.4,2.882,3.178,3.178,0,0,1-.72,2.117,2.058,2.058,0,0,1-1.711.9,4.54,4.54,0,0,1-2.3-.9,25.789,25.789,0,0,0-6.079-3.556,19.412,19.412,0,0,0-6.89-1.074,13.968,13.968,0,0,0-8.421,2.205,7.223,7.223,0,0,0-3.016,6.178,5.582,5.582,0,0,0,2.657,5.087,30.026,30.026,0,0,0,8.6,3.151,68.445,68.445,0,0,1,10.041,2.928,15.523,15.523,0,0,1,6.124,4.142,10.025,10.025,0,0,1,2.3,6.8,12.305,12.305,0,0,1-2.342,7.475,15.144,15.144,0,0,1-6.618,5.044,25.611,25.611,0,0,1-9.818,1.8A31.72,31.72,0,0,1,135.248,234.9Z" transform="translate(273.908 283.732)"/>
        <path id="Path_1512" data-name="Path 1512" class="cls-1" d="M259.449,214.9v18.327a3.183,3.183,0,0,1-.991,2.431,4.171,4.171,0,0,1-5.179,0,3.223,3.223,0,0,1-.946-2.431V214.987a9.264,9.264,0,0,0-1.711-6.178,6.844,6.844,0,0,0-5.4-1.982,9.133,9.133,0,0,0-6.89,2.7,9.732,9.732,0,0,0-2.611,7.158v16.525a3.156,3.156,0,0,1-.945,2.431,3.443,3.443,0,0,1-2.568.9,3.83,3.83,0,0,1-2.611-.9,3.1,3.1,0,0,1-.991-2.431V189.636a3.062,3.062,0,0,1,1.037-2.431,3.736,3.736,0,0,1,2.657-.9,3.669,3.669,0,0,1,2.477.854,3.087,3.087,0,0,1,.946,2.342v17.607a11.655,11.655,0,0,1,4.728-4.5,14.374,14.374,0,0,1,6.755-1.577C255.352,201.027,259.449,205.621,259.449,214.9Z" transform="translate(217.609 283.34)"/>
        <path id="Path_1513" data-name="Path 1513" class="cls-1" d="M316.241,251.721a4.946,4.946,0,0,1-1.8-1.612,3.437,3.437,0,0,1-.537-1.88,2.9,2.9,0,0,1,.631-1.88,1.88,1.88,0,0,1,1.612-.766,7.253,7.253,0,0,1,2.882,1.126,27.282,27.282,0,0,0,4.142,1.845,14.665,14.665,0,0,0,5,.72,10.328,10.328,0,0,0,5.313-1.171,3.809,3.809,0,0,0,1.88-3.376,3.454,3.454,0,0,0-.72-2.251,6.028,6.028,0,0,0-2.611-1.531,39.485,39.485,0,0,0-5.4-1.44,21.488,21.488,0,0,1-8.915-3.6,7.733,7.733,0,0,1-2.7-6.213,9.053,9.053,0,0,1,1.757-5.447,11.48,11.48,0,0,1,4.865-3.782,17.462,17.462,0,0,1,7.024-1.343,22.419,22.419,0,0,1,5.493.72,15.423,15.423,0,0,1,4.682,2.149,4.3,4.3,0,0,1,2.342,3.6,2.781,2.781,0,0,1-.674,1.88,2.119,2.119,0,0,1-1.577.766,3.025,3.025,0,0,1-1.26-.269c-.406-.18-.991-.494-1.711-.9a19.92,19.92,0,0,0-3.556-1.757,11.876,11.876,0,0,0-4.1-.631,8.088,8.088,0,0,0-4.773,1.26,4.077,4.077,0,0,0-1.8,3.468,3.492,3.492,0,0,0,1.665,3.062,19.761,19.761,0,0,0,6.213,2.071,31.561,31.561,0,0,1,7.384,2.251,8.823,8.823,0,0,1,3.828,3.151,8.974,8.974,0,0,1,1.171,4.728,8.579,8.579,0,0,1-3.828,7.339,16.985,16.985,0,0,1-10.221,2.791A22,22,0,0,1,316.241,251.721Z" transform="translate(170.726 265.339)"/>
      </g>
    </g>
  </g>
</svg>
