<svg xmlns="http://www.w3.org/2000/svg" width="152.82" height="173.283" viewBox="0 0 152.82 173.283">
  <g id="Group_1971" data-name="Group 1971" transform="translate(-36.997 -155)">
    <path id="Path_608" data-name="Path 608" d="M.014,30.474v19a4.111,4.111,0,0,0,4.473,4.473,4.41,4.41,0,0,0,4.473-4.473v-19A4.41,4.41,0,0,0,4.488,26C1.694,26.557.014,28.237.014,30.474" transform="translate(37 274.317)" fill="#cf1f26"/>
    <path id="Path_609" data-name="Path 609" d="M6.014,24.686v50.3a4.473,4.473,0,1,0,8.926,0v-50.3a4.41,4.41,0,0,0-4.473-4.473,4.111,4.111,0,0,0-4.452,4.473" transform="translate(64.535 247.688)" fill="#ed037c"/>
    <path id="Path_610" data-name="Path 610" d="M11.917,18.674v83.834a4.473,4.473,0,1,0,8.926,0V18.674A4.41,4.41,0,0,0,16.369,14.2,4.809,4.809,0,0,0,11.9,18.674" transform="translate(91.61 220.166)" fill="#ff8f00"/>
    <path id="Path_611" data-name="Path 611" d="M17.917,12.674V130.043a4.473,4.473,0,0,0,8.926,0V12.674A4.41,4.41,0,0,0,22.369,8.2c-2.793.557-4.473,2.237-4.473,4.473" transform="translate(119.145 192.631)" fill="#00a3d2"/>
    <path id="Path_612" data-name="Path 612" d="M52.272,21.8,38.3.557C38.3,0,37.739,0,37.182,0s-.557,0-1.118.557L22.077,21.8c-.557,1.118,0,2.237,1.118,2.237h10.06c0,.557-.557,1.118-.557,1.675l1.118,141.967a4.21,4.21,0,0,0,8.4-.557L41.65,25.15a2.053,2.053,0,0,0-.557-1.675h10.06C52.272,23.475,52.829,22.356,52.272,21.8Z" transform="translate(137.326 155)" fill="#63b190"/>
  </g>
</svg>
