<svg xmlns="http://www.w3.org/2000/svg" viewBox="0 0 29.103 33">
  <defs>
    <style>
      .cls-1 {
        fill: #63b190;
      }
    </style>
  </defs>
  <g id="Group_1971" data-name="Group 1971" transform="translate(-37 -155)">
    <path id="Path_608" data-name="Path 608" class="cls-1" d="M0,26.852v3.619a.783.783,0,0,0,.852.852.84.84,0,0,0,.852-.852V26.852A.84.84,0,0,0,.852,26c-.532.106-.852.426-.852.852" transform="translate(37 156.677)"/>
    <path id="Path_609" data-name="Path 609" class="cls-1" d="M6,21.052v9.581a.852.852,0,1,0,1.7,0V21.052a.84.84,0,0,0-.852-.852A.783.783,0,0,0,6,21.052" transform="translate(37.387 156.303)"/>
    <path id="Path_610" data-name="Path 610" class="cls-1" d="M11.9,15.052V31.019a.852.852,0,1,0,1.7,0V15.052a.84.84,0,0,0-.852-.852.916.916,0,0,0-.852.852" transform="translate(37.768 155.916)"/>
    <path id="Path_611" data-name="Path 611" class="cls-1" d="M17.9,9.052V31.406a.852.852,0,0,0,1.7,0V9.052a.84.84,0,0,0-.852-.852c-.532.106-.852.426-.852.852" transform="translate(38.155 155.529)"/>
    <path id="Path_612" data-name="Path 612" class="cls-1" d="M27.651,4.152,24.99.106C24.99,0,24.883,0,24.777,0s-.106,0-.213.106L21.9,4.152c-.106.213,0,.426.213.426h1.916c0,.106-.106.213-.106.319l.213,27.039a.8.8,0,0,0,1.6-.106L25.628,4.79a.391.391,0,0,0-.106-.319h1.916C27.651,4.471,27.757,4.258,27.651,4.152Z" transform="translate(38.41 155)"/>
  </g>
</svg>
