<svg id="Layer_2" data-name="Layer 2" xmlns="http://www.w3.org/2000/svg" width="233.66" height="184.37" viewBox="0 0 233.66 184.37">
  <g id="Layer_1" data-name="Layer 1">
    <path id="Path_1115" data-name="Path 1115" d="M203.66,40.25a25.5,25.5,0,0,1,25.5,25.5v88.62a25.5,25.5,0,0,1-25.5,25.5H30a25.5,25.5,0,0,1-25.5-25.5V65.75A25.5,25.5,0,0,1,30,40.25H67.34a6.9,6.9,0,0,0,6.53-4.66L83,9.16A6.9,6.9,0,0,1,89.48,4.5h54.25a6.91,6.91,0,0,1,6.53,4.66l9.07,26.43a6.92,6.92,0,0,0,6.54,4.66Z" fill="none" stroke="#ed037c" stroke-linecap="round" stroke-linejoin="round" stroke-width="9"/>
    <circle id="Ellipse_29" data-name="Ellipse 29" cx="48.08" cy="48.08" r="48.08" transform="translate(68.75 58.04)" stroke-width="9" stroke="#00a3d2" stroke-linecap="round" stroke-linejoin="round" fill="none"/>
    <path id="Path_1116" data-name="Path 1116" d="M116.83,76.67a29.44,29.44,0,0,1,29.44,29.45" fill="none" stroke="#f7941d" stroke-linecap="round" stroke-linejoin="round" stroke-width="9"/>
    <circle id="Ellipse_30" data-name="Ellipse 30" cx="7.99" cy="7.99" r="7.99" transform="translate(188.77 58.63)" fill="#63b190"/>
  </g>
</svg>
