<svg xmlns="http://www.w3.org/2000/svg" viewBox="0 0 88 88.188">
  <defs>
    <style>
      .cls-1 {
        fill: #ff8f00;
      }

      .cls-2 {
        fill: #ed5535;
      }
    </style>
  </defs>
  <g id="Group_1157" data-name="Group 1157" transform="translate(0 0)">
    <g id="Group_1063" data-name="Group 1063" transform="translate(0.15 0.793)">
      <path id="Path_1212" data-name="Path 1212" class="cls-1" d="M6.575,35.841,7.3,38.082,43.862,7.853,41.644,6.028a3.465,3.465,0,0,1-.462-4.875A3.119,3.119,0,0,1,41.667.68h0L1.1,34.178h0A3.465,3.465,0,0,1,6.621,35.76Z" transform="translate(0.02 -0.68)"/>
      <path id="Path_1217" data-name="Path 1217" class="cls-1" d="M18.935,76.131h2.518l-14-43.062-1.814,1.5a3.465,3.465,0,0,1-4.875-.416A3.35,3.35,0,0,1,.13,33h0l15.5,47.659.069.162A3.338,3.338,0,0,1,15.47,79.6a3.465,3.465,0,0,1,3.465-3.465Z" transform="translate(-0.13 4.333)"/>
      <path id="Path_1240" data-name="Path 1240" class="cls-1" d="M63.294,72.731l.785-2.391H18.927l.774,2.391A3.465,3.465,0,0,1,17.471,77.1a3.338,3.338,0,0,1-1.051.173H66.54a3.338,3.338,0,0,1-1.051-.173A3.465,3.465,0,0,1,63.294,72.731Z" transform="translate(2.397 10.124)"/>
      <path id="Path_1250" data-name="Path 1250" class="cls-1" d="M78.326,34.155a3.465,3.465,0,0,1-4.875.462l-1.814-1.5L57.65,76.131h2.507A3.465,3.465,0,0,1,63.622,79.6a3.339,3.339,0,0,1-.231,1.224l.069-.162L78.962,33h0a3.35,3.35,0,0,1-.635,1.155Z" transform="translate(8.791 4.333)"/>
      <path id="Path_1261" data-name="Path 1261" class="cls-1" d="M40.292,6.027,38.12,7.852,74.667,38.081,75.4,35.84a3.465,3.465,0,0,1,4.366-2.229,3.326,3.326,0,0,1,1.155.647h0L40.292.69h0a3.663,3.663,0,0,1,.474.474,3.465,3.465,0,0,1-.474,4.863Z" transform="translate(5.762 -0.678)"/>
    </g>
    <g id="Group_1064" data-name="Group 1064" transform="translate(0 0)">
      <path id="Path_1229" data-name="Path 1229" class="cls-2" d="M3.58,36.293a3.554,3.554,0,0,0,2.285-.827L7.509,33.86,6.99,31.527A3.616,3.616,0,0,0,4.566,29.15a3.545,3.545,0,0,0-3.295.711,3.063,3.063,0,0,0-.347.353,2.23,2.23,0,0,0-.167.17,3.267,3.267,0,0,0-.215.34c0,.085-.12.17-.167.255s-.084.231-.132.34-.084.207-.12.316,0,.267-.072.4a2.335,2.335,0,0,0,0,.28v.973a3.022,3.022,0,0,0,.1.45A3.543,3.543,0,0,0,.8,34.956,3.567,3.567,0,0,0,3.58,36.293Z" transform="translate(-0.046 4.351)"/>
      <path id="Path_1244" data-name="Path 1244" class="cls-2" d="M20.248,72.763l-.875-2.423H16.917a3.509,3.509,0,0,0-3.507,3.512,3.388,3.388,0,0,0,.234,1.241.752.752,0,0,0,.094.234l.2.363.105.176a4.277,4.277,0,0,0,.362.421h0a3.746,3.746,0,0,0,.479.4l.152.094a3.129,3.129,0,0,0,.386.211l.21.082a2.337,2.337,0,0,0,.409.129h.2a2.931,2.931,0,0,0,.643.07h0a3.373,3.373,0,0,0,1.064-.176,3.513,3.513,0,0,0,2.3-4.332Z" transform="translate(2.08 10.917)"/>
      <path id="Path_1259" data-name="Path 1259" class="cls-2" d="M60.38,70.34h-2.5l-.85,2.391A3.446,3.446,0,0,0,59.322,77.1a3.527,3.527,0,0,0,1.082.173h0a2.98,2.98,0,0,0,.654-.069h.2a2.427,2.427,0,0,0,.416-.127l.214-.081a3.208,3.208,0,0,0,.392-.208l.155-.092a3.118,3.118,0,0,0,.487-.393h0a4.154,4.154,0,0,0,.357-.416l.107-.173.2-.358a1.9,1.9,0,0,0,.1-.231,3.256,3.256,0,0,0,.238-1.224,3.412,3.412,0,0,0-1-2.5,3.617,3.617,0,0,0-2.54-1.056Z" transform="translate(8.711 10.917)"/>
      <path id="Path_1274" data-name="Path 1274" class="cls-2" d="M36.368,6.135,38.586,7.96l2.172-1.825A3.465,3.465,0,0,0,41.22,1.26a3.663,3.663,0,0,0-.462-.474,3.05,3.05,0,0,0-.4-.266c-.058,0-.116-.092-.185-.127L39.88.278c-.115,0-.219-.1-.335-.139h-.069A3.465,3.465,0,0,0,38.251,0h-.219l-.439.081-.219.15a2.459,2.459,0,0,0-.4.162l-.162.116a2.368,2.368,0,0,0-.416.277,3.118,3.118,0,0,0-.485.474,3.465,3.465,0,0,0,.462,4.875Z" transform="translate(5.446 0.007)"/>
      <path id="Path_1276" data-name="Path 1276" class="cls-2" d="M70.488,31.53l-.728,2.318L71.574,35.4a3.386,3.386,0,0,0,4.875-.478,3.5,3.5,0,0,0,.635-1.2,2.863,2.863,0,0,0,.092-.43,2.294,2.294,0,0,0,0-.275,3.237,3.237,0,0,0,0-.335v-.359a2.484,2.484,0,0,0,0-.287,2.032,2.032,0,0,0-.069-.382,1.055,1.055,0,0,0-.127-.347,3.17,3.17,0,0,0-.116-.3c0-.1-.115-.179-.173-.275a2.788,2.788,0,0,0-.2-.311l-.173-.239a2.8,2.8,0,0,0-.312-.335,3.3,3.3,0,0,0-1.155-.669,3.361,3.361,0,0,0-2.654.231A3.557,3.557,0,0,0,70.488,31.53Z" transform="translate(10.82 4.383)"/>
    </g>
  </g>
</svg>
