<svg xmlns="http://www.w3.org/2000/svg" width="197.101" height="245.104" viewBox="0 0 197.101 245.104">
  <path id="Path_766" data-name="Path 766" d="M73.4,112.3h0m3.9-94.8A11.711,11.711,0,0,1,80,10.8a4.633,4.633,0,0,1,1.9-1.3A3.2,3.2,0,0,1,83.8,9a3.719,3.719,0,0,1,2,.5,6.252,6.252,0,0,1,2.8,2.8,13.089,13.089,0,0,1,1.5,6.4l.2,93.8a10.575,10.575,0,0,0,3.2,7.6,10.727,10.727,0,0,0,7.6,3.1h.6a10.906,10.906,0,0,0,7.6-3.1,10.727,10.727,0,0,0,3.1-7.6h0l-.2-70.7a18.464,18.464,0,0,1,.9-6.2,9.479,9.479,0,0,1,3.2-4.9,6.375,6.375,0,0,1,4.1-1.4,8.849,8.849,0,0,1,6.4,3.1c1.9,2.1,3.4,5.5,3.4,10.3V143.3a4.13,4.13,0,0,0,1.5,3.3,4.234,4.234,0,0,0,3,1.2h.4a13,13,0,0,0,4.5-1.2,19.6,19.6,0,0,0,6-4.6,64.714,64.714,0,0,0,6.3-8.8,50.052,50.052,0,0,1,5.7-7.6h0a56.891,56.891,0,0,1,13.1-10.4c3.7-2,6.6-2.7,8.8-2.7h0a7.382,7.382,0,0,1,3.6.8,9.023,9.023,0,0,1,2,1.4,9.349,9.349,0,0,1,2.1,3.5,13.755,13.755,0,0,1,.8,4.5,22.752,22.752,0,0,1-.2,2.6,79.415,79.415,0,0,0-15.4,16.9,174.6,174.6,0,0,0-14.9,26.1,4.875,4.875,0,0,0-.3.7h0a77.188,77.188,0,0,1-4.2,10.9c-4.4,9.7-12.4,24-25.1,35.7a78.169,78.169,0,0,1-22.7,14.8,76.982,76.982,0,0,1-30.9,6.1c-16.1,0-28.1-3.1-37.1-7.6A51.058,51.058,0,0,1,10.8,198a66.674,66.674,0,0,1-1.6-6.6,16.448,16.448,0,0,0-.3-1.8V67c0-3.9,1.1-6.5,2.4-8.1a6.268,6.268,0,0,1,2-1.7,4.919,4.919,0,0,1,2-.5,3.922,3.922,0,0,1,1.8.4A5.911,5.911,0,0,1,19.8,60a17.437,17.437,0,0,1,1.6,7.2l.7,45.6a10.756,10.756,0,0,0,10.7,10.6h0a10.586,10.586,0,0,0,10.7-10.7h0l-.4-77.1a16.239,16.239,0,0,1,.7-4.8,7.838,7.838,0,0,1,2.3-3.7,3.925,3.925,0,0,1,2.6-.9,4.987,4.987,0,0,1,3.8,1.9A9.648,9.648,0,0,1,54.1,31a14.841,14.841,0,0,1,.7,4.6h0l.3,77.2a10.755,10.755,0,0,0,10.8,10.7h.9a10.906,10.906,0,0,0,7.6-3.1,10.727,10.727,0,0,0,3.1-7.6h0l-.2-95.3M83.8,0h0a12.97,12.97,0,0,0-5.5,1.2A16.831,16.831,0,0,0,71.6,7a23.707,23.707,0,0,0-3.3,9.7v.5l.2,95.1h0a1.707,1.707,0,0,1-1.7,1.7h-.9a1.707,1.707,0,0,1-1.7-1.7l-.3-77.2h0a25.636,25.636,0,0,0-1.1-7.5,16.039,16.039,0,0,0-5.5-8,13.692,13.692,0,0,0-8.4-3h0a12.83,12.83,0,0,0-5.7,1.3,14.59,14.59,0,0,0-6.5,6.5,23.165,23.165,0,0,0-2.4,10.7h0l.4,77.1h0a1.7,1.7,0,0,1-3.4,0l-.7-45.6v-.1a27.791,27.791,0,0,0-1.3-7.9,17.779,17.779,0,0,0-5.4-8.4,13.212,13.212,0,0,0-8.4-3.1h0a13.9,13.9,0,0,0-6,1.4,15.934,15.934,0,0,0-6.8,6.8,23.5,23.5,0,0,0-2.5,11V189l4.5-.3-4.7.5a42.114,42.114,0,0,0,1.7,9,61.9,61.9,0,0,0,5.7,13.9,60.182,60.182,0,0,0,22.1,22.4c10.8,6.3,25.4,10.6,44.8,10.6h.1a85.473,85.473,0,0,0,44-11.7,95.032,95.032,0,0,0,22.5-18.6,121.22,121.22,0,0,0,19.3-29.4,128.4,128.4,0,0,0,5.6-13.9,159.241,159.241,0,0,1,14-24.4c4.8-6.8,9.8-12.2,14.8-15.9a4.606,4.606,0,0,0,1.6-2.3,23.718,23.718,0,0,0,.9-6.5,22.4,22.4,0,0,0-1-6.8,17.942,17.942,0,0,0-5.7-8.7,14.194,14.194,0,0,0-4.8-2.7,18.711,18.711,0,0,0-5.9-1h0a27.733,27.733,0,0,0-13.1,3.8,69.935,69.935,0,0,0-15.2,12,42.391,42.391,0,0,0-5.4,6.8c-2.4,3.5-4.4,7-6.4,9.3-.1.1-.1.2-.2.3V42.6c0-6.7-2.1-12.4-5.6-16.3a17.8,17.8,0,0,0-13.1-6.1h0a17,17,0,0,0-6.6,1.4,16.4,16.4,0,0,0-7.7,7.5,25.789,25.789,0,0,0-2.9,12.6h0l.2,70.6h0A1.707,1.707,0,0,1,102,114h-.6a1.707,1.707,0,0,1-1.7-1.7l-.2-93.8v-.1a25.6,25.6,0,0,0-1.3-7.5,16.85,16.85,0,0,0-5.6-8A15.661,15.661,0,0,0,83.8,0" transform="translate(0 0)" fill="#cf1f26"/>
</svg>
