<svg xmlns="http://www.w3.org/2000/svg" width="1343.702" height="1326.859" viewBox="0 0 1343.702 1326.859">
  <g id="Group_2268" data-name="Group 2268" transform="translate(762.326 285.594)">
    <path id="products" d="M1319.092,374.284l-79.1-97.09V273.6a297.18,297.18,0,0,0,71.92-251.7A31.868,31.868,0,0,0,1275.974.5a31.868,31.868,0,0,0-21.58,35.938,233.753,233.753,0,0,1-53.929,194.137L1096.2,104.594A113.812,113.812,0,0,0,984.747,68.655L758.217,119a243.689,243.689,0,0,0-97.09,46.75L57.092,651.11A144.979,144.979,0,0,0,28.332,852.47l352.336,427.846a137.67,137.67,0,0,0,86.322,46.531h14.4a171.812,171.812,0,0,0,100.68-35.938L1168.116,819.9a257,257,0,0,0,75.51-100.68L1333.493,489.1A108.559,108.559,0,0,0,1319.092,374.284Zm-39.4,89.868-89.868,230.119a193,193,0,0,1-57.519,75.51L546.089,1237.2a109.917,109.917,0,0,1-71.92,25.17,61.284,61.284,0,0,1-46.75-25.17h0L75.083,812.9A87.767,87.767,0,0,1,96.663,694.227L697.109,212.5a183.851,183.851,0,0,1,75.51-35.938l226.53-50.34h14.4a57.737,57.737,0,0,1,39.4,17.991l107.946,132.985a255.2,255.2,0,0,1-50.34,35.938,131.322,131.322,0,0,0-186.958-10.593,135.087,135.087,0,0,0-50.34,93.5,144.455,144.455,0,0,0,28.759,100.68A129.527,129.527,0,0,0,1006.371,543.3a145.285,145.285,0,0,0,89.868-32.349,135.087,135.087,0,0,0,50.208-93.545,115.433,115.433,0,0,0-3.589-50.34,236.377,236.377,0,0,0,61.283-43.161l79.1,93.5a73.235,73.235,0,0,1-3.677,46.75Zm-197.9-60.933a80.5,80.5,0,0,1-28.759,53.929h0a75.582,75.582,0,0,1-125.85-61.108,80.5,80.5,0,0,1,28.8-54.1,67.281,67.281,0,0,1,50.384-17.991,72.27,72.27,0,0,1,46.75,14.4,77.174,77.174,0,0,0-25.17,14.4,30.248,30.248,0,0,0-14.4,39.4,28.453,28.453,0,0,0,28.759,17.991,13.132,13.132,0,0,0,10.768-3.589s14.4-7.179,32.349-14.4A13.132,13.132,0,0,0,1081.794,403.219Z" transform="translate(-762.336 -285.582)" fill="#ed037c"/>
  </g>
</svg>
