<svg xmlns="http://www.w3.org/2000/svg" viewBox="0 0 30.7 30.324">
  <defs>
    <style>
      .cls-1 {
        fill: #00a3d2;
      }
    </style>
  </defs>
  <path id="Path_1637" data-name="Path 1637" class="cls-1" d="M30.144,8.539,28.337,6.321V6.239A6.789,6.789,0,0,0,29.98.489.728.728,0,0,0,29.159,0a.728.728,0,0,0-.493.821,5.34,5.34,0,0,1-1.232,4.435L25.052,2.378a2.6,2.6,0,0,0-2.546-.821l-5.175,1.15a5.567,5.567,0,0,0-2.218,1.068L1.314,14.863a3.312,3.312,0,0,0-.657,4.6l8.049,9.774A3.145,3.145,0,0,0,10.678,30.3h.329a3.925,3.925,0,0,0,2.3-.821l13.388-10.76a5.871,5.871,0,0,0,1.725-2.3l2.053-5.257A2.48,2.48,0,0,0,30.144,8.539Zm-.9,2.053-2.053,5.257a4.409,4.409,0,0,1-1.314,1.725L12.485,28.252a2.511,2.511,0,0,1-1.643.575,1.4,1.4,0,0,1-1.068-.575h0L1.725,18.559a2.005,2.005,0,0,1,.493-2.711L15.935,4.843a4.2,4.2,0,0,1,1.725-.821l5.175-1.15h.329a1.319,1.319,0,0,1,.9.411L26.53,6.321a5.83,5.83,0,0,1-1.15.821A3,3,0,0,0,21.109,6.9a3.086,3.086,0,0,0-1.15,2.136,3.3,3.3,0,0,0,.657,2.3A2.959,2.959,0,0,0,23,12.4a3.319,3.319,0,0,0,2.053-.739A3.086,3.086,0,0,0,26.2,9.524a2.637,2.637,0,0,0-.082-1.15,5.4,5.4,0,0,0,1.4-.986l1.807,2.136A1.673,1.673,0,0,1,29.241,10.592ZM24.723,9.2a1.839,1.839,0,0,1-.657,1.232h0a1.711,1.711,0,0,1-2.464-.164,1.728,1.728,0,0,1-.411-1.232A1.839,1.839,0,0,1,21.849,7.8,1.537,1.537,0,0,1,23,7.389a1.651,1.651,0,0,1,1.068.329,1.763,1.763,0,0,0-.575.329.691.691,0,0,0-.329.9.65.65,0,0,0,.657.411.3.3,0,0,0,.246-.082s.329-.164.739-.329A.3.3,0,0,0,24.723,9.2Z" transform="translate(-0.001 0.019)"/>
</svg>
