<?xml version="1.0" encoding="UTF-8" standalone="no"?>
<!DOCTYPE svg PUBLIC "-//W3C//DTD SVG 1.1//EN" "http://www.w3.org/Graphics/SVG/1.1/DTD/svg11.dtd">
<svg width="100%" height="100%" viewBox="0 0 2053 2053" version="1.1" xmlns="http://www.w3.org/2000/svg" xmlns:xlink="http://www.w3.org/1999/xlink" xml:space="preserve" xmlns:serif="http://www.serif.com/" style="fill-rule:evenodd;clip-rule:evenodd;stroke-linejoin:round;stroke-miterlimit:2;">
    <g transform="matrix(1,0,0,1,-281.663,-533.193)">
        <g>
            <g transform="matrix(0.738837,0,0,0.738837,1307.99,1559.52)">
                <g transform="matrix(1,0,0,1,-1008.05,-1008)">
                    <clipPath id="_clip1">
                        <rect x="0" y="0" width="2016.1" height="2016"/>
                    </clipPath>
                    <g clip-path="url(#_clip1)">
                        <g id="Rectangle_65" transform="matrix(1,0,0,1,1344,960)">
                            <rect x="0" y="0" width="96" height="96" style="fill:rgb(0,163,210);"/>
                        </g>
                        <g id="Rectangle_66" transform="matrix(1,0,0,1,1440,960)">
                            <rect x="0" y="0" width="96" height="96" style="fill:rgb(0,163,210);"/>
                        </g>
                        <g id="Rectangle_67" transform="matrix(1,0,0,1,1632,960)">
                            <rect x="0" y="0" width="96" height="96" style="fill:rgb(0,163,210);"/>
                        </g>
                        <path id="Path_909" d="M1776,1056L1728,1056L1728,960L1776,960C1802.33,960 1824,981.668 1824,1008C1824,1034.33 1802.33,1056 1776,1056Z" style="fill:rgb(0,163,210);fill-rule:nonzero;"/>
                        <path id="Path_910" d="M1920,1008L1920,960L2016,960L2016,1008C2016,1034.33 1994.33,1056 1968,1056C1941.67,1056 1920,1034.33 1920,1008Z" style="fill:rgb(0,163,210);fill-rule:nonzero;"/>
                        <path id="Path_911" d="M1440,1152L1440,1056L1344,1056C1344.01,1108.66 1387.34,1151.99 1440,1152Z" style="fill:rgb(0,163,210);fill-rule:nonzero;"/>
                        <g id="Rectangle_68" transform="matrix(1,0,0,1,1440,1056)">
                            <rect x="0" y="0" width="96" height="96" style="fill:rgb(0,163,210);"/>
                        </g>
                        <g id="Rectangle_69" transform="matrix(1,0,0,1,1536,1056)">
                            <rect x="0" y="0" width="96" height="96" style="fill:rgb(0,163,210);"/>
                        </g>
                        <path id="Path_912" d="M1728,1056L1632,1056L1632,1152C1684.66,1151.99 1727.99,1108.66 1728,1056Z" style="fill:rgb(0,163,210);fill-rule:nonzero;"/>
                        <path id="Path_913" d="M1920,1104L1920,1152L1824,1152L1824,1104C1824,1077.67 1845.67,1056 1872,1056C1898.33,1056 1920,1077.67 1920,1104Z" style="fill:rgb(0,163,210);fill-rule:nonzero;"/>
                        <path id="Path_914" d="M1536,1248L1536,1152L1440,1152C1440.01,1204.66 1483.34,1247.99 1536,1248Z" style="fill:rgb(0,163,210);fill-rule:nonzero;"/>
                        <g id="Rectangle_70" transform="matrix(1,0,0,1,1536,1152)">
                            <rect x="0" y="0" width="96" height="96" style="fill:rgb(0,163,210);"/>
                        </g>
                        <g id="Rectangle_71" transform="matrix(1,0,0,1,1824,1152)">
                            <rect x="0" y="0" width="96" height="96" style="fill:rgb(0,163,210);"/>
                        </g>
                        <path id="Path_915" d="M1968,1248L1920,1248L1920,1152L1968,1152C1994.33,1152 2016,1173.67 2016,1200C2016,1226.33 1994.33,1248 1968,1248Z" style="fill:rgb(0,163,210);fill-rule:nonzero;"/>
                        <g id="Rectangle_72" transform="matrix(1,0,0,1,1248,1248)">
                            <rect x="0" y="0" width="96" height="96" style="fill:rgb(0,163,210);"/>
                        </g>
                        <path id="Path_916" d="M1392,1344L1344,1344L1344,1248L1392,1248C1418.33,1248 1440,1269.67 1440,1296C1440,1322.33 1418.33,1344 1392,1344Z" style="fill:rgb(0,163,210);fill-rule:nonzero;"/>
                        <g id="Rectangle_73" transform="matrix(1,0,0,1,1536,1248)">
                            <rect x="0" y="0" width="96" height="96" style="fill:rgb(0,163,210);"/>
                        </g>
                        <path id="Path_917" d="M1728,1344L1824,1344L1824,1248C1771.34,1248.01 1728.01,1291.34 1728,1344Z" style="fill:rgb(0,163,210);fill-rule:nonzero;"/>
                        <g id="Rectangle_74" transform="matrix(1,0,0,1,1824,1248)">
                            <rect x="0" y="0" width="96" height="96" style="fill:rgb(0,163,210);"/>
                        </g>
                        <g id="Group_2089">
                            <g id="Ellipse_12" transform="matrix(1,0,0,1,0,768)">
                                <circle cx="48" cy="48" r="48" style="fill:rgb(0,163,210);"/>
                            </g>
                            <path id="Path_918" d="M624,864C650.332,864 672,842.332 672,816C672,789.668 650.332,768 624,768L576,768C523.341,768.014 480.014,811.341 480,864L384,864L384,816C384,789.668 362.332,768 336,768C309.668,768 288,789.668 288,816L288,1056L192,1056L192,912C192,885.668 170.332,864 144,864C117.668,864 96,885.668 96,912L96,960L48,960C21.668,960 0,981.668 0,1008C0,1034.33 21.668,1056 48,1056L96,1056C96.014,1108.66 139.341,1151.99 192,1152L192,1200C192,1226.33 213.668,1248 240,1248C266.332,1248 288,1226.33 288,1200L288,1152C340.659,1151.99 383.986,1108.66 384,1056L384,960L480,960C532.659,959.986 575.986,916.659 576,864L624,864Z" style="fill:rgb(0,163,210);fill-rule:nonzero;"/>
                            <path id="Path_919" d="M1872,960L2016,960C2015.99,907.341 1972.66,864.014 1920,864L1872,864C1845.67,864 1824,885.668 1824,912C1824,938.332 1845.67,960 1872,960Z" style="fill:rgb(0,163,210);fill-rule:nonzero;"/>
                            <g id="Ellipse_13" transform="matrix(1,0,0,1,576,960)">
                                <circle cx="48" cy="48" r="48" style="fill:rgb(0,163,210);"/>
                            </g>
                            <g id="Ellipse_14" transform="matrix(1,0,0,1,0,1152)">
                                <circle cx="48" cy="48" r="48" style="fill:rgb(0,163,210);"/>
                            </g>
                            <g id="Ellipse_15" transform="matrix(1,0,0,1,384,1152)">
                                <circle cx="48" cy="48" r="48" style="fill:rgb(0,163,210);"/>
                            </g>
                            <g id="Ellipse_16" transform="matrix(1,0,0,1,576,1152)">
                                <circle cx="48" cy="48" r="48" style="fill:rgb(0,163,210);"/>
                            </g>
                            <path id="Path_920" d="M1968,1440L1920,1440L1920,1344L1536,1344C1483.34,1344.01 1440.01,1387.34 1440,1440L1440,1488C1440,1514.33 1461.67,1536 1488,1536C1514.33,1536 1536,1514.33 1536,1488L1536,1440L1824,1440C1824.01,1492.66 1867.34,1535.99 1920,1536L1968,1536C1994.33,1536 2016,1514.33 2016,1488C2016,1461.67 1994.33,1440 1968,1440Z" style="fill:rgb(0,163,210);fill-rule:nonzero;"/>
                            <path id="Path_921" d="M1920,1632L1872,1632C1845.67,1632 1824,1653.67 1824,1680C1824,1706.33 1845.67,1728 1872,1728L1920,1728L1920,1776C1920,1802.33 1941.67,1824 1968,1824C1994.33,1824 2016,1802.33 2016,1776L2016,1728C2015.99,1675.34 1972.66,1632.01 1920,1632Z" style="fill:rgb(0,163,210);fill-rule:nonzero;"/>
                            <g id="Ellipse_17" transform="matrix(1,0,0,1,1344,1728)">
                                <circle cx="48" cy="48" r="48" style="fill:rgb(0,163,210);"/>
                            </g>
                            <path id="Path_922" d="M1776,1728L1728,1728L1728,1584C1728,1557.67 1706.33,1536 1680,1536C1653.67,1536 1632,1557.67 1632,1584L1632,1632L1488,1632C1461.67,1632 1440,1653.67 1440,1680C1440,1706.33 1461.67,1728 1488,1728L1536,1728L1536,1920L1392,1920C1365.67,1920 1344,1941.67 1344,1968C1344,1994.33 1365.67,2016 1392,2016L1680,2016C1706.33,2016 1728,1994.33 1728,1968C1728,1941.67 1706.33,1920 1680,1920L1632,1920L1632,1824L1776,1824C1802.33,1824 1824,1802.33 1824,1776C1824,1749.67 1802.33,1728 1776,1728Z" style="fill:rgb(0,163,210);fill-rule:nonzero;"/>
                            <g id="Ellipse_18" transform="matrix(1,0,0,1,1248,1824)">
                                <circle cx="48" cy="48" r="48" style="fill:rgb(0,163,210);"/>
                            </g>
                            <path id="Path_923" d="M1104,384L1152,384L1152,432C1152,458.332 1173.67,480 1200,480C1226.33,480 1248,458.332 1248,432L1248,144C1248,117.668 1226.33,96 1200,96C1173.67,96 1152,117.668 1152,144L1152,288L1104,288C1077.67,288 1056,309.668 1056,336C1056,362.332 1077.67,384 1104,384Z" style="fill:rgb(0,163,210);fill-rule:nonzero;"/>
                            <path id="Path_924" d="M912,192C885.668,192 864,213.668 864,240C864,266.332 885.668,288 912,288L960,288C1012.66,287.986 1055.99,244.659 1056,192L1056,96C1055.99,43.341 1012.66,0.014 960,0L912,0C885.668,0 864,21.668 864,48C864,74.332 885.668,96 912,96L960,96L960,192L912,192Z" style="fill:rgb(0,163,210);fill-rule:nonzero;"/>
                            <path id="Path_925" d="M816,672C842.33,671.993 863.993,650.33 864,624L864,528C864,501.668 842.332,480 816,480C789.668,480 768,501.668 768,528L768,624C768.007,650.33 789.67,671.993 816,672Z" style="fill:rgb(0,163,210);fill-rule:nonzero;"/>
                            <path id="Path_926" d="M960,1824L1152,1824C1204.66,1823.99 1247.99,1780.66 1248,1728L1248,1632L1296,1632C1322.33,1632 1344,1610.33 1344,1584C1344,1557.67 1322.33,1536 1296,1536L1248,1536L1248,1248C1247.99,1195.34 1204.66,1152.01 1152,1152L1152,1056C1204.66,1055.99 1247.99,1012.66 1248,960L1728,960C1727.99,907.341 1684.66,864.014 1632,864L1536,864L1536,816C1536,789.668 1514.33,768 1488,768C1461.67,768 1440,789.668 1440,816L1440,864L1344,864C1343.99,811.341 1300.66,768.014 1248,768L1248,624C1248,597.668 1226.33,576 1200,576C1173.67,576 1152,597.668 1152,624L1152,768L1104,768C1077.67,768 1056,789.668 1056,816C1056,842.332 1077.67,864 1104,864L1152,864L1152,960C1099.34,960.014 1056.01,1003.34 1056,1056L1056,1152L960,1152L960,912C960,885.668 938.332,864 912,864C885.668,864 864,885.668 864,912L864,960C811.341,960.014 768.014,1003.34 768,1056L720,1056C693.668,1056 672,1077.67 672,1104C672,1130.33 693.668,1152 720,1152L864,1152C864.014,1204.66 907.341,1247.99 960,1248C960.014,1300.66 1003.34,1343.99 1056,1344L1152,1344L1152,1536L1104,1536C1077.67,1536 1056,1557.67 1056,1584C1056,1610.33 1077.67,1632 1104,1632L1152,1632L1152,1728L1056,1728C1055.99,1675.34 1012.66,1632.01 960,1632L960,1536L1008,1536C1034.33,1536 1056,1514.33 1056,1488C1056,1461.67 1034.33,1440 1008,1440L960,1440L960,1392C960,1365.67 938.332,1344 912,1344C885.668,1344 864,1365.67 864,1392L864,1440L816,1440C789.668,1440 768,1461.67 768,1488C768,1514.33 789.668,1536 816,1536L864,1536L864,1632L816,1632C789.668,1632 768,1653.67 768,1680C768,1706.33 789.668,1728 816,1728L864,1728C864.014,1780.66 907.341,1823.99 960,1824Z" style="fill:rgb(0,163,210);fill-rule:nonzero;"/>
                            <path id="Path_927" d="M912,672C885.668,672 864,693.668 864,720C864,746.332 885.668,768 912,768L960,768C1012.66,767.986 1055.99,724.659 1056,672L1056,624C1056,597.668 1034.33,576 1008,576C981.668,576 960,597.668 960,624L960,672L912,672Z" style="fill:rgb(0,163,210);fill-rule:nonzero;"/>
                            <g id="Ellipse_19" transform="matrix(1,0,0,1,768,768)">
                                <circle cx="48" cy="48" r="48" style="fill:rgb(0,163,210);"/>
                            </g>
                            <g id="Ellipse_20" transform="matrix(1,0,0,1,768,1248)">
                                <circle cx="48" cy="48" r="48" style="fill:rgb(0,163,210);"/>
                            </g>
                            <g id="Ellipse_21" transform="matrix(1,0,0,1,768,1920)">
                                <circle cx="48" cy="48" r="48" style="fill:rgb(0,163,210);"/>
                            </g>
                            <path id="Path_928" d="M1200,1920L1008,1920C981.668,1920 960,1941.67 960,1968C960,1994.33 981.668,2016 1008,2016L1200,2016C1226.33,2016 1248,1994.33 1248,1968C1248,1941.67 1226.33,1920 1200,1920Z" style="fill:rgb(0,163,210);fill-rule:nonzero;"/>
                            <g id="Ellipse_22" transform="matrix(1,0,0,1,1824,1920)">
                                <circle cx="48" cy="48" r="48" style="fill:rgb(0,163,210);"/>
                            </g>
                        </g>
                        <path id="Path_929" d="M442.6,100.9L229.4,100.9C203.066,100.88 177.333,108.83 155.6,123.7C139.351,134.842 125.899,149.594 116.3,166.8C106.085,185.148 100.715,205.8 100.7,226.8L100.7,445C100.7,514.5 158.4,571.1 229.4,571.1L442.4,571.1C513.4,571.1 571.1,514.5 571.1,445L571.1,226.9C571.2,157.4 513.5,100.9 442.6,100.9Z" style="fill:none;fill-rule:nonzero;"/>
                        <path id="Path_930" d="M442.6,0.1L229.4,0.1C125.5,0.1 37.5,68.7 9.4,162.5C3.092,183.382 -0.076,205.086 0,226.9L0,445.1C0,570.2 103,672 229.4,672L442.6,672C569,671.9 672,570.2 672,445.1L672,226.9C672,101.8 569,0.1 442.6,0.1ZM571.2,445.1C571.2,514.6 513.5,571.2 442.5,571.2L229.5,571.2C158.5,571.2 100.8,514.6 100.8,445.1L100.8,226.9C100.768,205.907 106.105,185.251 116.3,166.9C125.844,149.655 139.307,134.89 155.6,123.8C177.305,108.873 203.057,100.917 229.4,101L442.6,101C513.5,101 571.2,157.5 571.2,227L571.2,445.1Z" style="fill:rgb(0,163,210);fill-rule:nonzero;"/>
                        <path id="Path_931" d="M1786.6,100.9L1573.5,100.9C1547.17,100.88 1521.43,108.83 1499.7,123.7C1483.45,134.842 1470,149.594 1460.4,166.8C1450.18,185.148 1444.82,205.8 1444.8,226.8L1444.8,445C1444.8,514.5 1502.5,571.1 1573.5,571.1L1786.5,571.1C1857.5,571.1 1915.2,514.5 1915.2,445L1915.2,226.9C1915.2,157.4 1857.5,100.9 1786.6,100.9Z" style="fill:none;fill-rule:nonzero;"/>
                        <path id="Path_932" d="M1786.6,0.1L1573.5,0.1C1469.6,0.1 1381.6,68.7 1353.5,162.5C1350.56,172.302 1348.29,182.292 1346.7,192.4C1344.97,203.819 1344.1,215.351 1344.1,226.9L1344.1,445.1C1344.1,570.2 1447.1,672 1573.5,672L1786.7,672C1913.2,672 2016.1,570.3 2016.1,445.1L2016.1,226.9C2016,101.8 1913,0.1 1786.6,0.1ZM1915.2,445.1C1915.2,514.6 1857.5,571.2 1786.5,571.2L1573.5,571.2C1502.5,571.2 1444.8,514.6 1444.8,445.1L1444.8,226.9C1444.77,205.907 1450.11,185.251 1460.3,166.9C1469.84,149.655 1483.31,134.89 1499.6,123.8C1521.31,108.873 1547.06,100.917 1573.4,101L1786.6,101C1857.5,101 1915.2,157.5 1915.2,227L1915.2,445.1Z" style="fill:rgb(0,163,210);fill-rule:nonzero;"/>
                        <path id="Path_933" d="M442.6,1444.9L229.4,1444.9C203.066,1444.88 177.333,1452.83 155.6,1467.7C139.351,1478.84 125.899,1493.59 116.3,1510.8C106.085,1529.15 100.715,1549.8 100.7,1570.8L100.7,1789C100.7,1858.5 158.4,1915.1 229.4,1915.1L442.4,1915.1C513.4,1915.1 571.1,1858.5 571.1,1789L571.1,1570.8C571.2,1501.4 513.5,1444.9 442.6,1444.9Z" style="fill:none;fill-rule:nonzero;"/>
                        <path id="Path_934" d="M442.6,1344.1L229.4,1344.1C125.5,1344.1 37.5,1412.7 9.4,1506.5C6.464,1516.3 4.192,1526.29 2.6,1536.4C0.871,1547.82 0.001,1559.35 0,1570.9L0,1789.1C0,1914.2 103,2016 229.4,2016L442.6,2016C569.1,2016 672,1914.3 672,1789.1L672,1570.9C672,1445.8 569,1344.1 442.6,1344.1ZM571.2,1789.1C571.2,1858.6 513.5,1915.2 442.5,1915.2L229.5,1915.2C158.5,1915.2 100.8,1858.6 100.8,1789.1L100.8,1570.9C100.768,1549.91 106.105,1529.25 116.3,1510.9C125.844,1493.65 139.307,1478.89 155.6,1467.8C177.305,1452.87 203.057,1444.92 229.4,1445L442.6,1445C513.5,1445 571.2,1501.5 571.2,1571L571.2,1789.1Z" style="fill:rgb(0,163,210);fill-rule:nonzero;"/>
                        <path id="Path_935" d="M270.8,480C227.3,480 192,445.3 192,402.8L192,269.2C192.035,243.891 204.639,220.184 225.6,206C238.897,196.861 254.665,191.977 270.8,192L401.3,192C444.7,192 480.1,226.6 480.1,269.2L480.1,402.8C480.1,445.4 444.8,480 401.3,480L270.8,480Z" style="fill:rgb(0,163,210);fill-rule:nonzero;"/>
                        <path id="Path_936" d="M1614.8,480C1571.3,480 1536,445.3 1536,402.8L1536,269.2C1536.04,243.891 1548.64,220.184 1569.6,206C1582.9,196.861 1598.66,191.977 1614.8,192L1745.3,192C1788.7,192 1824.1,226.6 1824.1,269.2L1824.1,402.8C1824.1,445.4 1788.8,480 1745.3,480L1614.8,480Z" style="fill:rgb(0,163,210);fill-rule:nonzero;"/>
                        <path id="Path_937" d="M270.8,1824C227.3,1824 192,1789.3 192,1746.8L192,1613.2C192.035,1587.89 204.639,1564.18 225.6,1550C238.897,1540.86 254.665,1535.98 270.8,1536L401.3,1536C444.7,1536 480.1,1570.6 480.1,1613.2L480.1,1746.8C480.1,1789.4 444.8,1824 401.3,1824L270.8,1824Z" style="fill:rgb(0,163,210);fill-rule:nonzero;"/>
                    </g>
                </g>
            </g>
            <path d="M2322.93,954.308C2328.49,989.981 2333.35,1026.96 2334.31,1064.07L2334.31,2054.97C2334.31,2347.97 2096.44,2585.85 1803.44,2585.85L1632.73,2585.85C1581.83,2585.95 1581.44,2515.86 1632.73,2515.01L1803.44,2515.01C2057.34,2515.01 2263.48,2308.88 2263.48,2054.97L2263.48,1064.07C2263.48,1026.23 2264.89,990.193 2259.24,954.239C2252.79,913.202 2312.96,908.458 2322.93,954.308ZM988.214,533.195C1032.42,532.797 1036.55,604.039 988.214,604.028L812.533,604.028C558.632,604.028 352.496,810.164 352.496,1064.07C352.496,1064.07 352.496,2054.97 352.496,2054.97C354.504,2092.79 355.843,2129.23 356.871,2164.52C358.403,2217.14 287.871,2214.88 284.231,2164.52C281.687,2129.32 281.663,2092.48 281.663,2054.97C281.663,2054.97 281.663,1064.07 281.663,1064.07C281.663,771.07 519.538,533.195 812.533,533.195L988.214,533.195Z" style="fill:rgb(244,42,123);"/>
        </g>
    </g>
</svg>
