<svg xmlns="http://www.w3.org/2000/svg" viewBox="0 0 45.981 40.09">
  <defs>
    <style>
      .cls-1 {
        fill: #41000f;
      }
    </style>
  </defs>
  <path id="Path_1651" data-name="Path 1651" class="cls-1" d="M45.9,19.227h0v-.245h0v-.164L41.154.491A.738.738,0,0,0,40.663,0h-.327L4.991,8.1H4.909a.6.6,0,0,0-.573.491L0,27.081H0v.082H0v.327H0v.082c.245.655,1.636,4.582,5.4,4.582h.164c3.764-.082,5.073-4.173,5.236-4.827v-.082h0v-.164h0V27h0v-.082h0L5.727,9.245,22.5,5.4V34.608l-4.827,4.418a.636.636,0,0,0-.164.655.615.615,0,0,0,.573.409h9.736a.615.615,0,0,0,.573-.409.636.636,0,0,0-.164-.655l-4.5-4.418V5.073L39.681,1.391l-4.5,17.427h0V18.9h0v.245h0v.164c.245.736,1.555,4.745,5.4,4.745h0c3.764,0,5.154-4.009,5.4-4.664-.082-.082-.082-.082-.082-.164ZM19.718,38.863l3.436-3.109h0l3.273,3.109ZM44.426,17.918c-.082,0-.245-.082-.327-.082a22.223,22.223,0,0,0-3.518-.245H40.5a20.345,20.345,0,0,0-3.845.327L40.581,3.109Zm-.409,1.145a16.355,16.355,0,0,1-3.518.327h0a16.355,16.355,0,0,1-3.518-.327,16.355,16.355,0,0,1,3.518-.327h0A15.76,15.76,0,0,1,44.017,19.063ZM4.991,11.127,9.245,25.854A20.25,20.25,0,0,0,5.4,25.609a15.491,15.491,0,0,0-3.845.491ZM8.918,27.081A21.821,21.821,0,0,1,5.4,27.49a17.748,17.748,0,0,1-3.518-.245A21.821,21.821,0,0,1,5.4,26.836,17.748,17.748,0,0,1,8.918,27.081ZM5.482,30.927H5.4a4.351,4.351,0,0,1-3.6-2.373,16.919,16.919,0,0,0,2.864.245H5.4A13.516,13.516,0,0,0,9,28.39,4.056,4.056,0,0,1,5.482,30.927Zm35.017-8.1h0a4.125,4.125,0,0,1-3.6-2.536,18.411,18.411,0,0,0,3.6.327h.082a18.411,18.411,0,0,0,3.6-.327A4.358,4.358,0,0,1,40.5,22.827Z"/>
</svg>
