<svg xmlns="http://www.w3.org/2000/svg" viewBox="0 0 219.599 205">
  <defs>
    <style>
      .cls-1 {
        fill: #63b190;
      }

      .cls-2 {
        fill: #ed037c;
      }
    </style>
  </defs>
  <g id="Group_1623" data-name="Group 1623" transform="translate(-0.001)">
    <path id="Path_633" data-name="Path 633" class="cls-1" d="M118.1,56.6a4.481,4.481,0,0,0-4.5,4.5v43.8a4.5,4.5,0,0,0,2.7,4.1l39.3,16.7a4.5,4.5,0,0,0,3.5-8.3l-36.6-15.6V61.1A4.337,4.337,0,0,0,118.1,56.6Z"/>
    <path id="Path_634" data-name="Path 634" class="cls-2" d="M217.3,81.1a101.624,101.624,0,0,0-36.1-58.6A102.791,102.791,0,0,0,117.2,0,98.01,98.01,0,0,0,95.8,2.3,102.279,102.279,0,0,0,18.6,74.4H1.9A1.9,1.9,0,0,0,.3,77.3L21,108.9a1.915,1.915,0,0,0,3.2,0L45,77.3a1.879,1.879,0,0,0-1.6-2.9H28.1A91.323,91.323,0,0,1,51.2,36.3a93.457,93.457,0,1,1-2.4,129.8,4.556,4.556,0,0,0-6.4-.2,4.467,4.467,0,0,0-.2,6.4A102.463,102.463,0,0,0,117.1,205a98.01,98.01,0,0,0,21.4-2.3,102.367,102.367,0,0,0,81.1-100.1A98.908,98.908,0,0,0,217.3,81.1Z"/>
  </g>
</svg>
