<svg xmlns="http://www.w3.org/2000/svg" width="250.981" height="233.7" viewBox="0 0 250.981 233.7">
  <g id="Group_2250" data-name="Group 2250" transform="translate(200 272)">
    <g id="Group_2249" data-name="Group 2249" transform="translate(-200.019 -272)">
      <path id="Path_624" data-name="Path 624" d="M248.4,92.5A116.914,116.914,0,0,0,134.3,0a113.128,113.128,0,0,0-24.4,2.6A115.722,115.722,0,0,0,51.8,34.1,116.9,116.9,0,0,0,22,84.6H2.2A2.176,2.176,0,0,0,.4,88L24,124.2a2.149,2.149,0,0,0,3.6,0L51.5,88a2.192,2.192,0,0,0-1.8-3.4H31.4A108.2,108.2,0,0,1,58.2,40.4a106.21,106.21,0,0,1,53.6-29,107.234,107.234,0,0,1,89.8,21.3,106.919,106.919,0,0,1,38,61.7,107.234,107.234,0,0,1-21.3,89.8,106.919,106.919,0,0,1-61.7,38,109,109,0,0,1-22.5,2.4,107.893,107.893,0,0,1-78.8-34.4,4.528,4.528,0,0,0-6.6,6.2,116.888,116.888,0,0,0,85.4,37.3,113.127,113.127,0,0,0,24.4-2.6A116.914,116.914,0,0,0,251,117,113.372,113.372,0,0,0,248.4,92.5Z" fill="#ed037c"/>
    </g>
    <g id="logs" transform="translate(-137 -391.003)">
      <path id="Path_1162" data-name="Path 1162" d="M40.913,370.978c-1.278,0-2.314,1.4-2.314,3.123s1.036,3.123,2.314,3.123c7.181,0,13.023-8.891,13.023-19.819s-5.842-19.819-13.023-19.819S27.89,346.476,27.89,357.4c0,1.725,1.036,3.123,2.314,3.123s2.314-1.4,2.314-3.123c0-7.484,3.766-13.573,8.395-13.573s8.395,6.089,8.395,13.573S45.542,370.978,40.913,370.978Z" transform="translate(-19.284 -94.22)" fill="#00a3d2"/>
      <path id="Path_1163" data-name="Path 1163" d="M120.463,247.952c1.278,0,2.314-1.4,2.314-3.123s-1.036-3.123-2.314-3.123c-4.665,0-8.46-6.134-8.46-13.675s3.795-13.675,8.46-13.675,8.46,6.134,8.46,13.675c0,1.725,1.036,3.123,2.314,3.123s2.314-1.4,2.314-3.123c0-10.985-5.871-19.921-13.088-19.921s-13.088,8.936-13.088,19.921S113.246,247.952,120.463,247.952Z" transform="translate(-74.242 -18.661)" fill="#00a3d2"/>
      <path id="Path_1164" data-name="Path 1164" d="M136.36,229.947h-7.97a45.507,45.507,0,0,0,4.629-20.579,48.287,48.287,0,0,0-2.046-14.137c-.488-1.594-1.842-2.353-3.022-1.7a3.583,3.583,0,0,0-1.256,4.078,40.15,40.15,0,0,1,1.7,11.754,41.892,41.892,0,0,1-.828,8.363H90.733c-1.278,0-2.314,1.4-2.314,3.123s1.036,3.123,2.314,3.123h34.959a27.215,27.215,0,0,1-3.306,5.97H71.157a16.154,16.154,0,0,0-10.618,4.316c4.481-6.094,7.311-14.995,7.311-24.892q0-2.239-.189-4.4H90.733c1.278,0,2.314-1.4,2.314-3.123s-1.036-3.123-2.314-3.123H66.711a36.006,36.006,0,0,0-7.881-16.34h52.56c3.748,0,7.3,1.906,10.285,5.51a1.926,1.926,0,0,0,3.268-.241,3.929,3.929,0,0,0-.178-4.41c-3.843-4.648-8.467-7.105-13.374-7.105H46.221c-11.926,0-21.629,14.91-21.629,33.238a45.4,45.4,0,0,0,4.654,20.576H21.6a15.645,15.645,0,0,0-9.509,3.4,3.757,3.757,0,0,0-.889,4.251c.625,1.505,2.035,2.043,3.15,1.2a11.938,11.938,0,0,1,7.281-2.6c9.374,0,17,12.108,17,26.991s-7.627,26.991-17,26.991-17-12.11-17-26.993a37.995,37.995,0,0,1,3.445-16.279,3.828,3.828,0,0,0-.691-4.317c-1.074-.934-2.507-.517-3.2.933A45.879,45.879,0,0,0,0,263.185c0,18.294,9.668,33.184,21.565,33.237H118.45c1.278,0,2.314-1.4,2.314-3.123s-1.036-3.123-2.314-3.123H83.8c5.46-6.039,9.021-15.888,9.021-26.992a50.452,50.452,0,0,0-.538-7.388h41.983c1.278,0,2.314-1.4,2.314-3.123s-1.036-3.123-2.314-3.123H90.914A34.39,34.39,0,0,0,83.8,236.193H136.36c9.373,0,17,12.109,17,26.992a41.192,41.192,0,0,1-1.1,9.536H123.846c-1.278,0-2.314,1.4-2.314,3.123s1.036,3.123,2.314,3.123h26.3c-3.09,6.786-8.117,11.21-13.783,11.21h-7.978c-1.278,0-2.314,1.4-2.314,3.123s1.036,3.123,2.314,3.123h7.978c11.925,0,21.628-14.911,21.628-33.238s-9.7-33.238-21.628-33.238ZM46.2,182.379h.1c9.338.069,16.921,12.15,16.921,26.991,0,14.883-7.627,26.991-17,26.991s-17-12.108-17-26.991S36.837,182.4,46.2,182.379Zm-2.944,80.805c0-9.5-2.606-18.078-6.776-24.14a15.792,15.792,0,0,0,9.674,3.564h8.059a45.4,45.4,0,0,0-4.654,20.576c0,11.1,3.562,20.953,9.021,26.992H34.237c5.46-6.04,9.021-15.889,9.021-26.993Zm44.932,0c0,14.883-7.627,26.991-17,26.991s-17-12.108-17-26.991,7.627-26.991,17-26.991S88.19,248.3,88.19,263.185Z" transform="translate(0 0)" fill="#a97c50"/>
      <path id="Path_1165" data-name="Path 1165" d="M200.309,335.55c-1.278,0-2.314,1.4-2.314,3.123s1.036,3.123,2.314,3.123c4.928,0,8.938,6.469,8.938,14.421s-4.01,14.421-8.938,14.421-8.938-6.469-8.938-14.421c0-1.725-1.036-3.123-2.314-3.123s-2.314,1.4-2.314,3.123c0,11.4,6.086,20.667,13.567,20.667s13.567-9.271,13.567-20.667S207.789,335.55,200.309,335.55Z" transform="translate(-129.119 -93.032)" fill="#00a3d2"/>
      <path id="Path_1166" data-name="Path 1166" d="M334.032,230.372c-1.278,0-2.314,1.4-2.314,3.123s1.036,3.123,2.314,3.123h8.759c1.278,0,2.314-1.4,2.314-3.123s-1.036-3.123-2.314-3.123Z" transform="translate(-229.36 -31.652)" fill="#3c2415"/>
      <path id="Path_1167" data-name="Path 1167" d="M320.709,408.08c-1.278,0-2.314,1.4-2.314,3.123s1.036,3.123,2.314,3.123h7.229c1.278,0,2.314-1.4,2.314-3.123s-1.036-3.123-2.314-3.123Z" transform="translate(-220.148 -135.359)" fill="#3c2415"/>
    </g>
  </g>
</svg>
