<svg xmlns="http://www.w3.org/2000/svg" viewBox="0 0 250.98 233.7">
  <defs>
    <style>
      .cls-1 {
        fill: #00a3d2;
      }
    </style>
  </defs>
  <g id="Group_1744" data-name="Group 1744" transform="translate(1256 220)">
    <g id="Group_1742" data-name="Group 1742" transform="translate(-428 -179)">
      <path id="orders" class="cls-1" d="M145.283,54.342l-17.249-9.892,17.249-9.892a2.807,2.807,0,0,0,1.422-2.411,2.749,2.749,0,0,0-1.36-2.411L96.01.371a2.794,2.794,0,0,0-2.782,0L73.322,11.746,53.476.371a2.794,2.794,0,0,0-2.782,0L1.36,29.8A2.749,2.749,0,0,0,0,32.21a2.807,2.807,0,0,0,1.422,2.411L18.67,44.512,1.422,54.4A2.637,2.637,0,0,0,0,56.753a2.749,2.749,0,0,0,1.36,2.411L21.39,71.1v29.737a2.749,2.749,0,0,0,1.36,2.411l48.9,29.057a2.653,2.653,0,0,0,1.484.371,3.107,3.107,0,0,0,1.484-.371l48.9-29.057a2.749,2.749,0,0,0,1.36-2.411V71.282l20.4-12.117a2.817,2.817,0,0,0,0-4.822ZM73.136,70.478,29.3,44.389,73.322,18.176l43.832,26.151ZM94.527,6l43.832,26.151-15.7,8.964L78.824,15.023ZM52.116,6l15.7,8.964L23.987,41.112l-15.7-8.964ZM23.987,47.789,67.819,73.878l-15.7,8.964L8.284,56.815Zm2.967,51.5V74.435l23.74,14.1a2.794,2.794,0,0,0,2.782,0l16.816-9.644v46.058Zm92.425,0L76.042,125.005V78.7l17.187,9.83a2.794,2.794,0,0,0,2.782,0l23.369-13.91ZM94.527,82.9l-15.7-8.964,43.832-26.089,15.7,8.964Z" transform="translate(-764.946 9.718)"/>
    </g>
    <path id="Path_765" data-name="Path 765" class="cls-1" d="M248.4,92.5A116.914,116.914,0,0,0,134.3,0a113.128,113.128,0,0,0-24.4,2.6A115.722,115.722,0,0,0,51.8,34.1,116.9,116.9,0,0,0,22,84.6H2.2A2.176,2.176,0,0,0,.4,88L24,124.2a2.149,2.149,0,0,0,3.6,0L51.5,88a2.192,2.192,0,0,0-1.8-3.4H31.4A108.2,108.2,0,0,1,58.2,40.4a106.21,106.21,0,0,1,53.6-29,107.234,107.234,0,0,1,89.8,21.3,106.919,106.919,0,0,1,38,61.7,107.234,107.234,0,0,1-21.3,89.8,106.919,106.919,0,0,1-61.7,38,109,109,0,0,1-22.5,2.4,107.893,107.893,0,0,1-78.8-34.4,4.528,4.528,0,0,0-6.6,6.2,116.888,116.888,0,0,0,85.4,37.3,113.127,113.127,0,0,0,24.4-2.6A116.914,116.914,0,0,0,251,117,113.372,113.372,0,0,0,248.4,92.5Z" transform="translate(-1256.02 -220)"/>
  </g>
</svg>
