<svg xmlns="http://www.w3.org/2000/svg" viewBox="0 0 250.98 233.7">
  <defs>
    <style>
      .cls-1 {
        fill: #ed037c;
      }
    </style>
  </defs>
  <g id="Group_1743" data-name="Group 1743" transform="translate(1256 509)">
    <g id="Group_1741" data-name="Group 1741" transform="translate(-430 -173)">
      <path id="products" class="cls-1" d="M134.535,38.161l-8.067-9.9v-.366A30.308,30.308,0,0,0,133.8,2.223,3.25,3.25,0,0,0,130.138.04a3.25,3.25,0,0,0-2.2,3.665,23.839,23.839,0,0,1-5.5,19.8L111.8,10.656a11.607,11.607,0,0,0-11.366-3.665l-23.1,5.134a24.852,24.852,0,0,0-9.9,4.768l-61.6,49.5A14.786,14.786,0,0,0,2.9,86.928l35.933,43.633a14.04,14.04,0,0,0,8.8,4.745H49.1a17.522,17.522,0,0,0,10.268-3.665l59.767-48.035a26.21,26.21,0,0,0,7.7-10.268L136,49.87A11.071,11.071,0,0,0,134.535,38.161Zm-4.018,9.165-9.165,23.468a19.683,19.683,0,0,1-5.866,7.7L55.7,126.164a11.21,11.21,0,0,1-7.335,2.567,6.25,6.25,0,0,1-4.768-2.567h0L7.666,82.892a8.951,8.951,0,0,1,2.2-12.1L71.1,21.661A18.75,18.75,0,0,1,78.8,18l23.1-5.134h1.469a5.888,5.888,0,0,1,4.018,1.835L118.4,28.259a26.027,26.027,0,0,1-5.134,3.665A13.393,13.393,0,0,0,94.2,30.844a13.777,13.777,0,0,0-5.134,9.536A14.732,14.732,0,0,0,92,50.647a13.21,13.21,0,0,0,10.643,4.75,14.817,14.817,0,0,0,9.165-3.3,13.777,13.777,0,0,0,5.12-9.54,11.772,11.772,0,0,0-.366-5.134,24.107,24.107,0,0,0,6.25-4.4l8.067,9.536a7.469,7.469,0,0,1-.375,4.768Zm-20.183-6.214a8.21,8.21,0,0,1-2.933,5.5h0a7.708,7.708,0,0,1-12.835-6.232A8.21,8.21,0,0,1,97.5,34.861a6.862,6.862,0,0,1,5.138-1.835,7.37,7.37,0,0,1,4.768,1.469,7.871,7.871,0,0,0-2.567,1.469,3.085,3.085,0,0,0-1.469,4.018,2.9,2.9,0,0,0,2.933,1.835,1.339,1.339,0,0,0,1.1-.366s1.469-.732,3.3-1.469A1.339,1.339,0,0,0,110.335,41.111Z" transform="translate(-762.336 -285.582)"/>
    </g>
    <path id="Path_764" data-name="Path 764" class="cls-1" d="M248.4,92.5A116.914,116.914,0,0,0,134.3,0a113.128,113.128,0,0,0-24.4,2.6A115.722,115.722,0,0,0,51.8,34.1,116.9,116.9,0,0,0,22,84.6H2.2A2.176,2.176,0,0,0,.4,88L24,124.2a2.149,2.149,0,0,0,3.6,0L51.5,88a2.192,2.192,0,0,0-1.8-3.4H31.4A108.2,108.2,0,0,1,58.2,40.4a106.21,106.21,0,0,1,53.6-29,107.234,107.234,0,0,1,89.8,21.3,106.919,106.919,0,0,1,38,61.7,107.234,107.234,0,0,1-21.3,89.8,106.919,106.919,0,0,1-61.7,38,109,109,0,0,1-22.5,2.4,107.893,107.893,0,0,1-78.8-34.4,4.528,4.528,0,0,0-6.6,6.2,116.888,116.888,0,0,0,85.4,37.3,113.127,113.127,0,0,0,24.4-2.6A116.914,116.914,0,0,0,251,117,113.372,113.372,0,0,0,248.4,92.5Z" transform="translate(-1256.02 -509)"/>
  </g>
</svg>
