<svg xmlns="http://www.w3.org/2000/svg" viewBox="0 0 220.4 222.7"><defs><style>.cls-1{isolation:isolate;}.cls-2{fill:#3a2415;}.cls-3,.cls-4,.cls-5,.cls-6{fill:none;stroke-linecap:round;stroke-linejoin:round;stroke-width:9px;}.cls-3,.cls-5{stroke:#f7941d;}.cls-3,.cls-4,.cls-6{mix-blend-mode:multiply;}.cls-4{stroke:#63b190;}.cls-6{stroke:#3c2415;}</style></defs><title>Asset 2</title><g class="cls-1"><g id="Layer_2" data-name="Layer 2"><g id="Layer_1-2" data-name="Layer 1"><path class="cls-2" d="M53.94,185.06a2.19,2.19,0,0,1-.58-1.6V150.52A2,2,0,0,1,54,149a2.22,2.22,0,0,1,1.6-.58H68q5.82,0,9,2.83t3.22,8A10.24,10.24,0,0,1,77,167.36q-3.26,2.88-9,2.88H57.66v13.22a2.22,2.22,0,0,1-.57,1.6,2.1,2.1,0,0,1-1.58.61A2.08,2.08,0,0,1,53.94,185.06Zm13.64-18.38q8.44,0,8.44-7.4T67.58,152H57.66v14.69Z"/><path class="cls-2" d="M98.24,184.83a2,2,0,0,1-.6-1.52V150.52a2,2,0,0,1,.6-1.52,2.2,2.2,0,0,1,1.6-.58h10.23q8.87,0,13.72,4.8t4.85,13.67q0,8.87-4.88,13.69t-13.69,4.82H99.84A2.24,2.24,0,0,1,98.24,184.83Zm11.57-3.1q14.37,0,14.37-14.84t-14.37-14.8h-7.87v29.64Z"/><path class="cls-2" d="M147.48,185.06a2.19,2.19,0,0,1-.58-1.6V150.52a2,2,0,0,1,.6-1.52,2.2,2.2,0,0,1,1.6-.58h19.1a2.14,2.14,0,0,1,1.47.47,1.74,1.74,0,0,1,.52,1.36,1.7,1.7,0,0,1-.52,1.32,2.14,2.14,0,0,1-1.47.47h-17v12.75h16a2.1,2.1,0,0,1,1.47.47,1.73,1.73,0,0,1,.52,1.36,1.66,1.66,0,0,1-.52,1.31,2.1,2.1,0,0,1-1.47.48h-16v15.05a2.3,2.3,0,0,1-.55,1.6,2,2,0,0,1-1.55.61A2.06,2.06,0,0,1,147.48,185.06Z"/><polyline class="cls-3" points="194.46 199.82 194.46 218.2 25.95 218.2 25.95 199.82"/><polyline class="cls-3" points="25.95 130.88 25.95 4.5 149.99 4.5 194.46 43.52 194.46 130.88"/><rect class="cls-4" x="4.5" y="130.88" width="211.4" height="68.94"/><polyline class="cls-5" points="149.95 5.37 149.95 44.54 194.46 44.54"/><line class="cls-6" x1="55.18" y1="65.52" x2="104.97" y2="65.52"/><line class="cls-6" x1="55.18" y1="98.2" x2="154.76" y2="98.2"/></g></g></g></svg>