<svg xmlns="http://www.w3.org/2000/svg" width="56.2" height="253.1" viewBox="0 0 56.2 253.1">
  <g id="Group_1738" data-name="Group 1738" transform="translate(-156.3 -3.6)">
    <path id="Path_740" data-name="Path 740" d="M196.1,234.2h.1l-.8-116.5,17.1-.1-.2-24-1-1.2a11.776,11.776,0,0,1-1.6-2.6,22.4,22.4,0,0,1-1.8-6,41.672,41.672,0,0,1-.7-7.1,33.456,33.456,0,0,1,1-8.2,12.522,12.522,0,0,1,1.2-3.1,7.774,7.774,0,0,1,1.3-1.9l1.3-1.3-.3-45.9A12.8,12.8,0,0,0,198.8,3.6h-.1L169,3.8a12.8,12.8,0,0,0-12.7,12.9v.1l.3,45.6,1,1.2a9.75,9.75,0,0,1,1.2,2.1,21.31,21.31,0,0,1,1.4,5.3,48.189,48.189,0,0,1-.4,16.2c-.3,1.4-.7,2.7-1,3.8a12.9,12.9,0,0,1-1.2,2.6l-.7,1.1.2,23.3h4.5l12.6-.1.8,116.3a9.185,9.185,0,0,0-.5,2.8l.1,19.7,22.3-.2-.1-19.1A7.111,7.111,0,0,0,196.1,234.2ZM166.6,13.8a3.693,3.693,0,0,1,2.7-1.1l29.7-.2h0a3.757,3.757,0,0,1,3.8,3.8l.3,42.3a13.989,13.989,0,0,0-1.6,2.6,29.975,29.975,0,0,0-2.5,7.3,42.841,42.841,0,0,0-.7,8.1,43.9,43.9,0,0,0,1.5,11.6,29.218,29.218,0,0,0,1.9,5.2,20.161,20.161,0,0,0,1.8,3.2l.1,11.9-37.4.3L166,97.1a23.683,23.683,0,0,0,1.4-3.2,55.659,55.659,0,0,0,1.9-7.8,61.094,61.094,0,0,0,.6-8.6,46.808,46.808,0,0,0-1.1-10.7,33.679,33.679,0,0,0-1.5-4.8,15.934,15.934,0,0,0-1.5-2.9l-.3-42.6h0A3.621,3.621,0,0,1,166.6,13.8Zm16.6,104h3.2l.7,106.6h-3.2Z" fill="#63b190"/>
    <path id="Path_741" data-name="Path 741" d="M184.7,96.8a4.481,4.481,0,0,0,4.5-4.5l-.5-68.9a4.5,4.5,0,1,0-9,0l.5,68.9A4.481,4.481,0,0,0,184.7,96.8Z" fill="#a97c50"/>
  </g>
</svg>
