<svg xmlns="http://www.w3.org/2000/svg" viewBox="0 0 170.67 201.387">
  <defs>
    <style>
      .cls-1 {
        fill: #ed037c;
      }

      .cls-2 {
        fill: #a97c50;
      }

      .cls-3 {
        fill: #00a3d2;
      }

      .cls-4 {
        fill: #f7941d;
      }

      .cls-5 {
        fill: #63b190;
      }

      .cls-6 {
        fill: #3c2415;
      }

      .cls-7 {
        fill: #cf1f26;
      }
    </style>
  </defs>
  <g id="shopping-bag" transform="translate(-15.358)">
    <g id="Group_2154" data-name="Group 2154">
      <g id="Group_2153" data-name="Group 2153">
        <path id="Path_1117" data-name="Path 1117" class="cls-1" d="M129.413,24.885A29.016,29.016,0,0,0,77.251,11.916a3.412,3.412,0,1,0,5.51,4.026,22.191,22.191,0,0,1,39.893,9.906,3.417,3.417,0,0,0,3.376,2.932,3.655,3.655,0,0,0,.486-.034A3.415,3.415,0,0,0,129.413,24.885Z"/>
      </g>
    </g>
    <g id="Group_2156" data-name="Group 2156">
      <g id="Group_2155" data-name="Group 2155">
        <path id="Path_1118" data-name="Path 1118" class="cls-2" d="M178.712,63.1l-10.24-17.067a3.409,3.409,0,0,0-2.927-1.657h-9.813a3.413,3.413,0,0,0,0,6.826h7.881l6.144,10.24H31.626L37.77,51.2h3.615a3.413,3.413,0,0,0,0-6.826H35.838a3.409,3.409,0,0,0-2.927,1.657L22.671,63.1A3.415,3.415,0,0,0,25.6,68.267H175.785a3.415,3.415,0,0,0,2.927-5.171Z"/>
      </g>
    </g>
    <g id="Group_2158" data-name="Group 2158">
      <g id="Group_2157" data-name="Group 2157">
        <path id="Path_1119" data-name="Path 1119" class="cls-3" d="M161.7,31.623a3.408,3.408,0,0,0-2.123-1.524L113.044,19.216a3.41,3.41,0,0,0-4.1,2.546l-3.509,15a3.413,3.413,0,0,0,6.647,1.553l2.732-11.675L154.7,35.969l-6.267,26.795a3.41,3.41,0,0,0,2.546,4.1,3.452,3.452,0,0,0,.782.09,3.408,3.408,0,0,0,3.318-2.635L162.12,34.2A3.4,3.4,0,0,0,161.7,31.623Z"/>
      </g>
    </g>
    <g id="Group_2160" data-name="Group 2160">
      <g id="Group_2159" data-name="Group 2159">
        <path id="Path_1120" data-name="Path 1120" class="cls-4" d="M102.5,39.692l-3.11-26.305A3.415,3.415,0,0,0,95.6,10.4l-57.09,6.748a3.414,3.414,0,0,0-2.988,3.791L40.7,64.809a3.414,3.414,0,0,0,3.386,3.014A3.729,3.729,0,0,0,44.5,67.8a3.415,3.415,0,0,0,2.988-3.791L42.7,23.522l50.311-5.946,2.708,22.915a3.413,3.413,0,0,0,6.78-.8Z"/>
      </g>
    </g>
    <g id="Group_2162" data-name="Group 2162">
      <g id="Group_2161" data-name="Group 2161">
        <path id="Path_1121" data-name="Path 1121" class="cls-5" d="M129.492,63.556l-6.775-28.174a3.41,3.41,0,0,0-4.117-2.519L63.613,46.087A3.414,3.414,0,0,0,61.092,50.2l3.386,14.082a3.413,3.413,0,1,0,6.637-1.6L68.526,51.926,116.876,40.3l5.977,24.854a3.414,3.414,0,0,0,6.639-1.6Z"/>
      </g>
    </g>
    <g id="Group_2164" data-name="Group 2164">
      <g id="Group_2163" data-name="Group 2163">
        <path id="Path_1122" data-name="Path 1122" class="cls-2" d="M179.2,64.679a3.415,3.415,0,0,0-3.41-3.238H25.6a3.414,3.414,0,0,0-3.41,3.238L15.363,197.8a3.412,3.412,0,0,0,3.409,3.588h163.84a3.412,3.412,0,0,0,3.412-3.588ZM22.364,194.56,28.841,68.267h143.7l6.477,126.293Z"/>
      </g>
    </g>
    <g id="Group_2166" data-name="Group 2166">
      <g id="Group_2165" data-name="Group 2165">
        <path id="Path_1123" data-name="Path 1123" class="cls-6" d="M126.292,75.093a10.24,10.24,0,1,0,10.24,10.24A10.251,10.251,0,0,0,126.292,75.093Zm0,13.654a3.413,3.413,0,1,1,3.413-3.413A3.416,3.416,0,0,1,126.292,88.747Z"/>
      </g>
    </g>
    <g id="Group_2168" data-name="Group 2168">
      <g id="Group_2167" data-name="Group 2167">
        <path id="Path_1124" data-name="Path 1124" class="cls-6" d="M75.092,75.093a10.24,10.24,0,1,0,10.24,10.24A10.251,10.251,0,0,0,75.092,75.093Zm0,13.654a3.413,3.413,0,1,1,3.413-3.413A3.417,3.417,0,0,1,75.092,88.747Z"/>
      </g>
    </g>
    <g id="Group_2170" data-name="Group 2170">
      <g id="Group_2169" data-name="Group 2169">
        <path id="Path_1125" data-name="Path 1125" class="cls-7" d="M126.292,85.333h-.263a3.414,3.414,0,0,0-3.413,3.413,3.375,3.375,0,0,0,.263,1.316v17.457a22.187,22.187,0,1,1-44.374,0V88.747a3.413,3.413,0,0,0-6.826,0V107.52a29.013,29.013,0,0,0,58.026,0V88.747A3.415,3.415,0,0,0,126.292,85.333Z"/>
      </g>
    </g>
  </g>
</svg>
