<svg xmlns="http://www.w3.org/2000/svg" viewBox="0 0 199.7 204.406">
  <defs>
    <style>
      .cls-1 {
        fill: #63b190;
      }

      .cls-2 {
        fill: #00a3d2;
      }
    </style>
  </defs>
  <g id="Group_3" data-name="Group 3" transform="translate(0 -0.094)">
    <path id="Path_8" data-name="Path 8" class="cls-1" d="M72.3,29.1l4.4.7,2.8-18.3a3.247,3.247,0,0,1,1-1.8,3.221,3.221,0,0,1,2-.7h34.7a3.221,3.221,0,0,1,2,.7,3.247,3.247,0,0,1,1,1.8h0l2.2,17.4a20.072,20.072,0,0,0,7.1,13,20.725,20.725,0,0,0,13.6,5,23.545,23.545,0,0,0,6.8-1.1l19.5-6.6a3.553,3.553,0,0,1,1-.2,2.822,2.822,0,0,1,1.5.4,2.905,2.905,0,0,1,1.1,1.1h0l17.6,30.1h0A2.5,2.5,0,0,1,191,72a2.948,2.948,0,0,1-1.1,2.2h0L175,86.2h0a21.327,21.327,0,0,0-5.8,7.3,20.868,20.868,0,0,0,0,17.4,19.4,19.4,0,0,0,5.8,7.3l14.9,12a2.948,2.948,0,0,1,1.1,2.2,2.3,2.3,0,0,1-.4,1.4l-17.5,30h0a2.905,2.905,0,0,1-1.1,1.1,2.6,2.6,0,0,1-1.5.4,3.553,3.553,0,0,1-1-.2l-19-6.6h0a21.467,21.467,0,0,0-7-1.2,21.106,21.106,0,0,0-13.5,4.9,20.272,20.272,0,0,0-7.1,12.9l-2.5,17.8h0a2.938,2.938,0,0,1-3,2.5h-35a3.157,3.157,0,0,1-1.9-.7,2.7,2.7,0,0,1-1-1.7h0l-3.7-19.7h0a20.6,20.6,0,0,0-7.4-12.2,21.3,21.3,0,0,0-13.1-4.6,22.116,22.116,0,0,0-7.9,1.5h0l-16.9,7h0a2.344,2.344,0,0,1-1.1.2,2.822,2.822,0,0,1-1.5-.4,2.905,2.905,0,0,1-1.1-1.1h0L9.4,134a2.822,2.822,0,0,1-.4-1.5,2.948,2.948,0,0,1,1.1-2.2h0l14.9-12a21.326,21.326,0,0,0,5.8-7.3,20.868,20.868,0,0,0,0-17.4A19.4,19.4,0,0,0,25,86.3h0l-14.9-12h0A2.99,2.99,0,0,1,9,72a2.3,2.3,0,0,1,.4-1.4h0l17.5-30h0A2.905,2.905,0,0,1,28,39.5a2.6,2.6,0,0,1,1.5-.4,3.553,3.553,0,0,1,1,.2h0L49,46h0a20.307,20.307,0,0,0,7.2,1.3,20.836,20.836,0,0,0,13.4-4.9,20.624,20.624,0,0,0,7.2-12.7l-4.5-.6-4.4-.7a11.434,11.434,0,0,1-4.1,7.2,11.754,11.754,0,0,1-7.7,2.8,12.19,12.19,0,0,1-4.1-.7h0L33.5,31h0a11.409,11.409,0,0,0-4.1-.7,12.038,12.038,0,0,0-5.9,1.5A11.864,11.864,0,0,0,19,36.2L1.5,66.2h0A11.663,11.663,0,0,0,0,72a11.959,11.959,0,0,0,4.4,9.2h0l14.9,12h0a12.717,12.717,0,0,1,3.3,4.1,11.7,11.7,0,0,1,1.1,4.9,12.057,12.057,0,0,1-1.1,4.9,11.517,11.517,0,0,1-3.3,4.1l-14.9,12h0A11.648,11.648,0,0,0,0,132.4a12.005,12.005,0,0,0,1.6,6L19,168.3h0a11.864,11.864,0,0,0,4.5,4.4,12.066,12.066,0,0,0,10.4.6h0l16.8-6.8h0a12.038,12.038,0,0,1,4.5-.9,12.615,12.615,0,0,1,7.5,2.6,11.168,11.168,0,0,1,4.1,6.9h0l3.7,19.7h0a11.8,11.8,0,0,0,11.7,9.7h35A11.915,11.915,0,0,0,129,194.3h0l2.5-17.8a11.069,11.069,0,0,1,4-7.2,11.951,11.951,0,0,1,7.7-2.8,11.641,11.641,0,0,1,4,.7h0l19,6.6a11.25,11.25,0,0,0,4,.7,12.038,12.038,0,0,0,5.9-1.5,11.864,11.864,0,0,0,4.5-4.4h0l17.5-30a11.741,11.741,0,0,0,1.6-6,11.959,11.959,0,0,0-4.4-9.2l-14.9-12a12.717,12.717,0,0,1-3.3-4.1,11.7,11.7,0,0,1-1.1-4.9,12.057,12.057,0,0,1,1.1-4.9,11.517,11.517,0,0,1,3.3-4.1h0l14.9-12h0a11.648,11.648,0,0,0,4.4-9.2,12.005,12.005,0,0,0-1.6-6h0L180.6,36h0a12.36,12.36,0,0,0-4.4-4.4,12.131,12.131,0,0,0-5.9-1.6,13.2,13.2,0,0,0-3.9.6l-19.5,6.6a13.2,13.2,0,0,1-3.9.6,12.315,12.315,0,0,1-7.8-2.9,11.554,11.554,0,0,1-4-7.3L129,10.4h0A11.8,11.8,0,0,0,125,3,11.664,11.664,0,0,0,117.1.1H82.5A12.155,12.155,0,0,0,70.6,10.2L67.8,28.5Z"/>
    <path id="Path_9" data-name="Path 9" class="cls-2" d="M144.7,102.3h-4.5a39.278,39.278,0,0,1-11.8,28.1,40.562,40.562,0,0,1-57,0,39.358,39.358,0,0,1,0-56.2,40.562,40.562,0,0,1,57,0,39.278,39.278,0,0,1,11.8,28.1h9a48.024,48.024,0,0,0-14.5-34.5,49.494,49.494,0,0,0-69.6,0,48.293,48.293,0,0,0,0,69,49.494,49.494,0,0,0,69.6,0,48.429,48.429,0,0,0,14.5-34.5Z"/>
  </g>
</svg>
