<svg id="Group_1153" data-name="Group 1153" xmlns="http://www.w3.org/2000/svg" viewBox="0 0 88 88">
  <defs>
    <style>
      .cls-1 {
        fill: #fe0077;
      }

      .cls-2 {
        fill: #db343d;
      }
    </style>
  </defs>
  <g id="Group_1067" data-name="Group 1067" transform="translate(0 0)">
    <path id="Path_1041" data-name="Path 1041" class="cls-1" d="M25.678,106.075h3.458V31.908H25.678A3.458,3.458,0,0,1,22.22,28.45v81.084A3.458,3.458,0,0,1,25.678,106.075Z" transform="translate(-22.22 -24.992)"/>
    <path id="Path_1042" data-name="Path 1042" class="cls-1" d="M102.845,99.248V95.79H28.678v3.458a3.458,3.458,0,0,1-3.458,3.458H106.3A3.458,3.458,0,0,1,102.845,99.248Z" transform="translate(-21.762 -14.706)"/>
    <path id="Path_1045" data-name="Path 1045" class="cls-1" d="M96.018,31.908H92.56v74.167h3.458a3.458,3.458,0,0,1,3.458,3.458V28.45A3.458,3.458,0,0,1,96.018,31.908Z" transform="translate(-11.476 -24.992)"/>
    <path id="Path_1048" data-name="Path 1048" class="cls-1" d="M28.678,28.908v3.458h74.167V28.908A3.458,3.458,0,0,1,106.3,25.45H25.22A3.458,3.458,0,0,1,28.678,28.908Z" transform="translate(-21.762 -25.45)"/>
  </g>
  <g id="Group_1068" data-name="Group 1068" transform="translate(0 0)">
    <path id="Path_1044" data-name="Path 1044" class="cls-2" d="M29.136,99.248V95.79H25.678a3.458,3.458,0,1,0,3.458,3.458Z" transform="translate(-22.22 -14.706)"/>
    <path id="Path_1047" data-name="Path 1047" class="cls-2" d="M96.018,95.79H92.56v3.458a3.458,3.458,0,1,0,3.458-3.458Z" transform="translate(-11.476 -14.706)"/>
    <path id="Path_1050" data-name="Path 1050" class="cls-2" d="M25.678,32.366h3.458V28.908a3.458,3.458,0,1,0-3.458,3.458Z" transform="translate(-22.22 -25.45)"/>
    <path id="Path_1052" data-name="Path 1052" class="cls-2" d="M92.56,28.908v3.458h3.458a3.458,3.458,0,1,0-3.458-3.458Z" transform="translate(-11.476 -25.45)"/>
  </g>
</svg>
