<?xml version="1.0" encoding="UTF-8" standalone="no"?>
<!DOCTYPE svg PUBLIC "-//W3C//DTD SVG 1.1//EN" "http://www.w3.org/Graphics/SVG/1.1/DTD/svg11.dtd">
<svg width="100%" height="100%" viewBox="0 0 873 875" version="1.1" xmlns="http://www.w3.org/2000/svg" xmlns:xlink="http://www.w3.org/1999/xlink" xml:space="preserve" xmlns:serif="http://www.serif.com/" style="fill-rule:evenodd;clip-rule:evenodd;stroke-linecap:round;stroke-linejoin:round;stroke-miterlimit:10;">
    <g transform="matrix(1,0,0,1,-35969.9,-1176.68)">
        <g transform="matrix(4.16667,0,0,4.16667,25540.5,1129.43)">
            <g transform="matrix(-0.716089,-0.698009,-0.698009,0.716089,2531.72,88.431)">
                <g>
                    <path d="M-60.036,24.42L9.932,24.42" style="fill:none;fill-rule:nonzero;stroke:rgb(251,176,64);stroke-width:9px;"/>
                </g>
            </g>
        </g>
        <g transform="matrix(4.16667,0,0,4.16667,25540.5,1129.43)">
            <g transform="matrix(0.169049,-0.985608,-0.985608,-0.169049,2584.74,193.962)">
                <g>
                    <path d="M-29.07,34.481L40.898,34.481" style="fill:none;fill-rule:nonzero;stroke:rgb(251,176,64);stroke-width:9px;"/>
                </g>
            </g>
        </g>
        <g transform="matrix(4.16667,0,0,4.16667,25540.5,1129.43)">
            <g transform="matrix(-0.885135,0.465335,0.465335,0.885135,2556.97,229.325)">
                <g>
                    <path d="M-65.951,-16.279L4.019,-16.279" style="fill:none;fill-rule:nonzero;stroke:rgb(251,176,64);stroke-width:9px;"/>
                </g>
            </g>
        </g>
        <g transform="matrix(4.16667,0,0,4.16667,25540.5,1129.43)">
            <g transform="matrix(-0.885135,-0.465335,-0.465335,0.885135,2618.9,171.686)">
                <g>
                    <path d="M-65.951,16.279L4.019,16.279" style="fill:none;fill-rule:nonzero;stroke:rgb(251,176,64);stroke-width:9px;"/>
                </g>
            </g>
        </g>
        <g transform="matrix(4.16667,0,0,4.16667,25540.5,1129.43)">
            <g transform="matrix(0.169049,0.985608,0.985608,-0.169049,2696.77,170.646)">
                <g>
                    <path d="M-29.07,-34.481L40.898,-34.481" style="fill:none;fill-rule:nonzero;stroke:rgb(251,176,64);stroke-width:9px;"/>
                </g>
            </g>
        </g>
        <g transform="matrix(4.16667,0,0,4.16667,25540.5,1129.43)">
            <g transform="matrix(-0.716089,0.698009,0.698009,0.716089,2682.03,158.377)">
                <g>
                    <path d="M-60.036,-24.42L9.932,-24.42" style="fill:none;fill-rule:nonzero;stroke:rgb(251,176,64);stroke-width:9px;"/>
                </g>
            </g>
        </g>
        <g transform="matrix(4.16667,0,0,4.16667,25540.5,1129.43)">
            <g transform="matrix(0.989608,0.143794,0.143794,-0.989608,2639.82,83.9973)">
                <g>
                    <path d="M-0.364,-5.031L69.605,-5.031" style="fill:none;fill-rule:nonzero;stroke:rgb(251,176,64);stroke-width:9px;"/>
                </g>
            </g>
        </g>
        <g transform="matrix(4.16667,0,0,4.16667,25540.5,1129.43)">
            <g transform="matrix(0.390134,0.920758,0.920758,-0.390134,2650.86,23.8699)">
                <g>
                    <path d="M-24.203,-36.542L55.169,-36.542" style="fill:none;fill-rule:nonzero;stroke:rgb(251,176,64);stroke-width:9px;"/>
                </g>
            </g>
        </g>
        <g transform="matrix(4.16667,0,0,4.16667,25540.5,1129.43)">
            <g transform="matrix(0.390134,-0.920758,-0.920758,-0.390134,2619.89,80.8939)">
                <g>
                    <path d="M-24.203,36.542L55.169,36.542" style="fill:none;fill-rule:nonzero;stroke:rgb(251,176,64);stroke-width:9px;"/>
                </g>
            </g>
        </g>
        <g transform="matrix(4.16667,0,0,4.16667,25540.5,1129.43)">
            <g transform="matrix(0.989608,-0.143794,-0.143794,-0.989608,2508.65,103.91)">
                <g>
                    <path d="M-0.364,5.031L69.605,5.031" style="fill:none;fill-rule:nonzero;stroke:rgb(251,176,64);stroke-width:9px;"/>
                </g>
            </g>
        </g>
    </g>
</svg>
