<svg id="Group_1966" data-name="Group 1966" xmlns="http://www.w3.org/2000/svg" viewBox="0 0 88 88.58">
  <defs>
    <style>
      .cls-1 {
        fill: #ff8f00;
      }

      .cls-2 {
        fill: #ff9100;
      }

      .cls-3 {
        fill: #ed5535;
      }
    </style>
  </defs>
  <g id="Group_1060" data-name="Group 1060" transform="translate(0.812 0.872)">
    <path id="Path_1287" data-name="Path 1287" class="cls-1" d="M24.22,48.129a3.132,3.132,0,0,1,1.971,1.159.4.4,0,0,1-.116-.232L10.655,34.1,3.814,35.143H3.351A4.172,4.172,0,0,1,.8,34.1l.116.116L19.93,52.767l.348-1.739A3.43,3.43,0,0,1,24.22,48.129Z" transform="translate(-0.8 4.565)"/>
    <path id="Path_1302" data-name="Path 1302" class="cls-1" d="M15.255,74.048,21.4,70.8l3.594-21.1a3.19,3.19,0,0,1-.928,1.739,3.536,3.536,0,0,1-2.435,1.043,3.988,3.988,0,0,1-2.435-.928L17.922,50.28,13.4,76.483V76.6A3.512,3.512,0,0,1,15.255,74.048Z" transform="translate(1.209 7.052)"/>
    <path id="Path_1324" data-name="Path 1324" class="cls-1" d="M38.238,60.707A2.944,2.944,0,0,1,39.861,59.2c-.116,0-.116,0-.232.116L20.614,69.287l-1.159,6.841A3.59,3.59,0,0,1,17.6,78.678h.116L41.252,66.272l-1.623-.812A3.557,3.557,0,0,1,38.238,60.707Z" transform="translate(1.878 8.566)"/>
    <path id="Path_1328" data-name="Path 1328" class="cls-1" d="M59.8,76.128l-1.159-6.841L39.623,59.316a.4.4,0,0,1-.232-.116,4.334,4.334,0,0,1,1.739,1.507,3.452,3.452,0,0,1-1.391,4.638L38,66.272,61.536,78.678h.116A3.59,3.59,0,0,1,59.8,76.128Z" transform="translate(5.13 8.566)"/>
    <path id="Path_1350" data-name="Path 1350" class="cls-1" d="M56.062,52.483a3.337,3.337,0,0,1-2.435-1.043A3.648,3.648,0,0,1,52.7,49.7l3.594,21.1,6.145,3.246A3.281,3.281,0,0,1,64.178,76.6v-.116l-4.522-26.2-1.275,1.275A3.447,3.447,0,0,1,56.062,52.483Z" transform="translate(7.474 7.052)"/>
    <path id="Path_1374" data-name="Path 1374" class="cls-1" d="M76.241,35.159h-.464l-6.841-1.043L53.516,49.072a.4.4,0,0,0-.116.232,3.744,3.744,0,0,1,1.971-1.159,3.355,3.355,0,0,1,3.821,2.871l.345,1.779L78.675,34.116,78.791,34A3.288,3.288,0,0,1,76.241,35.159Z" transform="translate(7.586 4.549)"/>
    <path id="Path_1382" data-name="Path 1382" class="cls-1" d="M50.255,32.161a2.941,2.941,0,0,1-1.391.232H48.4l21.217,3.13,4.986-4.87a3.652,3.652,0,0,1,3.014-.928H77.5L51.3,25.9l.812,1.739A3.545,3.545,0,0,1,50.255,32.161Z" transform="translate(6.788 3.257)"/>
    <path id="Path_1399" data-name="Path 1399" class="cls-2" d="M40.731,1.229,38,8.938l9.391,22.145V31.2a3.722,3.722,0,0,1-.232-1.971A3.324,3.324,0,0,1,51.092,26.5l1.994.194L41.246-1.265c0-.116-1.285-1.1-1.285-1.215C40.309-1.552,41.079.3,40.731,1.229Z" transform="translate(5.13 2.48)"/>
    <path id="Path_1432" data-name="Path 1432" class="cls-1" d="M30.9,31.651a3.722,3.722,0,0,1-.232,1.971v-.116l9.391-22.145L37.378,3.623c-.464-.928-.8-1.653-.336-2.581,0,.116-.211-.3-.211-.189L25.1,29.1l1.971-.232A3.24,3.24,0,0,1,30.9,31.651Z" transform="translate(3.074 0.057)"/>
    <path id="Path_1448" data-name="Path 1448" class="cls-1" d="M5.414,30.554l4.986,4.87,21.217-3.13h-.464a5.819,5.819,0,0,1-1.391-.232,3.5,3.5,0,0,1-1.855-4.522l.812-1.739-26.2,3.826H2.4A3.939,3.939,0,0,1,5.414,30.554Z" transform="translate(-0.545 3.241)"/>
  </g>
  <g id="Group_1061" data-name="Group 1061" transform="translate(0 0)">
    <path id="Path_1311" data-name="Path 1311" class="cls-3" d="M21.034,53.221a3.383,3.383,0,0,0,2.477-1.069,3.747,3.747,0,0,0,.944-1.782h0V48.944c0-.119-.118-.238-.118-.356s-.118-.238-.118-.356a.416.416,0,0,0-.118-.238c0-.119-.118-.238-.118-.356-.118-.119-.236-.238-.236-.356a3.8,3.8,0,0,0-2.005-1.188,3.381,3.381,0,0,0-4.011,2.851l-.361,1.848,1.245,1.228A2.862,2.862,0,0,0,21.034,53.221Z" transform="translate(2.56 7.426)"/>
    <path id="Path_1327" data-name="Path 1327" class="cls-3" d="M20.324,74.57l1.182-6.895-6.241,3.3A3.281,3.281,0,0,0,13.5,73.527V74.57a.422.422,0,0,0,.118.348c0,.116.118.232.118.348s.118.232.118.348.118.116.118.232a2.04,2.04,0,0,0,.471.58l.118.116a2.465,2.465,0,0,0,.706.464.115.115,0,0,1,.118.116c.235.116.353.232.588.232.118,0,.118,0,.235.116a1.767,1.767,0,0,0,.824.116h0a1.511,1.511,0,0,0,.706-.116h.235c.235,0,.353-.116.588-.232A4.352,4.352,0,0,0,20.324,74.57Z" transform="translate(1.92 10.995)"/>
    <path id="Path_1343" data-name="Path 1343" class="cls-3" d="M41.618,60.739a3.161,3.161,0,0,0-1.739-1.507c-.116,0-.232-.116-.348-.116A.426.426,0,0,1,39.183,59H38.14a64504588650171.2,64504588650171.2,0,0,0-.7.232c-.116,0-.232.116-.464.116a3.426,3.426,0,0,0-.232,6.145l1.623.812,1.623-.812A3.541,3.541,0,0,0,41.618,60.739Z" transform="translate(5.454 9.406)"/>
    <path id="Path_1360" data-name="Path 1360" class="cls-3" d="M61.945,71.146,55.8,67.9l1.159,6.841a3.59,3.59,0,0,0,1.855,2.551c.232.116.348.116.58.232h.232c.232,0,.464.116.7.116h0a1.973,1.973,0,0,0,.812-.116c.116,0,.116,0,.232-.116.232-.116.348-.116.58-.232a.114.114,0,0,0,.116-.116c.232-.116.464-.348.7-.464l.116-.116a2.533,2.533,0,0,0,.348-.58c0-.116.116-.116.116-.232s.116-.232.116-.348.116-.232.116-.348a.426.426,0,0,1,.116-.348V73.581A3.1,3.1,0,0,0,61.945,71.146Z" transform="translate(8.78 10.825)"/>
    <path id="Path_1379" data-name="Path 1379" class="cls-3" d="M55.476,46.205A3.127,3.127,0,0,0,53.5,47.4c-.116.12-.233.24-.233.359a.449.449,0,0,0-.116.36.422.422,0,0,1-.116.24c0,.12-.116.24-.116.36s-.116.24-.116.359v1.438h0a3.328,3.328,0,0,0,.931,1.8A3.5,3.5,0,0,0,56.174,53.4a3.934,3.934,0,0,0,2.443-.959l1.28-1.318-.349-1.8A3.694,3.694,0,0,0,55.476,46.205Z" transform="translate(8.06 7.12)"/>
    <path id="Path_1398" data-name="Path 1398" class="cls-3" d="M77,34.468c.116-.119.116-.237.232-.356,0-.119.116-.119.116-.237s.116-.237.116-.356a.442.442,0,0,1,.116-.356V31.74a.442.442,0,0,0-.116-.356c0-.119-.116-.237-.116-.356s-.116-.237-.116-.356a.417.417,0,0,0-.116-.237C77,30.316,77,30.2,76.887,30.2l-.232-.237c-.116-.119-.232-.119-.232-.237l-.232-.237a.42.42,0,0,0-.348-.119c-.116,0-.232-.119-.348-.119s-.232-.119-.348-.119-.232-.119-.348-.119a3.262,3.262,0,0,0-3.014.949L66.8,34.943l6.841,1.068H74.1a4.123,4.123,0,0,0,2.551-1.068c.116-.119.232-.237.232-.356C76.887,34.705,77,34.587,77,34.468Z" transform="translate(10.417 4.715)"/>
    <path id="Path_1417" data-name="Path 1417" class="cls-3" d="M45.908,28.524a3.74,3.74,0,0,0,.239,2c0,.118.119.118.119.236.119.118.119.236.239.353l.119.118.358.353.119.118c.119.118.358.236.477.353a.116.116,0,0,1,.119.118c.119.118.238.118.358.236.119,0,.119,0,.238.118a1.086,1.086,0,0,0,.6.118h.477a6.052,6.052,0,0,0,1.431-.236,3.544,3.544,0,0,0,1.908-4.595L51.87,26.05l-2.027-.236A3.28,3.28,0,0,0,45.908,28.524Z" transform="translate(7.124 3.99)"/>
    <path id="Path_1436" data-name="Path 1436" class="cls-3" d="M35.344,4.754l3.138,7.54L41.6,4.754a3.2,3.2,0,0,0-.116-2.9c-.116-.116-.116-.232-.232-.348l-.232-.232c-.116-.116-.116-.232-.232-.232L40.561.812,40.329.58C40.213.464,40.1.464,39.982.348c-.116,0-.116-.116-.232-.116s-.232-.116-.464-.116c-.116,0-.116,0-.232-.116H37.779c-.116,0-.232.116-.348.116s-.232.116-.348.116-.232.116-.348.116-.232.116-.348.116c-.116.116-.232.116-.232.232l-.232.232c-.116.116-.116.232-.232.232l-.232.232c-.116.116-.116.232-.232.348A4.465,4.465,0,0,0,35.344,4.754Z" transform="translate(5.468 0)"/>
    <path id="Path_1455" data-name="Path 1455" class="cls-3" d="M3.462,35.944h.464L10.767,34.9l-4.986-4.87A3.652,3.652,0,0,0,2.767,29.1a.426.426,0,0,0-.348.116c-.116,0-.232,0-.232.116-.116,0-.232.116-.348.116s-.232.116-.348.116-.116.116-.232.232-.232.116-.232.232L.8,30.263C.68,30.379.68,30.5.564,30.5a.359.359,0,0,0-.116.232c0,.116-.116.232-.116.348s-.116.232-.116.348S.1,31.655.1,31.771v1.391a.426.426,0,0,0,.116.348c0,.116.116.232.116.348a.4.4,0,0,0,.116.232c0,.116.116.232.232.348,0,.116.116.116.116.232.116.116.116.232.232.348A3.139,3.139,0,0,0,3.462,35.944Z" transform="translate(-0.1 4.635)"/>
    <path id="Path_1457" data-name="Path 1457" class="cls-3" d="M26.31,32.228a2.977,2.977,0,0,0,1.4.232h.467c.233,0,.35-.116.583-.116.117,0,.117,0,.233-.116.117,0,.233-.116.35-.232a.114.114,0,0,0,.117-.116c.117-.116.35-.232.467-.348l.117-.116.35-.348.117-.116c.117-.116.117-.232.233-.348,0-.116.117-.116.117-.232a3.7,3.7,0,0,0,.233-1.971,3.469,3.469,0,0,0-3.967-2.9l-1.867.335-.933,1.636A3.887,3.887,0,0,0,26.31,32.228Z" transform="translate(3.732 4.062)"/>
  </g>
</svg>
