<svg xmlns="http://www.w3.org/2000/svg" viewBox="0 0 77 7.421">
  <defs>
    <style>
      .cls-1, .cls-2 {
        fill: #44b68f;
      }

      .cls-2 {
        opacity: 0.335;
      }
    </style>
  </defs>
  <g id="Group_1969" data-name="Group 1969" transform="translate(-1186 -295.335)">
    <path id="Rectangle_203" data-name="Rectangle 203" class="cls-1" d="M3.71,0H57.335a0,0,0,0,1,0,0V7.421a0,0,0,0,1,0,0H3.71A3.71,3.71,0,0,1,0,3.71v0A3.71,3.71,0,0,1,3.71,0Z" transform="translate(1186 295.335)"/>
    <path id="Rectangle_204" data-name="Rectangle 204" class="cls-2" d="M0,0H56.57a3.906,3.906,0,0,1,3.906,3.906v0a3.515,3.515,0,0,1-3.515,3.515H0a0,0,0,0,1,0,0V0A0,0,0,0,1,0,0Z" transform="translate(1202.524 295.335)"/>
  </g>
</svg>
