<svg xmlns="http://www.w3.org/2000/svg" viewBox="0 0 226.179 200.6">
  <defs>
    <style>
      .cls-1 {
        fill: #00a3d2;
      }
    </style>
  </defs>
  <g id="Group_1621" data-name="Group 1621" transform="translate(0.038)">
    <path id="Path_625" data-name="Path 625" class="cls-1" d="M225.8,135.5l-22.9-32.7a2.151,2.151,0,0,0-3.5,0l-22.9,32.7a1.95,1.95,0,0,0,1.8,3h18.9a81.719,81.719,0,0,1-22.4,31.2,91.3,91.3,0,0,1-119-.3C40.2,155.6,30,136.6,28.3,115.3a4.464,4.464,0,1,0-8.9.7h0a89.843,89.843,0,0,0,30.5,60.1,100.294,100.294,0,0,0,130.9.4,90.8,90.8,0,0,0,26.1-38h17.3A1.924,1.924,0,0,0,225.8,135.5Z"/>
    <path id="Path_626" data-name="Path 626" class="cls-1" d="M26.8,97.9,49.7,65.2a1.95,1.95,0,0,0-1.8-3H29A81.719,81.719,0,0,1,51.4,31a91.147,91.147,0,0,1,119,.2C186,45,196.2,64.1,197.8,85.3a4.468,4.468,0,0,0,4.8,4.1,4.539,4.539,0,0,0,4.1-4.8h0a89.842,89.842,0,0,0-30.5-60.1,100.025,100.025,0,0,0-130.7-.4,90.8,90.8,0,0,0-26.1,38H2.1a1.95,1.95,0,0,0-1.8,3L23.2,97.8A2.2,2.2,0,0,0,26.8,97.9Z"/>
  </g>
</svg>
