<svg xmlns="http://www.w3.org/2000/svg" viewBox="0 0 250.981 233.7">
  <defs>
    <style>
      .cls-1 {
        fill: #63b190;
      }
    </style>
  </defs>
  <g id="Group_1620" data-name="Group 1620" transform="translate(-0.019)">
    <path id="Path_623" data-name="Path 623" class="cls-1" d="M135.3,64.9a4.481,4.481,0,0,0-4.5,4.5h0v50.2a4.5,4.5,0,0,0,2.7,4.1l45.1,19.2a4.5,4.5,0,0,0,3.5-8.3l-42.4-18V69.4A4.337,4.337,0,0,0,135.3,64.9Z" transform="translate(-2 2)"/>
    <path id="Path_624" data-name="Path 624" class="cls-1" d="M248.4,92.5A116.914,116.914,0,0,0,134.3,0a113.128,113.128,0,0,0-24.4,2.6A115.722,115.722,0,0,0,51.8,34.1,116.9,116.9,0,0,0,22,84.6H2.2A2.176,2.176,0,0,0,.4,88L24,124.2a2.149,2.149,0,0,0,3.6,0L51.5,88a2.192,2.192,0,0,0-1.8-3.4H31.4A108.2,108.2,0,0,1,58.2,40.4a106.21,106.21,0,0,1,53.6-29,107.234,107.234,0,0,1,89.8,21.3,106.919,106.919,0,0,1,38,61.7,107.234,107.234,0,0,1-21.3,89.8,106.919,106.919,0,0,1-61.7,38,109,109,0,0,1-22.5,2.4,107.893,107.893,0,0,1-78.8-34.4,4.528,4.528,0,0,0-6.6,6.2,116.888,116.888,0,0,0,85.4,37.3,113.127,113.127,0,0,0,24.4-2.6A116.914,116.914,0,0,0,251,117,113.372,113.372,0,0,0,248.4,92.5Z"/>
  </g>
</svg>
