<svg xmlns="http://www.w3.org/2000/svg" viewBox="0 0 233.649 225.604">
  <defs>
    <style>
      .cls-1 {
        fill: #63b190;
      }
    </style>
  </defs>
  <path id="workshop" class="cls-1" d="M232.8,179.6a17.483,17.483,0,0,0-3.1-5.2l-.4-.4-70.6-63.3c2.1-2.5,5.2-6,9-10,6.1-6.6,13.8-14.5,20.9-21.2,3.5-3.4,6.9-6.5,9.9-9.1,1.5-1.3,2.8-2.4,4-3.3.9-.7,1.8-1.3,2.5-1.8a38.158,38.158,0,0,0,19.9-12,30,30,0,0,0,7.5-19.5,23.714,23.714,0,0,0-1.7-9.1,24.058,24.058,0,0,0-5.1-8.1l-.1-.1a1.381,1.381,0,0,0-.4-.3,1.381,1.381,0,0,0-.4-.3c-.1,0-.1-.1-.2-.1s-.1-.1-.2-.1c-.1-.1-.3-.1-.4-.2a.6.6,0,0,0-.4-.1c-.1,0-.3-.1-.4-.1a.6.6,0,0,1-.4-.1h-.8a.6.6,0,0,0-.4.1c-.1,0-.3.1-.4.1a.758.758,0,0,0-.4.2c-.1.1-.3.1-.4.2s-.2.1-.4.2c-.1.1-.3.2-.4.3-.1,0-.1.1-.2.1l-.1.1a1.38,1.38,0,0,0-.3.4,1.38,1.38,0,0,0-.3.4c0,.1-.1.1-.1.2h0l-7.2,12.6a13.6,13.6,0,0,1-4.1,4.4,6.414,6.414,0,0,1-3.4,1.1,5.334,5.334,0,0,1-3.8-1.7,7,7,0,0,1-1.8-4.8,11.019,11.019,0,0,1,1.5-5.3v-.1l7.2-14.2h0V9.4c0-.1.1-.2.1-.3.1-.2.1-.3.2-.5a1.268,1.268,0,0,0,.1-.6.367.367,0,0,1,.1-.3h0V6.8c0-.2-.1-.3-.1-.5a5.637,5.637,0,0,0-.4-1.2,3.915,3.915,0,0,0-.8-1l-.3-.3c-.1-.1-.1-.1-.2-.1-.2-.1-.3-.2-.5-.3h0c-.1,0-.2-.1-.3-.1-.2-.1-.3-.2-.5-.2a1.268,1.268,0,0,0-.6-.1.367.367,0,0,1-.3-.1h-.1a14.769,14.769,0,0,0-2.1-.1,27.6,27.6,0,0,0-11.8,2.7,31.766,31.766,0,0,0-13,11.6,30.357,30.357,0,0,0-5.1,16.6,24.824,24.824,0,0,0,.6,5.4,37.155,37.155,0,0,1-1.9,4.5,123.337,123.337,0,0,1-7.4,12.8c-4.5,6.9-9.9,14.2-14.8,20.4-4.7,6-8.9,11.1-11.4,13.8L103.4,61h0l-2.2-2a29.29,29.29,0,0,1-4.6-6.6,15.813,15.813,0,0,1-.8-11.9,28.194,28.194,0,0,1,2.8-5.9A45.762,45.762,0,0,1,114.1,21a41.522,41.522,0,0,1,19.5-4.5q2.85,0,6,.3h1.2a.6.6,0,0,0,.4-.1c.1,0,.3-.1.4-.1a.758.758,0,0,0,.4-.2c.1-.1.3-.1.4-.2a.52.52,0,0,1,.4-.2l.3-.3.3-.3.3-.3c.1-.1.2-.2.2-.3a.758.758,0,0,0,.2-.4c0-.1.1-.1.1-.2V14a.6.6,0,0,0,.1-.4c0-.2.1-.3.1-.5V11.7a.6.6,0,0,0-.1-.4c0-.1-.1-.3-.1-.4a.758.758,0,0,0-.2-.4c-.1-.1-.1-.3-.2-.4a.52.52,0,0,1-.2-.4l-.3-.3-.3-.3-.3-.3c-.1-.1-.2-.2-.3-.2a.758.758,0,0,0-.4-.2c-.1,0-.1-.1-.2-.1C128.7,2.9,115.9,0,103.5,0A72.892,72.892,0,0,0,64.2,11.4Q45.9,22.95,30.7,46.8l-.2.3a13.647,13.647,0,0,0-1.3,3.7,15.274,15.274,0,0,0-.4,3.6,36.71,36.71,0,0,0,1.1,7.9,32.349,32.349,0,0,1,.9,6,7.931,7.931,0,0,1-.2,1.7,4.751,4.751,0,0,1-.9,1.9c-.1.2-.3.3-.5.5l-6.8-5.8c-.1-.1-.2-.2-.3-.2a1.381,1.381,0,0,0-.4-.3c-.1-.1-.3-.1-.4-.2s-.3-.1-.4-.2c-.1,0-.3-.1-.4-.1s-.3-.1-.4-.1h-.8a.6.6,0,0,0-.4.1.6.6,0,0,0-.4.1.758.758,0,0,0-.4.2c-.1.1-.3.1-.4.2a.758.758,0,0,1-.4.2c-.1.1-.3.1-.4.2l-.3.3-.3.3L1.1,84.3h0c-.1.1-.2.2-.2.3a1.38,1.38,0,0,0-.3.4c-.1.1-.1.3-.2.4s-.1.3-.2.4c0,.1-.1.3-.1.4s-.1.3-.1.4v.8a.6.6,0,0,0,.1.4.6.6,0,0,0,.1.4c0,.1.1.3.1.4.1.1.1.3.2.4a.758.758,0,0,1,.2.4c.1.1.1.3.2.4l.3.3.3.3h0l43.2,36.7h0c.1.1.2.1.3.2s.3.2.4.3.3.1.4.2.3.1.4.2c.1,0,.3.1.4.1s.3.1.4.1h.8a.758.758,0,0,0,1.2-.4c.1-.1.3-.1.4-.2a.52.52,0,0,1,.4-.2.758.758,0,0,1,.4-.2l.3-.3.3-.3h0l15.4-18.9a4.613,4.613,0,0,0,1-3.3,4.851,4.851,0,0,0-.8-2.1c-.1-.1-.1-.2-.2-.2l-.6-.6h0l-5.2-4.3c.1-.1.1-.2.2-.3A6.035,6.035,0,0,1,63.1,95a6.459,6.459,0,0,1,2.6-.4c.8,0,1.7.1,2.7.2a34.912,34.912,0,0,0,3.5.2,16.276,16.276,0,0,0,6.2-1.1,18.212,18.212,0,0,0,2.7-1.5l30,26.7c-2,2.3-4.7,5.3-7.8,8.6-6.1,6.6-13.8,14.5-20.9,21.2-3.5,3.4-6.9,6.5-9.9,9.1-1.5,1.3-2.8,2.4-4,3.3-.9.7-1.8,1.3-2.5,1.8a38.158,38.158,0,0,0-19.9,12,30,30,0,0,0-7.5,19.5,23.714,23.714,0,0,0,1.7,9.1,24.058,24.058,0,0,0,5.1,8.1l.1.1c.9.6.9.7,1,.7s.1.1.2.1c.1.1.3.1.4.2a.6.6,0,0,0,.4.1c.1,0,.3.1.4.1a.6.6,0,0,1,.4.1h.8a.6.6,0,0,0,.4-.1c.1,0,.3-.1.4-.1a.758.758,0,0,0,.4-.2c.1-.1.3-.1.4-.2s.2-.1.4-.2c.1-.1.3-.2.4-.3.1,0,.1-.1.2-.1l.1-.1c.6-.9.7-.9.7-1l7.2-12.6a13.6,13.6,0,0,1,4.1-4.4,6.414,6.414,0,0,1,3.4-1.1,5.334,5.334,0,0,1,3.8,1.7,7,7,0,0,1,1.8,4.8,11.019,11.019,0,0,1-1.5,5.3v.1L64.1,219h0v.1c0,.1-.1.2-.1.3-.1.2-.1.3-.2.5a1.268,1.268,0,0,0-.1.6.367.367,0,0,1-.1.3h0v.8c0,.2.1.3.1.5a5.638,5.638,0,0,0,.4,1.2,3.915,3.915,0,0,0,.8,1l.3.3c.1.1.1.1.2.1a2.186,2.186,0,0,1,.5.3h0c.1,0,.2.1.3.1.2.1.3.2.5.2a1.268,1.268,0,0,0,.6.1.367.367,0,0,1,.3.1h.1a14.771,14.771,0,0,0,2.1.1,27.6,27.6,0,0,0,11.8-2.7,31.766,31.766,0,0,0,13-11.6,30.357,30.357,0,0,0,5.1-16.6,24.824,24.824,0,0,0-.6-5.4,37.154,37.154,0,0,1,1.9-4.5,123.339,123.339,0,0,1,7.4-12.8c4.5-6.9,9.9-14.2,14.8-20.4,4-5.2,7.7-9.6,10.3-12.6l70.8,62.9c.1.1.4.3.5.4a16.516,16.516,0,0,0,8.9,2.7,17.7,17.7,0,0,0,7.6-1.8,22.28,22.28,0,0,0,8.7-7.4,20.468,20.468,0,0,0,2.6-5.1,18.58,18.58,0,0,0,1-5.8,11.273,11.273,0,0,0-.8-5.3ZM151.3,86.5c5.3-6.6,11.8-15.1,17.3-23.3A136.043,136.043,0,0,0,176,51.1a57.12,57.12,0,0,0,4.7-10.8V40c0-.2.1-.3.1-.5v-.8a.9.9,0,0,0-.1-.5v-.3a16.116,16.116,0,0,1-.6-4.4,20.433,20.433,0,0,1,1.7-7.9,23.648,23.648,0,0,1,7.8-9.9,20.189,20.189,0,0,1,5.6-3l-3.4,6.8h0a20.145,20.145,0,0,0-2.5,9.5,15.881,15.881,0,0,0,4.2,10.9,14.055,14.055,0,0,0,10.3,4.5,15.167,15.167,0,0,0,8.3-2.5,22.521,22.521,0,0,0,6.9-7.4l.1-.1,3.5-6.1a16.1,16.1,0,0,1,.9,5.4,21.287,21.287,0,0,1-5.4,13.7,29.788,29.788,0,0,1-15.9,9.3c-.1,0-.2.1-.3.1-.2,0-.3.1-.5.2-.1.1-.3.1-.4.2a.349.349,0,0,0-.2.1,60.8,60.8,0,0,0-5.2,3.8c-3.3,2.7-7.2,6.2-11.4,10.2-6.2,5.9-13,12.8-19,19-3,3.1-5.7,6.1-8.1,8.7-2,2.2-3.7,4.1-5.1,5.8l-9.1-8.2C144.9,94.2,147.9,90.8,151.3,86.5ZM72.2,86c-.8,0-1.7-.1-2.7-.2a34.914,34.914,0,0,0-3.5-.2,18.443,18.443,0,0,0-3.9.4,14.207,14.207,0,0,0-6.2,3.2,24.407,24.407,0,0,0-5.2,6.9,4.6,4.6,0,0,0,1.1,5.6l4.8,3.9-9.7,11.9-36-30.7,9-10.3,6,5.1a4.56,4.56,0,0,0,5,.6A24.246,24.246,0,0,0,35,79.5a14.872,14.872,0,0,0,3.8-5.3,14.616,14.616,0,0,0,1-5.7,35.749,35.749,0,0,0-1.1-7.8,31.006,31.006,0,0,1-.9-6.1,9.908,9.908,0,0,1,.2-1.8,5.023,5.023,0,0,1,.5-1.3C48,36.4,58.2,25.8,69,19A63.1,63.1,0,0,1,103.4,9a77.33,77.33,0,0,1,13.3,1.2A55.8,55.8,0,0,0,110,13,55.428,55.428,0,0,0,91.3,29.3a.769.769,0,0,1-.2.3,36.616,36.616,0,0,0-3.8,8.1,27.423,27.423,0,0,0-1.2,7.8,25.135,25.135,0,0,0,2.5,10.7,38.908,38.908,0,0,0,5.7,8.4L77.6,83.4v.1h0a6.342,6.342,0,0,1-2.7,2.1,7.318,7.318,0,0,1-2.7.4Zm47.5,55.8c-5.3,6.6-11.8,15.1-17.3,23.3A136.041,136.041,0,0,0,95,177.2,57.119,57.119,0,0,0,90.3,188v.3c0,.2-.1.3-.1.5v.8a.9.9,0,0,0,.1.5v.3a16.114,16.114,0,0,1,.6,4.4,20.433,20.433,0,0,1-1.7,7.9,23.648,23.648,0,0,1-7.8,9.9,20.189,20.189,0,0,1-5.6,3l3.4-6.8h0a20.145,20.145,0,0,0,2.5-9.5,15.881,15.881,0,0,0-4.2-10.9,14.055,14.055,0,0,0-10.3-4.5,15.167,15.167,0,0,0-8.3,2.5,22.521,22.521,0,0,0-6.9,7.4l-.1.1L48.4,200a16.106,16.106,0,0,1-.9-5.4,21.287,21.287,0,0,1,5.4-13.7,29.788,29.788,0,0,1,15.9-9.3c.1,0,.2-.1.3-.1.2,0,.3-.1.5-.2.1-.1.3-.1.4-.2a.349.349,0,0,0,.2-.1,60.8,60.8,0,0,0,5.2-3.8c3.3-2.7,7.2-6.2,11.4-10.2,6.2-5.9,13-12.8,19-19,3-3.1,5.7-6.1,8.1-8.7,1.5-1.6,2.7-3.1,3.9-4.4l9.1,8.1C125,135.4,122.5,138.3,119.7,141.8ZM223.9,189a13.53,13.53,0,0,1-4.3,5.2,8.927,8.927,0,0,1-2.9,1.5,9.818,9.818,0,0,1-2.9.5,6.921,6.921,0,0,1-3.8-1.1L87.4,86l13.4-15.2L223.1,180.5a8.459,8.459,0,0,1,1.3,2.2,6.722,6.722,0,0,1,.4,2.4A9.959,9.959,0,0,1,223.9,189Z" transform="translate(0.003 0)"/>
</svg>
