<svg xmlns="http://www.w3.org/2000/svg" viewBox="1445.337 -1645.063 34.877 26.163">
  <defs>
    <style>
      .cls-1 {
        fill: #41000f;
      }
    </style>
  </defs>
  <g id="Group_1958" data-name="Group 1958" transform="translate(1252 -2423)">
    <path id="Path_1692" data-name="Path 1692" class="cls-1" d="M34.641,5.353a2.6,2.6,0,0,0-4.888.449L28.69,6.29l.238-1.18c.083-.044.172-.089.249-.139A2.6,2.6,0,0,0,28.263.255a2.6,2.6,0,0,0-2.516,4.217L25.42,6.09l-.377,1.868c-.349.155-.7.31-1.07.466A19.458,19.458,0,0,0,21.1,9.842H20.92l-.582-5.486,1.352-.144a1.139,1.139,0,0,0,.765-.416,1.124,1.124,0,0,0,.244-.831L22.494,1.02A1.138,1.138,0,0,0,21.247.006l-3.94.421a.186.186,0,0,0-.078.028L14.436,2.034a1.143,1.143,0,0,0-.571,1.108l.078.754h0A1.134,1.134,0,0,0,15.068,4.91.939.939,0,0,0,15.19,4.9l3.275-.349.56,5.287H14.309L12.541,5.237a.184.184,0,0,0-.033-.055c-.006-.022-.006-.044-.011-.067L12.1,4.084a.828.828,0,0,0-1.064-.477L9.787,4.09a.821.821,0,0,0-.471,1.064l.393,1.031c.006.011.011.017.017.028a.178.178,0,0,0,.011.094c.316.815.51,1.408.7,1.978.155.466.321.948.543,1.552H7.637l-.975-1.48.964-.637a.211.211,0,0,0,.061-.288L6.938,6.3a.2.2,0,0,0-.116-.083A2.25,2.25,0,0,1,5.5,4.245a.2.2,0,0,0-.028-.161L3.641,1.3A.825.825,0,0,0,3.092.942a.893.893,0,0,0-.648.133L.466,2.383A.859.859,0,0,0,.2,3.563l1.84,2.787a.205.205,0,0,0,.111.083A2.867,2.867,0,0,1,3.486,8.473a.218.218,0,0,0,.033.116L4.251,9.7a.206.206,0,0,0,.133.089.108.108,0,0,0,.039.006.233.233,0,0,0,.116-.033L5.5,9.122l.471.709H.36a.359.359,0,0,0-.36.36v2.544a.359.359,0,0,0,.36.36H2.328V25.8a.359.359,0,0,0,.36.36H29.039a.359.359,0,0,0,.36-.36V13.1h1.967a.359.359,0,0,0,.36-.36V10.2a.359.359,0,0,0-.36-.36H28.745l.865-.393,1.507-.687a2.581,2.581,0,0,0,1.169.283,2.647,2.647,0,0,0,1.075-.233,2.6,2.6,0,0,0,1.358-1.457A2.645,2.645,0,0,0,34.641,5.353ZM27,9.837a.829.829,0,0,0,.227-.333.848.848,0,0,0-.022-.648.834.834,0,0,0-.477-.443.848.848,0,0,0-.648.022.834.834,0,0,0-.443.477.848.848,0,0,0,.022.648.823.823,0,0,0,.2.272h-.781l.7-3.464.139.028,2.228.454-.6,2.987Zm-.161-.477a.445.445,0,0,1-.227.244.432.432,0,0,1-.333.011.445.445,0,0,1-.244-.227.419.419,0,0,1-.011-.327.445.445,0,0,1,.227-.244.394.394,0,0,1,.177-.039.475.475,0,0,1,.15.028.445.445,0,0,1,.244.227h0A.419.419,0,0,1,26.839,9.36Zm1.4-2.915-2.366-.482L26.1,4.816a2.524,2.524,0,0,0,1.125.532,2.773,2.773,0,0,0,.521.055,2.634,2.634,0,0,0,.72-.105ZM25.6,2.366A2.189,2.189,0,0,1,27.742.615,2.394,2.394,0,0,1,28.18.66,2.186,2.186,0,1,1,25.6,2.366ZM24.134,8.8c.272-.116.538-.233.8-.349l-.283,1.385H21.907A23.866,23.866,0,0,1,24.134,8.8ZM15.151,4.489a.721.721,0,0,1-.792-.643l-.078-.754a.726.726,0,0,1,.36-.7L17.39.831l3.9-.416a.718.718,0,0,1,.792.643L22.283,3a.7.7,0,0,1-.155.526.73.73,0,0,1-.482.266l-1.557.166h0l-1.463.155h0Zm3.73.017,1.053-.111.576,5.442H19.446Zm-5,5.331h-.244L12.026,5.653l.216-.083Zm-1.668,0c-.238-.615-.466-1.208-.693-1.8l-.737-1.906.859-.333,1.546,4.034ZM9.7,5a.414.414,0,0,1,.238-.532l1.252-.477a.475.475,0,0,1,.15-.028A.445.445,0,0,1,11.51,4a.413.413,0,0,1,.216.227l.366.959-2.023.776Zm1.131,3.153c-.177-.526-.36-1.075-.637-1.8l.194-.072.737,1.912c.211.538.421,1.086.637,1.651h-.333C11.178,9.172,11.006,8.651,10.834,8.152Zm-5.387.515h0L4.483,9.3,3.9,8.418A3.285,3.285,0,0,0,2.35,6.068L.549,3.336a.442.442,0,0,1,.15-.61L2.677,1.419a.478.478,0,0,1,.344-.072.428.428,0,0,1,.277.177l1.8,2.721A2.714,2.714,0,0,0,6.639,6.589l.6.9-.964.637Zm.4.227.233-.155.233-.155.826,1.247H6.467ZM28.673,25.448H3.042V13.1h9.776v2.178h0a.26.26,0,0,0,.26.26h5.564a.26.26,0,0,0,.26-.26c0-.006-.006-.011-.006-.017V13.1h9.781V25.448Zm-10.3-10.43H13.333V13.1h5.043ZM31,12.38H.715V10.552H31ZM28,9.715l.46-2.272.781,1.707Zm1.618-.743-.5-1.1-.5-1.1,1.064-.488a2.624,2.624,0,0,0,.227,1.219,2.587,2.587,0,0,0,.776.97ZM34.32,7.2a2.185,2.185,0,1,1-.061-1.674A2.174,2.174,0,0,1,34.32,7.2Z" transform="translate(193.337 777.937)"/>
    <path id="Path_1693" data-name="Path 1693" class="cls-1" d="M563.6,96.867a1.061,1.061,0,0,0-.56.6,1.079,1.079,0,0,0,.028.82,1.061,1.061,0,0,0,.6.56,1.1,1.1,0,0,0,.377.066,1.035,1.035,0,0,0,.443-.1,1.061,1.061,0,0,0,.56-.6,1.068,1.068,0,0,0-1.446-1.347Zm1.058,1.2a.638.638,0,0,1-.344.366.649.649,0,0,1-.5.017.637.637,0,0,1-.366-.344.656.656,0,0,1,.321-.865.689.689,0,0,1,.272-.061.654.654,0,0,1,.615.887Z" transform="translate(-338.44 686.529)"/>
    <path id="Path_1694" data-name="Path 1694" class="cls-1" d="M482.177,33.343a.954.954,0,0,0,.216.022,1.06,1.06,0,0,0,.587-.177,1.073,1.073,0,0,0,.3-1.485,1.073,1.073,0,0,0-1.485-.3,1.072,1.072,0,0,0,.377,1.945Zm-.427-1.18a.654.654,0,0,1,.637-.526,1.075,1.075,0,0,1,.133.011.64.64,0,0,1,.416.277.669.669,0,0,1,.094.493.653.653,0,0,1-1.28-.255Z" transform="translate(-261.309 748.446)"/>
    <path id="Path_1695" data-name="Path 1695" class="cls-1" d="M36.5,48.109a.213.213,0,0,0-.288-.061.211.211,0,0,0-.061.288l2.887,4.372a.2.2,0,0,0,.172.094.233.233,0,0,0,.116-.033.211.211,0,0,0,.061-.288Z" transform="translate(159.223 732.583)"/>
  </g>
</svg>
