<svg xmlns="http://www.w3.org/2000/svg" viewBox="0 0 90.815 90.81">
  <defs>
    <style>
      .cls-1 {
        fill: #ff8f00;
      }
    </style>
  </defs>
  <g id="Group_1746" data-name="Group 1746" transform="translate(-557 -637)">
    <path id="Path_1614" data-name="Path 1614" class="cls-1" d="M45.405,0A45.405,45.405,0,1,0,90.81,45.405C91.162,20.415,70.747,0,45.405,0Zm28.51,73.915a39.944,39.944,0,0,1-57.02,0,39.944,39.944,0,0,1,0-57.02,39.944,39.944,0,0,1,57.02,0,39.879,39.879,0,0,1,11.967,28.51A39.275,39.275,0,0,1,73.915,73.915Z" transform="translate(557 637)"/>
    <path id="Path_1615" data-name="Path 1615" class="cls-1" d="M48.485,18.732H9.416A2.776,2.776,0,0,1,6.6,15.916,2.59,2.59,0,0,1,9.416,13.1H48.485a2.816,2.816,0,1,1,0,5.632Z" transform="translate(575.038 659.098)"/>
    <path id="Path_1616" data-name="Path 1616" class="cls-1" d="M48.485,23.332H9.416A2.776,2.776,0,0,1,6.6,20.516,2.59,2.59,0,0,1,9.416,17.7H48.485a2.816,2.816,0,1,1,0,5.632Z" transform="translate(575.038 670.689)"/>
  </g>
</svg>
