<?xml version="1.0" encoding="utf-8"?>
<!-- Generator: Adobe Illustrator 18.0.0, SVG Export Plug-In . SVG Version: 6.00 Build 0)  -->
<!DOCTYPE svg PUBLIC "-//W3C//DTD SVG 1.1//EN" "http://www.w3.org/Graphics/SVG/1.1/DTD/svg11.dtd">
<svg version="1.1" id="Layer_1" xmlns="http://www.w3.org/2000/svg" xmlns:xlink="http://www.w3.org/1999/xlink" x="0px" y="0px"
	 viewBox="0 0 100 100" enable-background="new 0 0 100 100" xml:space="preserve">
<g>
	<g>
		<path fill="#ED037C" d="M8.4,95.1c-0.5,0-1.1-0.1-1.6-0.4c-1.8-0.9-2.5-3-1.6-4.8L46.8,6.8c0.9-1.8,3-2.5,4.8-1.6
			c1.8,0.9,2.5,3,1.6,4.8L11.6,93.2C11,94.4,9.7,95.1,8.4,95.1z"/>
	</g>
	<g>
		<path fill="#ED037C" d="M91.6,95.1H8.4c-2,0-3.5-1.6-3.5-3.5S6.4,88,8.4,88h83.2c2,0,3.5,1.6,3.5,3.5S93.5,95.1,91.6,95.1z"/>
	</g>
	<g>
		<path fill="#ED037C" d="M91.6,95.1c-1.3,0-2.6-0.7-3.2-2L46.8,10c-0.9-1.8-0.2-3.9,1.6-4.8c1.8-0.9,3.9-0.2,4.8,1.6L94.8,90
			c0.9,1.8,0.2,3.9-1.6,4.8C92.7,95,92.1,95.1,91.6,95.1z"/>
	</g>
	
</g>
</svg>
