<svg id="Group_1761" data-name="Group 1761" xmlns="http://www.w3.org/2000/svg" viewBox="0 0 278.604 273.6">
  <defs>
    <style>
      .cls-1 {
        fill: #00a3d2;
      }
    </style>
  </defs>
  <path id="Path_799" data-name="Path 799" class="cls-1" d="M273.8,153a16.387,16.387,0,0,0-11.7-4.8H169.7A17,17,0,0,0,158,153a16.387,16.387,0,0,0-4.8,11.7v92.4a17,17,0,0,0,4.8,11.7,16.387,16.387,0,0,0,11.7,4.8h92.4a17,17,0,0,0,11.7-4.8,16.387,16.387,0,0,0,4.8-11.7V164.7A15.987,15.987,0,0,0,273.8,153Zm-4.1,104.1a7.511,7.511,0,0,1-7.5,7.5H169.8a7.511,7.511,0,0,1-7.5-7.5V164.7a7.511,7.511,0,0,1,7.5-7.5h92.4a7.511,7.511,0,0,1,7.5,7.5Z"/>
  <path id="Path_800" data-name="Path 800" class="cls-1" d="M72.7,121.2v.5c0,.1.1.3.1.4s.1.3.1.4c.1.1.1.3.2.4s.1.3.2.4a.52.52,0,0,1,.2.4l.3.3.3.3.3.3c.1.1.3.2.4.3.1,0,.1.1.2.1h.1c.1.1.3.1.5.2.1,0,.3.1.4.1a.6.6,0,0,1,.4.1H193.5a.9.9,0,0,0,.5-.1.756.756,0,0,0,.4-.1c.2,0,.3-.1.5-.1.1,0,.2-.1.4-.1.1,0,.1,0,.2-.1s.2-.1.3-.2.2-.1.3-.2a1.756,1.756,0,0,0,.5-.4l.2-.2c.1-.2.3-.3.4-.5,0-.1.1-.1.1-.2l.3-.6c0-.1.1-.1.1-.2.1-.2.1-.4.2-.6v-.2c0-.2.1-.5.1-.7v-.1h0a2.2,2.2,0,0,0-.1-.8v-.1a1.421,1.421,0,0,0-.2-.6c0-.1-.1-.1-.1-.2s0-.1-.1-.2L139.4,2.5c0-.1-.1-.1-.1-.2s-.1-.1-.1-.2a1,1,0,0,0-.4-.5l-.1-.1-.5-.5c-.1,0-.1-.1-.2-.1-.2-.1-.4-.3-.6-.4h-.1c-.1,0-.1,0-.2-.1a1.421,1.421,0,0,0-.6-.2c-.1,0-.2-.1-.4-.1s-.3-.1-.5-.1h-.8a.9.9,0,0,0-.5.1.756.756,0,0,0-.4.1c-.2.1-.4.1-.6.2-.1,0-.1,0-.2.1H133a2.092,2.092,0,0,0-.6.4c-.1,0-.1.1-.2.1-.2.1-.3.3-.5.5l-.1.1a2.182,2.182,0,0,1-.4.5c0,.1-.1.1-.1.2s-.1.1-.1.2L73.1,118.9v.1c-.1.1-.1.3-.2.5,0,.1-.1.3-.1.4a.6.6,0,0,1-.1.4v.6Q72.7,121.05,72.7,121.2ZM135.4,14.5l50.9,101.9H84.5Z"/>
  <path id="Path_801" data-name="Path 801" class="cls-1" d="M62.7,148.2a62.65,62.65,0,1,0,62.7,62.7,62.822,62.822,0,0,0-62.7-62.7Zm38,100.7a53.837,53.837,0,1,1,15.7-38A53.492,53.492,0,0,1,100.7,248.9Z"/>
</svg>
