<svg xmlns="http://www.w3.org/2000/svg" viewBox="0 0 473.68 473.68">
  <defs>
    <style>
      .cls-1 {
        opacity: 0.346;
      }

      .cls-2 {
        fill: #29337a;
      }

      .cls-3 {
        fill: #fff;
      }

      .cls-4 {
        fill: #d32030;
      }

      .cls-5 {
        fill: #252f6c;
      }

      .cls-6 {
        fill: #e7e7e7;
      }

      .cls-7 {
        fill: #d71f28;
      }

      .cls-8 {
        fill: #e51d35;
      }
    </style>
  </defs>
  <g id="united-kingdom" class="cls-1">
    <g id="Group_2139" data-name="Group 2139">
      <path id="Path_1069" data-name="Path 1069" class="cls-2" d="M41.712,102.641A235.815,235.815,0,0,0,7.794,176.453H115.528Z"/>
      <path id="Path_1070" data-name="Path 1070" class="cls-2" d="M170.511,9.48A235.987,235.987,0,0,0,95.7,46.648l74.814,74.814Z"/>
      <path id="Path_1071" data-name="Path 1071" class="cls-2" d="M101.261,430.982a235.633,235.633,0,0,0,69.25,33.211V361.743Z"/>
      <path id="Path_1072" data-name="Path 1072" class="cls-2" d="M10.512,306.771A235.948,235.948,0,0,0,45.679,376.6l69.833-69.833Z"/>
    </g>
    <g id="Group_2140" data-name="Group 2140">
      <path id="Path_1073" data-name="Path 1073" class="cls-3" d="M45.619,97.144q-1.986,2.715-3.908,5.5l73.816,73.812H7.793c-1.746,6.645-3.171,13.418-4.345,20.284H145.224Z"/>
      <path id="Path_1074" data-name="Path 1074" class="cls-3" d="M95.767,427.074c1.8,1.343,3.654,2.621,5.493,3.908l69.25-69.242V464.19c6.653,1.945,13.41,3.624,20.284,4.974V332.05Z"/>
      <path id="Path_1075" data-name="Path 1075" class="cls-3" d="M5.25,286.487c1.47,6.873,3.2,13.642,5.258,20.284h105L45.676,376.6a238.434,238.434,0,0,0,25.168,29.12L190.08,286.487Z"/>
      <path id="Path_1076" data-name="Path 1076" class="cls-3" d="M170.511,9.48V121.462L95.7,46.652a238.178,238.178,0,0,0-28.888,25.4L190.791,196.038V4.506C183.921,5.864,177.164,7.547,170.511,9.48Z"/>
    </g>
    <g id="Group_2141" data-name="Group 2141">
      <path id="Path_1077" data-name="Path 1077" class="cls-4" d="M170.511,306.056l-.711.715h.711Z"/>
      <path id="Path_1078" data-name="Path 1078" class="cls-4" d="M190.084,286.487h.71v-.714Z"/>
      <path id="Path_1079" data-name="Path 1079" class="cls-4" d="M281.229,196.737h-.684v.688Z"/>
      <path id="Path_1080" data-name="Path 1080" class="cls-4" d="M171.21,176.457l-.7-.7v.7Z"/>
      <path id="Path_1081" data-name="Path 1081" class="cls-4" d="M190.794,196.037v.7h.7Z"/>
    </g>
    <g id="Group_2142" data-name="Group 2142">
      <path id="Path_1082" data-name="Path 1082" class="cls-5" d="M300.825,411.764v53.091a235.482,235.482,0,0,0,70.211-32.9L313.51,374.432C308.913,390.583,307.231,398.933,300.825,411.764Z"/>
      <path id="Path_1083" data-name="Path 1083" class="cls-5" d="M313.812,108.471l62.8-62.8A235.938,235.938,0,0,0,300.824,8.818V63.356C308.21,78.146,308.831,89.384,313.812,108.471Z"/>
      <path id="Path_1084" data-name="Path 1084" class="cls-5" d="M427.029,377.984a236.163,236.163,0,0,0,36.147-71.213H355.816Z"/>
      <path id="Path_1085" data-name="Path 1085" class="cls-5" d="M465.887,176.457a235.738,235.738,0,0,0-34.9-75.192l-75.2,75.192Z"/>
    </g>
    <g id="Group_2143" data-name="Group 2143">
      <path id="Path_1086" data-name="Path 1086" class="cls-6" d="M327.638,290.5l16.275,16.275,77.9,77.9c1.769-2.214,3.526-4.42,5.217-6.69L355.82,306.775H463.18q3.069-9.957,5.25-20.284H329.16C328.932,289.367,327.911,287.643,327.638,290.5Z"/>
      <path id="Path_1087" data-name="Path 1087" class="cls-6" d="M311.352,120.348l70.607-70.615c-1.769-1.372-3.541-2.737-5.348-4.061l-62.8,62.8C314.463,110.954,310.746,117.805,311.352,120.348Z"/>
      <path id="Path_1088" data-name="Path 1088" class="cls-6" d="M300.825,58.992V8.814q-9.967-2.793-20.284-4.727V28.563C288.088,36.745,294.853,47.022,300.825,58.992Z"/>
      <path id="Path_1089" data-name="Path 1089" class="cls-6" d="M326.041,196.737h144.2c-1.171-6.866-2.6-13.635-4.345-20.284h-110.1l75.2-75.192a238.04,238.04,0,0,0-24.584-29.7l-84.7,84.694C323.988,171.622,325.009,180.544,326.041,196.737Z"/>
      <path id="Path_1090" data-name="Path 1090" class="cls-6" d="M310.088,371l60.952,60.959a237.617,237.617,0,0,0,28.593-23.189L319.46,328.6A411.48,411.48,0,0,1,310.088,371Z"/>
      <path id="Path_1091" data-name="Path 1091" class="cls-6" d="M280.545,442.3v27.28q10.309-1.918,20.284-4.727V411.763C294.853,423.738,288.088,434.13,280.545,442.3Z"/>
    </g>
    <path id="Path_1092" data-name="Path 1092" class="cls-7" d="M321.707,156.259,406.4,71.565a236.8,236.8,0,0,0-24.446-21.832l-66.55,66.561C318.363,128.657,319.706,142.808,321.707,156.259Z"/>
    <g id="Group_2144" data-name="Group 2144">
      <path id="Path_1093" data-name="Path 1093" class="cls-4" d="M225.019.292Q230.938.006,236.836,0,230.9,0,225.019.292Z"/>
      <path id="Path_1094" data-name="Path 1094" class="cls-4" d="M236.836,473.68c-3.938,0-7.872-.108-11.81-.3Q230.9,473.678,236.836,473.68Z"/>
      <path id="Path_1095" data-name="Path 1095" class="cls-4" d="M236.836,473.68a237.334,237.334,0,0,0,43.708-4.1V442.3C268.1,455.786,253.549,473.68,236.836,473.68Z"/>
    </g>
    <g id="Group_2145" data-name="Group 2145">
      <path id="Path_1096" data-name="Path 1096" class="cls-7" d="M470.232,196.737H327.911a636.419,636.419,0,0,1-.681,89.75h141.2a236.28,236.28,0,0,0,1.8-89.75Z"/>
      <path id="Path_1097" data-name="Path 1097" class="cls-7" d="M327.638,290.5c-1.316,13.994-5.9,24.9-8.182,38.1l80.173,80.173a239.087,239.087,0,0,0,22.183-24.094l-77.9-77.907Z"/>
    </g>
    <path id="Path_1098" data-name="Path 1098" class="cls-4" d="M280.545,30.324V4.091A237.968,237.968,0,0,0,236.836,0C253.549,0,268.1,16.843,280.545,30.324Z"/>
    <g id="Group_2146" data-name="Group 2146">
      <path id="Path_1099" data-name="Path 1099" class="cls-2" d="M300.825,422.007a255.1,255.1,0,0,0,16.5-43.757l-16.5-16.5Z"/>
      <path id="Path_1100" data-name="Path 1100" class="cls-2" d="M319.377,102.906c-4.989-19.087-11.166-36.439-18.552-51.229V121.45Z"/>
    </g>
    <g id="Group_2147" data-name="Group 2147">
      <path id="Path_1101" data-name="Path 1101" class="cls-3" d="M332.234,295.092q.4-4.285.744-8.605h-9.349Z"/>
      <path id="Path_1102" data-name="Path 1102" class="cls-3" d="M300.825,121.451V51.674c-5.976-11.97-12.737-22.254-20.284-30.429V151.151l40.735-40.735c-.613-2.543-1.257-5.034-1.9-7.517Z"/>
      <path id="Path_1103" data-name="Path 1103" class="cls-3" d="M281.229,196.737h52.429c-1.028-16.192-2.666-32.123-4.944-47.482Z"/>
      <path id="Path_1104" data-name="Path 1104" class="cls-3" d="M280.545,452.432c7.547-8.182,14.308-18.459,20.284-30.429V361.747l16.5,16.5a408.467,408.467,0,0,0,9.525-42.261l-46.307-46.3V452.432Z"/>
    </g>
    <path id="Path_1105" data-name="Path 1105" class="cls-8" d="M280.545,452.432V289.681l46.3,46.307c2.277-13.2,4.069-26.9,5.381-40.9l-8.605-8.605h9.349a636.724,636.724,0,0,0,.681-89.75H281.226l47.482-47.482c-2-13.455-4.476-26.469-7.434-38.836l-40.728,40.735V21.248C268.1,7.763,253.549,0,236.836,0q-5.907,0-11.817.292a238.416,238.416,0,0,0-34.225,4.215V196.038L66.808,72.055A239.134,239.134,0,0,0,45.619,97.144l79.313,79.313,20.291,20.284H3.448a236.259,236.259,0,0,0,1.8,89.746H190.084L70.847,405.724a238.535,238.535,0,0,0,24.921,21.349l95.023-95.023V469.166a238.635,238.635,0,0,0,34.232,4.215c3.938.191,7.872.3,11.81.3C253.549,473.68,268.1,465.917,280.545,452.432Z"/>
  </g>
</svg>
