<svg xmlns="http://www.w3.org/2000/svg" viewBox="0 0 250.804 186.702">
  <defs>
    <style>
      .cls-1 {
        fill: #ed037c;
      }
    </style>
  </defs>
  <g id="Group_1735" data-name="Group 1735" transform="translate(0.002 -0.098)">
    <path id="Path_725" data-name="Path 725" class="cls-1" d="M217.6,182.3v-4.5H33.3A24.241,24.241,0,0,1,9,153.5V33.3A24.241,24.241,0,0,1,33.3,9H217.6a24.241,24.241,0,0,1,24.3,24.3V153.5a24.241,24.241,0,0,1-24.3,24.3v9a33.118,33.118,0,0,0,33.2-33.2V33.3A33.118,33.118,0,0,0,217.6.1H33.3A32.951,32.951,0,0,0,0,33.2V153.4a33.118,33.118,0,0,0,33.2,33.2H217.5v-4.3Z"/>
    <path id="Path_726" data-name="Path 726" class="cls-1" d="M106.3,51.5a3.542,3.542,0,0,0-3.5,3.5v76.7a3.476,3.476,0,0,0,3.5,3.5,3.534,3.534,0,0,0,1.9-.6l57.9-38.4a3.55,3.55,0,0,0,0-5.9L108.2,51.9a6.457,6.457,0,0,0-1.9-.4"/>
  </g>
</svg>
