<svg xmlns="http://www.w3.org/2000/svg" width="124.704" height="125.968" viewBox="0 0 124.704 125.968">
  <g id="Group_1764" data-name="Group 1764" transform="translate(897.701 238.928)">
    <g id="wallet" transform="translate(-897.701 -238.928)">
      <path id="Path_1801" data-name="Path 1801" d="M126.382,58.681h-6.043V30.88A12.1,12.1,0,0,0,108.25,18.791h-8.184L91.691,3.731A7.253,7.253,0,0,0,81.827.914L49.677,18.791H13.77A12.1,12.1,0,0,0,1.681,30.88v83A12.1,12.1,0,0,0,13.77,125.967h94.483a12.1,12.1,0,0,0,12.089-12.089V89.509h6.043ZM108.253,23.627a7.253,7.253,0,0,1,7.172,6.446h-9.086l-3.583-6.446ZM84.174,5.141a2.463,2.463,0,0,1,3.284.937l13.345,24H39.34ZM115.506,113.88a7.253,7.253,0,0,1-7.253,7.253H13.77a7.253,7.253,0,0,1-7.253-7.253v-83a7.253,7.253,0,0,1,7.253-7.253H40.985l-11.6,6.449h-14.1a2.418,2.418,0,1,0,0,4.836H115.5V58.687H97.827A14.912,14.912,0,0,0,82.935,73.579v1.039A14.912,14.912,0,0,0,97.827,89.509h17.679Zm6.046-29.211H97.827A10.067,10.067,0,0,1,87.768,74.611V73.573A10.067,10.067,0,0,1,97.827,63.515h23.725ZM105.233,74.292a6.576,6.576,0,0,1-.07.864,5.261,5.261,0,0,1-5.27,4.474,5.338,5.338,0,1,1,5.34-5.338Z" transform="translate(-1.681)" fill="#63b190"/>
    </g>
  </g>
</svg>
