<svg xmlns="http://www.w3.org/2000/svg" viewBox="0 0 250.981 233.7">
  <defs>
    <style>
      .cls-1 {
        fill: #63b190;
      }
    </style>
  </defs>
  <g id="Group_1744" data-name="Group 1744" transform="translate(974 286)">
    <path id="Path_765" data-name="Path 765" class="cls-1" d="M248.4,92.5A116.914,116.914,0,0,0,134.3,0a113.128,113.128,0,0,0-24.4,2.6A115.722,115.722,0,0,0,51.8,34.1,116.9,116.9,0,0,0,22,84.6H2.2A2.176,2.176,0,0,0,.4,88L24,124.2a2.149,2.149,0,0,0,3.6,0L51.5,88a2.192,2.192,0,0,0-1.8-3.4H31.4A108.2,108.2,0,0,1,58.2,40.4a106.21,106.21,0,0,1,53.6-29,107.234,107.234,0,0,1,89.8,21.3,106.919,106.919,0,0,1,38,61.7,107.234,107.234,0,0,1-21.3,89.8,106.919,106.919,0,0,1-61.7,38,109,109,0,0,1-22.5,2.4,107.893,107.893,0,0,1-78.8-34.4,4.528,4.528,0,0,0-6.6,6.2,116.888,116.888,0,0,0,85.4,37.3,113.127,113.127,0,0,0,24.4-2.6A116.914,116.914,0,0,0,251,117,113.372,113.372,0,0,0,248.4,92.5Z" transform="translate(-974.02 -286)"/>
    <g id="wallet" transform="translate(-897.701 -238.928)">
      <path id="Path_1801" data-name="Path 1801" class="cls-1" d="M126.382,58.681h-6.043V30.88A12.1,12.1,0,0,0,108.25,18.791h-8.184L91.691,3.731A7.253,7.253,0,0,0,81.827.914L49.677,18.791H13.77A12.1,12.1,0,0,0,1.681,30.88v83A12.1,12.1,0,0,0,13.77,125.967h94.483a12.1,12.1,0,0,0,12.089-12.089V89.509h6.043ZM108.253,23.627a7.253,7.253,0,0,1,7.172,6.446h-9.086l-3.583-6.446ZM84.174,5.141a2.463,2.463,0,0,1,3.284.937l13.345,24H39.34ZM115.506,113.88a7.253,7.253,0,0,1-7.253,7.253H13.77a7.253,7.253,0,0,1-7.253-7.253v-83a7.253,7.253,0,0,1,7.253-7.253H40.985l-11.6,6.449h-14.1a2.418,2.418,0,1,0,0,4.836H115.5V58.687H97.827A14.912,14.912,0,0,0,82.935,73.579v1.039A14.912,14.912,0,0,0,97.827,89.509h17.679Zm6.046-29.211H97.827A10.067,10.067,0,0,1,87.768,74.611V73.573A10.067,10.067,0,0,1,97.827,63.515h23.725ZM105.233,74.292A5.338,5.338,0,1,1,99.9,68.954a5.338,5.338,0,0,1,5.333,5.338Z" transform="translate(-1.681)"/>
    </g>
  </g>
</svg>
