<svg xmlns="http://www.w3.org/2000/svg" viewBox="0 0 259.21 273.28"><defs><style>.cls-1{isolation:isolate;}.cls-2{fill:none;stroke:#f7941d;stroke-linecap:round;stroke-linejoin:round;stroke-width:9px;mix-blend-mode:multiply;}.cls-3{fill:#a97c51;}.cls-4{fill:#3a2415;}.cls-5{fill:#ed0a7c;}.cls-6{fill:#60b18f;}.cls-7{fill:#cf212a;}.cls-8{fill:#f7941d;}</style></defs><title>Asset 1</title><g class="cls-1"><g id="Layer_2" data-name="Layer 2"><g id="Layer_1-2" data-name="Layer 1"><line class="cls-2" x1="4.5" y1="268.1" x2="4.5" y2="84.83"/><line class="cls-2" x1="60.82" y1="268.1" x2="4.5" y2="268.1"/><line class="cls-2" x1="60.82" y1="124.56" x2="60.82" y2="268.1"/><line class="cls-2" x1="198.76" y1="124.56" x2="60.82" y2="124.56"/><line class="cls-2" x1="198.76" y1="268.1" x2="198.76" y2="124.56"/><line class="cls-2" x1="254.71" y1="268.1" x2="198.76" y2="268.1"/><line class="cls-2" x1="254.71" y1="84.83" x2="254.71" y2="268.1"/><line class="cls-2" x1="129.61" y1="4.5" x2="254.71" y2="84.83"/><line class="cls-2" x1="4.5" y1="84.83" x2="129.61" y2="4.5"/><rect class="cls-3" x="82.64" y="247.76" width="41.53" height="25.52"/><rect class="cls-4" x="82.64" y="212.7" width="41.53" height="25.52"/><rect class="cls-5" x="82.64" y="177.63" width="41.53" height="25.52"/><rect class="cls-6" x="82.64" y="142.57" width="41.53" height="25.52"/><rect class="cls-7" x="135.4" y="247.76" width="41.53" height="25.52"/><rect class="cls-8" x="135.4" y="212.7" width="41.53" height="25.52"/><rect class="cls-3" x="135.4" y="177.63" width="41.53" height="25.52"/><line class="cls-2" x1="235.31" y1="25.11" x2="235.31" y2="72.51"/><line class="cls-2" x1="194.12" y1="25.11" x2="235.31" y2="25.11"/><line class="cls-2" x1="194.12" y1="46.06" x2="194.12" y2="25.11"/></g></g></g></svg>