<svg xmlns="http://www.w3.org/2000/svg" width="202.889" height="202.35" viewBox="0 0 202.889 202.35">
  <g id="Group_2263" data-name="Group 2263" transform="translate(933.729 -2887.5)">
    <g id="Group_1769" data-name="Group 1769" transform="translate(-933.485 2887.45)">
      <path id="Path_817" data-name="Path 817" d="M170.6,175.9H31.9a5.376,5.376,0,0,1-4.8-7.8L96.4,29.4a5.34,5.34,0,0,1,9.6,0l69.4,138.7A5.376,5.376,0,0,1,170.6,175.9Z" fill="none" stroke="#f7941d" stroke-linecap="round" stroke-linejoin="round" stroke-miterlimit="10" stroke-width="9"/>
      <path id="Path_818" data-name="Path 818" d="M173.7,197.9H28.7a24.137,24.137,0,0,1-21.6-35l72.5-145C88.5.1,113.9.1,122.8,17.9l72.5,145A24.137,24.137,0,0,1,173.7,197.9Z" fill="none" stroke="#f7941d" stroke-linecap="round" stroke-linejoin="round" stroke-miterlimit="10" stroke-width="9"/>
      <line id="Line_25" data-name="Line 25" y2="42.2" transform="translate(101.2 80.2)" fill="none" stroke="#3c2415" stroke-linecap="round" stroke-linejoin="round" stroke-miterlimit="10" stroke-width="9"/>
      <circle id="Ellipse_9" data-name="Ellipse 9" cx="9.5" cy="9.5" r="9.5" transform="translate(91.7 137.2)" fill="#3c2415"/>
    </g>
  </g>
</svg>
