<?xml version="1.0" encoding="UTF-8" standalone="no"?>
<!DOCTYPE svg PUBLIC "-//W3C//DTD SVG 1.1//EN" "http://www.w3.org/Graphics/SVG/1.1/DTD/svg11.dtd">
<svg width="100%" height="100%" viewBox="0 0 952 975" version="1.1" xmlns="http://www.w3.org/2000/svg" xmlns:xlink="http://www.w3.org/1999/xlink" xml:space="preserve" xmlns:serif="http://www.serif.com/" style="fill-rule:evenodd;clip-rule:evenodd;stroke-linecap:round;stroke-linejoin:round;stroke-miterlimit:10;">
    <g transform="matrix(1,0,0,1,-20732.4,-38.0054)">
        <g transform="matrix(4.16667,0,0,4.16667,12770.3,0)">
            <g transform="matrix(0.203101,0.979158,0.979158,-0.203101,2049.9,50.1572)">
                <path d="M-10.282,-12.634L15.523,-12.634" style="fill:none;fill-rule:nonzero;stroke:rgb(237,2,124);stroke-width:9px;"/>
            </g>
        </g>
        <g transform="matrix(4.16667,0,0,4.16667,12770.3,0)">
            <g transform="matrix(0.992019,-0.126088,-0.126088,-0.992019,2044.36,27.8773)">
                <path d="M1.212,5.452L64.493,5.452C64.493,5.452 89.472,7.072 87.002,-12.355C84.533,-31.782 60.754,-23.964 60.754,-23.964L-0.515,-8.133" style="fill:none;fill-rule:nonzero;stroke:rgb(208,31,38);stroke-width:9px;"/>
            </g>
        </g>
        <g transform="matrix(4.16667,0,0,4.16667,12770.3,0)">
            <g transform="matrix(-0.992019,-0.12609,-0.12609,0.992019,1914.9,30.4501)">
                <path d="M-86.138,-19.148L-22.858,-19.148C-22.858,-19.148 2.121,-20.768 -0.349,-1.341C-2.818,18.086 -26.597,10.268 -26.597,10.268L-87.865,-5.563" style="fill:none;fill-rule:nonzero;stroke:rgb(208,31,38);stroke-width:9px;"/>
            </g>
        </g>
        <g transform="matrix(4.16667,0,0,4.16667,12770.3,0)">
            <g transform="matrix(0.195745,-0.980655,-0.980655,-0.195745,2021.19,60.194)">
                <path d="M-10.416,12.7L15.486,12.7" style="fill:none;fill-rule:nonzero;stroke:rgb(237,2,124);stroke-width:9px;"/>
            </g>
        </g>
        <g transform="matrix(4.16667,0,0,4.16667,12770.3,0)">
            <g transform="matrix(-1,0,0,1,1976.42,133.993)">
                <g>
                    <path d="M-15.1,0L0,0" style="fill:none;fill-rule:nonzero;stroke:rgb(247,147,29);stroke-width:9px;"/>
                </g>
            </g>
        </g>
        <g transform="matrix(4.16667,0,0,4.16667,12770.3,0)">
            <g transform="matrix(1,0,0,1,2058.19,149.093)">
                <g>
                    <path d="M0,-13.995C0,-13.995 -5.156,0.369 -32.042,0.737C-58.928,1.105 -66.662,-15.1 -66.662,-15.1" style="fill:none;fill-rule:nonzero;stroke:rgb(247,147,29);stroke-width:9px;"/>
                </g>
            </g>
        </g>
        <g transform="matrix(4.16667,0,0,4.16667,12770.3,0)">
            <g transform="matrix(-0.753109,-0.657896,-0.657896,0.753109,2071.01,126.656)">
                <g>
                    <path d="M-22.08,14.794C-14.468,1.23 1.241,4.52 4.104,14.794" style="fill:none;fill-rule:nonzero;stroke:rgb(247,147,29);stroke-width:9px;"/>
                </g>
            </g>
        </g>
        <g transform="matrix(4.16667,0,0,4.16667,12770.3,0)">
            <g transform="matrix(0.999932,-0.0116724,-0.0116724,-0.999932,2070.71,152.45)">
                <g>
                    <path d="M0,0.042L7.196,0.042" style="fill:none;fill-rule:nonzero;stroke:rgb(247,147,29);stroke-width:9px;"/>
                </g>
            </g>
        </g>
        <g transform="matrix(4.16667,0,0,4.16667,12770.3,0)">
            <g transform="matrix(-0.00309434,-0.999995,-0.999995,0.00309434,2080.27,161.883)">
                <g>
                    <path d="M-9.563,9.534L9.504,9.534" style="fill:none;fill-rule:nonzero;stroke:rgb(247,147,29);stroke-width:9px;"/>
                </g>
            </g>
        </g>
        <g transform="matrix(4.16667,0,0,4.16667,12770.3,0)">
            <g transform="matrix(1,0,0,1,2134.44,171.475)">
                <g>
                    <path d="M0,-1.462C-0.034,-0.976 -0.071,-0.489 -0.111,0L-63.671,0" style="fill:none;fill-rule:nonzero;stroke:rgb(247,147,29);stroke-width:9px;"/>
                </g>
            </g>
        </g>
        <g transform="matrix(4.16667,0,0,4.16667,12770.3,0)">
            <g transform="matrix(0.680721,0.732543,0.732543,-0.680721,2100.38,71.5458)">
                <g>
                    <path d="M-16.699,-42.078C17.727,-2.585 60.496,-4.818 95.317,-42.078" style="fill:none;fill-rule:nonzero;stroke:rgb(247,147,29);stroke-width:9px;"/>
                </g>
            </g>
        </g>
        <g transform="matrix(4.16667,0,0,4.16667,12770.3,0)">
            <g transform="matrix(0,1,1,0,2068.13,78.0121)">
                <g>
                    <path d="M-9.944,-9.944L9.944,-9.944" style="fill:none;fill-rule:nonzero;stroke:rgb(247,147,29);stroke-width:9px;"/>
                </g>
            </g>
        </g>
        <g transform="matrix(4.16667,0,0,4.16667,12770.3,0)">
            <g transform="matrix(1,0,0,1,1991.52,68.0681)">
                <g>
                    <path d="M0,0L66.662,0" style="fill:none;fill-rule:nonzero;stroke:rgb(247,147,29);stroke-width:9px;"/>
                </g>
            </g>
        </g>
        <g transform="matrix(4.16667,0,0,4.16667,12770.3,0)">
            <g transform="matrix(0.00153688,-0.999999,-0.999999,-0.00153688,2001.27,77.8577)">
                <g>
                    <path d="M-9.745,9.76L9.775,9.76" style="fill:none;fill-rule:nonzero;stroke:rgb(247,147,29);stroke-width:9px;"/>
                </g>
            </g>
        </g>
        <g transform="matrix(4.16667,0,0,4.16667,12770.3,0)">
            <g transform="matrix(1,0,0,1,1976.42,87.5877)">
                <g>
                    <path d="M0,0L15.069,0" style="fill:none;fill-rule:nonzero;stroke:rgb(247,147,29);stroke-width:9px;"/>
                </g>
            </g>
        </g>
        <g transform="matrix(4.16667,0,0,4.16667,12770.3,0)">
            <g transform="matrix(0.83205,0.5547,0.5547,-0.83205,1965.92,74.8323)">
                <g>
                    <path d="M-1.45,-4.788L15.814,-4.788" style="fill:none;fill-rule:nonzero;stroke:rgb(59,35,20);stroke-width:9px;"/>
                </g>
            </g>
        </g>
        <g transform="matrix(4.16667,0,0,4.16667,12770.3,0)">
            <g transform="matrix(1,0,0,1,1943.97,78.012)">
                <g>
                    <path d="M0,0L18.093,0" style="fill:none;fill-rule:nonzero;stroke:rgb(59,35,20);stroke-width:9px;"/>
                </g>
            </g>
        </g>
        <g transform="matrix(4.16667,0,0,4.16667,12770.3,0)">
            <g transform="matrix(-0.000693879,-1,-1,0.000693879,1977.14,111.113)">
                <g>
                    <path d="M-33.17,33.147L33.124,33.147" style="fill:none;fill-rule:nonzero;stroke:rgb(59,35,20);stroke-width:9px;"/>
                </g>
            </g>
        </g>
        <g transform="matrix(4.16667,0,0,4.16667,12770.3,0)">
            <g transform="matrix(-0.952922,0.303215,0.303215,0.952922,1946.72,151.409)">
                <g>
                    <path d="M-33.589,-7.588C-23.282,0.007 -10.494,-1.501 0.423,-7.588" style="fill:none;fill-rule:nonzero;stroke:rgb(59,35,20);stroke-width:9px;"/>
                </g>
            </g>
        </g>
        <g transform="matrix(4.16667,0,0,4.16667,12770.3,0)">
            <g transform="matrix(-0.999968,-0.0079443,-0.0079443,0.999968,2104.01,239.089)">
                <path d="M-0.162,-54.998C-0.162,-54.998 17.009,-22.067 14.562,-14.023C13.779,-5.967 6.054,-0.696 -0.162,-0.745C-8.347,-0.064 -14.43,-6.633 -15.714,-14.349C-17.444,-26.062 -0.162,-54.998 -0.162,-54.998Z" style="fill:none;fill-rule:nonzero;stroke:rgb(98,176,143);stroke-width:9px;"/>
            </g>
        </g>
        <g transform="matrix(4.16667,0,0,4.16667,12770.3,0)">
            <g transform="matrix(0,-1,-1,0,2023.78,5.6833)">
                <g>
                    <ellipse cx="-23.48" cy="0" rx="15.542" ry="23.48" style="fill:none;stroke:rgb(59,35,20);stroke-width:9px;"/>
                </g>
            </g>
        </g>
    </g>
</svg>
