<svg xmlns="http://www.w3.org/2000/svg" width="77.349" height="77.36" viewBox="0 0 77.349 77.36">
  <g id="web" transform="translate(-1266.665 -495.432)">
    <g id="Grupo_2265" data-name="Grupo 2265" transform="translate(1267.25 496.017)">
      <g id="Grupo_2264" data-name="Grupo 2264" transform="translate(0 0)">
        <g id="Grupo_2263" data-name="Grupo 2263" transform="translate(0 0)">
          <path id="Trazado_1963" data-name="Trazado 1963" d="M25.039,73.213a85.144,85.144,0,0,0,9.325-17.847c6.087.315,12.184.87,18.238,1.728A36.034,36.034,0,0,1,25.039,73.213M-7.306,57.486c5.565-.859,11.162-1.467,16.749-1.869A63,63,0,0,0,19.29,73.159a36.081,36.081,0,0,1-26.6-15.673M19.55,1.37a84.978,84.978,0,0,0-8.858,16.64q-8.706-.554-17.347-1.859A36.076,36.076,0,0,1,19.55,1.37M51.972,16.543q-8.559,1.158-17.14,1.619a63.727,63.727,0,0,0-9.6-16.814A36.045,36.045,0,0,1,51.972,16.543m6.565,19.705h-20.5a49.864,49.864,0,0,0-2.489-16.075c5.9-.326,11.814-.88,17.694-1.717a35.862,35.862,0,0,1,5.293,17.792M23.963,20.532c3.185,0,6.369-.087,9.554-.239a47.326,47.326,0,0,1,2.619,15.955H8.519a54.949,54.949,0,0,1,3.456-16.064c3.989.239,7.989.348,11.988.348M22.507,1.24a64,64,0,0,1,10.26,17.01c-6.663.293-13.347.261-20-.1a87.633,87.633,0,0,1,9.347-16.9c.13,0,.261-.011.391-.011M-7.937,18.065q8.9,1.386,17.857,1.978A57.1,57.1,0,0,0,6.606,36.248h-20.1A35.752,35.752,0,0,1-7.937,18.065M-8.5,55.584A35.961,35.961,0,0,1-13.491,38.3H6.54A49.5,49.5,0,0,0,8.779,53.6c-5.76.424-11.521,1.065-17.238,1.967-.022.011-.033.022-.043.022M10.79,53.475A47,47,0,0,1,8.464,38.3H36.071a54.782,54.782,0,0,1-3.054,14.945,207.733,207.733,0,0,0-22.227.228M22.5,73.311c-.163,0-.315-.011-.456-.011A63.014,63.014,0,0,1,11.507,55.486a200.569,200.569,0,0,1,20.77-.207A87.867,87.867,0,0,1,22.5,73.311m31-18.183c-6.119-.88-12.271-1.456-18.423-1.782A56.956,56.956,0,0,0,37.984,38.3H58.537a36.021,36.021,0,0,1-4.771,16.923.816.816,0,0,0-.272-.1M60.613,37.27A38.09,38.09,0,1,0,21.42,75.343c.043,0,.087.022.13.022a.391.391,0,0,0,.12-.022c.293.011.565.022.859.022.141,0,.283,0,.435-.011a.138.138,0,0,0,.065.011c.022,0,.043-.011.065-.011A38.133,38.133,0,0,0,60.613,37.27" transform="translate(15.567 0.825)" fill="#00a3d2" stroke="#00a3d2" stroke-width="1.17"/>
        </g>
      </g>
    </g>
  </g>
</svg>
