<svg xmlns="http://www.w3.org/2000/svg" viewBox="0 0 158.554 230.238">
  <defs>
    <style>
      .cls-1 {
        fill: none;
      }

      .cls-2 {
        fill: #63b190;
      }
    </style>
  </defs>
  <g id="Group_1748" data-name="Group 1748" transform="translate(0.054 0.038)">
    <path id="Path_771" data-name="Path 771" class="cls-1" d="M40.9,148.5h0a97.066,97.066,0,0,0,9.5,5h0a79.4,79.4,0,0,0,18.3,5.9,59.256,59.256,0,0,0,18.3.5,62.408,62.408,0,0,0,18.4-5.4,90.377,90.377,0,0,0,19.8-12.9c7.4-13.6,8.1-25.2,8.1-25.3v-.2a.9.9,0,0,1,.1-.5c0-.1.1-.3.1-.4s.1-.3.1-.4c.1-.1.1-.3.2-.4s.1-.2.2-.4l.3-.3.3-.3.3-.3c.1-.1.3-.2.4-.3s.2-.1.3-.2a.349.349,0,0,0,.2-.1c.1,0,.1,0,.2-.1.1,0,.2-.1.3-.1a1.087,1.087,0,0,1,.5-.1h1.3a.9.9,0,0,1,.5.1c.1,0,.3.1.4.1s.3.1.4.1c.1.1.3.1.4.2s.2.1.4.2l.3.3.3.3.3.3.3.3a.758.758,0,0,1,.2.4c0,.1.1.1.1.2a7.418,7.418,0,0,0,1,1.6,14.814,14.814,0,0,0-.6-4.9v-.3c0-.2-.1-.3-.1-.5v-.8c0-.1.1-.3.1-.4s.1-.3.1-.4a.758.758,0,0,1,.2-.4c.1-.1.1-.3.2-.4s.2-.3.3-.4.1-.2.2-.3c4.4-5.2,3.9-10.6,2.4-11.9-.6-.5-2.4.3-4.4,2.6l-7.9,8.9V63.8a81.077,81.077,0,0,0-.5-8.6,4.2,4.2,0,0,1-1.2-2.6c-1.2-11.2-8.4-19.4-17.2-25.3,10.2,10.5,18.2,24.3,15.1,40.8a4.486,4.486,0,0,1-4.4,3.7,2.2,2.2,0,0,1-.8-.1,4.5,4.5,0,0,1-3.6-5.2c5-27.2-30.1-47.2-40-52.3-1.5-.3-2.7-.5-3.6-.7-.3.1-.7.1-1.2.2-5.8,3-24.8,14-22.1,28.4a4.445,4.445,0,0,1-3.6,5.2,2.2,2.2,0,0,1-.8.1,4.486,4.486,0,0,1-4.4-3.7,34.765,34.765,0,0,1-.4-5.5,4.146,4.146,0,0,1-1.6.3h-.5a4.469,4.469,0,0,1-4-4.9,25.113,25.113,0,0,1,8-15.8C32.7,26.2,21.8,41,23.2,63.5v41.8l-7.6-7.1c-2.7-2.5-4.4-2.8-5-2.7a3.864,3.864,0,0,0-1.5,2.7,10.58,10.58,0,0,0,4,9.8l.1.1a1.381,1.381,0,0,0,.4.3l.3.3a.52.52,0,0,1,.2.4.52.52,0,0,1,.2.4c.1.1.1.3.2.4s.1.3.2.4c0,.1.1.3.1.4s.1.3.1.4v.8a.6.6,0,0,1-.1.4c0,.2-.1.3-.1.5v.1a12.908,12.908,0,0,0-.6,2.6,6.89,6.89,0,0,0,.3-.8h0v-.1a4.875,4.875,0,0,1,.3-.7,1.38,1.38,0,0,0,.3-.4c.1-.1.2-.2.2-.3l.3-.3.3-.3c.1-.1.2-.1.3-.2s.3-.2.4-.3a.367.367,0,0,1,.3-.1c.2-.1.3-.1.5-.2a1.268,1.268,0,0,1,.6-.1h1.2a2.92,2.92,0,0,1,.9.2h.1c.3.1.5.2.8.3a1.381,1.381,0,0,0,.4.3c.1.1.2.2.3.2l.3.3.3.3a13112491309371.662,13112491309371.662,0,0,1,.4.8c.1.1.1.3.2.4s.1.3.2.4c.1.3.1.5.2.8v.1h0A72.82,72.82,0,0,0,32,142.3,79.705,79.705,0,0,0,40.9,148.5Zm10.2-47.6a4.481,4.481,0,0,1,4.5-4.5h7.9a4.5,4.5,0,0,1,0,9H55.6A4.546,4.546,0,0,1,51.1,100.9Zm47.1,47.9a43.25,43.25,0,0,1-18.4,4,44.116,44.116,0,0,1-19.6-4.6,4.472,4.472,0,1,1,4-8,34.818,34.818,0,0,0,30.2.5,4.535,4.535,0,0,1,6,2.2A4.4,4.4,0,0,1,98.2,148.8ZM74.8,128.5v-7.9a4.5,4.5,0,0,1,9,0v7.9a4.5,4.5,0,0,1-9,0ZM103,105.4H95.1a4.5,4.5,0,0,1,0-9H103a4.5,4.5,0,0,1,0,9Zm17.5-30.1a4.563,4.563,0,0,1-5.9,2.4l-15-6.4L79.5,76.6l-17-4.8L47,77.7a4.494,4.494,0,0,1-3.2-8.4l18.3-7,17.5,4.9,20.7-5.5,17.9,7.7A4.484,4.484,0,0,1,120.5,75.3ZM43.2,57.5l18.3-7L79,55.4l20.7-5.5,17.9,7.7a4.5,4.5,0,1,1-3.5,8.3l-15-6.4L79,64.8,62,60.1,46.5,66a4.475,4.475,0,0,1-5.8-2.6A4.317,4.317,0,0,1,43.2,57.5Z"/>
    <path id="Path_772" data-name="Path 772" class="cls-2" d="M144.7,142a1.911,1.911,0,0,0,2.4.4c.4-.6,0-2.4-.8-4.7Z"/>
    <path id="Path_773" data-name="Path 773" class="cls-2" d="M9.5,142.5l1,.4a2.54,2.54,0,0,0,1.4-.8l-1.7-4.3C9.5,140.1,9.2,141.9,9.5,142.5Z"/>
    <path id="Path_774" data-name="Path 774" class="cls-2" d="M44.8,66.2a4.529,4.529,0,0,0,1.6-.3L61.9,60l17,4.7L99,59.4l15,6.4a4.5,4.5,0,1,0,3.5-8.3L99.6,49.8,78.9,55.3,61.4,50.4l-18.3,7a4.51,4.51,0,0,0-2.6,5.8A4.6,4.6,0,0,0,44.8,66.2Z"/>
    <path id="Path_775" data-name="Path 775" class="cls-2" d="M118.2,69.4l-17.9-7.7L79.6,67.2,62,62.3l-18.3,7a4.494,4.494,0,1,0,3.2,8.4l15.5-5.9,17,4.8,20.1-5.3,15,6.4a4.546,4.546,0,0,0,3.7-8.3Z"/>
    <path id="Path_776" data-name="Path 776" class="cls-2" d="M158.5,215.1a.9.9,0,0,0-.1-.5v-.3c0-.1,0-.1-.1-.2v-.2l-24.5-69.2a77.076,77.076,0,0,0,7.2-19.3,9.484,9.484,0,0,0,2.3.5l-6.5,16.8.8,1.4c.3.6,3.2,5.7,8.5,5.7a9.406,9.406,0,0,0,5.1-1.7c7.6-5.2-.5-18.6-2.2-21.2l-1.4-2.1c2.3-1.4,5.5-4.9,4-13.6,6.2-8.8,5.1-18.4,0-22.7a9.926,9.926,0,0,0-9.2-2V63.8C142.4,32.2,125,9.1,95.8,2h0a73.139,73.139,0,0,0-31.6-.6C39.7,6.3,11.9,25.6,14.1,64V87.1a10.133,10.133,0,0,0-6.5.1C3.7,88.5,1,92.2.2,97a19.494,19.494,0,0,0,5.1,16.4c-1.1,5.9.8,9.9,3.7,11.7l-1.4,2.1c-1.7,2.6-9.8,16.1-2.2,21.2a8.907,8.907,0,0,0,5.1,1.7c5.3,0,8.2-5.1,8.5-5.7l.8-1.4-6.5-16.8a8.519,8.519,0,0,0,2.3-.4,82.754,82.754,0,0,0,8,20.7L2.8,212.4c0,.1-.1.3-.1.4,0,.2-.1.3-.1.5v.8c0,.1.1.3.1.4a.6.6,0,0,0,.1.4.758.758,0,0,0,.2.4c.1.1.1.3.2.4a.52.52,0,0,1,.2.4c.1.1.1.3.2.4l.3.3.3.3c.1.1.2.2.3.2a1.38,1.38,0,0,0,.4.3c.1.1.3.1.4.2s.3.1.4.2c2.2.7,4.4,1.5,6.5,2.2a134.5,134.5,0,0,0,16.3,4.9h0c6.4,1.4,13,2.5,19.6,3.3,6.4.8,13,1.3,19.6,1.6,3.3.1,6.7.2,10.1.2,3.1,0,6.3-.1,9.4-.2h0c6.5-.2,13.2-.7,19.9-1.4h0c6.5-.7,13.2-1.6,19.8-2.8,9.8-1.7,17.2-3.2,28.2-6.1.1,0,.1,0,.1-.1.1,0,.1,0,.2-.1a.349.349,0,0,0,.2-.1c.1-.1.3-.1.4-.2s.2-.1.4-.2a1.381,1.381,0,0,1,.4-.3l.3-.3.3-.3a1.381,1.381,0,0,0,.3-.4.52.52,0,0,0,.2-.4c.1-.1.1-.3.2-.4a.6.6,0,0,0,.1-.4c0-.1.1-.3.1-.4s.1-.3.1-.4v-.5C158.5,215.4,158.5,215.2,158.5,215.1Zm-11.3-72.7a1.911,1.911,0,0,1-2.4-.4l1.7-4.3C147.2,140,147.5,141.8,147.2,142.4Zm-136.6.5-1-.4c-.4-.6-.1-2.4.8-4.7l1.7,4.3A3.677,3.677,0,0,1,10.6,142.9Zm12.5-26.8h0a2.388,2.388,0,0,0-.2-.9.758.758,0,0,0-.2-.4c-.1-.1-.1-.3-.2-.4a.52.52,0,0,1-.2-.4c-.1-.1-.1-.3-.2-.4l-.3-.3-.3-.3c-.1-.1-.2-.2-.3-.2a1.381,1.381,0,0,0-.4-.3,6.891,6.891,0,0,0-.8-.3h-.1a2.92,2.92,0,0,0-.9-.2H17.8c-.2,0-.4.1-.6.1s-.3.1-.5.2c-.1,0-.2.1-.3.1-.1.1-.3.2-.4.3s-.2.1-.3.2l-.3.3-.3.3c-.1.1-.2.2-.2.3a1.38,1.38,0,0,0-.3.4c-.1.2-.2.5-.3.7v.1h0c-.1.3-.2.5-.3.8a22.3,22.3,0,0,1,.6-2.6v-.1c0-.2.1-.3.1-.5,0-.1.1-.3.1-.4v-.8a.6.6,0,0,0-.1-.4c0-.1-.1-.3-.1-.4a.758.758,0,0,0-.2-.4c-.1-.1-.1-.3-.2-.4a.758.758,0,0,1-.2-.4.52.52,0,0,1-.2-.4l-.3-.3a1.381,1.381,0,0,0-.4-.3l-.1-.1a10.516,10.516,0,0,1-4-9.8c.3-1.6.9-2.6,1.5-2.7.5-.2,2.3.1,5,2.7l7.6,7.1V63.5C21.7,41,32.6,26.2,46.3,17.8a25.113,25.113,0,0,0-8,15.8,4.36,4.36,0,0,0,4,4.9h.5a4.146,4.146,0,0,0,1.6-.3,20.712,20.712,0,0,0,.4,5.5,4.486,4.486,0,0,0,4.4,3.7,2.2,2.2,0,0,0,.8-.1,4.5,4.5,0,0,0,3.6-5.2C51,27.7,70,16.8,75.8,13.8a5.987,5.987,0,0,1,1.2-.2c.9.1,2.1.4,3.6.7,10,5.1,45.1,25.1,40,52.3a4.445,4.445,0,0,0,3.6,5.2,2.2,2.2,0,0,0,.8.1,4.486,4.486,0,0,0,4.4-3.7c3-16.5-4.9-30.3-15.1-40.8,8.9,5.9,16.1,14.1,17.2,25.3a4.823,4.823,0,0,0,1.2,2.6,79.55,79.55,0,0,1,.5,8.6V107l7.9-8.9c2-2.3,3.8-3.1,4.4-2.6,1.5,1.3,2,6.7-2.4,11.9-.1.1-.1.2-.2.3s-.2.3-.3.4-.1.3-.2.4-.1.3-.2.4c0,.1-.1.3-.1.4s-.1.3-.1.4v.8a.9.9,0,0,0,.1.5v.3a17.858,17.858,0,0,1,.6,4.9,15.767,15.767,0,0,1-1-1.6c0-.1-.1-.1-.1-.2a.758.758,0,0,1-.2-.4l-.3-.3-.3-.3-.3-.3-.3-.3a.52.52,0,0,0-.4-.2c-.1-.1-.3-.1-.4-.2a.6.6,0,0,0-.4-.1c-.1,0-.3-.1-.4-.1-.2,0-.3-.1-.5-.1h-1.3a4.332,4.332,0,0,0-.5.1c-.1,0-.2.1-.3.1s-.1,0-.2.1a.349.349,0,0,0-.2.1c-.1.1-.2.1-.3.2s-.3.2-.4.3l-.3.3-.3.3-.3.3c-.1.1-.1.2-.2.4-.1.1-.1.3-.2.4a.6.6,0,0,0-.1.4c0,.1-.1.3-.1.4,0,.2-.1.3-.1.5v.2c0,.1-.6,11.7-8.1,25.3a86.873,86.873,0,0,1-19.8,12.9A64.2,64.2,0,0,1,87,159.8a59.337,59.337,0,0,1-18.3-.5,74.854,74.854,0,0,1-18.3-5.9h0a97.066,97.066,0,0,1-9.5-5h0c-3-1.8-6-3.8-9-5.9A77.484,77.484,0,0,1,23.1,116.1Zm8,36.8c1.7,1.2,3.5,2.3,5.2,3.3h0a115.385,115.385,0,0,0,10.3,5.5h0a84.192,84.192,0,0,0,20.5,6.6,74.215,74.215,0,0,0,12.4,1.1,81.077,81.077,0,0,0,8.6-.5,71.645,71.645,0,0,0,21.1-6.2A93.542,93.542,0,0,0,126.7,152l9.5,26.7c-3.9,1.8-7.1,3.1-11.3,4.6a150.248,150.248,0,0,1-18.9,5.6,136.844,136.844,0,0,1-18.9,2.8h0a131,131,0,0,1-18.8-.1,130.257,130.257,0,0,1-18.4-2.9,131.689,131.689,0,0,1-18.8-5.9h0c-3.1-1.2-5.5-2.2-8.3-3.5ZM125.5,217c-6.5,1.1-13,2-19.3,2.7h0c-6.5.7-12.9,1.2-19.2,1.4h0q-9.6.3-18.9,0-9.6-.45-18.9-1.5c-6.3-.8-12.7-1.8-18.9-3.1h0a131.239,131.239,0,0,1-15.2-4.6l-2.4-.9L20,188c2.5,1.2,4.9,2.1,7.7,3.2h0a153.824,153.824,0,0,0,20,6.3,134.379,134.379,0,0,0,19.7,3.1c3.5.3,7.1.4,10.7.4,3.2,0,6.3-.1,9.5-.3h0a140.719,140.719,0,0,0,20.2-3,168.051,168.051,0,0,0,20-5.9c4.1-1.5,7.4-2.8,11.2-4.6l8.9,25.2C139.9,214.4,133.5,215.7,125.5,217Z"/>
    <path id="Path_777" data-name="Path 777" class="cls-2" d="M94.5,140.6a34.906,34.906,0,0,1-14.6,3.2,33.516,33.516,0,0,1-15.6-3.7,4.472,4.472,0,1,0-4,8,42.81,42.81,0,0,0,19.6,4.6,44.8,44.8,0,0,0,18.4-4,4.474,4.474,0,1,0-3.8-8.1Z"/>
    <path id="Path_778" data-name="Path 778" class="cls-2" d="M83.8,128.5v-7.9a4.5,4.5,0,0,0-9,0v7.9a4.5,4.5,0,0,0,9,0Z"/>
    <path id="Path_779" data-name="Path 779" class="cls-2" d="M103,96.4H95.1a4.5,4.5,0,0,0,0,9H103a4.5,4.5,0,0,0,0-9Z"/>
    <path id="Path_780" data-name="Path 780" class="cls-2" d="M68,100.9a4.481,4.481,0,0,0-4.5-4.5H55.6a4.5,4.5,0,0,0,0,9h7.9A4.546,4.546,0,0,0,68,100.9Z"/>
  </g>
</svg>
