<svg xmlns="http://www.w3.org/2000/svg" viewBox="0 0 512 512">
  <defs>
    <style>
      .cls-1 {
        fill: #00a3d2;
      }
    </style>
  </defs>
  <path id="Path_715" data-name="Path 715" class="cls-1" d="M456.1,98.5a176.619,176.619,0,0,0-19.8-22.8,176.848,176.848,0,0,0-22.8-19.8C368.8,20.2,313.9,0,256,0,187.9,0,124,27.4,75.7,75.7S0,187.9,0,256c0,58.2,20.2,113.1,55.9,157.8a235.157,235.157,0,0,0,42.3,42.3C142.9,491.8,197.8,512,256,512c68.1,0,132-27.4,180.3-75.7S512,324.1,512,256C512,198.1,491.8,143.2,456.1,98.5ZM61,256A194.946,194.946,0,0,1,370.9,98.5L98.8,370.9A191.185,191.185,0,0,1,61,256ZM394,394a194.756,194.756,0,0,1-138,57,191.191,191.191,0,0,1-114.9-37.8L413.5,141.1A195.208,195.208,0,0,1,394,394Z"/>
</svg>
